{
  "version": "1.1.6",
  "modules": [
    {
      "id": 398,
      "plugin": "MindMeldModular",
      "version": "1.1.12",
      "model": "MixMasterJr",
      "params": [
        {
          "id": 0,
          "value": 0.807232201
        },
        {
          "id": 1,
          "value": 1.0
        },
        {
          "id": 2,
          "value": 1.0
        },
        {
          "id": 3,
          "value": 1.0
        },
        {
          "id": 4,
          "value": 1.0
        },
        {
          "id": 5,
          "value": 1.0
        },
        {
          "id": 6,
          "value": 1.0
        },
        {
          "id": 7,
          "value": 1.0
        },
        {
          "id": 8,
          "value": 1.0
        },
        {
          "id": 9,
          "value": 1.0
        },
        {
          "id": 10,
          "value": 0.5
        },
        {
          "id": 11,
          "value": 0.5
        },
        {
          "id": 12,
          "value": 0.5
        },
        {
          "id": 13,
          "value": 0.5
        },
        {
          "id": 14,
          "value": 0.5
        },
        {
          "id": 15,
          "value": 0.5
        },
        {
          "id": 16,
          "value": 0.5
        },
        {
          "id": 17,
          "value": 0.5
        },
        {
          "id": 18,
          "value": 0.5
        },
        {
          "id": 19,
          "value": 0.5
        },
        {
          "id": 20,
          "value": 1.0
        },
        {
          "id": 21,
          "value": 0.0
        },
        {
          "id": 22,
          "value": 0.0
        },
        {
          "id": 23,
          "value": 0.0
        },
        {
          "id": 24,
          "value": 0.0
        },
        {
          "id": 25,
          "value": 0.0
        },
        {
          "id": 26,
          "value": 0.0
        },
        {
          "id": 27,
          "value": 0.0
        },
        {
          "id": 28,
          "value": 0.0
        },
        {
          "id": 29,
          "value": 0.0
        },
        {
          "id": 30,
          "value": 0.0
        },
        {
          "id": 31,
          "value": 0.0
        },
        {
          "id": 32,
          "value": 0.0
        },
        {
          "id": 33,
          "value": 0.0
        },
        {
          "id": 34,
          "value": 0.0
        },
        {
          "id": 35,
          "value": 0.0
        },
        {
          "id": 36,
          "value": 0.0
        },
        {
          "id": 37,
          "value": 0.0
        },
        {
          "id": 38,
          "value": 0.0
        },
        {
          "id": 39,
          "value": 0.0
        },
        {
          "id": 40,
          "value": 0.0
        },
        {
          "id": 41,
          "value": 0.0
        },
        {
          "id": 42,
          "value": 0.0
        },
        {
          "id": 43,
          "value": 1.0
        },
        {
          "id": 44,
          "value": 0.0
        },
        {
          "id": 45,
          "value": 0.0
        },
        {
          "id": 46,
          "value": 0.0
        },
        {
          "id": 47,
          "value": 0.0
        },
        {
          "id": 48,
          "value": 0.0
        },
        {
          "id": 49,
          "value": 0.0
        },
        {
          "id": 50,
          "value": 0.0
        },
        {
          "id": 51,
          "value": 0.0
        },
        {
          "id": 52,
          "value": 13.0
        },
        {
          "id": 53,
          "value": 13.0
        },
        {
          "id": 54,
          "value": 13.0
        },
        {
          "id": 55,
          "value": 13.0
        },
        {
          "id": 56,
          "value": 13.0
        },
        {
          "id": 57,
          "value": 13.0
        },
        {
          "id": 58,
          "value": 13.0
        },
        {
          "id": 59,
          "value": 13.0
        },
        {
          "id": 60,
          "value": 20010.0
        },
        {
          "id": 61,
          "value": 20010.0
        },
        {
          "id": 62,
          "value": 20010.0
        },
        {
          "id": 63,
          "value": 20010.0
        },
        {
          "id": 64,
          "value": 20010.0
        },
        {
          "id": 65,
          "value": 20010.0
        },
        {
          "id": 66,
          "value": 20010.0
        },
        {
          "id": 67,
          "value": 20010.0
        },
        {
          "id": 68,
          "value": 13.0
        },
        {
          "id": 69,
          "value": 13.0
        },
        {
          "id": 70,
          "value": 20010.0
        },
        {
          "id": 71,
          "value": 20010.0
        }
      ],
      "rightModuleId": 409,
      "data": {
        "trackLabels": "-01--02--03--04--05--06--07--08-GRP1GRP2",
        "panLawMono": 1,
        "panLawStereo": 1,
        "directOutsMode": 3,
        "directOutsSkipGroupedTracks": 0,
        "auxSendsMode": 3,
        "groupsControlTrackSendLevels": 0,
        "auxReturnsMutedWhenMainSolo": 0,
        "auxReturnsSolosMuteDry": 0,
        "chainMode": 0,
        "colorAndCloak": 117440512,
        "symmetricalFade": false,
        "fadeCvOutsWithVolCv": false,
        "linkBitMask": 0,
        "filterPos": 1,
        "groupedAuxReturnFeedbackProtection": 1,
        "ecoMode": 65535,
        "faders": [
          0.807232201,
          1.0,
          1.0,
          1.0,
          1.0,
          1.0,
          1.0,
          1.0,
          1.0,
          1.0
        ],
        "momentaryCvButtons": 1,
        "masterFaderScalesSends": 0,
        "linearVolCvInputs": 0,
        "id_t0_gainAdjust": 1.0,
        "id_t0_fadeRate": 0.0,
        "id_t0_fadeProfile": 0.0,
        "id_t0_directOutsMode": 3,
        "id_t0_auxSendsMode": 3,
        "id_t0_panLawStereo": 1,
        "id_t0_vuColorThemeLocal": 0,
        "id_t0_filterPos": 1,
        "id_t0_dispColorLocal": 0,
        "id_t0_polyStereo": 0,
        "id_t0_panCvLevel": 1.0,
        "id_t0_stereoWidth": 1.0,
        "id_t0_invertInput": 0,
        "id_t1_gainAdjust": 1.0,
        "id_t1_fadeRate": 0.0,
        "id_t1_fadeProfile": 0.0,
        "id_t1_directOutsMode": 3,
        "id_t1_auxSendsMode": 3,
        "id_t1_panLawStereo": 1,
        "id_t1_vuColorThemeLocal": 0,
        "id_t1_filterPos": 1,
        "id_t1_dispColorLocal": 0,
        "id_t1_polyStereo": 0,
        "id_t1_panCvLevel": 1.0,
        "id_t1_stereoWidth": 1.0,
        "id_t1_invertInput": 0,
        "id_t2_gainAdjust": 1.0,
        "id_t2_fadeRate": 0.0,
        "id_t2_fadeProfile": 0.0,
        "id_t2_directOutsMode": 3,
        "id_t2_auxSendsMode": 3,
        "id_t2_panLawStereo": 1,
        "id_t2_vuColorThemeLocal": 0,
        "id_t2_filterPos": 1,
        "id_t2_dispColorLocal": 0,
        "id_t2_polyStereo": 0,
        "id_t2_panCvLevel": 1.0,
        "id_t2_stereoWidth": 1.0,
        "id_t2_invertInput": 0,
        "id_t3_gainAdjust": 1.0,
        "id_t3_fadeRate": 0.0,
        "id_t3_fadeProfile": 0.0,
        "id_t3_directOutsMode": 3,
        "id_t3_auxSendsMode": 3,
        "id_t3_panLawStereo": 1,
        "id_t3_vuColorThemeLocal": 0,
        "id_t3_filterPos": 1,
        "id_t3_dispColorLocal": 0,
        "id_t3_polyStereo": 0,
        "id_t3_panCvLevel": 1.0,
        "id_t3_stereoWidth": 1.0,
        "id_t3_invertInput": 0,
        "id_t4_gainAdjust": 1.0,
        "id_t4_fadeRate": 0.0,
        "id_t4_fadeProfile": 0.0,
        "id_t4_directOutsMode": 3,
        "id_t4_auxSendsMode": 3,
        "id_t4_panLawStereo": 1,
        "id_t4_vuColorThemeLocal": 0,
        "id_t4_filterPos": 1,
        "id_t4_dispColorLocal": 0,
        "id_t4_polyStereo": 0,
        "id_t4_panCvLevel": 1.0,
        "id_t4_stereoWidth": 1.0,
        "id_t4_invertInput": 0,
        "id_t5_gainAdjust": 1.0,
        "id_t5_fadeRate": 0.0,
        "id_t5_fadeProfile": 0.0,
        "id_t5_directOutsMode": 3,
        "id_t5_auxSendsMode": 3,
        "id_t5_panLawStereo": 1,
        "id_t5_vuColorThemeLocal": 0,
        "id_t5_filterPos": 1,
        "id_t5_dispColorLocal": 0,
        "id_t5_polyStereo": 0,
        "id_t5_panCvLevel": 1.0,
        "id_t5_stereoWidth": 1.0,
        "id_t5_invertInput": 0,
        "id_t6_gainAdjust": 1.0,
        "id_t6_fadeRate": 0.0,
        "id_t6_fadeProfile": 0.0,
        "id_t6_directOutsMode": 3,
        "id_t6_auxSendsMode": 3,
        "id_t6_panLawStereo": 1,
        "id_t6_vuColorThemeLocal": 0,
        "id_t6_filterPos": 1,
        "id_t6_dispColorLocal": 0,
        "id_t6_polyStereo": 0,
        "id_t6_panCvLevel": 1.0,
        "id_t6_stereoWidth": 1.0,
        "id_t6_invertInput": 0,
        "id_t7_gainAdjust": 1.0,
        "id_t7_fadeRate": 0.0,
        "id_t7_fadeProfile": 0.0,
        "id_t7_directOutsMode": 3,
        "id_t7_auxSendsMode": 3,
        "id_t7_panLawStereo": 1,
        "id_t7_vuColorThemeLocal": 0,
        "id_t7_filterPos": 1,
        "id_t7_dispColorLocal": 0,
        "id_t7_polyStereo": 0,
        "id_t7_panCvLevel": 1.0,
        "id_t7_stereoWidth": 1.0,
        "id_t7_invertInput": 0,
        "id_g0_fadeRate": 0.0,
        "id_g0_fadeProfile": 0.0,
        "id_g0_directOutsMode": 3,
        "id_g0_auxSendsMode": 3,
        "id_g0_panLawStereo": 1,
        "id_g0_vuColorThemeLocal": 0,
        "id_g0_filterPos": 1,
        "id_g0_dispColorLocal": 0,
        "id_g0_panCvLevel": 1.0,
        "id_g0_stereoWidth": 1.0,
        "id_g1_fadeRate": 0.0,
        "id_g1_fadeProfile": 0.0,
        "id_g1_directOutsMode": 3,
        "id_g1_auxSendsMode": 3,
        "id_g1_panLawStereo": 1,
        "id_g1_vuColorThemeLocal": 0,
        "id_g1_filterPos": 1,
        "id_g1_dispColorLocal": 0,
        "id_g1_panCvLevel": 1.0,
        "id_g1_stereoWidth": 1.0,
        "dcBlock": false,
        "clipping": 0,
        "fadeRate": 0.0,
        "fadeProfile": 0.0,
        "vuColorThemeLocal": 0,
        "dispColorLocal": 0,
        "chainOnly": 0,
        "dimGain": 0.251190007,
        "masterLabel": "MASTER"
      },
      "pos": [
        24,
        0
      ]
    },
    {
      "id": 399,
      "plugin": "Core",
      "version": "1.1.6",
      "model": "AudioInterface",
      "params": [],
      "leftModuleId": 409,
      "rightModuleId": 412,
      "data": {
        "audio": {
          "driver": 5,
          "deviceName": "Apple Inc.: Multi-Output Device",
          "offset": 0,
          "maxChannels": 8,
          "sampleRate": 44100,
          "blockSize": 256
        }
      },
      "pos": [
        90,
        0
      ]
    },
    {
      "id": 400,
      "plugin": "AS",
      "version": "1.0.4",
      "model": "DelayPlusStereoFx",
      "params": [
        {
          "id": 0,
          "value": 0.375
        },
        {
          "id": 1,
          "value": 0.316999823
        },
        {
          "id": 2,
          "value": 0.5
        },
        {
          "id": 3,
          "value": 0.625
        },
        {
          "id": 4,
          "value": 0.316999823
        },
        {
          "id": 5,
          "value": 0.5
        },
        {
          "id": 6,
          "value": 1.0
        },
        {
          "id": 7,
          "value": 0.0
        },
        {
          "id": 8,
          "value": 1.0
        },
        {
          "id": 9,
          "value": 0.0
        }
      ],
      "rightModuleId": 401,
      "data": {
        "as_FxBypass": [
          false
        ]
      },
      "pos": [
        76,
        1
      ]
    },
    {
      "id": 401,
      "plugin": "Valley",
      "version": "1.1.7",
      "model": "Plateau",
      "params": [
        {
          "id": 0,
          "value": 0.0
        },
        {
          "id": 1,
          "value": 0.39199996
        },
        {
          "id": 2,
          "value": 0.0
        },
        {
          "id": 3,
          "value": 6.80500126
        },
        {
          "id": 4,
          "value": 10.0
        },
        {
          "id": 5,
          "value": 0.5
        },
        {
          "id": 6,
          "value": 6.53499842
        },
        {
          "id": 7,
          "value": 0.463559687
        },
        {
          "id": 8,
          "value": 10.0
        },
        {
          "id": 9,
          "value": 7.89999962
        },
        {
          "id": 10,
          "value": 0.0
        },
        {
          "id": 11,
          "value": 0.5
        },
        {
          "id": 12,
          "value": 0.5
        },
        {
          "id": 13,
          "value": 0.0
        },
        {
          "id": 14,
          "value": 0.0
        },
        {
          "id": 15,
          "value": 0.0
        },
        {
          "id": 16,
          "value": 0.0
        },
        {
          "id": 17,
          "value": 0.0
        },
        {
          "id": 18,
          "value": 0.0
        },
        {
          "id": 19,
          "value": 0.0
        },
        {
          "id": 20,
          "value": 0.0
        },
        {
          "id": 21,
          "value": 0.0
        },
        {
          "id": 22,
          "value": 0.0
        },
        {
          "id": 23,
          "value": 0.0
        },
        {
          "id": 24,
          "value": 0.0
        },
        {
          "id": 25,
          "value": 0.0
        },
        {
          "id": 26,
          "value": 0.0
        },
        {
          "id": 27,
          "value": 0.0
        },
        {
          "id": 28,
          "value": 0.0
        },
        {
          "id": 29,
          "value": 0.0
        },
        {
          "id": 30,
          "value": 1.0
        }
      ],
      "leftModuleId": 400,
      "data": {
        "frozen": false,
        "freezeToggle": false,
        "panelStyle": 0,
        "tuned": 0,
        "diffuseInput": 1,
        "preDelayCVSens": 0,
        "inputSensitivity": 0,
        "outputSaturation": 0
      },
      "pos": [
        88,
        1
      ]
    },
    {
      "id": 402,
      "plugin": "ImpromptuModular",
      "version": "1.1.10",
      "model": "Clocked",
      "params": [
        {
          "id": 0,
          "value": 100.0
        },
        {
          "id": 1,
          "value": 5.0
        },
        {
          "id": 2,
          "value": 0.0
        },
        {
          "id": 3,
          "value": 0.0
        },
        {
          "id": 4,
          "value": 0.0
        },
        {
          "id": 5,
          "value": 0.0
        },
        {
          "id": 6,
          "value": 0.0
        },
        {
          "id": 7,
          "value": 0.0
        },
        {
          "id": 8,
          "value": 0.5
        },
        {
          "id": 9,
          "value": 0.5
        },
        {
          "id": 10,
          "value": 0.5
        },
        {
          "id": 11,
          "value": 0.5
        },
        {
          "id": 12,
          "value": 0.0
        },
        {
          "id": 13,
          "value": 0.0
        },
        {
          "id": 14,
          "value": 0.0
        },
        {
          "id": 15,
          "value": 0.0
        },
        {
          "id": 16,
          "value": 0.0
        },
        {
          "id": 17,
          "value": 0.0
        },
        {
          "id": 18,
          "value": 0.0
        },
        {
          "id": 19,
          "value": 0.0
        }
      ],
      "rightModuleId": 425,
      "data": {
        "panelTheme": 0,
        "running": true,
        "displayDelayNoteMode": true,
        "bpmDetectionMode": false,
        "resetOnStartStop": 0,
        "ppqn": 4,
        "resetClockOutputsHigh": true,
        "momentaryRunInput": true,
        "clockMaster": false
      },
      "pos": [
        0,
        0
      ]
    },
    {
      "id": 409,
      "plugin": "MindMeldModular",
      "version": "1.1.12",
      "model": "AuxExpanderJr",
      "params": [
        {
          "id": 0,
          "value": 0.0
        },
        {
          "id": 1,
          "value": 0.0
        },
        {
          "id": 2,
          "value": 0.0
        },
        {
          "id": 3,
          "value": 0.0
        },
        {
          "id": 4,
          "value": 0.0
        },
        {
          "id": 5,
          "value": 0.0
        },
        {
          "id": 6,
          "value": 0.0
        },
        {
          "id": 7,
          "value": 0.0
        },
        {
          "id": 8,
          "value": 0.0
        },
        {
          "id": 9,
          "value": 0.0
        },
        {
          "id": 10,
          "value": 0.0
        },
        {
          "id": 11,
          "value": 0.0
        },
        {
          "id": 12,
          "value": 0.0
        },
        {
          "id": 13,
          "value": 0.0
        },
        {
          "id": 14,
          "value": 0.0
        },
        {
          "id": 15,
          "value": 0.0
        },
        {
          "id": 16,
          "value": 0.0
        },
        {
          "id": 17,
          "value": 0.0
        },
        {
          "id": 18,
          "value": 0.0
        },
        {
          "id": 19,
          "value": 0.0
        },
        {
          "id": 20,
          "value": 0.0
        },
        {
          "id": 21,
          "value": 0.0
        },
        {
          "id": 22,
          "value": 0.0
        },
        {
          "id": 23,
          "value": 0.0
        },
        {
          "id": 24,
          "value": 0.0
        },
        {
          "id": 25,
          "value": 0.0
        },
        {
          "id": 26,
          "value": 0.0
        },
        {
          "id": 27,
          "value": 0.0
        },
        {
          "id": 28,
          "value": 0.0
        },
        {
          "id": 29,
          "value": 0.0
        },
        {
          "id": 30,
          "value": 0.0
        },
        {
          "id": 31,
          "value": 0.0
        },
        {
          "id": 32,
          "value": 1.0
        },
        {
          "id": 33,
          "value": 1.0
        },
        {
          "id": 34,
          "value": 0.0
        },
        {
          "id": 35,
          "value": 0.0
        },
        {
          "id": 36,
          "value": 0.0
        },
        {
          "id": 37,
          "value": 0.0
        },
        {
          "id": 38,
          "value": 0.0
        },
        {
          "id": 39,
          "value": 0.0
        },
        {
          "id": 40,
          "value": 0.0
        },
        {
          "id": 41,
          "value": 0.0
        },
        {
          "id": 42,
          "value": 0.0
        },
        {
          "id": 43,
          "value": 0.0
        },
        {
          "id": 44,
          "value": 0.0
        },
        {
          "id": 45,
          "value": 0.0
        },
        {
          "id": 46,
          "value": 0.0
        },
        {
          "id": 47,
          "value": 0.0
        },
        {
          "id": 48,
          "value": 0.0
        },
        {
          "id": 49,
          "value": 0.0
        },
        {
          "id": 50,
          "value": 0.0
        },
        {
          "id": 51,
          "value": 0.0
        },
        {
          "id": 52,
          "value": 0.0
        },
        {
          "id": 53,
          "value": 0.0
        },
        {
          "id": 54,
          "value": 0.0
        },
        {
          "id": 55,
          "value": 0.0
        },
        {
          "id": 56,
          "value": 0.0
        },
        {
          "id": 57,
          "value": 0.0
        },
        {
          "id": 58,
          "value": 0.0
        },
        {
          "id": 59,
          "value": 0.0
        },
        {
          "id": 60,
          "value": 0.0
        },
        {
          "id": 61,
          "value": 0.0
        },
        {
          "id": 62,
          "value": 1.0
        },
        {
          "id": 63,
          "value": 1.0
        },
        {
          "id": 64,
          "value": 1.0
        },
        {
          "id": 65,
          "value": 1.0
        },
        {
          "id": 66,
          "value": 0.5
        },
        {
          "id": 67,
          "value": 0.5
        },
        {
          "id": 68,
          "value": 0.5
        },
        {
          "id": 69,
          "value": 0.5
        },
        {
          "id": 70,
          "value": 0.580446243
        },
        {
          "id": 71,
          "value": 0.599345028
        },
        {
          "id": 72,
          "value": 1.0
        },
        {
          "id": 73,
          "value": 1.0
        }
      ],
      "leftModuleId": 398,
      "rightModuleId": 399,
      "data": {
        "directOutsModeLocal": 50529027,
        "panLawStereoLocal": 16843009,
        "vuColorThemeLocal": 0,
        "dispColorAuxLocal": [
          0,
          0,
          0,
          0
        ],
        "auxFadeRatesAndProfiles": [
          0.0,
          0.0,
          0.0,
          0.0,
          0.0,
          0.0,
          0.0,
          0.0
        ],
        "auxLabels": "AUXAAUXBAUXCAUXD",
        "id_x0_hpfCutoffFreq": 13.0,
        "id_x0_lpfCutoffFreq": 20010.0,
        "id_x0_stereoWidth": 1.0,
        "id_x1_hpfCutoffFreq": 13.0,
        "id_x1_lpfCutoffFreq": 20010.0,
        "id_x1_stereoWidth": 1.0,
        "id_x2_hpfCutoffFreq": 13.0,
        "id_x2_lpfCutoffFreq": 20010.0,
        "id_x2_stereoWidth": 1.0,
        "id_x3_hpfCutoffFreq": 13.0,
        "id_x3_lpfCutoffFreq": 20010.0,
        "id_x3_stereoWidth": 1.0,
        "panCvLevels": [
          1.0,
          1.0,
          1.0,
          1.0
        ]
      },
      "pos": [
        60,
        0
      ]
    },
    {
      "id": 412,
      "plugin": "Stoermelder-P1",
      "version": "1.8.0",
      "model": "Mb",
      "params": [],
      "leftModuleId": 399,
      "data": {
        "mode": 1
      },
      "pos": [
        100,
        0
      ]
    },
    {
      "id": 413,
      "plugin": "LunettaModula",
      "version": "1.1.1",
      "model": "DAC",
      "params": [
        {
          "id": 0,
          "value": 6.0
        },
        {
          "id": 1,
          "value": 10.0
        },
        {
          "id": 2,
          "value": -5.0
        }
      ],
      "leftModuleId": 415,
      "data": {
        "moduleVersion": 1,
        "ioMode": 0
      },
      "pos": [
        22,
        1
      ]
    },
    {
      "id": 414,
      "plugin": "Fundamental",
      "version": "1.4.0",
      "model": "Scope",
      "params": [
        {
          "id": 0,
          "value": -1.0
        },
        {
          "id": 1,
          "value": 0.0
        },
        {
          "id": 2,
          "value": -1.0
        },
        {
          "id": 3,
          "value": 0.0
        },
        {
          "id": 4,
          "value": 14.0
        },
        {
          "id": 5,
          "value": 0.0
        },
        {
          "id": 6,
          "value": 0.0
        },
        {
          "id": 7,
          "value": 0.0
        }
      ],
      "data": {
        "lissajous": 0,
        "external": 0
      },
      "pos": [
        31,
        1
      ]
    },
    {
      "id": 415,
      "plugin": "LunettaModula",
      "version": "1.1.1",
      "model": "Buttons",
      "params": [
        {
          "id": 0,
          "value": 0.0
        },
        {
          "id": 1,
          "value": 0.0
        },
        {
          "id": 2,
          "value": 0.0
        },
        {
          "id": 3,
          "value": 0.0
        },
        {
          "id": 4,
          "value": 0.0
        },
        {
          "id": 5,
          "value": 0.0
        }
      ],
      "rightModuleId": 413,
      "data": {
        "moduleVersion": 1,
        "modes": [
          true,
          true,
          true,
          true,
          true,
          true
        ],
        "states": [
          true,
          true,
          true,
          true,
          true,
          true
        ],
        "ioMode": 0
      },
      "pos": [
        14,
        1
      ]
    },
    {
      "id": 418,
      "plugin": "LunettaModula",
      "version": "1.1.1",
      "model": "ConstantOnes",
      "params": [],
      "data": {
        "moduleVersion": 1,
        "ioMode": 0
      },
      "pos": [
        48,
        1
      ]
    },
    {
      "id": 421,
      "plugin": "LunettaModula",
      "version": "1.1.1",
      "model": "CD4001",
      "params": [],
      "leftModuleId": 427,
      "data": {
        "moduleVersion": 1,
        "ioMode": 0
      },
      "pos": [
        81,
        2
      ]
    },
    {
      "id": 423,
      "plugin": "Mental",
      "version": "1.0.2",
      "model": "MentalMults",
      "params": [],
      "rightModuleId": 426,
      "pos": [
        63,
        2
      ]
    },
    {
      "id": 425,
      "plugin": "SynthKit",
      "version": "1.0.1",
      "model": "ClockDivider",
      "params": [],
      "leftModuleId": 402,
      "pos": [
        20,
        0
      ]
    },
    {
      "id": 426,
      "plugin": "LunettaModula",
      "version": "1.1.1",
      "model": "CD4073",
      "params": [],
      "leftModuleId": 423,
      "rightModuleId": 427,
      "data": {
        "moduleVersion": 1,
        "ioMode": 0
      },
      "pos": [
        65,
        2
      ]
    },
    {
      "id": 427,
      "plugin": "LunettaModula",
      "version": "1.1.1",
      "model": "CD4073",
      "params": [],
      "leftModuleId": 426,
      "rightModuleId": 421,
      "data": {
        "moduleVersion": 1,
        "ioMode": 0
      },
      "pos": [
        73,
        2
      ]
    },
    {
      "id": 430,
      "plugin": "CountModula",
      "version": "1.13.0",
      "model": "SingleTFlipFlop",
      "params": [],
      "rightModuleId": 431,
      "data": {
        "moduleVersion": 1,
        "QState": false,
        "NQState": true,
        "theme": 6
      },
      "pos": [
        23,
        2
      ]
    },
    {
      "id": 431,
      "plugin": "CountModula",
      "version": "1.13.0",
      "model": "SingleTFlipFlop",
      "params": [],
      "leftModuleId": 430,
      "rightModuleId": 438,
      "data": {
        "moduleVersion": 1,
        "QState": false,
        "NQState": true,
        "theme": 6
      },
      "pos": [
        27,
        2
      ]
    },
    {
      "id": 432,
      "plugin": "CountModula",
      "version": "1.13.0",
      "model": "SingleTFlipFlop",
      "params": [],
      "rightModuleId": 435,
      "data": {
        "moduleVersion": 1,
        "QState": false,
        "NQState": true,
        "theme": 6
      },
      "pos": [
        34,
        2
      ]
    },
    {
      "id": 433,
      "plugin": "Bogaudio",
      "version": "1.1.36",
      "model": "Bogaudio-Manual",
      "params": [
        {
          "id": 0,
          "value": 0.0
        }
      ],
      "rightModuleId": 434,
      "data": {
        "triggerOnLoad": false,
        "shouldTriggerOnLoad": true,
        "output_scale": 1.0
      },
      "pos": [
        15,
        2
      ]
    },
    {
      "id": 434,
      "plugin": "Bogaudio",
      "version": "1.1.36",
      "model": "Bogaudio-Manual",
      "params": [
        {
          "id": 0,
          "value": 0.0
        }
      ],
      "leftModuleId": 433,
      "data": {
        "triggerOnLoad": false,
        "shouldTriggerOnLoad": true,
        "output_scale": 1.0
      },
      "pos": [
        18,
        2
      ]
    },
    {
      "id": 435,
      "plugin": "CountModula",
      "version": "1.13.0",
      "model": "SingleTFlipFlop",
      "params": [],
      "leftModuleId": 432,
      "rightModuleId": 439,
      "data": {
        "moduleVersion": 1,
        "QState": false,
        "NQState": true,
        "theme": 6
      },
      "pos": [
        38,
        2
      ]
    },
    {
      "id": 437,
      "plugin": "LunettaModula",
      "version": "1.1.1",
      "model": "CD4081",
      "params": [],
      "data": {
        "moduleVersion": 1,
        "ioMode": 0
      },
      "pos": [
        30,
        3
      ]
    },
    {
      "id": 438,
      "plugin": "Mental",
      "version": "1.0.2",
      "model": "MentalMults",
      "params": [],
      "leftModuleId": 431,
      "pos": [
        31,
        2
      ]
    },
    {
      "id": 439,
      "plugin": "Mental",
      "version": "1.0.2",
      "model": "MentalMults",
      "params": [],
      "leftModuleId": 435,
      "pos": [
        42,
        2
      ]
    }
  ],
  "cables": [
    {
      "id": 636,
      "outputModuleId": 409,
      "outputId": 0,
      "inputModuleId": 400,
      "inputId": 9,
      "color": "#0c8e15"
    },
    {
      "id": 637,
      "outputModuleId": 409,
      "outputId": 4,
      "inputModuleId": 400,
      "inputId": 10,
      "color": "#c91847"
    },
    {
      "id": 645,
      "outputModuleId": 398,
      "outputId": 2,
      "inputModuleId": 399,
      "inputId": 0,
      "color": "#c9b70e"
    },
    {
      "id": 646,
      "outputModuleId": 398,
      "outputId": 3,
      "inputModuleId": 399,
      "inputId": 1,
      "color": "#0c8e15"
    },
    {
      "id": 638,
      "outputModuleId": 409,
      "outputId": 1,
      "inputModuleId": 401,
      "inputId": 0,
      "color": "#0986ad"
    },
    {
      "id": 639,
      "outputModuleId": 409,
      "outputId": 5,
      "inputModuleId": 401,
      "inputId": 1,
      "color": "#c9b70e"
    },
    {
      "id": 640,
      "outputModuleId": 401,
      "outputId": 0,
      "inputModuleId": 409,
      "inputId": 3,
      "color": "#0c8e15"
    },
    {
      "id": 641,
      "outputModuleId": 401,
      "outputId": 1,
      "inputModuleId": 409,
      "inputId": 2,
      "color": "#c91847"
    },
    {
      "id": 647,
      "outputModuleId": 400,
      "outputId": 2,
      "inputModuleId": 409,
      "inputId": 0,
      "color": "#c91847"
    },
    {
      "id": 648,
      "outputModuleId": 400,
      "outputId": 3,
      "inputModuleId": 409,
      "inputId": 1,
      "color": "#0986ad"
    },
    {
      "id": 650,
      "outputModuleId": 415,
      "outputId": 0,
      "inputModuleId": 413,
      "inputId": 0,
      "color": "#c9b70e"
    },
    {
      "id": 651,
      "outputModuleId": 415,
      "outputId": 1,
      "inputModuleId": 413,
      "inputId": 1,
      "color": "#0c8e15"
    },
    {
      "id": 652,
      "outputModuleId": 415,
      "outputId": 2,
      "inputModuleId": 413,
      "inputId": 2,
      "color": "#c91847"
    },
    {
      "id": 653,
      "outputModuleId": 415,
      "outputId": 3,
      "inputModuleId": 413,
      "inputId": 3,
      "color": "#0986ad"
    },
    {
      "id": 654,
      "outputModuleId": 415,
      "outputId": 4,
      "inputModuleId": 413,
      "inputId": 4,
      "color": "#c9b70e"
    },
    {
      "id": 655,
      "outputModuleId": 415,
      "outputId": 5,
      "inputModuleId": 413,
      "inputId": 5,
      "color": "#0c8e15"
    },
    {
      "id": 669,
      "outputModuleId": 421,
      "outputId": 1,
      "inputModuleId": 421,
      "inputId": 4,
      "color": "#0c8e15"
    },
    {
      "id": 670,
      "outputModuleId": 421,
      "outputId": 0,
      "inputModuleId": 421,
      "inputId": 5,
      "color": "#c91847"
    },
    {
      "id": 672,
      "outputModuleId": 421,
      "outputId": 2,
      "inputModuleId": 421,
      "inputId": 7,
      "color": "#c9b70e"
    },
    {
      "id": 673,
      "outputModuleId": 421,
      "outputId": 3,
      "inputModuleId": 421,
      "inputId": 6,
      "color": "#0c8e15"
    },
    {
      "id": 688,
      "outputModuleId": 402,
      "outputId": 1,
      "inputModuleId": 425,
      "inputId": 0,
      "color": "#c9b70e"
    },
    {
      "id": 689,
      "outputModuleId": 425,
      "outputId": 3,
      "inputModuleId": 423,
      "inputId": 0,
      "color": "#0c8e15"
    },
    {
      "id": 692,
      "outputModuleId": 423,
      "outputId": 0,
      "inputModuleId": 426,
      "inputId": 6,
      "color": "#c9b70e"
    },
    {
      "id": 693,
      "outputModuleId": 423,
      "outputId": 1,
      "inputModuleId": 426,
      "inputId": 7,
      "color": "#0c8e15"
    },
    {
      "id": 694,
      "outputModuleId": 423,
      "outputId": 2,
      "inputModuleId": 426,
      "inputId": 8,
      "color": "#c91847"
    },
    {
      "id": 695,
      "outputModuleId": 423,
      "outputId": 3,
      "inputModuleId": 427,
      "inputId": 6,
      "color": "#0986ad"
    },
    {
      "id": 696,
      "outputModuleId": 426,
      "outputId": 0,
      "inputModuleId": 421,
      "inputId": 0,
      "color": "#c9b70e"
    },
    {
      "id": 697,
      "outputModuleId": 426,
      "outputId": 1,
      "inputModuleId": 421,
      "inputId": 1,
      "color": "#0c8e15"
    },
    {
      "id": 698,
      "outputModuleId": 426,
      "outputId": 2,
      "inputModuleId": 421,
      "inputId": 2,
      "color": "#c91847"
    },
    {
      "id": 699,
      "outputModuleId": 427,
      "outputId": 0,
      "inputModuleId": 421,
      "inputId": 3,
      "color": "#0986ad"
    },
    {
      "id": 701,
      "outputModuleId": 421,
      "outputId": 2,
      "inputModuleId": 426,
      "inputId": 5,
      "color": "#0c8e15"
    },
    {
      "id": 702,
      "outputModuleId": 421,
      "outputId": 1,
      "inputModuleId": 426,
      "inputId": 4,
      "color": "#c91847"
    },
    {
      "id": 703,
      "outputModuleId": 421,
      "outputId": 3,
      "inputModuleId": 427,
      "inputId": 3,
      "color": "#0986ad"
    },
    {
      "id": 700,
      "outputModuleId": 421,
      "outputId": 0,
      "inputModuleId": 426,
      "inputId": 3,
      "color": "#c9b70e"
    },
    {
      "id": 709,
      "outputModuleId": 423,
      "outputId": 4,
      "inputModuleId": 423,
      "inputId": 1,
      "color": "#0c8e15"
    },
    {
      "id": 712,
      "outputModuleId": 418,
      "outputId": 10,
      "inputModuleId": 427,
      "inputId": 0,
      "color": "#c9b70e"
    },
    {
      "id": 710,
      "outputModuleId": 418,
      "outputId": 11,
      "inputModuleId": 426,
      "inputId": 2,
      "color": "#c91847"
    },
    {
      "id": 730,
      "outputModuleId": 434,
      "outputId": 0,
      "inputModuleId": 430,
      "inputId": 1,
      "color": "#c9b70e"
    },
    {
      "id": 731,
      "outputModuleId": 434,
      "outputId": 1,
      "inputModuleId": 431,
      "inputId": 1,
      "color": "#0c8e15"
    },
    {
      "id": 732,
      "outputModuleId": 434,
      "outputId": 2,
      "inputModuleId": 432,
      "inputId": 1,
      "color": "#c91847"
    },
    {
      "id": 735,
      "outputModuleId": 434,
      "outputId": 3,
      "inputModuleId": 435,
      "inputId": 1,
      "color": "#0c8e15"
    },
    {
      "id": 728,
      "outputModuleId": 433,
      "outputId": 1,
      "inputModuleId": 431,
      "inputId": 2,
      "color": "#c91847"
    },
    {
      "id": 733,
      "outputModuleId": 433,
      "outputId": 2,
      "inputModuleId": 432,
      "inputId": 2,
      "color": "#0986ad"
    },
    {
      "id": 734,
      "outputModuleId": 433,
      "outputId": 3,
      "inputModuleId": 435,
      "inputId": 2,
      "color": "#c9b70e"
    },
    {
      "id": 736,
      "outputModuleId": 418,
      "outputId": 5,
      "inputModuleId": 430,
      "inputId": 0,
      "color": "#c91847"
    },
    {
      "id": 739,
      "outputModuleId": 430,
      "outputId": 0,
      "inputModuleId": 438,
      "inputId": 0,
      "color": "#0986ad"
    },
    {
      "id": 740,
      "outputModuleId": 431,
      "outputId": 0,
      "inputModuleId": 438,
      "inputId": 1,
      "color": "#c9b70e"
    },
    {
      "id": 741,
      "outputModuleId": 432,
      "outputId": 0,
      "inputModuleId": 439,
      "inputId": 0,
      "color": "#0c8e15"
    },
    {
      "id": 742,
      "outputModuleId": 435,
      "outputId": 0,
      "inputModuleId": 439,
      "inputId": 1,
      "color": "#c91847"
    },
    {
      "id": 743,
      "outputModuleId": 438,
      "outputId": 0,
      "inputModuleId": 431,
      "inputId": 0,
      "color": "#0986ad"
    },
    {
      "id": 744,
      "outputModuleId": 438,
      "outputId": 1,
      "inputModuleId": 437,
      "inputId": 0,
      "color": "#c9b70e"
    },
    {
      "id": 745,
      "outputModuleId": 438,
      "outputId": 5,
      "inputModuleId": 437,
      "inputId": 4,
      "color": "#0c8e15"
    },
    {
      "id": 746,
      "outputModuleId": 437,
      "outputId": 0,
      "inputModuleId": 432,
      "inputId": 0,
      "color": "#c91847"
    },
    {
      "id": 747,
      "outputModuleId": 437,
      "outputId": 0,
      "inputModuleId": 437,
      "inputId": 1,
      "color": "#0986ad"
    },
    {
      "id": 748,
      "outputModuleId": 439,
      "outputId": 0,
      "inputModuleId": 437,
      "inputId": 5,
      "color": "#c9b70e"
    },
    {
      "id": 749,
      "outputModuleId": 437,
      "outputId": 1,
      "inputModuleId": 435,
      "inputId": 0,
      "color": "#0c8e15"
    }
  ]
}