{
  "version": "1.1.6",
  "modules": [
    {
      "id": 399,
      "plugin": "Core",
      "version": "1.1.6",
      "model": "AudioInterface",
      "params": [],
      "leftModuleId": 400,
      "rightModuleId": 440,
      "data": {
        "audio": {
          "driver": 5,
          "deviceName": "Apple Inc.: Multi-Output Device",
          "offset": 0,
          "maxChannels": 8,
          "sampleRate": 44100,
          "blockSize": 1024
        }
      },
      "pos": [
        119,
        4
      ]
    },
    {
      "id": 400,
      "plugin": "AS",
      "version": "1.0.4",
      "model": "DelayPlusStereoFx",
      "params": [
        {
          "id": 0,
          "value": 0.375
        },
        {
          "id": 1,
          "value": 0.316999823
        },
        {
          "id": 2,
          "value": 0.5
        },
        {
          "id": 3,
          "value": 0.625
        },
        {
          "id": 4,
          "value": 0.316999823
        },
        {
          "id": 5,
          "value": 0.5
        },
        {
          "id": 6,
          "value": 1.0
        },
        {
          "id": 7,
          "value": 0.0
        },
        {
          "id": 8,
          "value": 1.0
        },
        {
          "id": 9,
          "value": 0.0
        }
      ],
      "leftModuleId": 401,
      "rightModuleId": 399,
      "data": {
        "as_FxBypass": [
          false
        ]
      },
      "pos": [
        107,
        4
      ]
    },
    {
      "id": 401,
      "plugin": "Valley",
      "version": "1.1.7",
      "model": "Plateau",
      "params": [
        {
          "id": 0,
          "value": 0.0
        },
        {
          "id": 1,
          "value": 0.39199996
        },
        {
          "id": 2,
          "value": 0.0
        },
        {
          "id": 3,
          "value": 6.80500126
        },
        {
          "id": 4,
          "value": 10.0
        },
        {
          "id": 5,
          "value": 0.5
        },
        {
          "id": 6,
          "value": 6.53499842
        },
        {
          "id": 7,
          "value": 0.463559687
        },
        {
          "id": 8,
          "value": 10.0
        },
        {
          "id": 9,
          "value": 7.89999962
        },
        {
          "id": 10,
          "value": 0.0
        },
        {
          "id": 11,
          "value": 0.5
        },
        {
          "id": 12,
          "value": 0.5
        },
        {
          "id": 13,
          "value": 0.0
        },
        {
          "id": 14,
          "value": 0.0
        },
        {
          "id": 15,
          "value": 0.0
        },
        {
          "id": 16,
          "value": 0.0
        },
        {
          "id": 17,
          "value": 0.0
        },
        {
          "id": 18,
          "value": 0.0
        },
        {
          "id": 19,
          "value": 0.0
        },
        {
          "id": 20,
          "value": 0.0
        },
        {
          "id": 21,
          "value": 0.0
        },
        {
          "id": 22,
          "value": 0.0
        },
        {
          "id": 23,
          "value": 0.0
        },
        {
          "id": 24,
          "value": 0.0
        },
        {
          "id": 25,
          "value": 0.0
        },
        {
          "id": 26,
          "value": 0.0
        },
        {
          "id": 27,
          "value": 0.0
        },
        {
          "id": 28,
          "value": 0.0
        },
        {
          "id": 29,
          "value": 0.0
        },
        {
          "id": 30,
          "value": 1.0
        }
      ],
      "leftModuleId": 459,
      "rightModuleId": 400,
      "data": {
        "frozen": false,
        "freezeToggle": false,
        "panelStyle": 0,
        "tuned": 0,
        "diffuseInput": 1,
        "preDelayCVSens": 0,
        "inputSensitivity": 0,
        "outputSaturation": 0
      },
      "pos": [
        95,
        4
      ]
    },
    {
      "id": 440,
      "plugin": "Stoermelder-P1",
      "version": "1.8.0",
      "model": "Mb",
      "params": [],
      "leftModuleId": 399,
      "data": {
        "mode": 1
      },
      "pos": [
        129,
        4
      ]
    },
    {
      "id": 456,
      "plugin": "MindMeldModular",
      "version": "1.1.12",
      "model": "MixMasterJr",
      "params": [
        {
          "id": 0,
          "value": 0.686279833
        },
        {
          "id": 1,
          "value": 1.0
        },
        {
          "id": 2,
          "value": 1.0
        },
        {
          "id": 3,
          "value": 1.0
        },
        {
          "id": 4,
          "value": 1.0
        },
        {
          "id": 5,
          "value": 1.0
        },
        {
          "id": 6,
          "value": 1.0
        },
        {
          "id": 7,
          "value": 1.0
        },
        {
          "id": 8,
          "value": 1.0
        },
        {
          "id": 9,
          "value": 1.0
        },
        {
          "id": 10,
          "value": 0.5
        },
        {
          "id": 11,
          "value": 0.5
        },
        {
          "id": 12,
          "value": 0.5
        },
        {
          "id": 13,
          "value": 0.5
        },
        {
          "id": 14,
          "value": 0.5
        },
        {
          "id": 15,
          "value": 0.5
        },
        {
          "id": 16,
          "value": 0.5
        },
        {
          "id": 17,
          "value": 0.5
        },
        {
          "id": 18,
          "value": 0.5
        },
        {
          "id": 19,
          "value": 0.5
        },
        {
          "id": 20,
          "value": 0.0
        },
        {
          "id": 21,
          "value": 0.0
        },
        {
          "id": 22,
          "value": 0.0
        },
        {
          "id": 23,
          "value": 0.0
        },
        {
          "id": 24,
          "value": 0.0
        },
        {
          "id": 25,
          "value": 0.0
        },
        {
          "id": 26,
          "value": 0.0
        },
        {
          "id": 27,
          "value": 0.0
        },
        {
          "id": 28,
          "value": 0.0
        },
        {
          "id": 29,
          "value": 0.0
        },
        {
          "id": 30,
          "value": 0.0
        },
        {
          "id": 31,
          "value": 0.0
        },
        {
          "id": 32,
          "value": 0.0
        },
        {
          "id": 33,
          "value": 0.0
        },
        {
          "id": 34,
          "value": 0.0
        },
        {
          "id": 35,
          "value": 0.0
        },
        {
          "id": 36,
          "value": 0.0
        },
        {
          "id": 37,
          "value": 0.0
        },
        {
          "id": 38,
          "value": 0.0
        },
        {
          "id": 39,
          "value": 0.0
        },
        {
          "id": 40,
          "value": 0.0
        },
        {
          "id": 41,
          "value": 0.0
        },
        {
          "id": 42,
          "value": 0.0
        },
        {
          "id": 43,
          "value": 1.0
        },
        {
          "id": 44,
          "value": 0.0
        },
        {
          "id": 45,
          "value": 0.0
        },
        {
          "id": 46,
          "value": 0.0
        },
        {
          "id": 47,
          "value": 0.0
        },
        {
          "id": 48,
          "value": 0.0
        },
        {
          "id": 49,
          "value": 0.0
        },
        {
          "id": 50,
          "value": 0.0
        },
        {
          "id": 51,
          "value": 0.0
        },
        {
          "id": 52,
          "value": 13.0
        },
        {
          "id": 53,
          "value": 13.0
        },
        {
          "id": 54,
          "value": 13.0
        },
        {
          "id": 55,
          "value": 13.0
        },
        {
          "id": 56,
          "value": 13.0
        },
        {
          "id": 57,
          "value": 13.0
        },
        {
          "id": 58,
          "value": 13.0
        },
        {
          "id": 59,
          "value": 13.0
        },
        {
          "id": 60,
          "value": 20010.0
        },
        {
          "id": 61,
          "value": 20010.0
        },
        {
          "id": 62,
          "value": 20010.0
        },
        {
          "id": 63,
          "value": 20010.0
        },
        {
          "id": 64,
          "value": 20010.0
        },
        {
          "id": 65,
          "value": 20010.0
        },
        {
          "id": 66,
          "value": 20010.0
        },
        {
          "id": 67,
          "value": 20010.0
        },
        {
          "id": 68,
          "value": 13.0
        },
        {
          "id": 69,
          "value": 13.0
        },
        {
          "id": 70,
          "value": 20010.0
        },
        {
          "id": 71,
          "value": 20010.0
        }
      ],
      "rightModuleId": 459,
      "data": {
        "trackLabels": "-01--02--03--04--05--06--07--08-GRP1GRP2",
        "panLawMono": 1,
        "panLawStereo": 1,
        "directOutsMode": 3,
        "directOutsSkipGroupedTracks": 0,
        "auxSendsMode": 3,
        "groupsControlTrackSendLevels": 0,
        "auxReturnsMutedWhenMainSolo": 0,
        "auxReturnsSolosMuteDry": 0,
        "chainMode": 0,
        "colorAndCloak": 117899264,
        "symmetricalFade": false,
        "fadeCvOutsWithVolCv": false,
        "linkBitMask": 0,
        "filterPos": 1,
        "groupedAuxReturnFeedbackProtection": 1,
        "ecoMode": 65535,
        "faders": [
          0.686279833,
          1.0,
          1.0,
          1.0,
          1.0,
          1.0,
          1.0,
          1.0,
          1.0,
          1.0
        ],
        "momentaryCvButtons": 1,
        "masterFaderScalesSends": 0,
        "linearVolCvInputs": 0,
        "id_t0_gainAdjust": 1.0,
        "id_t0_fadeRate": 0.0,
        "id_t0_fadeProfile": 0.0,
        "id_t0_directOutsMode": 3,
        "id_t0_auxSendsMode": 3,
        "id_t0_panLawStereo": 1,
        "id_t0_vuColorThemeLocal": 0,
        "id_t0_filterPos": 1,
        "id_t0_dispColorLocal": 3,
        "id_t0_polyStereo": 0,
        "id_t0_panCvLevel": 1.0,
        "id_t0_stereoWidth": 1.0,
        "id_t0_invertInput": 0,
        "id_t1_gainAdjust": 1.0,
        "id_t1_fadeRate": 0.0,
        "id_t1_fadeProfile": 0.0,
        "id_t1_directOutsMode": 3,
        "id_t1_auxSendsMode": 3,
        "id_t1_panLawStereo": 1,
        "id_t1_vuColorThemeLocal": 0,
        "id_t1_filterPos": 1,
        "id_t1_dispColorLocal": 0,
        "id_t1_polyStereo": 0,
        "id_t1_panCvLevel": 1.0,
        "id_t1_stereoWidth": 1.0,
        "id_t1_invertInput": 0,
        "id_t2_gainAdjust": 1.0,
        "id_t2_fadeRate": 0.0,
        "id_t2_fadeProfile": 0.0,
        "id_t2_directOutsMode": 3,
        "id_t2_auxSendsMode": 3,
        "id_t2_panLawStereo": 1,
        "id_t2_vuColorThemeLocal": 0,
        "id_t2_filterPos": 1,
        "id_t2_dispColorLocal": 0,
        "id_t2_polyStereo": 0,
        "id_t2_panCvLevel": 1.0,
        "id_t2_stereoWidth": 1.0,
        "id_t2_invertInput": 0,
        "id_t3_gainAdjust": 1.0,
        "id_t3_fadeRate": 0.0,
        "id_t3_fadeProfile": 0.0,
        "id_t3_directOutsMode": 3,
        "id_t3_auxSendsMode": 3,
        "id_t3_panLawStereo": 1,
        "id_t3_vuColorThemeLocal": 0,
        "id_t3_filterPos": 1,
        "id_t3_dispColorLocal": 0,
        "id_t3_polyStereo": 0,
        "id_t3_panCvLevel": 1.0,
        "id_t3_stereoWidth": 1.0,
        "id_t3_invertInput": 0,
        "id_t4_gainAdjust": 1.0,
        "id_t4_fadeRate": 0.0,
        "id_t4_fadeProfile": 0.0,
        "id_t4_directOutsMode": 3,
        "id_t4_auxSendsMode": 3,
        "id_t4_panLawStereo": 1,
        "id_t4_vuColorThemeLocal": 0,
        "id_t4_filterPos": 1,
        "id_t4_dispColorLocal": 0,
        "id_t4_polyStereo": 0,
        "id_t4_panCvLevel": 1.0,
        "id_t4_stereoWidth": 1.0,
        "id_t4_invertInput": 0,
        "id_t5_gainAdjust": 1.0,
        "id_t5_fadeRate": 0.0,
        "id_t5_fadeProfile": 0.0,
        "id_t5_directOutsMode": 3,
        "id_t5_auxSendsMode": 3,
        "id_t5_panLawStereo": 1,
        "id_t5_vuColorThemeLocal": 0,
        "id_t5_filterPos": 1,
        "id_t5_dispColorLocal": 0,
        "id_t5_polyStereo": 0,
        "id_t5_panCvLevel": 1.0,
        "id_t5_stereoWidth": 1.0,
        "id_t5_invertInput": 0,
        "id_t6_gainAdjust": 1.0,
        "id_t6_fadeRate": 0.0,
        "id_t6_fadeProfile": 0.0,
        "id_t6_directOutsMode": 3,
        "id_t6_auxSendsMode": 3,
        "id_t6_panLawStereo": 1,
        "id_t6_vuColorThemeLocal": 0,
        "id_t6_filterPos": 1,
        "id_t6_dispColorLocal": 0,
        "id_t6_polyStereo": 0,
        "id_t6_panCvLevel": 1.0,
        "id_t6_stereoWidth": 1.0,
        "id_t6_invertInput": 0,
        "id_t7_gainAdjust": 1.0,
        "id_t7_fadeRate": 0.0,
        "id_t7_fadeProfile": 0.0,
        "id_t7_directOutsMode": 3,
        "id_t7_auxSendsMode": 3,
        "id_t7_panLawStereo": 1,
        "id_t7_vuColorThemeLocal": 0,
        "id_t7_filterPos": 1,
        "id_t7_dispColorLocal": 0,
        "id_t7_polyStereo": 0,
        "id_t7_panCvLevel": 1.0,
        "id_t7_stereoWidth": 1.0,
        "id_t7_invertInput": 0,
        "id_g0_fadeRate": 0.0,
        "id_g0_fadeProfile": 0.0,
        "id_g0_directOutsMode": 3,
        "id_g0_auxSendsMode": 3,
        "id_g0_panLawStereo": 1,
        "id_g0_vuColorThemeLocal": 0,
        "id_g0_filterPos": 1,
        "id_g0_dispColorLocal": 0,
        "id_g0_panCvLevel": 1.0,
        "id_g0_stereoWidth": 1.0,
        "id_g1_fadeRate": 0.0,
        "id_g1_fadeProfile": 0.0,
        "id_g1_directOutsMode": 3,
        "id_g1_auxSendsMode": 3,
        "id_g1_panLawStereo": 1,
        "id_g1_vuColorThemeLocal": 0,
        "id_g1_filterPos": 1,
        "id_g1_dispColorLocal": 0,
        "id_g1_panCvLevel": 1.0,
        "id_g1_stereoWidth": 1.0,
        "dcBlock": false,
        "clipping": 0,
        "fadeRate": 0.0,
        "fadeProfile": 0.0,
        "vuColorThemeLocal": 0,
        "dispColorLocal": 0,
        "chainOnly": 0,
        "dimGain": 0.251190007,
        "masterLabel": "MASTER"
      },
      "pos": [
        29,
        4
      ]
    },
    {
      "id": 459,
      "plugin": "MindMeldModular",
      "version": "1.1.12",
      "model": "AuxExpanderJr",
      "params": [
        {
          "id": 0,
          "value": 0.0
        },
        {
          "id": 1,
          "value": 0.0
        },
        {
          "id": 2,
          "value": 0.0
        },
        {
          "id": 3,
          "value": 0.0
        },
        {
          "id": 4,
          "value": 0.0
        },
        {
          "id": 5,
          "value": 0.0
        },
        {
          "id": 6,
          "value": 0.0
        },
        {
          "id": 7,
          "value": 0.0
        },
        {
          "id": 8,
          "value": 0.0
        },
        {
          "id": 9,
          "value": 0.0
        },
        {
          "id": 10,
          "value": 0.0
        },
        {
          "id": 11,
          "value": 0.0
        },
        {
          "id": 12,
          "value": 0.0
        },
        {
          "id": 13,
          "value": 0.0
        },
        {
          "id": 14,
          "value": 0.0
        },
        {
          "id": 15,
          "value": 0.0
        },
        {
          "id": 16,
          "value": 0.0
        },
        {
          "id": 17,
          "value": 0.0
        },
        {
          "id": 18,
          "value": 0.0
        },
        {
          "id": 19,
          "value": 0.0
        },
        {
          "id": 20,
          "value": 0.0
        },
        {
          "id": 21,
          "value": 0.0
        },
        {
          "id": 22,
          "value": 0.0
        },
        {
          "id": 23,
          "value": 0.0
        },
        {
          "id": 24,
          "value": 0.0
        },
        {
          "id": 25,
          "value": 0.0
        },
        {
          "id": 26,
          "value": 0.0
        },
        {
          "id": 27,
          "value": 0.0
        },
        {
          "id": 28,
          "value": 0.0
        },
        {
          "id": 29,
          "value": 0.0
        },
        {
          "id": 30,
          "value": 0.0
        },
        {
          "id": 31,
          "value": 0.0
        },
        {
          "id": 32,
          "value": 1.0
        },
        {
          "id": 33,
          "value": 1.0
        },
        {
          "id": 34,
          "value": 0.0
        },
        {
          "id": 35,
          "value": 0.0
        },
        {
          "id": 36,
          "value": 0.0
        },
        {
          "id": 37,
          "value": 0.0
        },
        {
          "id": 38,
          "value": 0.0
        },
        {
          "id": 39,
          "value": 0.0
        },
        {
          "id": 40,
          "value": 0.0
        },
        {
          "id": 41,
          "value": 0.0
        },
        {
          "id": 42,
          "value": 0.0
        },
        {
          "id": 43,
          "value": 0.0
        },
        {
          "id": 44,
          "value": 0.0
        },
        {
          "id": 45,
          "value": 0.0
        },
        {
          "id": 46,
          "value": 0.0
        },
        {
          "id": 47,
          "value": 0.0
        },
        {
          "id": 48,
          "value": 0.0
        },
        {
          "id": 49,
          "value": 0.0
        },
        {
          "id": 50,
          "value": 0.0
        },
        {
          "id": 51,
          "value": 0.0
        },
        {
          "id": 52,
          "value": 0.0
        },
        {
          "id": 53,
          "value": 0.0
        },
        {
          "id": 54,
          "value": 0.0
        },
        {
          "id": 55,
          "value": 0.0
        },
        {
          "id": 56,
          "value": 0.0
        },
        {
          "id": 57,
          "value": 0.0
        },
        {
          "id": 58,
          "value": 0.0
        },
        {
          "id": 59,
          "value": 0.0
        },
        {
          "id": 60,
          "value": 0.0
        },
        {
          "id": 61,
          "value": 0.0
        },
        {
          "id": 62,
          "value": 1.0
        },
        {
          "id": 63,
          "value": 1.0
        },
        {
          "id": 64,
          "value": 1.0
        },
        {
          "id": 65,
          "value": 1.0
        },
        {
          "id": 66,
          "value": 0.5
        },
        {
          "id": 67,
          "value": 0.5
        },
        {
          "id": 68,
          "value": 0.5
        },
        {
          "id": 69,
          "value": 0.5
        },
        {
          "id": 70,
          "value": 0.535089016
        },
        {
          "id": 71,
          "value": 0.74297601
        },
        {
          "id": 72,
          "value": 1.0
        },
        {
          "id": 73,
          "value": 1.0
        }
      ],
      "leftModuleId": 456,
      "rightModuleId": 401,
      "data": {
        "directOutsModeLocal": 50529027,
        "panLawStereoLocal": 16843009,
        "vuColorThemeLocal": 0,
        "dispColorAuxLocal": [
          0,
          0,
          0,
          0
        ],
        "auxFadeRatesAndProfiles": [
          0.0,
          0.0,
          0.0,
          0.0,
          0.0,
          0.0,
          0.0,
          0.0
        ],
        "auxLabels": "AUXAAUXBAUXCAUXD",
        "id_x0_hpfCutoffFreq": 13.0,
        "id_x0_lpfCutoffFreq": 20010.0,
        "id_x0_stereoWidth": 1.0,
        "id_x1_hpfCutoffFreq": 13.0,
        "id_x1_lpfCutoffFreq": 20010.0,
        "id_x1_stereoWidth": 1.0,
        "id_x2_hpfCutoffFreq": 13.0,
        "id_x2_lpfCutoffFreq": 20010.0,
        "id_x2_stereoWidth": 1.0,
        "id_x3_hpfCutoffFreq": 13.0,
        "id_x3_lpfCutoffFreq": 20010.0,
        "id_x3_stereoWidth": 1.0,
        "panCvLevels": [
          1.0,
          1.0,
          1.0,
          1.0
        ]
      },
      "pos": [
        65,
        4
      ]
    },
    {
      "id": 462,
      "plugin": "AudibleInstruments",
      "version": "1.5.0",
      "model": "Kinks",
      "params": [],
      "pos": [
        12,
        1
      ]
    },
    {
      "id": 464,
      "plugin": "Fundamental",
      "version": "1.4.0",
      "model": "Scope",
      "params": [
        {
          "id": 0,
          "value": -0.0
        },
        {
          "id": 1,
          "value": -5.01000118
        },
        {
          "id": 2,
          "value": 0.0
        },
        {
          "id": 3,
          "value": -0.990000129
        },
        {
          "id": 4,
          "value": 14.5050001
        },
        {
          "id": 5,
          "value": 0.0
        },
        {
          "id": 6,
          "value": 0.0
        },
        {
          "id": 7,
          "value": 0.0
        }
      ],
      "leftModuleId": 537,
      "data": {
        "lissajous": 0,
        "external": 1
      },
      "pos": [
        106,
        3
      ]
    },
    {
      "id": 467,
      "plugin": "Befaco",
      "version": "1.0.1",
      "model": "Rampage",
      "params": [
        {
          "id": 0,
          "value": 0.0
        },
        {
          "id": 1,
          "value": 0.0
        },
        {
          "id": 2,
          "value": 0.0
        },
        {
          "id": 3,
          "value": 0.0
        },
        {
          "id": 4,
          "value": 0.0
        },
        {
          "id": 5,
          "value": 0.0
        },
        {
          "id": 6,
          "value": 0.0
        },
        {
          "id": 7,
          "value": 0.0
        },
        {
          "id": 8,
          "value": 0.0
        },
        {
          "id": 9,
          "value": 0.0
        },
        {
          "id": 10,
          "value": 0.0
        },
        {
          "id": 11,
          "value": 0.0
        },
        {
          "id": 12,
          "value": 0.5
        }
      ],
      "pos": [
        0,
        4
      ]
    },
    {
      "id": 468,
      "plugin": "Bogaudio",
      "version": "1.1.36",
      "model": "Bogaudio-Manual",
      "params": [
        {
          "id": 0,
          "value": 0.0
        }
      ],
      "leftModuleId": 524,
      "data": {
        "triggerOnLoad": false,
        "shouldTriggerOnLoad": true,
        "output_scale": 1.0
      },
      "pos": [
        10,
        0
      ]
    },
    {
      "id": 470,
      "plugin": "AudibleInstruments",
      "version": "1.5.0",
      "model": "Veils",
      "params": [
        {
          "id": 0,
          "value": 1.0
        },
        {
          "id": 1,
          "value": 0.0
        },
        {
          "id": 2,
          "value": 0.0
        },
        {
          "id": 3,
          "value": 0.0
        },
        {
          "id": 4,
          "value": 0.369999945
        },
        {
          "id": 5,
          "value": 1.0
        },
        {
          "id": 6,
          "value": 1.0
        },
        {
          "id": 7,
          "value": 1.0
        }
      ],
      "leftModuleId": 529,
      "rightModuleId": 534,
      "pos": [
        68,
        3
      ]
    },
    {
      "id": 472,
      "plugin": "AS",
      "version": "1.0.4",
      "model": "Multiple2_5",
      "params": [],
      "leftModuleId": 533,
      "rightModuleId": 530,
      "pos": [
        37,
        3
      ]
    },
    {
      "id": 521,
      "plugin": "Bogaudio",
      "version": "1.1.36",
      "model": "Bogaudio-FMOp",
      "params": [
        {
          "id": 0,
          "value": 0.0
        },
        {
          "id": 1,
          "value": 0.0
        },
        {
          "id": 2,
          "value": 0.141421005
        },
        {
          "id": 3,
          "value": 0.316229999
        },
        {
          "id": 4,
          "value": 1.0
        },
        {
          "id": 5,
          "value": 0.316229999
        },
        {
          "id": 6,
          "value": 0.0
        },
        {
          "id": 7,
          "value": 0.0
        },
        {
          "id": 8,
          "value": 1.0
        },
        {
          "id": 9,
          "value": 0.0
        },
        {
          "id": 10,
          "value": 0.0
        },
        {
          "id": 11,
          "value": 0.0
        }
      ],
      "rightModuleId": 523,
      "data": {
        "linearLevel": false,
        "antialias_feedback": true,
        "antialias_depth": true
      },
      "pos": [
        0,
        2
      ]
    },
    {
      "id": 523,
      "plugin": "Fundamental",
      "version": "1.4.0",
      "model": "VCF",
      "params": [
        {
          "id": 0,
          "value": 0.5
        },
        {
          "id": 1,
          "value": 0.5
        },
        {
          "id": 2,
          "value": 0.0
        },
        {
          "id": 3,
          "value": 0.0
        },
        {
          "id": 4,
          "value": 0.0
        }
      ],
      "leftModuleId": 521,
      "rightModuleId": 525,
      "pos": [
        10,
        2
      ]
    },
    {
      "id": 524,
      "plugin": "Bogaudio",
      "version": "1.1.36",
      "model": "Bogaudio-VCF",
      "params": [
        {
          "id": 0,
          "value": 0.223609999
        },
        {
          "id": 1,
          "value": 0.0
        },
        {
          "id": 2,
          "value": 0.0
        },
        {
          "id": 3,
          "value": 0.0
        },
        {
          "id": 4,
          "value": 0.0
        },
        {
          "id": 5,
          "value": 0.522233009
        }
      ],
      "rightModuleId": 468,
      "data": {
        "bandwidthMode": "pitched"
      },
      "pos": [
        0,
        0
      ]
    },
    {
      "id": 525,
      "plugin": "Ohmer",
      "version": "1.1.6",
      "model": "SplitterModule",
      "params": [],
      "leftModuleId": 523,
      "data": {
        "Theme": 0
      },
      "pos": [
        18,
        2
      ]
    },
    {
      "id": 527,
      "plugin": "ML_modules",
      "version": "1.1.3",
      "model": "OctaFlop",
      "params": [
        {
          "id": 0,
          "value": 0.0
        },
        {
          "id": 1,
          "value": 0.0
        },
        {
          "id": 2,
          "value": 0.0
        },
        {
          "id": 3,
          "value": 0.0
        },
        {
          "id": 4,
          "value": 0.0
        },
        {
          "id": 5,
          "value": 0.0
        },
        {
          "id": 6,
          "value": 0.0
        },
        {
          "id": 7,
          "value": 0.0
        },
        {
          "id": 8,
          "value": 0.0
        }
      ],
      "leftModuleId": 530,
      "rightModuleId": 529,
      "pos": [
        52,
        3
      ]
    },
    {
      "id": 529,
      "plugin": "LunettaModula",
      "version": "1.1.1",
      "model": "DAC",
      "params": [
        {
          "id": 0,
          "value": 8.0
        },
        {
          "id": 1,
          "value": 10.0
        },
        {
          "id": 2,
          "value": 0.0
        }
      ],
      "leftModuleId": 527,
      "rightModuleId": 470,
      "data": {
        "moduleVersion": 1,
        "ioMode": 0
      },
      "pos": [
        60,
        3
      ]
    },
    {
      "id": 530,
      "plugin": "Bogaudio",
      "version": "1.1.36",
      "model": "Bogaudio-VCO",
      "params": [
        {
          "id": 0,
          "value": 5.00137234
        },
        {
          "id": 1,
          "value": 0.0
        },
        {
          "id": 2,
          "value": 0.0
        },
        {
          "id": 3,
          "value": 0.0
        },
        {
          "id": 4,
          "value": 0.235500067
        },
        {
          "id": 5,
          "value": 0.0
        },
        {
          "id": 6,
          "value": 0.0
        }
      ],
      "leftModuleId": 472,
      "rightModuleId": 527,
      "data": {
        "poly_input": 0
      },
      "pos": [
        42,
        3
      ]
    },
    {
      "id": 533,
      "plugin": "Core",
      "version": "1.1.6",
      "model": "MIDIToCVInterface",
      "params": [],
      "rightModuleId": 472,
      "data": {
        "channels": 1,
        "polyMode": 0,
        "clockDivision": 24,
        "lastPitch": 8192,
        "lastMod": 0,
        "midi": {
          "driver": -11,
          "deviceName": "QWERTY keyboard (US)",
          "channel": -1
        }
      },
      "pos": [
        29,
        3
      ]
    },
    {
      "id": 534,
      "plugin": "VultModulesFree",
      "version": "1.14",
      "model": "Tangents",
      "params": [
        {
          "id": 0,
          "value": 0.384500057
        },
        {
          "id": 1,
          "value": 0.394500077
        },
        {
          "id": 2,
          "value": 0.356999964
        },
        {
          "id": 3,
          "value": 0.0
        },
        {
          "id": 4,
          "value": 1.17599964
        },
        {
          "id": 5,
          "value": 0.0
        },
        {
          "id": 6,
          "value": 0.0
        }
      ],
      "leftModuleId": 470,
      "rightModuleId": 536,
      "pos": [
        80,
        3
      ]
    },
    {
      "id": 536,
      "plugin": "Fundamental",
      "version": "1.4.0",
      "model": "ADSR",
      "params": [
        {
          "id": 0,
          "value": 0.0
        },
        {
          "id": 1,
          "value": 0.618499994
        },
        {
          "id": 2,
          "value": 0.0
        },
        {
          "id": 3,
          "value": 0.253999919
        }
      ],
      "leftModuleId": 534,
      "rightModuleId": 537,
      "pos": [
        90,
        3
      ]
    },
    {
      "id": 537,
      "plugin": "Fundamental",
      "version": "1.4.0",
      "model": "ADSR",
      "params": [
        {
          "id": 0,
          "value": 0.0
        },
        {
          "id": 1,
          "value": 0.665000021
        },
        {
          "id": 2,
          "value": 0.0
        },
        {
          "id": 3,
          "value": 0.253999919
        }
      ],
      "leftModuleId": 536,
      "rightModuleId": 464,
      "pos": [
        98,
        3
      ]
    }
  ],
  "cables": [
    {
      "id": 777,
      "outputModuleId": 456,
      "outputId": 2,
      "inputModuleId": 399,
      "inputId": 0,
      "color": "#c9b70e"
    },
    {
      "id": 778,
      "outputModuleId": 456,
      "outputId": 3,
      "inputModuleId": 399,
      "inputId": 1,
      "color": "#c91847"
    },
    {
      "id": 779,
      "outputModuleId": 459,
      "outputId": 0,
      "inputModuleId": 400,
      "inputId": 9,
      "color": "#0986ad"
    },
    {
      "id": 780,
      "outputModuleId": 459,
      "outputId": 4,
      "inputModuleId": 400,
      "inputId": 10,
      "color": "#c9b70e"
    },
    {
      "id": 781,
      "outputModuleId": 400,
      "outputId": 2,
      "inputModuleId": 459,
      "inputId": 0,
      "color": "#0c8e15"
    },
    {
      "id": 782,
      "outputModuleId": 400,
      "outputId": 3,
      "inputModuleId": 459,
      "inputId": 1,
      "color": "#c91847"
    },
    {
      "id": 783,
      "outputModuleId": 459,
      "outputId": 1,
      "inputModuleId": 401,
      "inputId": 0,
      "color": "#0986ad"
    },
    {
      "id": 784,
      "outputModuleId": 459,
      "outputId": 5,
      "inputModuleId": 401,
      "inputId": 1,
      "color": "#0c8e15"
    },
    {
      "id": 785,
      "outputModuleId": 401,
      "outputId": 0,
      "inputModuleId": 459,
      "inputId": 2,
      "color": "#c91847"
    },
    {
      "id": 786,
      "outputModuleId": 401,
      "outputId": 1,
      "inputModuleId": 459,
      "inputId": 3,
      "color": "#0986ad"
    },
    {
      "id": 915,
      "outputModuleId": 527,
      "outputId": 0,
      "inputModuleId": 529,
      "inputId": 0,
      "color": "#c91847"
    },
    {
      "id": 916,
      "outputModuleId": 527,
      "outputId": 1,
      "inputModuleId": 529,
      "inputId": 1,
      "color": "#0986ad"
    },
    {
      "id": 917,
      "outputModuleId": 527,
      "outputId": 2,
      "inputModuleId": 529,
      "inputId": 2,
      "color": "#c9b70e"
    },
    {
      "id": 918,
      "outputModuleId": 527,
      "outputId": 3,
      "inputModuleId": 529,
      "inputId": 3,
      "color": "#0c8e15"
    },
    {
      "id": 919,
      "outputModuleId": 527,
      "outputId": 4,
      "inputModuleId": 529,
      "inputId": 4,
      "color": "#c91847"
    },
    {
      "id": 920,
      "outputModuleId": 527,
      "outputId": 5,
      "inputModuleId": 529,
      "inputId": 5,
      "color": "#0986ad"
    },
    {
      "id": 921,
      "outputModuleId": 527,
      "outputId": 6,
      "inputModuleId": 529,
      "inputId": 6,
      "color": "#c9b70e"
    },
    {
      "id": 922,
      "outputModuleId": 527,
      "outputId": 7,
      "inputModuleId": 529,
      "inputId": 7,
      "color": "#0c8e15"
    },
    {
      "id": 929,
      "outputModuleId": 533,
      "outputId": 0,
      "inputModuleId": 530,
      "inputId": 0,
      "color": "#c9b70e"
    },
    {
      "id": 931,
      "outputModuleId": 534,
      "outputId": 0,
      "inputModuleId": 456,
      "inputId": 0,
      "color": "#c91847"
    },
    {
      "id": 935,
      "outputModuleId": 530,
      "outputId": 0,
      "inputModuleId": 527,
      "inputId": 8,
      "color": "#c9b70e"
    },
    {
      "id": 936,
      "outputModuleId": 536,
      "outputId": 0,
      "inputModuleId": 534,
      "inputId": 3,
      "color": "#c91847"
    },
    {
      "id": 930,
      "outputModuleId": 529,
      "outputId": 0,
      "inputModuleId": 470,
      "inputId": 0,
      "color": "#0c8e15"
    },
    {
      "id": 938,
      "outputModuleId": 470,
      "outputId": 0,
      "inputModuleId": 534,
      "inputId": 0,
      "color": "#c9b70e"
    },
    {
      "id": 939,
      "outputModuleId": 537,
      "outputId": 0,
      "inputModuleId": 470,
      "inputId": 4,
      "color": "#0c8e15"
    },
    {
      "id": 937,
      "outputModuleId": 472,
      "outputId": 0,
      "inputModuleId": 536,
      "inputId": 4,
      "color": "#0986ad"
    },
    {
      "id": 940,
      "outputModuleId": 533,
      "outputId": 1,
      "inputModuleId": 472,
      "inputId": 0,
      "color": "#0986ad"
    },
    {
      "id": 941,
      "outputModuleId": 472,
      "outputId": 1,
      "inputModuleId": 537,
      "inputId": 4,
      "color": "#c9b70e"
    },
    {
      "id": 942,
      "outputModuleId": 472,
      "outputId": 2,
      "inputModuleId": 536,
      "inputId": 5,
      "color": "#0c8e15"
    },
    {
      "id": 943,
      "outputModuleId": 472,
      "outputId": 3,
      "inputModuleId": 537,
      "inputId": 5,
      "color": "#c91847"
    },
    {
      "id": 944,
      "outputModuleId": 529,
      "outputId": 0,
      "inputModuleId": 464,
      "inputId": 1,
      "color": "#0986ad"
    },
    {
      "id": 945,
      "outputModuleId": 530,
      "outputId": 0,
      "inputModuleId": 464,
      "inputId": 0,
      "color": "#c9b70e"
    },
    {
      "id": 946,
      "outputModuleId": 529,
      "outputId": 0,
      "inputModuleId": 464,
      "inputId": 2,
      "color": "#0c8e15"
    }
  ]
}