{
  "version": "1.1.6",
  "modules": [
    {
      "id": 1,
      "plugin": "Core",
      "version": "1.1.6",
      "model": "AudioInterface",
      "params": [],
      "leftModuleId": 202,
      "data": {
        "audio": {
          "driver": 5,
          "deviceName": "Apple Inc.: Multi-Output Device",
          "offset": 0,
          "maxChannels": 8,
          "sampleRate": 44100,
          "blockSize": 256
        }
      },
      "pos": [
        66,
        0
      ]
    },
    {
      "id": 5,
      "plugin": "Core",
      "version": "1.1.6",
      "model": "MIDIToCVInterface",
      "params": [],
      "leftModuleId": 220,
      "rightModuleId": 187,
      "data": {
        "channels": 1,
        "polyMode": 0,
        "clockDivision": 24,
        "lastPitch": 8192,
        "lastMod": 0,
        "midi": {
          "driver": -11,
          "deviceName": "QWERTY keyboard (US)",
          "channel": -1
        }
      },
      "pos": [
        31,
        1
      ]
    },
    {
      "id": 20,
      "plugin": "Core",
      "version": "1.1.6",
      "model": "Notes",
      "params": [],
      "rightModuleId": 186,
      "text": "poop",
      "pos": [
        21,
        0
      ]
    },
    {
      "id": 180,
      "plugin": "AS",
      "version": "1.0.4",
      "model": "Mixer8ch",
      "params": [
        {
          "id": 0,
          "value": 0.800000012
        },
        {
          "id": 1,
          "value": 0.668000102
        },
        {
          "id": 2,
          "value": 0.514999211
        },
        {
          "id": 3,
          "value": 0.800000012
        },
        {
          "id": 4,
          "value": 0.800000012
        },
        {
          "id": 5,
          "value": 0.800000012
        },
        {
          "id": 6,
          "value": 0.800000012
        },
        {
          "id": 7,
          "value": 0.800000012
        },
        {
          "id": 8,
          "value": 0.800000012
        },
        {
          "id": 9,
          "value": 0.0
        },
        {
          "id": 10,
          "value": 0.0
        },
        {
          "id": 11,
          "value": 0.0
        },
        {
          "id": 12,
          "value": 0.0
        },
        {
          "id": 13,
          "value": 0.0
        },
        {
          "id": 14,
          "value": 0.0
        },
        {
          "id": 15,
          "value": -1.0
        },
        {
          "id": 16,
          "value": 1.0
        },
        {
          "id": 17,
          "value": 0.0
        },
        {
          "id": 18,
          "value": 0.0
        },
        {
          "id": 19,
          "value": 0.0
        },
        {
          "id": 20,
          "value": 0.0
        },
        {
          "id": 21,
          "value": 0.0
        },
        {
          "id": 22,
          "value": 0.0
        },
        {
          "id": 23,
          "value": 0.0
        },
        {
          "id": 24,
          "value": 0.0
        },
        {
          "id": 25,
          "value": 0.0
        }
      ],
      "leftModuleId": 187,
      "rightModuleId": 247,
      "data": {
        "as_MixerMutes": [
          0,
          0,
          0,
          0,
          0,
          0,
          0,
          0,
          0
        ]
      },
      "pos": [
        44,
        1
      ]
    },
    {
      "id": 186,
      "plugin": "NYSTHI",
      "version": "1.0.17",
      "model": "PolyRecorder",
      "params": [
        {
          "id": 0,
          "value": 0.0
        },
        {
          "id": 1,
          "value": 0.0
        },
        {
          "id": 2,
          "value": 0.0
        }
      ],
      "leftModuleId": 20,
      "rightModuleId": 193,
      "data": {
        "wavebits": 9,
        "m_attenuation": 0.5,
        "m_raw_pcm_float": 0.0,
        "m_autoenumeratefiles": true,
        "m_must_consolidate": false,
        "m_separated_stems": true,
        "m_separated_stems_in_dir": true,
        "m_separated_stems_are_stereo": false,
        "m_use_start_as_startstop_toggle": true
      },
      "pos": [
        37,
        0
      ]
    },
    {
      "id": 187,
      "plugin": "Fundamental",
      "version": "1.4.0",
      "model": "Merge",
      "params": [],
      "leftModuleId": 5,
      "rightModuleId": 180,
      "data": {
        "channels": -1
      },
      "pos": [
        39,
        1
      ]
    },
    {
      "id": 193,
      "plugin": "Fundamental",
      "version": "1.4.0",
      "model": "Split",
      "params": [],
      "leftModuleId": 186,
      "rightModuleId": 195,
      "pos": [
        45,
        0
      ]
    },
    {
      "id": 195,
      "plugin": "AS",
      "version": "1.0.4",
      "model": "MonoVUmeter",
      "params": [],
      "leftModuleId": 193,
      "rightModuleId": 196,
      "pos": [
        50,
        0
      ]
    },
    {
      "id": 196,
      "plugin": "AS",
      "version": "1.0.4",
      "model": "MonoVUmeter",
      "params": [],
      "leftModuleId": 195,
      "rightModuleId": 197,
      "pos": [
        52,
        0
      ]
    },
    {
      "id": 197,
      "plugin": "AS",
      "version": "1.0.4",
      "model": "MonoVUmeter",
      "params": [],
      "leftModuleId": 196,
      "rightModuleId": 198,
      "pos": [
        54,
        0
      ]
    },
    {
      "id": 198,
      "plugin": "AS",
      "version": "1.0.4",
      "model": "MonoVUmeter",
      "params": [],
      "leftModuleId": 197,
      "rightModuleId": 199,
      "pos": [
        56,
        0
      ]
    },
    {
      "id": 199,
      "plugin": "AS",
      "version": "1.0.4",
      "model": "MonoVUmeter",
      "params": [],
      "leftModuleId": 198,
      "rightModuleId": 200,
      "pos": [
        58,
        0
      ]
    },
    {
      "id": 200,
      "plugin": "AS",
      "version": "1.0.4",
      "model": "MonoVUmeter",
      "params": [],
      "leftModuleId": 199,
      "rightModuleId": 201,
      "pos": [
        60,
        0
      ]
    },
    {
      "id": 201,
      "plugin": "AS",
      "version": "1.0.4",
      "model": "MonoVUmeter",
      "params": [],
      "leftModuleId": 200,
      "rightModuleId": 202,
      "pos": [
        62,
        0
      ]
    },
    {
      "id": 202,
      "plugin": "AS",
      "version": "1.0.4",
      "model": "MonoVUmeter",
      "params": [],
      "leftModuleId": 201,
      "rightModuleId": 1,
      "pos": [
        64,
        0
      ]
    },
    {
      "id": 220,
      "plugin": "AS",
      "version": "1.0.4",
      "model": "BPMClock",
      "params": [
        {
          "id": 0,
          "value": 88.0
        },
        {
          "id": 1,
          "value": 1.0
        },
        {
          "id": 2,
          "value": 4.0
        },
        {
          "id": 3,
          "value": 1.0
        },
        {
          "id": 4,
          "value": 0.0
        },
        {
          "id": 5,
          "value": 0.0
        }
      ],
      "leftModuleId": 221,
      "rightModuleId": 5,
      "data": {
        "run": [
          1
        ]
      },
      "pos": [
        25,
        1
      ]
    },
    {
      "id": 221,
      "plugin": "StellareModular",
      "version": "1.0.0",
      "model": "BlankPanel",
      "params": [],
      "rightModuleId": 220,
      "pos": [
        21,
        1
      ]
    },
    {
      "id": 226,
      "plugin": "NonlinearCircuits",
      "version": "1.2.0",
      "model": "BOOLs",
      "params": [
        {
          "id": 0,
          "value": 0.0
        }
      ],
      "leftModuleId": 227,
      "rightModuleId": 229,
      "data": {
        "logicmode": 1
      },
      "pos": [
        32,
        2
      ]
    },
    {
      "id": 227,
      "plugin": "Ohmer",
      "version": "1.1.6",
      "model": "RKD",
      "params": [
        {
          "id": 0,
          "value": 0.0
        },
        {
          "id": 1,
          "value": 0.0
        },
        {
          "id": 2,
          "value": 1.0
        },
        {
          "id": 3,
          "value": 1.0
        },
        {
          "id": 4,
          "value": 0.0
        },
        {
          "id": 5,
          "value": 1.0
        }
      ],
      "leftModuleId": 228,
      "rightModuleId": 226,
      "data": {
        "visiblePCB": false,
        "jmprCountingDown": false,
        "jmprGate": false,
        "jmprMaxDivRange16": true,
        "jmprMaxDivRange32": true,
        "jmprSpread": false,
        "jmprAutoReset": true,
        "tableSet": 0
      },
      "pos": [
        28,
        2
      ]
    },
    {
      "id": 228,
      "plugin": "Ohmer",
      "version": "1.1.6",
      "model": "BRK",
      "params": [
        {
          "id": 0,
          "value": 0.0
        },
        {
          "id": 1,
          "value": 0.0
        },
        {
          "id": 2,
          "value": 1.0
        },
        {
          "id": 3,
          "value": 1.0
        },
        {
          "id": 4,
          "value": 0.0
        },
        {
          "id": 5,
          "value": 1.0
        }
      ],
      "leftModuleId": 249,
      "rightModuleId": 227,
      "pos": [
        24,
        2
      ]
    },
    {
      "id": 229,
      "plugin": "Hora-treasureFree",
      "version": "1.0.3",
      "model": "Deep",
      "params": [
        {
          "id": 0,
          "value": 0.788800418
        },
        {
          "id": 1,
          "value": 0.341599882
        },
        {
          "id": 2,
          "value": 0.0
        },
        {
          "id": 3,
          "value": 0.498200059
        },
        {
          "id": 4,
          "value": 0.800000012
        },
        {
          "id": 5,
          "value": 0.956499755
        },
        {
          "id": 6,
          "value": 3.5
        },
        {
          "id": 7,
          "value": 0.617999554
        },
        {
          "id": 8,
          "value": 0.800000012
        },
        {
          "id": 9,
          "value": 0.0
        },
        {
          "id": 10,
          "value": 1.0
        },
        {
          "id": 11,
          "value": 0.695908964
        },
        {
          "id": 12,
          "value": 0.5
        },
        {
          "id": 13,
          "value": 0.0
        }
      ],
      "leftModuleId": 226,
      "rightModuleId": 232,
      "pos": [
        38,
        2
      ]
    },
    {
      "id": 230,
      "plugin": "AS",
      "version": "1.0.4",
      "model": "SawOSC",
      "params": [
        {
          "id": 0,
          "value": 1.23299968
        },
        {
          "id": 1,
          "value": 1.0
        },
        {
          "id": 2,
          "value": 3.43500233
        }
      ],
      "leftModuleId": 232,
      "rightModuleId": 231,
      "pos": [
        50,
        2
      ]
    },
    {
      "id": 231,
      "plugin": "AS",
      "version": "1.0.4",
      "model": "VCA",
      "params": [
        {
          "id": 0,
          "value": 1.0
        },
        {
          "id": 1,
          "value": 0.5
        },
        {
          "id": 2,
          "value": 0.0
        },
        {
          "id": 3,
          "value": 1.0
        }
      ],
      "leftModuleId": 230,
      "rightModuleId": 233,
      "pos": [
        54,
        2
      ]
    },
    {
      "id": 232,
      "plugin": "VultModulesFree",
      "version": "1.14",
      "model": "Punch",
      "params": [
        {
          "id": 0,
          "value": 0.81250006
        },
        {
          "id": 1,
          "value": 0.5
        },
        {
          "id": 2,
          "value": 0.0
        }
      ],
      "leftModuleId": 229,
      "rightModuleId": 230,
      "pos": [
        46,
        2
      ]
    },
    {
      "id": 233,
      "plugin": "Bogaudio",
      "version": "1.1.35",
      "model": "Bogaudio-LLFO",
      "params": [
        {
          "id": 0,
          "value": -2.55450082
        },
        {
          "id": 1,
          "value": 0.0
        },
        {
          "id": 2,
          "value": 0.0
        },
        {
          "id": 3,
          "value": 1.0
        },
        {
          "id": 4,
          "value": 1.0
        }
      ],
      "leftModuleId": 231,
      "rightModuleId": 234,
      "data": {},
      "pos": [
        60,
        2
      ]
    },
    {
      "id": 234,
      "plugin": "StellareModular",
      "version": "1.0.0",
      "model": "TuringMachine",
      "params": [
        {
          "id": 0,
          "value": 0.5
        },
        {
          "id": 1,
          "value": 0.196999982
        },
        {
          "id": 2,
          "value": 0.5
        },
        {
          "id": 3,
          "value": 0.5
        },
        {
          "id": 4,
          "value": 0.0
        },
        {
          "id": 5,
          "value": 1.0
        },
        {
          "id": 6,
          "value": 7.0
        },
        {
          "id": 7,
          "value": 0.232999936
        },
        {
          "id": 8,
          "value": 0.0
        },
        {
          "id": 9,
          "value": 0.0
        },
        {
          "id": 10,
          "value": 0.0
        },
        {
          "id": 11,
          "value": 0.0
        },
        {
          "id": 12,
          "value": 0.0
        }
      ],
      "leftModuleId": 233,
      "data": {
        "pulses_mode": 0
      },
      "pos": [
        63,
        2
      ]
    },
    {
      "id": 235,
      "plugin": "FrozenWasteland",
      "version": "1.17.0",
      "model": "ProbablyNote",
      "params": [
        {
          "id": 0,
          "value": 0.0
        },
        {
          "id": 1,
          "value": 0.0
        },
        {
          "id": 2,
          "value": 0.0
        },
        {
          "id": 3,
          "value": 0.0
        },
        {
          "id": 4,
          "value": 0.0
        },
        {
          "id": 5,
          "value": 0.0
        },
        {
          "id": 6,
          "value": 0.0
        },
        {
          "id": 7,
          "value": 0.0
        },
        {
          "id": 8,
          "value": 4.0
        },
        {
          "id": 9,
          "value": 0.0
        },
        {
          "id": 10,
          "value": 0.0
        },
        {
          "id": 11,
          "value": 0.0
        },
        {
          "id": 12,
          "value": -3.0
        },
        {
          "id": 13,
          "value": 0.0
        },
        {
          "id": 14,
          "value": 0.0
        },
        {
          "id": 15,
          "value": 0.0
        },
        {
          "id": 16,
          "value": 0.0
        },
        {
          "id": 17,
          "value": 0.0
        },
        {
          "id": 18,
          "value": 0.0
        },
        {
          "id": 19,
          "value": 0.0
        },
        {
          "id": 20,
          "value": 1.66499937
        },
        {
          "id": 21,
          "value": 0.0
        },
        {
          "id": 22,
          "value": 0.0
        },
        {
          "id": 23,
          "value": 0.0
        },
        {
          "id": 24,
          "value": 0.0
        },
        {
          "id": 25,
          "value": 0.0
        },
        {
          "id": 26,
          "value": 0.0
        },
        {
          "id": 27,
          "value": 0.0
        },
        {
          "id": 28,
          "value": 0.0
        },
        {
          "id": 29,
          "value": 0.0
        },
        {
          "id": 30,
          "value": 0.0
        },
        {
          "id": 31,
          "value": 0.0
        },
        {
          "id": 32,
          "value": 0.0
        },
        {
          "id": 33,
          "value": 0.0
        },
        {
          "id": 34,
          "value": 0.0
        },
        {
          "id": 35,
          "value": 0.0
        },
        {
          "id": 36,
          "value": 1.0
        },
        {
          "id": 37,
          "value": 0.200000003
        },
        {
          "id": 38,
          "value": 0.0
        },
        {
          "id": 39,
          "value": 0.5
        },
        {
          "id": 40,
          "value": 0.0
        },
        {
          "id": 41,
          "value": 0.400000006
        },
        {
          "id": 42,
          "value": 0.0
        },
        {
          "id": 43,
          "value": 0.800000012
        },
        {
          "id": 44,
          "value": 0.200000003
        },
        {
          "id": 45,
          "value": 0.0
        },
        {
          "id": 46,
          "value": 0.300000012
        },
        {
          "id": 47,
          "value": 0.0
        },
        {
          "id": 48,
          "value": 0.0
        },
        {
          "id": 49,
          "value": 0.0
        }
      ],
      "leftModuleId": 237,
      "rightModuleId": 248,
      "data": {
        "triggerDelayEnabled": 0,
        "octaveWrapAround": 0,
        "alternateIntonationActive": 0,
        "currentIntonation": 0,
        "shiftMode": 0,
        "keyLogarithmic": 0,
        "useCircleLayout": 0,
        "pitchRandomGaussian": 0,
        "triggerPolyphonic": 0,
        "scaleWeight-Chromatic.0": 1.0,
        "scaleStatus-Chromatic.0": 1,
        "scaleWeight-Chromatic.1": 1.0,
        "scaleStatus-Chromatic.1": 1,
        "scaleWeight-Chromatic.2": 1.0,
        "scaleStatus-Chromatic.2": 1,
        "scaleWeight-Chromatic.3": 1.0,
        "scaleStatus-Chromatic.3": 1,
        "scaleWeight-Chromatic.4": 1.0,
        "scaleStatus-Chromatic.4": 1,
        "scaleWeight-Chromatic.5": 1.0,
        "scaleStatus-Chromatic.5": 1,
        "scaleWeight-Chromatic.6": 1.0,
        "scaleStatus-Chromatic.6": 1,
        "scaleWeight-Chromatic.7": 1.0,
        "scaleStatus-Chromatic.7": 1,
        "scaleWeight-Chromatic.8": 1.0,
        "scaleStatus-Chromatic.8": 1,
        "scaleWeight-Chromatic.9": 1.0,
        "scaleStatus-Chromatic.9": 1,
        "scaleWeight-Chromatic.10": 1.0,
        "scaleStatus-Chromatic.10": 1,
        "scaleWeight-Chromatic.11": 1.0,
        "scaleStatus-Chromatic.11": 1,
        "scaleWeight-Whole Tone.0": 1.0,
        "scaleStatus-Whole Tone.0": 1,
        "scaleWeight-Whole Tone.1": 0.0,
        "scaleStatus-Whole Tone.1": 0,
        "scaleWeight-Whole Tone.2": 1.0,
        "scaleStatus-Whole Tone.2": 1,
        "scaleWeight-Whole Tone.3": 0.0,
        "scaleStatus-Whole Tone.3": 0,
        "scaleWeight-Whole Tone.4": 1.0,
        "scaleStatus-Whole Tone.4": 1,
        "scaleWeight-Whole Tone.5": 0.0,
        "scaleStatus-Whole Tone.5": 0,
        "scaleWeight-Whole Tone.6": 1.0,
        "scaleStatus-Whole Tone.6": 1,
        "scaleWeight-Whole Tone.7": 0.0,
        "scaleStatus-Whole Tone.7": 0,
        "scaleWeight-Whole Tone.8": 1.0,
        "scaleStatus-Whole Tone.8": 1,
        "scaleWeight-Whole Tone.9": 0.0,
        "scaleStatus-Whole Tone.9": 0,
        "scaleWeight-Whole Tone.10": 1.0,
        "scaleStatus-Whole Tone.10": 1,
        "scaleWeight-Whole Tone.11": 0.0,
        "scaleStatus-Whole Tone.11": 0,
        "scaleWeight-Ionian M.0": 1.0,
        "scaleStatus-Ionian M.0": 1,
        "scaleWeight-Ionian M.1": 0.0,
        "scaleStatus-Ionian M.1": 0,
        "scaleWeight-Ionian M.2": 0.200000003,
        "scaleStatus-Ionian M.2": 1,
        "scaleWeight-Ionian M.3": 0.0,
        "scaleStatus-Ionian M.3": 0,
        "scaleWeight-Ionian M.4": 0.5,
        "scaleStatus-Ionian M.4": 1,
        "scaleWeight-Ionian M.5": 0.400000006,
        "scaleStatus-Ionian M.5": 1,
        "scaleWeight-Ionian M.6": 0.0,
        "scaleStatus-Ionian M.6": 0,
        "scaleWeight-Ionian M.7": 0.800000012,
        "scaleStatus-Ionian M.7": 1,
        "scaleWeight-Ionian M.8": 0.0,
        "scaleStatus-Ionian M.8": 0,
        "scaleWeight-Ionian M.9": 0.200000003,
        "scaleStatus-Ionian M.9": 1,
        "scaleWeight-Ionian M.10": 0.0,
        "scaleStatus-Ionian M.10": 0,
        "scaleWeight-Ionian M.11": 0.300000012,
        "scaleStatus-Ionian M.11": 1,
        "scaleWeight-Dorian.0": 1.0,
        "scaleStatus-Dorian.0": 1,
        "scaleWeight-Dorian.1": 0.0,
        "scaleStatus-Dorian.1": 0,
        "scaleWeight-Dorian.2": 0.200000003,
        "scaleStatus-Dorian.2": 1,
        "scaleWeight-Dorian.3": 0.5,
        "scaleStatus-Dorian.3": 1,
        "scaleWeight-Dorian.4": 0.0,
        "scaleStatus-Dorian.4": 0,
        "scaleWeight-Dorian.5": 0.400000006,
        "scaleStatus-Dorian.5": 1,
        "scaleWeight-Dorian.6": 0.0,
        "scaleStatus-Dorian.6": 0,
        "scaleWeight-Dorian.7": 0.800000012,
        "scaleStatus-Dorian.7": 1,
        "scaleWeight-Dorian.8": 0.0,
        "scaleStatus-Dorian.8": 0,
        "scaleWeight-Dorian.9": 0.200000003,
        "scaleStatus-Dorian.9": 1,
        "scaleWeight-Dorian.10": 0.300000012,
        "scaleStatus-Dorian.10": 1,
        "scaleWeight-Dorian.11": 0.0,
        "scaleStatus-Dorian.11": 0,
        "scaleWeight-Phrygian.0": 1.0,
        "scaleStatus-Phrygian.0": 1,
        "scaleWeight-Phrygian.1": 0.200000003,
        "scaleStatus-Phrygian.1": 1,
        "scaleWeight-Phrygian.2": 0.0,
        "scaleStatus-Phrygian.2": 0,
        "scaleWeight-Phrygian.3": 0.5,
        "scaleStatus-Phrygian.3": 1,
        "scaleWeight-Phrygian.4": 0.0,
        "scaleStatus-Phrygian.4": 0,
        "scaleWeight-Phrygian.5": 0.400000006,
        "scaleStatus-Phrygian.5": 1,
        "scaleWeight-Phrygian.6": 0.0,
        "scaleStatus-Phrygian.6": 0,
        "scaleWeight-Phrygian.7": 0.800000012,
        "scaleStatus-Phrygian.7": 1,
        "scaleWeight-Phrygian.8": 0.200000003,
        "scaleStatus-Phrygian.8": 1,
        "scaleWeight-Phrygian.9": 0.0,
        "scaleStatus-Phrygian.9": 0,
        "scaleWeight-Phrygian.10": 0.300000012,
        "scaleStatus-Phrygian.10": 1,
        "scaleWeight-Phrygian.11": 0.0,
        "scaleStatus-Phrygian.11": 0,
        "scaleWeight-Lydian.0": 1.0,
        "scaleStatus-Lydian.0": 1,
        "scaleWeight-Lydian.1": 0.0,
        "scaleStatus-Lydian.1": 0,
        "scaleWeight-Lydian.2": 0.200000003,
        "scaleStatus-Lydian.2": 1,
        "scaleWeight-Lydian.3": 0.0,
        "scaleStatus-Lydian.3": 0,
        "scaleWeight-Lydian.4": 0.5,
        "scaleStatus-Lydian.4": 1,
        "scaleWeight-Lydian.5": 0.0,
        "scaleStatus-Lydian.5": 0,
        "scaleWeight-Lydian.6": 0.400000006,
        "scaleStatus-Lydian.6": 1,
        "scaleWeight-Lydian.7": 0.800000012,
        "scaleStatus-Lydian.7": 1,
        "scaleWeight-Lydian.8": 0.0,
        "scaleStatus-Lydian.8": 0,
        "scaleWeight-Lydian.9": 0.200000003,
        "scaleStatus-Lydian.9": 1,
        "scaleWeight-Lydian.10": 0.0,
        "scaleStatus-Lydian.10": 0,
        "scaleWeight-Lydian.11": 0.300000012,
        "scaleStatus-Lydian.11": 1,
        "scaleWeight-Mixolydian.0": 1.0,
        "scaleStatus-Mixolydian.0": 1,
        "scaleWeight-Mixolydian.1": 0.0,
        "scaleStatus-Mixolydian.1": 0,
        "scaleWeight-Mixolydian.2": 0.200000003,
        "scaleStatus-Mixolydian.2": 1,
        "scaleWeight-Mixolydian.3": 0.0,
        "scaleStatus-Mixolydian.3": 0,
        "scaleWeight-Mixolydian.4": 0.5,
        "scaleStatus-Mixolydian.4": 1,
        "scaleWeight-Mixolydian.5": 0.400000006,
        "scaleStatus-Mixolydian.5": 1,
        "scaleWeight-Mixolydian.6": 0.0,
        "scaleStatus-Mixolydian.6": 0,
        "scaleWeight-Mixolydian.7": 0.800000012,
        "scaleStatus-Mixolydian.7": 1,
        "scaleWeight-Mixolydian.8": 0.0,
        "scaleStatus-Mixolydian.8": 0,
        "scaleWeight-Mixolydian.9": 0.200000003,
        "scaleStatus-Mixolydian.9": 1,
        "scaleWeight-Mixolydian.10": 0.300000012,
        "scaleStatus-Mixolydian.10": 1,
        "scaleWeight-Mixolydian.11": 0.0,
        "scaleStatus-Mixolydian.11": 0,
        "scaleWeight-Aeolian m.0": 1.0,
        "scaleStatus-Aeolian m.0": 1,
        "scaleWeight-Aeolian m.1": 0.0,
        "scaleStatus-Aeolian m.1": 0,
        "scaleWeight-Aeolian m.2": 0.200000003,
        "scaleStatus-Aeolian m.2": 1,
        "scaleWeight-Aeolian m.3": 0.5,
        "scaleStatus-Aeolian m.3": 1,
        "scaleWeight-Aeolian m.4": 0.0,
        "scaleStatus-Aeolian m.4": 0,
        "scaleWeight-Aeolian m.5": 0.400000006,
        "scaleStatus-Aeolian m.5": 1,
        "scaleWeight-Aeolian m.6": 0.0,
        "scaleStatus-Aeolian m.6": 0,
        "scaleWeight-Aeolian m.7": 0.800000012,
        "scaleStatus-Aeolian m.7": 1,
        "scaleWeight-Aeolian m.8": 0.200000003,
        "scaleStatus-Aeolian m.8": 1,
        "scaleWeight-Aeolian m.9": 0.0,
        "scaleStatus-Aeolian m.9": 0,
        "scaleWeight-Aeolian m.10": 0.300000012,
        "scaleStatus-Aeolian m.10": 1,
        "scaleWeight-Aeolian m.11": 0.0,
        "scaleStatus-Aeolian m.11": 0,
        "scaleWeight-Locrian.0": 1.0,
        "scaleStatus-Locrian.0": 1,
        "scaleWeight-Locrian.1": 0.200000003,
        "scaleStatus-Locrian.1": 1,
        "scaleWeight-Locrian.2": 0.0,
        "scaleStatus-Locrian.2": 0,
        "scaleWeight-Locrian.3": 0.5,
        "scaleStatus-Locrian.3": 1,
        "scaleWeight-Locrian.4": 0.0,
        "scaleStatus-Locrian.4": 0,
        "scaleWeight-Locrian.5": 0.400000006,
        "scaleStatus-Locrian.5": 1,
        "scaleWeight-Locrian.6": 0.800000012,
        "scaleStatus-Locrian.6": 1,
        "scaleWeight-Locrian.7": 0.0,
        "scaleStatus-Locrian.7": 0,
        "scaleWeight-Locrian.8": 0.200000003,
        "scaleStatus-Locrian.8": 1,
        "scaleWeight-Locrian.9": 0.0,
        "scaleStatus-Locrian.9": 0,
        "scaleWeight-Locrian.10": 0.300000012,
        "scaleStatus-Locrian.10": 1,
        "scaleWeight-Locrian.11": 0.0,
        "scaleStatus-Locrian.11": 0,
        "scaleWeight-Acoustic.0": 1.0,
        "scaleStatus-Acoustic.0": 1,
        "scaleWeight-Acoustic.1": 0.0,
        "scaleStatus-Acoustic.1": 0,
        "scaleWeight-Acoustic.2": 0.200000003,
        "scaleStatus-Acoustic.2": 1,
        "scaleWeight-Acoustic.3": 0.0,
        "scaleStatus-Acoustic.3": 0,
        "scaleWeight-Acoustic.4": 0.300000012,
        "scaleStatus-Acoustic.4": 1,
        "scaleWeight-Acoustic.5": 0.0,
        "scaleStatus-Acoustic.5": 0,
        "scaleWeight-Acoustic.6": 0.5,
        "scaleStatus-Acoustic.6": 1,
        "scaleWeight-Acoustic.7": 0.800000012,
        "scaleStatus-Acoustic.7": 1,
        "scaleWeight-Acoustic.8": 0.0,
        "scaleStatus-Acoustic.8": 0,
        "scaleWeight-Acoustic.9": 0.200000003,
        "scaleStatus-Acoustic.9": 1,
        "scaleWeight-Acoustic.10": 0.300000012,
        "scaleStatus-Acoustic.10": 1,
        "scaleWeight-Acoustic.11": 0.0,
        "scaleStatus-Acoustic.11": 0,
        "scaleWeight-Altered.0": 1.0,
        "scaleStatus-Altered.0": 1,
        "scaleWeight-Altered.1": 0.200000003,
        "scaleStatus-Altered.1": 1,
        "scaleWeight-Altered.2": 0.0,
        "scaleStatus-Altered.2": 0,
        "scaleWeight-Altered.3": 0.300000012,
        "scaleStatus-Altered.3": 1,
        "scaleWeight-Altered.4": 0.5,
        "scaleStatus-Altered.4": 1,
        "scaleWeight-Altered.5": 0.0,
        "scaleStatus-Altered.5": 0,
        "scaleWeight-Altered.6": 0.800000012,
        "scaleStatus-Altered.6": 1,
        "scaleWeight-Altered.7": 0.0,
        "scaleStatus-Altered.7": 0,
        "scaleWeight-Altered.8": 0.200000003,
        "scaleStatus-Altered.8": 1,
        "scaleWeight-Altered.9": 0.0,
        "scaleStatus-Altered.9": 0,
        "scaleWeight-Altered.10": 0.300000012,
        "scaleStatus-Altered.10": 1,
        "scaleWeight-Altered.11": 0.0,
        "scaleStatus-Altered.11": 0,
        "scaleWeight-Augmented.0": 1.0,
        "scaleStatus-Augmented.0": 1,
        "scaleWeight-Augmented.1": 0.0,
        "scaleStatus-Augmented.1": 0,
        "scaleWeight-Augmented.2": 0.0,
        "scaleStatus-Augmented.2": 0,
        "scaleWeight-Augmented.3": 0.200000003,
        "scaleStatus-Augmented.3": 1,
        "scaleWeight-Augmented.4": 0.300000012,
        "scaleStatus-Augmented.4": 1,
        "scaleWeight-Augmented.5": 0.0,
        "scaleStatus-Augmented.5": 0,
        "scaleWeight-Augmented.6": 0.0,
        "scaleStatus-Augmented.6": 0,
        "scaleWeight-Augmented.7": 0.5,
        "scaleStatus-Augmented.7": 1,
        "scaleWeight-Augmented.8": 0.800000012,
        "scaleStatus-Augmented.8": 1,
        "scaleWeight-Augmented.9": 0.0,
        "scaleStatus-Augmented.9": 0,
        "scaleWeight-Augmented.10": 0.0,
        "scaleStatus-Augmented.10": 0,
        "scaleWeight-Augmented.11": 0.200000003,
        "scaleStatus-Augmented.11": 1,
        "scaleWeight-Bebop Dominant.0": 1.0,
        "scaleStatus-Bebop Dominant.0": 1,
        "scaleWeight-Bebop Dominant.1": 0.0,
        "scaleStatus-Bebop Dominant.1": 0,
        "scaleWeight-Bebop Dominant.2": 0.200000003,
        "scaleStatus-Bebop Dominant.2": 1,
        "scaleWeight-Bebop Dominant.3": 0.0,
        "scaleStatus-Bebop Dominant.3": 0,
        "scaleWeight-Bebop Dominant.4": 0.300000012,
        "scaleStatus-Bebop Dominant.4": 1,
        "scaleWeight-Bebop Dominant.5": 0.5,
        "scaleStatus-Bebop Dominant.5": 1,
        "scaleWeight-Bebop Dominant.6": 0.0,
        "scaleStatus-Bebop Dominant.6": 0,
        "scaleWeight-Bebop Dominant.7": 0.800000012,
        "scaleStatus-Bebop Dominant.7": 1,
        "scaleWeight-Bebop Dominant.8": 0.0,
        "scaleStatus-Bebop Dominant.8": 0,
        "scaleWeight-Bebop Dominant.9": 0.200000003,
        "scaleStatus-Bebop Dominant.9": 1,
        "scaleWeight-Bebop Dominant.10": 0.300000012,
        "scaleStatus-Bebop Dominant.10": 1,
        "scaleWeight-Bebop Dominant.11": 0.200000003,
        "scaleStatus-Bebop Dominant.11": 1,
        "scaleWeight-Blues.0": 1.0,
        "scaleStatus-Blues.0": 1,
        "scaleWeight-Blues.1": 0.0,
        "scaleStatus-Blues.1": 0,
        "scaleWeight-Blues.2": 0.0,
        "scaleStatus-Blues.2": 0,
        "scaleWeight-Blues.3": 0.200000003,
        "scaleStatus-Blues.3": 1,
        "scaleWeight-Blues.4": 0.0,
        "scaleStatus-Blues.4": 0,
        "scaleWeight-Blues.5": 0.300000012,
        "scaleStatus-Blues.5": 1,
        "scaleWeight-Blues.6": 0.5,
        "scaleStatus-Blues.6": 1,
        "scaleWeight-Blues.7": 0.800000012,
        "scaleStatus-Blues.7": 1,
        "scaleWeight-Blues.8": 0.0,
        "scaleStatus-Blues.8": 0,
        "scaleWeight-Blues.9": 0.0,
        "scaleStatus-Blues.9": 0,
        "scaleWeight-Blues.10": 0.200000003,
        "scaleStatus-Blues.10": 1,
        "scaleWeight-Blues.11": 0.0,
        "scaleStatus-Blues.11": 0,
        "scaleWeight-Enigmatic.0": 1.0,
        "scaleStatus-Enigmatic.0": 1,
        "scaleWeight-Enigmatic.1": 0.200000003,
        "scaleStatus-Enigmatic.1": 1,
        "scaleWeight-Enigmatic.2": 0.0,
        "scaleStatus-Enigmatic.2": 0,
        "scaleWeight-Enigmatic.3": 0.0,
        "scaleStatus-Enigmatic.3": 0,
        "scaleWeight-Enigmatic.4": 0.300000012,
        "scaleStatus-Enigmatic.4": 1,
        "scaleWeight-Enigmatic.5": 0.0,
        "scaleStatus-Enigmatic.5": 0,
        "scaleWeight-Enigmatic.6": 0.5,
        "scaleStatus-Enigmatic.6": 1,
        "scaleWeight-Enigmatic.7": 0.0,
        "scaleStatus-Enigmatic.7": 0,
        "scaleWeight-Enigmatic.8": 0.800000012,
        "scaleStatus-Enigmatic.8": 1,
        "scaleWeight-Enigmatic.9": 0.0,
        "scaleStatus-Enigmatic.9": 0,
        "scaleWeight-Enigmatic.10": 0.200000003,
        "scaleStatus-Enigmatic.10": 1,
        "scaleWeight-Enigmatic.11": 0.300000012,
        "scaleStatus-Enigmatic.11": 1,
        "scaleWeight-Flamenco.0": 1.0,
        "scaleStatus-Flamenco.0": 1,
        "scaleWeight-Flamenco.1": 0.200000003,
        "scaleStatus-Flamenco.1": 1,
        "scaleWeight-Flamenco.2": 0.0,
        "scaleStatus-Flamenco.2": 0,
        "scaleWeight-Flamenco.3": 0.0,
        "scaleStatus-Flamenco.3": 0,
        "scaleWeight-Flamenco.4": 0.300000012,
        "scaleStatus-Flamenco.4": 1,
        "scaleWeight-Flamenco.5": 0.5,
        "scaleStatus-Flamenco.5": 1,
        "scaleWeight-Flamenco.6": 0.0,
        "scaleStatus-Flamenco.6": 0,
        "scaleWeight-Flamenco.7": 0.800000012,
        "scaleStatus-Flamenco.7": 1,
        "scaleWeight-Flamenco.8": 0.200000003,
        "scaleStatus-Flamenco.8": 1,
        "scaleWeight-Flamenco.9": 0.0,
        "scaleStatus-Flamenco.9": 0,
        "scaleWeight-Flamenco.10": 0.0,
        "scaleStatus-Flamenco.10": 0,
        "scaleWeight-Flamenco.11": 0.300000012,
        "scaleStatus-Flamenco.11": 1,
        "scaleWeight-Gypsy.0": 1.0,
        "scaleStatus-Gypsy.0": 1,
        "scaleWeight-Gypsy.1": 0.0,
        "scaleStatus-Gypsy.1": 0,
        "scaleWeight-Gypsy.2": 0.200000003,
        "scaleStatus-Gypsy.2": 1,
        "scaleWeight-Gypsy.3": 0.300000012,
        "scaleStatus-Gypsy.3": 1,
        "scaleWeight-Gypsy.4": 0.0,
        "scaleStatus-Gypsy.4": 0,
        "scaleWeight-Gypsy.5": 0.0,
        "scaleStatus-Gypsy.5": 0,
        "scaleWeight-Gypsy.6": 0.5,
        "scaleStatus-Gypsy.6": 1,
        "scaleWeight-Gypsy.7": 0.800000012,
        "scaleStatus-Gypsy.7": 1,
        "scaleWeight-Gypsy.8": 0.200000003,
        "scaleStatus-Gypsy.8": 1,
        "scaleWeight-Gypsy.9": 0.0,
        "scaleStatus-Gypsy.9": 0,
        "scaleWeight-Gypsy.10": 0.300000012,
        "scaleStatus-Gypsy.10": 1,
        "scaleWeight-Gypsy.11": 0.0,
        "scaleStatus-Gypsy.11": 0,
        "scaleWeight-Half diminished.0": 1.0,
        "scaleStatus-Half diminished.0": 1,
        "scaleWeight-Half diminished.1": 0.0,
        "scaleStatus-Half diminished.1": 0,
        "scaleWeight-Half diminished.2": 0.200000003,
        "scaleStatus-Half diminished.2": 1,
        "scaleWeight-Half diminished.3": 0.300000012,
        "scaleStatus-Half diminished.3": 1,
        "scaleWeight-Half diminished.4": 0.0,
        "scaleStatus-Half diminished.4": 0,
        "scaleWeight-Half diminished.5": 0.5,
        "scaleStatus-Half diminished.5": 1,
        "scaleWeight-Half diminished.6": 0.800000012,
        "scaleStatus-Half diminished.6": 1,
        "scaleWeight-Half diminished.7": 0.0,
        "scaleStatus-Half diminished.7": 0,
        "scaleWeight-Half diminished.8": 0.200000003,
        "scaleStatus-Half diminished.8": 1,
        "scaleWeight-Half diminished.9": 0.0,
        "scaleStatus-Half diminished.9": 0,
        "scaleWeight-Half diminished.10": 0.300000012,
        "scaleStatus-Half diminished.10": 1,
        "scaleWeight-Half diminished.11": 0.0,
        "scaleStatus-Half diminished.11": 0,
        "scaleWeight-Harmonic Major.0": 1.0,
        "scaleStatus-Harmonic Major.0": 1,
        "scaleWeight-Harmonic Major.1": 0.0,
        "scaleStatus-Harmonic Major.1": 0,
        "scaleWeight-Harmonic Major.2": 0.200000003,
        "scaleStatus-Harmonic Major.2": 1,
        "scaleWeight-Harmonic Major.3": 0.0,
        "scaleStatus-Harmonic Major.3": 0,
        "scaleWeight-Harmonic Major.4": 0.300000012,
        "scaleStatus-Harmonic Major.4": 1,
        "scaleWeight-Harmonic Major.5": 0.5,
        "scaleStatus-Harmonic Major.5": 1,
        "scaleWeight-Harmonic Major.6": 0.0,
        "scaleStatus-Harmonic Major.6": 0,
        "scaleWeight-Harmonic Major.7": 0.800000012,
        "scaleStatus-Harmonic Major.7": 1,
        "scaleWeight-Harmonic Major.8": 0.200000003,
        "scaleStatus-Harmonic Major.8": 1,
        "scaleWeight-Harmonic Major.9": 0.0,
        "scaleStatus-Harmonic Major.9": 0,
        "scaleWeight-Harmonic Major.10": 0.0,
        "scaleStatus-Harmonic Major.10": 0,
        "scaleWeight-Harmonic Major.11": 0.300000012,
        "scaleStatus-Harmonic Major.11": 1,
        "scaleWeight-Harmonic Minor.0": 1.0,
        "scaleStatus-Harmonic Minor.0": 1,
        "scaleWeight-Harmonic Minor.1": 0.0,
        "scaleStatus-Harmonic Minor.1": 0,
        "scaleWeight-Harmonic Minor.2": 0.200000003,
        "scaleStatus-Harmonic Minor.2": 1,
        "scaleWeight-Harmonic Minor.3": 0.300000012,
        "scaleStatus-Harmonic Minor.3": 1,
        "scaleWeight-Harmonic Minor.4": 0.0,
        "scaleStatus-Harmonic Minor.4": 0,
        "scaleWeight-Harmonic Minor.5": 0.5,
        "scaleStatus-Harmonic Minor.5": 1,
        "scaleWeight-Harmonic Minor.6": 0.0,
        "scaleStatus-Harmonic Minor.6": 0,
        "scaleWeight-Harmonic Minor.7": 0.800000012,
        "scaleStatus-Harmonic Minor.7": 1,
        "scaleWeight-Harmonic Minor.8": 0.200000003,
        "scaleStatus-Harmonic Minor.8": 1,
        "scaleWeight-Harmonic Minor.9": 0.0,
        "scaleStatus-Harmonic Minor.9": 0,
        "scaleWeight-Harmonic Minor.10": 0.0,
        "scaleStatus-Harmonic Minor.10": 0,
        "scaleWeight-Harmonic Minor.11": 0.300000012,
        "scaleStatus-Harmonic Minor.11": 1,
        "scaleWeight-Hirajoshi.0": 1.0,
        "scaleStatus-Hirajoshi.0": 1,
        "scaleWeight-Hirajoshi.1": 0.0,
        "scaleStatus-Hirajoshi.1": 0,
        "scaleWeight-Hirajoshi.2": 0.0,
        "scaleStatus-Hirajoshi.2": 0,
        "scaleWeight-Hirajoshi.3": 0.0,
        "scaleStatus-Hirajoshi.3": 0,
        "scaleWeight-Hirajoshi.4": 0.200000003,
        "scaleStatus-Hirajoshi.4": 1,
        "scaleWeight-Hirajoshi.5": 0.0,
        "scaleStatus-Hirajoshi.5": 0,
        "scaleWeight-Hirajoshi.6": 0.300000012,
        "scaleStatus-Hirajoshi.6": 1,
        "scaleWeight-Hirajoshi.7": 0.5,
        "scaleStatus-Hirajoshi.7": 1,
        "scaleWeight-Hirajoshi.8": 0.0,
        "scaleStatus-Hirajoshi.8": 0,
        "scaleWeight-Hirajoshi.9": 0.0,
        "scaleStatus-Hirajoshi.9": 0,
        "scaleWeight-Hirajoshi.10": 0.0,
        "scaleStatus-Hirajoshi.10": 0,
        "scaleWeight-Hirajoshi.11": 0.800000012,
        "scaleStatus-Hirajoshi.11": 1,
        "scaleWeight-Hungarian.0": 1.0,
        "scaleStatus-Hungarian.0": 1,
        "scaleWeight-Hungarian.1": 0.0,
        "scaleStatus-Hungarian.1": 0,
        "scaleWeight-Hungarian.2": 0.200000003,
        "scaleStatus-Hungarian.2": 1,
        "scaleWeight-Hungarian.3": 0.300000012,
        "scaleStatus-Hungarian.3": 1,
        "scaleWeight-Hungarian.4": 0.0,
        "scaleStatus-Hungarian.4": 0,
        "scaleWeight-Hungarian.5": 0.0,
        "scaleStatus-Hungarian.5": 0,
        "scaleWeight-Hungarian.6": 0.5,
        "scaleStatus-Hungarian.6": 1,
        "scaleWeight-Hungarian.7": 0.800000012,
        "scaleStatus-Hungarian.7": 1,
        "scaleWeight-Hungarian.8": 0.200000003,
        "scaleStatus-Hungarian.8": 1,
        "scaleWeight-Hungarian.9": 0.0,
        "scaleStatus-Hungarian.9": 0,
        "scaleWeight-Hungarian.10": 0.0,
        "scaleStatus-Hungarian.10": 0,
        "scaleWeight-Hungarian.11": 0.300000012,
        "scaleStatus-Hungarian.11": 1,
        "scaleWeight-Miyako-bushi.0": 1.0,
        "scaleStatus-Miyako-bushi.0": 1,
        "scaleWeight-Miyako-bushi.1": 0.200000003,
        "scaleStatus-Miyako-bushi.1": 1,
        "scaleWeight-Miyako-bushi.2": 0.0,
        "scaleStatus-Miyako-bushi.2": 0,
        "scaleWeight-Miyako-bushi.3": 0.0,
        "scaleStatus-Miyako-bushi.3": 0,
        "scaleWeight-Miyako-bushi.4": 0.0,
        "scaleStatus-Miyako-bushi.4": 0,
        "scaleWeight-Miyako-bushi.5": 0.300000012,
        "scaleStatus-Miyako-bushi.5": 1,
        "scaleWeight-Miyako-bushi.6": 0.0,
        "scaleStatus-Miyako-bushi.6": 0,
        "scaleWeight-Miyako-bushi.7": 0.5,
        "scaleStatus-Miyako-bushi.7": 1,
        "scaleWeight-Miyako-bushi.8": 0.800000012,
        "scaleStatus-Miyako-bushi.8": 1,
        "scaleWeight-Miyako-bushi.9": 0.0,
        "scaleStatus-Miyako-bushi.9": 0,
        "scaleWeight-Miyako-bushi.10": 0.0,
        "scaleStatus-Miyako-bushi.10": 0,
        "scaleWeight-Miyako-bushi.11": 0.0,
        "scaleStatus-Miyako-bushi.11": 0,
        "scaleWeight-Insen.0": 1.0,
        "scaleStatus-Insen.0": 1,
        "scaleWeight-Insen.1": 0.200000003,
        "scaleStatus-Insen.1": 1,
        "scaleWeight-Insen.2": 0.0,
        "scaleStatus-Insen.2": 0,
        "scaleWeight-Insen.3": 0.0,
        "scaleStatus-Insen.3": 0,
        "scaleWeight-Insen.4": 0.0,
        "scaleStatus-Insen.4": 0,
        "scaleWeight-Insen.5": 0.300000012,
        "scaleStatus-Insen.5": 1,
        "scaleWeight-Insen.6": 0.0,
        "scaleStatus-Insen.6": 0,
        "scaleWeight-Insen.7": 0.5,
        "scaleStatus-Insen.7": 1,
        "scaleWeight-Insen.8": 0.0,
        "scaleStatus-Insen.8": 0,
        "scaleWeight-Insen.9": 0.0,
        "scaleStatus-Insen.9": 0,
        "scaleWeight-Insen.10": 0.0,
        "scaleStatus-Insen.10": 0,
        "scaleWeight-Insen.11": 0.800000012,
        "scaleStatus-Insen.11": 1,
        "scaleWeight-Iwato.0": 1.0,
        "scaleStatus-Iwato.0": 1,
        "scaleWeight-Iwato.1": 0.200000003,
        "scaleStatus-Iwato.1": 1,
        "scaleWeight-Iwato.2": 0.0,
        "scaleStatus-Iwato.2": 0,
        "scaleWeight-Iwato.3": 0.0,
        "scaleStatus-Iwato.3": 0,
        "scaleWeight-Iwato.4": 0.0,
        "scaleStatus-Iwato.4": 0,
        "scaleWeight-Iwato.5": 0.300000012,
        "scaleStatus-Iwato.5": 1,
        "scaleWeight-Iwato.6": 0.5,
        "scaleStatus-Iwato.6": 1,
        "scaleWeight-Iwato.7": 0.0,
        "scaleStatus-Iwato.7": 0,
        "scaleWeight-Iwato.8": 0.0,
        "scaleStatus-Iwato.8": 0,
        "scaleWeight-Iwato.9": 0.0,
        "scaleStatus-Iwato.9": 0,
        "scaleWeight-Iwato.10": 0.800000012,
        "scaleStatus-Iwato.10": 1,
        "scaleWeight-Iwato.11": 0.0,
        "scaleStatus-Iwato.11": 0,
        "scaleWeight-Lydian Augmented.0": 1.0,
        "scaleStatus-Lydian Augmented.0": 1,
        "scaleWeight-Lydian Augmented.1": 0.0,
        "scaleStatus-Lydian Augmented.1": 0,
        "scaleWeight-Lydian Augmented.2": 0.200000003,
        "scaleStatus-Lydian Augmented.2": 1,
        "scaleWeight-Lydian Augmented.3": 0.0,
        "scaleStatus-Lydian Augmented.3": 0,
        "scaleWeight-Lydian Augmented.4": 0.300000012,
        "scaleStatus-Lydian Augmented.4": 1,
        "scaleWeight-Lydian Augmented.5": 0.0,
        "scaleStatus-Lydian Augmented.5": 0,
        "scaleWeight-Lydian Augmented.6": 0.5,
        "scaleStatus-Lydian Augmented.6": 1,
        "scaleWeight-Lydian Augmented.7": 0.0,
        "scaleStatus-Lydian Augmented.7": 0,
        "scaleWeight-Lydian Augmented.8": 0.800000012,
        "scaleStatus-Lydian Augmented.8": 1,
        "scaleWeight-Lydian Augmented.9": 0.200000003,
        "scaleStatus-Lydian Augmented.9": 1,
        "scaleWeight-Lydian Augmented.10": 0.0,
        "scaleStatus-Lydian Augmented.10": 0,
        "scaleWeight-Lydian Augmented.11": 0.300000012,
        "scaleStatus-Lydian Augmented.11": 1,
        "scaleWeight-Bebob Major.0": 1.0,
        "scaleStatus-Bebob Major.0": 1,
        "scaleWeight-Bebob Major.1": 0.0,
        "scaleStatus-Bebob Major.1": 0,
        "scaleWeight-Bebob Major.2": 0.200000003,
        "scaleStatus-Bebob Major.2": 1,
        "scaleWeight-Bebob Major.3": 0.0,
        "scaleStatus-Bebob Major.3": 0,
        "scaleWeight-Bebob Major.4": 0.300000012,
        "scaleStatus-Bebob Major.4": 1,
        "scaleWeight-Bebob Major.5": 0.5,
        "scaleStatus-Bebob Major.5": 1,
        "scaleWeight-Bebob Major.6": 0.0,
        "scaleStatus-Bebob Major.6": 0,
        "scaleWeight-Bebob Major.7": 0.800000012,
        "scaleStatus-Bebob Major.7": 1,
        "scaleWeight-Bebob Major.8": 0.200000003,
        "scaleStatus-Bebob Major.8": 1,
        "scaleWeight-Bebob Major.9": 0.0,
        "scaleStatus-Bebob Major.9": 0,
        "scaleWeight-Bebob Major.10": 0.300000012,
        "scaleStatus-Bebob Major.10": 1,
        "scaleWeight-Bebob Major.11": 0.200000003,
        "scaleStatus-Bebob Major.11": 1,
        "scaleWeight-Locrian Major.0": 1.0,
        "scaleStatus-Locrian Major.0": 1,
        "scaleWeight-Locrian Major.1": 0.0,
        "scaleStatus-Locrian Major.1": 0,
        "scaleWeight-Locrian Major.2": 0.200000003,
        "scaleStatus-Locrian Major.2": 1,
        "scaleWeight-Locrian Major.3": 0.0,
        "scaleStatus-Locrian Major.3": 0,
        "scaleWeight-Locrian Major.4": 0.300000012,
        "scaleStatus-Locrian Major.4": 1,
        "scaleWeight-Locrian Major.5": 0.5,
        "scaleStatus-Locrian Major.5": 1,
        "scaleWeight-Locrian Major.6": 0.800000012,
        "scaleStatus-Locrian Major.6": 1,
        "scaleWeight-Locrian Major.7": 0.0,
        "scaleStatus-Locrian Major.7": 0,
        "scaleWeight-Locrian Major.8": 0.200000003,
        "scaleStatus-Locrian Major.8": 1,
        "scaleWeight-Locrian Major.9": 0.0,
        "scaleStatus-Locrian Major.9": 0,
        "scaleWeight-Locrian Major.10": 0.300000012,
        "scaleStatus-Locrian Major.10": 1,
        "scaleWeight-Locrian Major.11": 0.0,
        "scaleStatus-Locrian Major.11": 0,
        "scaleWeight-Pentatonic Major.0": 1.0,
        "scaleStatus-Pentatonic Major.0": 1,
        "scaleWeight-Pentatonic Major.1": 0.0,
        "scaleStatus-Pentatonic Major.1": 0,
        "scaleWeight-Pentatonic Major.2": 0.200000003,
        "scaleStatus-Pentatonic Major.2": 1,
        "scaleWeight-Pentatonic Major.3": 0.0,
        "scaleStatus-Pentatonic Major.3": 0,
        "scaleWeight-Pentatonic Major.4": 0.300000012,
        "scaleStatus-Pentatonic Major.4": 1,
        "scaleWeight-Pentatonic Major.5": 0.0,
        "scaleStatus-Pentatonic Major.5": 0,
        "scaleWeight-Pentatonic Major.6": 0.0,
        "scaleStatus-Pentatonic Major.6": 0,
        "scaleWeight-Pentatonic Major.7": 0.5,
        "scaleStatus-Pentatonic Major.7": 1,
        "scaleWeight-Pentatonic Major.8": 0.0,
        "scaleStatus-Pentatonic Major.8": 0,
        "scaleWeight-Pentatonic Major.9": 0.800000012,
        "scaleStatus-Pentatonic Major.9": 1,
        "scaleWeight-Pentatonic Major.10": 0.0,
        "scaleStatus-Pentatonic Major.10": 0,
        "scaleWeight-Pentatonic Major.11": 0.0,
        "scaleStatus-Pentatonic Major.11": 0,
        "scaleWeight-Melodic Minor.0": 1.0,
        "scaleStatus-Melodic Minor.0": 1,
        "scaleWeight-Melodic Minor.1": 0.0,
        "scaleStatus-Melodic Minor.1": 0,
        "scaleWeight-Melodic Minor.2": 0.200000003,
        "scaleStatus-Melodic Minor.2": 1,
        "scaleWeight-Melodic Minor.3": 0.300000012,
        "scaleStatus-Melodic Minor.3": 1,
        "scaleWeight-Melodic Minor.4": 0.0,
        "scaleStatus-Melodic Minor.4": 0,
        "scaleWeight-Melodic Minor.5": 0.5,
        "scaleStatus-Melodic Minor.5": 1,
        "scaleWeight-Melodic Minor.6": 0.0,
        "scaleStatus-Melodic Minor.6": 0,
        "scaleWeight-Melodic Minor.7": 0.800000012,
        "scaleStatus-Melodic Minor.7": 1,
        "scaleWeight-Melodic Minor.8": 0.0,
        "scaleStatus-Melodic Minor.8": 0,
        "scaleWeight-Melodic Minor.9": 0.200000003,
        "scaleStatus-Melodic Minor.9": 1,
        "scaleWeight-Melodic Minor.10": 0.0,
        "scaleStatus-Melodic Minor.10": 0,
        "scaleWeight-Melodic Minor.11": 0.300000012,
        "scaleStatus-Melodic Minor.11": 1,
        "scaleWeight-Pentatonic Minor - Yo.0": 1.0,
        "scaleStatus-Pentatonic Minor - Yo.0": 1,
        "scaleWeight-Pentatonic Minor - Yo.1": 0.0,
        "scaleStatus-Pentatonic Minor - Yo.1": 0,
        "scaleWeight-Pentatonic Minor - Yo.2": 0.0,
        "scaleStatus-Pentatonic Minor - Yo.2": 0,
        "scaleWeight-Pentatonic Minor - Yo.3": 0.200000003,
        "scaleStatus-Pentatonic Minor - Yo.3": 1,
        "scaleWeight-Pentatonic Minor - Yo.4": 0.0,
        "scaleStatus-Pentatonic Minor - Yo.4": 0,
        "scaleWeight-Pentatonic Minor - Yo.5": 0.300000012,
        "scaleStatus-Pentatonic Minor - Yo.5": 1,
        "scaleWeight-Pentatonic Minor - Yo.6": 0.0,
        "scaleStatus-Pentatonic Minor - Yo.6": 0,
        "scaleWeight-Pentatonic Minor - Yo.7": 0.5,
        "scaleStatus-Pentatonic Minor - Yo.7": 1,
        "scaleWeight-Pentatonic Minor - Yo.8": 0.0,
        "scaleStatus-Pentatonic Minor - Yo.8": 0,
        "scaleWeight-Pentatonic Minor - Yo.9": 0.0,
        "scaleStatus-Pentatonic Minor - Yo.9": 0,
        "scaleWeight-Pentatonic Minor - Yo.10": 0.800000012,
        "scaleStatus-Pentatonic Minor - Yo.10": 1,
        "scaleWeight-Pentatonic Minor - Yo.11": 0.0,
        "scaleStatus-Pentatonic Minor - Yo.11": 0,
        "scaleWeight-Neapoliltan Major.0": 1.0,
        "scaleStatus-Neapoliltan Major.0": 1,
        "scaleWeight-Neapoliltan Major.1": 0.200000003,
        "scaleStatus-Neapoliltan Major.1": 1,
        "scaleWeight-Neapoliltan Major.2": 0.0,
        "scaleStatus-Neapoliltan Major.2": 0,
        "scaleWeight-Neapoliltan Major.3": 0.300000012,
        "scaleStatus-Neapoliltan Major.3": 1,
        "scaleWeight-Neapoliltan Major.4": 0.0,
        "scaleStatus-Neapoliltan Major.4": 0,
        "scaleWeight-Neapoliltan Major.5": 0.5,
        "scaleStatus-Neapoliltan Major.5": 1,
        "scaleWeight-Neapoliltan Major.6": 0.0,
        "scaleStatus-Neapoliltan Major.6": 0,
        "scaleWeight-Neapoliltan Major.7": 0.800000012,
        "scaleStatus-Neapoliltan Major.7": 1,
        "scaleWeight-Neapoliltan Major.8": 0.0,
        "scaleStatus-Neapoliltan Major.8": 0,
        "scaleWeight-Neapoliltan Major.9": 0.200000003,
        "scaleStatus-Neapoliltan Major.9": 1,
        "scaleWeight-Neapoliltan Major.10": 0.0,
        "scaleStatus-Neapoliltan Major.10": 0,
        "scaleWeight-Neapoliltan Major.11": 0.300000012,
        "scaleStatus-Neapoliltan Major.11": 1,
        "scaleWeight-Neapolitan Minor.0": 1.0,
        "scaleStatus-Neapolitan Minor.0": 1,
        "scaleWeight-Neapolitan Minor.1": 0.200000003,
        "scaleStatus-Neapolitan Minor.1": 1,
        "scaleWeight-Neapolitan Minor.2": 0.0,
        "scaleStatus-Neapolitan Minor.2": 0,
        "scaleWeight-Neapolitan Minor.3": 0.300000012,
        "scaleStatus-Neapolitan Minor.3": 1,
        "scaleWeight-Neapolitan Minor.4": 0.0,
        "scaleStatus-Neapolitan Minor.4": 0,
        "scaleWeight-Neapolitan Minor.5": 0.5,
        "scaleStatus-Neapolitan Minor.5": 1,
        "scaleWeight-Neapolitan Minor.6": 0.0,
        "scaleStatus-Neapolitan Minor.6": 0,
        "scaleWeight-Neapolitan Minor.7": 0.800000012,
        "scaleStatus-Neapolitan Minor.7": 1,
        "scaleWeight-Neapolitan Minor.8": 0.200000003,
        "scaleStatus-Neapolitan Minor.8": 1,
        "scaleWeight-Neapolitan Minor.9": 0.0,
        "scaleStatus-Neapolitan Minor.9": 0,
        "scaleWeight-Neapolitan Minor.10": 0.0,
        "scaleStatus-Neapolitan Minor.10": 0,
        "scaleWeight-Neapolitan Minor.11": 0.300000012,
        "scaleStatus-Neapolitan Minor.11": 1,
        "scaleWeight-Octatonic 1.0": 1.0,
        "scaleStatus-Octatonic 1.0": 1,
        "scaleWeight-Octatonic 1.1": 0.0,
        "scaleStatus-Octatonic 1.1": 0,
        "scaleWeight-Octatonic 1.2": 0.200000003,
        "scaleStatus-Octatonic 1.2": 1,
        "scaleWeight-Octatonic 1.3": 0.300000012,
        "scaleStatus-Octatonic 1.3": 1,
        "scaleWeight-Octatonic 1.4": 0.0,
        "scaleStatus-Octatonic 1.4": 0,
        "scaleWeight-Octatonic 1.5": 0.5,
        "scaleStatus-Octatonic 1.5": 1,
        "scaleWeight-Octatonic 1.6": 0.800000012,
        "scaleStatus-Octatonic 1.6": 1,
        "scaleWeight-Octatonic 1.7": 0.0,
        "scaleStatus-Octatonic 1.7": 0,
        "scaleWeight-Octatonic 1.8": 0.200000003,
        "scaleStatus-Octatonic 1.8": 1,
        "scaleWeight-Octatonic 1.9": 0.300000012,
        "scaleStatus-Octatonic 1.9": 1,
        "scaleWeight-Octatonic 1.10": 0.0,
        "scaleStatus-Octatonic 1.10": 0,
        "scaleWeight-Octatonic 1.11": 0.200000003,
        "scaleStatus-Octatonic 1.11": 1,
        "scaleWeight-Octatonic 2.0": 1.0,
        "scaleStatus-Octatonic 2.0": 1,
        "scaleWeight-Octatonic 2.1": 0.200000003,
        "scaleStatus-Octatonic 2.1": 1,
        "scaleWeight-Octatonic 2.2": 0.0,
        "scaleStatus-Octatonic 2.2": 0,
        "scaleWeight-Octatonic 2.3": 0.300000012,
        "scaleStatus-Octatonic 2.3": 1,
        "scaleWeight-Octatonic 2.4": 0.5,
        "scaleStatus-Octatonic 2.4": 1,
        "scaleWeight-Octatonic 2.5": 0.0,
        "scaleStatus-Octatonic 2.5": 0,
        "scaleWeight-Octatonic 2.6": 0.800000012,
        "scaleStatus-Octatonic 2.6": 1,
        "scaleWeight-Octatonic 2.7": 0.200000003,
        "scaleStatus-Octatonic 2.7": 1,
        "scaleWeight-Octatonic 2.8": 0.0,
        "scaleStatus-Octatonic 2.8": 0,
        "scaleWeight-Octatonic 2.9": 0.300000012,
        "scaleStatus-Octatonic 2.9": 1,
        "scaleWeight-Octatonic 2.10": 0.200000003,
        "scaleStatus-Octatonic 2.10": 1,
        "scaleWeight-Octatonic 2.11": 0.0,
        "scaleStatus-Octatonic 2.11": 0,
        "scaleWeight-Persian.0": 1.0,
        "scaleStatus-Persian.0": 1,
        "scaleWeight-Persian.1": 0.200000003,
        "scaleStatus-Persian.1": 1,
        "scaleWeight-Persian.2": 0.0,
        "scaleStatus-Persian.2": 0,
        "scaleWeight-Persian.3": 0.0,
        "scaleStatus-Persian.3": 0,
        "scaleWeight-Persian.4": 0.300000012,
        "scaleStatus-Persian.4": 1,
        "scaleWeight-Persian.5": 0.5,
        "scaleStatus-Persian.5": 1,
        "scaleWeight-Persian.6": 0.800000012,
        "scaleStatus-Persian.6": 1,
        "scaleWeight-Persian.7": 0.0,
        "scaleStatus-Persian.7": 0,
        "scaleWeight-Persian.8": 0.200000003,
        "scaleStatus-Persian.8": 1,
        "scaleWeight-Persian.9": 0.0,
        "scaleStatus-Persian.9": 0,
        "scaleWeight-Persian.10": 0.0,
        "scaleStatus-Persian.10": 0,
        "scaleWeight-Persian.11": 0.300000012,
        "scaleStatus-Persian.11": 1,
        "scaleWeight-Phrygian Dominant.0": 1.0,
        "scaleStatus-Phrygian Dominant.0": 1,
        "scaleWeight-Phrygian Dominant.1": 0.200000003,
        "scaleStatus-Phrygian Dominant.1": 1,
        "scaleWeight-Phrygian Dominant.2": 0.0,
        "scaleStatus-Phrygian Dominant.2": 0,
        "scaleWeight-Phrygian Dominant.3": 0.0,
        "scaleStatus-Phrygian Dominant.3": 0,
        "scaleWeight-Phrygian Dominant.4": 0.300000012,
        "scaleStatus-Phrygian Dominant.4": 1,
        "scaleWeight-Phrygian Dominant.5": 0.5,
        "scaleStatus-Phrygian Dominant.5": 1,
        "scaleWeight-Phrygian Dominant.6": 0.0,
        "scaleStatus-Phrygian Dominant.6": 0,
        "scaleWeight-Phrygian Dominant.7": 0.800000012,
        "scaleStatus-Phrygian Dominant.7": 1,
        "scaleWeight-Phrygian Dominant.8": 0.200000003,
        "scaleStatus-Phrygian Dominant.8": 1,
        "scaleWeight-Phrygian Dominant.9": 0.0,
        "scaleStatus-Phrygian Dominant.9": 0,
        "scaleWeight-Phrygian Dominant.10": 0.300000012,
        "scaleStatus-Phrygian Dominant.10": 1,
        "scaleWeight-Phrygian Dominant.11": 0.0,
        "scaleStatus-Phrygian Dominant.11": 0,
        "scaleWeight-Prometheus.0": 1.0,
        "scaleStatus-Prometheus.0": 1,
        "scaleWeight-Prometheus.1": 0.0,
        "scaleStatus-Prometheus.1": 0,
        "scaleWeight-Prometheus.2": 0.200000003,
        "scaleStatus-Prometheus.2": 1,
        "scaleWeight-Prometheus.3": 0.0,
        "scaleStatus-Prometheus.3": 0,
        "scaleWeight-Prometheus.4": 0.300000012,
        "scaleStatus-Prometheus.4": 1,
        "scaleWeight-Prometheus.5": 0.0,
        "scaleStatus-Prometheus.5": 0,
        "scaleWeight-Prometheus.6": 0.5,
        "scaleStatus-Prometheus.6": 1,
        "scaleWeight-Prometheus.7": 0.0,
        "scaleStatus-Prometheus.7": 0,
        "scaleWeight-Prometheus.8": 0.0,
        "scaleStatus-Prometheus.8": 0,
        "scaleWeight-Prometheus.9": 0.800000012,
        "scaleStatus-Prometheus.9": 1,
        "scaleWeight-Prometheus.10": 0.200000003,
        "scaleStatus-Prometheus.10": 1,
        "scaleWeight-Prometheus.11": 0.0,
        "scaleStatus-Prometheus.11": 0,
        "scaleWeight-Harmonics.0": 1.0,
        "scaleStatus-Harmonics.0": 1,
        "scaleWeight-Harmonics.1": 0.0,
        "scaleStatus-Harmonics.1": 0,
        "scaleWeight-Harmonics.2": 0.0,
        "scaleStatus-Harmonics.2": 0,
        "scaleWeight-Harmonics.3": 0.200000003,
        "scaleStatus-Harmonics.3": 1,
        "scaleWeight-Harmonics.4": 0.300000012,
        "scaleStatus-Harmonics.4": 1,
        "scaleWeight-Harmonics.5": 0.5,
        "scaleStatus-Harmonics.5": 1,
        "scaleWeight-Harmonics.6": 0.0,
        "scaleStatus-Harmonics.6": 0,
        "scaleWeight-Harmonics.7": 0.800000012,
        "scaleStatus-Harmonics.7": 1,
        "scaleWeight-Harmonics.8": 0.0,
        "scaleStatus-Harmonics.8": 0,
        "scaleWeight-Harmonics.9": 0.200000003,
        "scaleStatus-Harmonics.9": 1,
        "scaleWeight-Harmonics.10": 0.0,
        "scaleStatus-Harmonics.10": 0,
        "scaleWeight-Harmonics.11": 0.0,
        "scaleStatus-Harmonics.11": 0,
        "scaleWeight-Tritone.0": 1.0,
        "scaleStatus-Tritone.0": 1,
        "scaleWeight-Tritone.1": 0.200000003,
        "scaleStatus-Tritone.1": 1,
        "scaleWeight-Tritone.2": 0.0,
        "scaleStatus-Tritone.2": 0,
        "scaleWeight-Tritone.3": 0.0,
        "scaleStatus-Tritone.3": 0,
        "scaleWeight-Tritone.4": 0.300000012,
        "scaleStatus-Tritone.4": 1,
        "scaleWeight-Tritone.5": 0.0,
        "scaleStatus-Tritone.5": 0,
        "scaleWeight-Tritone.6": 0.5,
        "scaleStatus-Tritone.6": 1,
        "scaleWeight-Tritone.7": 0.800000012,
        "scaleStatus-Tritone.7": 1,
        "scaleWeight-Tritone.8": 0.0,
        "scaleStatus-Tritone.8": 0,
        "scaleWeight-Tritone.9": 0.0,
        "scaleStatus-Tritone.9": 0,
        "scaleWeight-Tritone.10": 0.200000003,
        "scaleStatus-Tritone.10": 1,
        "scaleWeight-Tritone.11": 0.0,
        "scaleStatus-Tritone.11": 0,
        "scaleWeight-Tritone 2S.0": 1.0,
        "scaleStatus-Tritone 2S.0": 1,
        "scaleWeight-Tritone 2S.1": 0.200000003,
        "scaleStatus-Tritone 2S.1": 1,
        "scaleWeight-Tritone 2S.2": 0.300000012,
        "scaleStatus-Tritone 2S.2": 1,
        "scaleWeight-Tritone 2S.3": 0.0,
        "scaleStatus-Tritone 2S.3": 0,
        "scaleWeight-Tritone 2S.4": 0.0,
        "scaleStatus-Tritone 2S.4": 0,
        "scaleWeight-Tritone 2S.5": 0.0,
        "scaleStatus-Tritone 2S.5": 0,
        "scaleWeight-Tritone 2S.6": 0.5,
        "scaleStatus-Tritone 2S.6": 1,
        "scaleWeight-Tritone 2S.7": 0.800000012,
        "scaleStatus-Tritone 2S.7": 1,
        "scaleWeight-Tritone 2S.8": 0.200000003,
        "scaleStatus-Tritone 2S.8": 1,
        "scaleWeight-Tritone 2S.9": 0.0,
        "scaleStatus-Tritone 2S.9": 0,
        "scaleWeight-Tritone 2S.10": 0.0,
        "scaleStatus-Tritone 2S.10": 0,
        "scaleWeight-Tritone 2S.11": 0.0,
        "scaleStatus-Tritone 2S.11": 0,
        "scaleWeight-Ukrainian Dorian.0": 1.0,
        "scaleStatus-Ukrainian Dorian.0": 1,
        "scaleWeight-Ukrainian Dorian.1": 0.0,
        "scaleStatus-Ukrainian Dorian.1": 0,
        "scaleWeight-Ukrainian Dorian.2": 0.200000003,
        "scaleStatus-Ukrainian Dorian.2": 1,
        "scaleWeight-Ukrainian Dorian.3": 0.300000012,
        "scaleStatus-Ukrainian Dorian.3": 1,
        "scaleWeight-Ukrainian Dorian.4": 0.0,
        "scaleStatus-Ukrainian Dorian.4": 0,
        "scaleWeight-Ukrainian Dorian.5": 0.0,
        "scaleStatus-Ukrainian Dorian.5": 0,
        "scaleWeight-Ukrainian Dorian.6": 0.5,
        "scaleStatus-Ukrainian Dorian.6": 1,
        "scaleWeight-Ukrainian Dorian.7": 0.800000012,
        "scaleStatus-Ukrainian Dorian.7": 1,
        "scaleWeight-Ukrainian Dorian.8": 0.0,
        "scaleStatus-Ukrainian Dorian.8": 0,
        "scaleWeight-Ukrainian Dorian.9": 0.200000003,
        "scaleStatus-Ukrainian Dorian.9": 1,
        "scaleWeight-Ukrainian Dorian.10": 0.300000012,
        "scaleStatus-Ukrainian Dorian.10": 1,
        "scaleWeight-Ukrainian Dorian.11": 0.0,
        "scaleStatus-Ukrainian Dorian.11": 0
      },
      "pos": [
        62,
        3
      ]
    },
    {
      "id": 237,
      "plugin": "Hora-treasureFree",
      "version": "1.0.3",
      "model": "SnareDrum-VCV",
      "params": [
        {
          "id": 0,
          "value": 0.548599482
        },
        {
          "id": 1,
          "value": 1601.92322
        },
        {
          "id": 2,
          "value": 0.0
        },
        {
          "id": 3,
          "value": 0.0
        },
        {
          "id": 4,
          "value": 0.459955156
        },
        {
          "id": 5,
          "value": 0.852999985
        },
        {
          "id": 6,
          "value": 0.910699844
        },
        {
          "id": 7,
          "value": 0.0
        },
        {
          "id": 8,
          "value": 0.0554999858
        },
        {
          "id": 9,
          "value": 0.679199398
        },
        {
          "id": 10,
          "value": 1.0
        },
        {
          "id": 11,
          "value": 0.800000012
        },
        {
          "id": 12,
          "value": 0.0
        },
        {
          "id": 13,
          "value": 0.512500167
        }
      ],
      "leftModuleId": 239,
      "rightModuleId": 235,
      "pos": [
        54,
        3
      ]
    },
    {
      "id": 239,
      "plugin": "Hora-ProcessorsFree",
      "version": "1.0.3",
      "model": "Vacuum",
      "params": [
        {
          "id": 0,
          "value": 2.0
        },
        {
          "id": 1,
          "value": 44000.0
        },
        {
          "id": 2,
          "value": 0.734000146
        },
        {
          "id": 3,
          "value": 1.0
        }
      ],
      "leftModuleId": 241,
      "rightModuleId": 237,
      "pos": [
        46,
        3
      ]
    },
    {
      "id": 241,
      "plugin": "AudibleInstruments",
      "version": "1.5.0",
      "model": "Clouds",
      "params": [
        {
          "id": 0,
          "value": 0.0
        },
        {
          "id": 1,
          "value": 0.0
        },
        {
          "id": 2,
          "value": 0.0
        },
        {
          "id": 3,
          "value": 0.623000979
        },
        {
          "id": 4,
          "value": 1.0
        },
        {
          "id": 5,
          "value": 0.0
        },
        {
          "id": 6,
          "value": 1.0
        },
        {
          "id": 7,
          "value": 0.150499299
        },
        {
          "id": 8,
          "value": 0.690499961
        },
        {
          "id": 9,
          "value": 0.633999407
        },
        {
          "id": 10,
          "value": 0.0
        },
        {
          "id": 11,
          "value": 0.488499075
        },
        {
          "id": 12,
          "value": 1.0
        }
      ],
      "leftModuleId": 242,
      "rightModuleId": 239,
      "data": {
        "playback": 0,
        "quality": 2,
        "blendMode": 0
      },
      "pos": [
        28,
        3
      ]
    },
    {
      "id": 242,
      "plugin": "NYSTHI",
      "version": "1.0.17",
      "model": "complexSimpler",
      "params": [
        {
          "id": 0,
          "value": 0.694001257
        },
        {
          "id": 1,
          "value": 0.0
        },
        {
          "id": 2,
          "value": 0.0
        },
        {
          "id": 3,
          "value": 0.0
        },
        {
          "id": 4,
          "value": 1.0
        },
        {
          "id": 5,
          "value": 0.0
        },
        {
          "id": 6,
          "value": 0.0
        },
        {
          "id": 7,
          "value": 1.0
        },
        {
          "id": 8,
          "value": 0.0
        },
        {
          "id": 9,
          "value": 0.0
        },
        {
          "id": 10,
          "value": 0.987999916
        },
        {
          "id": 11,
          "value": 1.0
        },
        {
          "id": 12,
          "value": 3.24500132
        },
        {
          "id": 13,
          "value": 0.0
        },
        {
          "id": 14,
          "value": 0.0
        },
        {
          "id": 15,
          "value": 0.0
        }
      ],
      "leftModuleId": 255,
      "rightModuleId": 241,
      "data": {
        "PARAM_ONESHOT_value": 1.0,
        "m_busy_mode": false,
        "m_autoplay_on_load": true,
        "m_original_file_name": "/Users/andreyv/Music/Navy Red/Exports/Stinky 9 - Jetlag (Dec 17).wav",
        "m_gated": false,
        "m_cv_can_be_negative": false
      },
      "pos": [
        21,
        3
      ]
    },
    {
      "id": 244,
      "plugin": "AS",
      "version": "1.0.4",
      "model": "TriLFO",
      "params": [
        {
          "id": 0,
          "value": 1.0
        },
        {
          "id": 1,
          "value": 1.0
        },
        {
          "id": 2,
          "value": -2.94399834
        },
        {
          "id": 3,
          "value": 1.0
        },
        {
          "id": 4,
          "value": 1.0
        },
        {
          "id": 5,
          "value": -0.514000058
        },
        {
          "id": 6,
          "value": 1.0
        },
        {
          "id": 7,
          "value": 1.0
        },
        {
          "id": 8,
          "value": -3.15999961
        },
        {
          "id": 9,
          "value": 0.0
        },
        {
          "id": 10,
          "value": 0.0
        },
        {
          "id": 11,
          "value": 0.0
        },
        {
          "id": 12,
          "value": 0.0
        }
      ],
      "rightModuleId": 246,
      "pos": [
        21,
        4
      ]
    },
    {
      "id": 246,
      "plugin": "AS",
      "version": "1.0.4",
      "model": "VCA",
      "params": [
        {
          "id": 0,
          "value": 0.583999753
        },
        {
          "id": 1,
          "value": 0.83000052
        },
        {
          "id": 2,
          "value": 1.0
        },
        {
          "id": 3,
          "value": 1.0
        }
      ],
      "leftModuleId": 244,
      "rightModuleId": 250,
      "pos": [
        31,
        4
      ]
    },
    {
      "id": 247,
      "plugin": "VultModulesFree",
      "version": "1.14",
      "model": "UtilKnobs",
      "params": [
        {
          "id": 0,
          "value": 0.6450001
        },
        {
          "id": 1,
          "value": 0.0
        },
        {
          "id": 2,
          "value": 0.0
        },
        {
          "id": 3,
          "value": 0.0
        },
        {
          "id": 4,
          "value": 0.0
        },
        {
          "id": 5,
          "value": 0.0
        },
        {
          "id": 6,
          "value": 0.5
        },
        {
          "id": 7,
          "value": 0.0
        },
        {
          "id": 8,
          "value": 0.0
        },
        {
          "id": 9,
          "value": 0.0
        },
        {
          "id": 10,
          "value": 0.0
        },
        {
          "id": 11,
          "value": 0.0
        }
      ],
      "leftModuleId": 180,
      "pos": [
        70,
        1
      ]
    },
    {
      "id": 248,
      "plugin": "Bogaudio",
      "version": "1.1.35",
      "model": "Bogaudio-Slew",
      "params": [
        {
          "id": 0,
          "value": 0.490229815
        },
        {
          "id": 1,
          "value": 0.0
        },
        {
          "id": 2,
          "value": 0.490229875
        },
        {
          "id": 3,
          "value": 0.0
        }
      ],
      "leftModuleId": 235,
      "data": {},
      "pos": [
        78,
        3
      ]
    },
    {
      "id": 249,
      "plugin": "Bogaudio",
      "version": "1.1.35",
      "model": "Bogaudio-Bool",
      "params": [],
      "leftModuleId": 252,
      "rightModuleId": 228,
      "data": {},
      "pos": [
        21,
        2
      ]
    },
    {
      "id": 250,
      "plugin": "Bogaudio",
      "version": "1.1.35",
      "model": "Bogaudio-LLFO",
      "params": [
        {
          "id": 0,
          "value": -1.50150013
        },
        {
          "id": 1,
          "value": 0.0
        },
        {
          "id": 2,
          "value": 0.0
        },
        {
          "id": 3,
          "value": 1.0
        },
        {
          "id": 4,
          "value": 1.0
        }
      ],
      "leftModuleId": 246,
      "data": {},
      "pos": [
        37,
        4
      ]
    },
    {
      "id": 252,
      "plugin": "Fundamental",
      "version": "1.4.0",
      "model": "SequentialSwitch2",
      "params": [
        {
          "id": 0,
          "value": 2.0
        }
      ],
      "leftModuleId": 253,
      "rightModuleId": 249,
      "pos": [
        18,
        2
      ]
    },
    {
      "id": 253,
      "plugin": "Bogaudio",
      "version": "1.1.35",
      "model": "Bogaudio-RGate",
      "params": [
        {
          "id": 0,
          "value": 0.0874999613
        },
        {
          "id": 1,
          "value": 0.131999999
        },
        {
          "id": 2,
          "value": 0.0
        }
      ],
      "rightModuleId": 252,
      "data": {
        "reset_mode": 0,
        "initial_clock_seconds": 0.5,
        "poly_input": 4
      },
      "pos": [
        13,
        2
      ]
    },
    {
      "id": 255,
      "plugin": "Bogaudio",
      "version": "1.1.35",
      "model": "Bogaudio-CVD",
      "params": [
        {
          "id": 0,
          "value": 0.466499984
        },
        {
          "id": 1,
          "value": 0.0
        },
        {
          "id": 2,
          "value": 1.0
        }
      ],
      "leftModuleId": 256,
      "rightModuleId": 242,
      "data": {},
      "pos": [
        18,
        3
      ]
    },
    {
      "id": 256,
      "plugin": "Befaco",
      "version": "1.0.1",
      "model": "Rampage",
      "params": [
        {
          "id": 0,
          "value": 0.0
        },
        {
          "id": 1,
          "value": 0.0
        },
        {
          "id": 2,
          "value": 0.0
        },
        {
          "id": 3,
          "value": 0.0
        },
        {
          "id": 4,
          "value": 0.0
        },
        {
          "id": 5,
          "value": 0.0
        },
        {
          "id": 6,
          "value": 0.740999937
        },
        {
          "id": 7,
          "value": 0.249000028
        },
        {
          "id": 8,
          "value": 0.77700007
        },
        {
          "id": 9,
          "value": 0.771000206
        },
        {
          "id": 10,
          "value": 1.0
        },
        {
          "id": 11,
          "value": 1.0
        },
        {
          "id": 12,
          "value": 0.5
        }
      ],
      "rightModuleId": 255,
      "pos": [
        0,
        3
      ]
    }
  ],
  "cables": [
    {
      "id": 242,
      "outputModuleId": 180,
      "outputId": 0,
      "inputModuleId": 1,
      "inputId": 0,
      "color": "#0c8e15"
    },
    {
      "id": 243,
      "outputModuleId": 180,
      "outputId": 1,
      "inputModuleId": 1,
      "inputId": 1,
      "color": "#c91847"
    },
    {
      "id": 249,
      "outputModuleId": 180,
      "outputId": 2,
      "inputModuleId": 187,
      "inputId": 0,
      "color": "#c91847"
    },
    {
      "id": 250,
      "outputModuleId": 180,
      "outputId": 3,
      "inputModuleId": 187,
      "inputId": 1,
      "color": "#0986ad"
    },
    {
      "id": 251,
      "outputModuleId": 180,
      "outputId": 4,
      "inputModuleId": 187,
      "inputId": 2,
      "color": "#c9b70e"
    },
    {
      "id": 252,
      "outputModuleId": 180,
      "outputId": 5,
      "inputModuleId": 187,
      "inputId": 3,
      "color": "#0c8e15"
    },
    {
      "id": 253,
      "outputModuleId": 180,
      "outputId": 6,
      "inputModuleId": 187,
      "inputId": 4,
      "color": "#c91847"
    },
    {
      "id": 254,
      "outputModuleId": 180,
      "outputId": 7,
      "inputModuleId": 187,
      "inputId": 5,
      "color": "#0986ad"
    },
    {
      "id": 255,
      "outputModuleId": 180,
      "outputId": 8,
      "inputModuleId": 187,
      "inputId": 6,
      "color": "#c9b70e"
    },
    {
      "id": 256,
      "outputModuleId": 180,
      "outputId": 9,
      "inputModuleId": 187,
      "inputId": 7,
      "color": "#0c8e15"
    },
    {
      "id": 257,
      "outputModuleId": 187,
      "outputId": 0,
      "inputModuleId": 186,
      "inputId": 0,
      "color": "#c91847"
    },
    {
      "id": 260,
      "outputModuleId": 187,
      "outputId": 0,
      "inputModuleId": 193,
      "inputId": 0,
      "color": "#0986ad"
    },
    {
      "id": 270,
      "outputModuleId": 193,
      "outputId": 0,
      "inputModuleId": 195,
      "inputId": 0,
      "color": "#c91847"
    },
    {
      "id": 271,
      "outputModuleId": 193,
      "outputId": 1,
      "inputModuleId": 196,
      "inputId": 0,
      "color": "#0986ad"
    },
    {
      "id": 272,
      "outputModuleId": 193,
      "outputId": 2,
      "inputModuleId": 197,
      "inputId": 0,
      "color": "#c9b70e"
    },
    {
      "id": 273,
      "outputModuleId": 193,
      "outputId": 3,
      "inputModuleId": 198,
      "inputId": 0,
      "color": "#0c8e15"
    },
    {
      "id": 274,
      "outputModuleId": 193,
      "outputId": 4,
      "inputModuleId": 199,
      "inputId": 0,
      "color": "#c91847"
    },
    {
      "id": 275,
      "outputModuleId": 193,
      "outputId": 5,
      "inputModuleId": 200,
      "inputId": 0,
      "color": "#0986ad"
    },
    {
      "id": 276,
      "outputModuleId": 193,
      "outputId": 6,
      "inputModuleId": 201,
      "inputId": 0,
      "color": "#c9b70e"
    },
    {
      "id": 277,
      "outputModuleId": 193,
      "outputId": 7,
      "inputModuleId": 202,
      "inputId": 0,
      "color": "#0c8e15"
    },
    {
      "id": 311,
      "outputModuleId": 220,
      "outputId": 1,
      "inputModuleId": 227,
      "inputId": 2,
      "color": "#0986ad"
    },
    {
      "id": 314,
      "outputModuleId": 227,
      "outputId": 2,
      "inputModuleId": 226,
      "inputId": 1,
      "color": "#c91847"
    },
    {
      "id": 320,
      "outputModuleId": 230,
      "outputId": 0,
      "inputModuleId": 231,
      "inputId": 1,
      "color": "#c91847"
    },
    {
      "id": 321,
      "outputModuleId": 231,
      "outputId": 0,
      "inputModuleId": 229,
      "inputId": 2,
      "color": "#0986ad"
    },
    {
      "id": 319,
      "outputModuleId": 232,
      "outputId": 0,
      "inputModuleId": 180,
      "inputId": 1,
      "color": "#0c8e15"
    },
    {
      "id": 323,
      "outputModuleId": 229,
      "outputId": 2,
      "inputModuleId": 232,
      "inputId": 0,
      "color": "#0c8e15"
    },
    {
      "id": 324,
      "outputModuleId": 233,
      "outputId": 0,
      "inputModuleId": 231,
      "inputId": 0,
      "color": "#c91847"
    },
    {
      "id": 326,
      "outputModuleId": 220,
      "outputId": 1,
      "inputModuleId": 234,
      "inputId": 0,
      "color": "#c9b70e"
    },
    {
      "id": 328,
      "outputModuleId": 234,
      "outputId": 14,
      "inputModuleId": 235,
      "inputId": 0,
      "color": "#0986ad"
    },
    {
      "id": 333,
      "outputModuleId": 234,
      "outputId": 0,
      "inputModuleId": 235,
      "inputId": 9,
      "color": "#c9b70e"
    },
    {
      "id": 335,
      "outputModuleId": 235,
      "outputId": 1,
      "inputModuleId": 229,
      "inputId": 1,
      "color": "#c91847"
    },
    {
      "id": 337,
      "outputModuleId": 226,
      "outputId": 2,
      "inputModuleId": 237,
      "inputId": 0,
      "color": "#c9b70e"
    },
    {
      "id": 338,
      "outputModuleId": 237,
      "outputId": 2,
      "inputModuleId": 239,
      "inputId": 2,
      "color": "#0c8e15"
    },
    {
      "id": 339,
      "outputModuleId": 239,
      "outputId": 0,
      "inputModuleId": 180,
      "inputId": 4,
      "color": "#c91847"
    },
    {
      "id": 341,
      "outputModuleId": 241,
      "outputId": 0,
      "inputModuleId": 180,
      "inputId": 19,
      "color": "#c9b70e"
    },
    {
      "id": 342,
      "outputModuleId": 241,
      "outputId": 1,
      "inputModuleId": 180,
      "inputId": 22,
      "color": "#0c8e15"
    },
    {
      "id": 343,
      "outputModuleId": 242,
      "outputId": 0,
      "inputModuleId": 241,
      "inputId": 6,
      "color": "#c91847"
    },
    {
      "id": 344,
      "outputModuleId": 242,
      "outputId": 1,
      "inputModuleId": 241,
      "inputId": 7,
      "color": "#0986ad"
    },
    {
      "id": 345,
      "outputModuleId": 220,
      "outputId": 3,
      "inputModuleId": 242,
      "inputId": 5,
      "color": "#c9b70e"
    },
    {
      "id": 347,
      "outputModuleId": 244,
      "outputId": 3,
      "inputModuleId": 241,
      "inputId": 0,
      "color": "#c91847"
    },
    {
      "id": 349,
      "outputModuleId": 244,
      "outputId": 5,
      "inputModuleId": 246,
      "inputId": 1,
      "color": "#c91847"
    },
    {
      "id": 350,
      "outputModuleId": 246,
      "outputId": 0,
      "inputModuleId": 241,
      "inputId": 8,
      "color": "#c9b70e"
    },
    {
      "id": 351,
      "outputModuleId": 247,
      "outputId": 0,
      "inputModuleId": 180,
      "inputId": 20,
      "color": "#0c8e15"
    },
    {
      "id": 352,
      "outputModuleId": 247,
      "outputId": 0,
      "inputModuleId": 180,
      "inputId": 23,
      "color": "#c91847"
    },
    {
      "id": 353,
      "outputModuleId": 244,
      "outputId": 8,
      "inputModuleId": 246,
      "inputId": 3,
      "color": "#0986ad"
    },
    {
      "id": 354,
      "outputModuleId": 246,
      "outputId": 1,
      "inputModuleId": 241,
      "inputId": 9,
      "color": "#c9b70e"
    },
    {
      "id": 334,
      "outputModuleId": 248,
      "outputId": 0,
      "inputModuleId": 229,
      "inputId": 4,
      "color": "#0c8e15"
    },
    {
      "id": 355,
      "outputModuleId": 235,
      "outputId": 0,
      "inputModuleId": 248,
      "inputId": 2,
      "color": "#0c8e15"
    },
    {
      "id": 356,
      "outputModuleId": 249,
      "outputId": 3,
      "inputModuleId": 242,
      "inputId": 6,
      "color": "#c91847"
    },
    {
      "id": 357,
      "outputModuleId": 220,
      "outputId": 5,
      "inputModuleId": 249,
      "inputId": 2,
      "color": "#0986ad"
    },
    {
      "id": 359,
      "outputModuleId": 250,
      "outputId": 0,
      "inputModuleId": 241,
      "inputId": 3,
      "color": "#0c8e15"
    },
    {
      "id": 360,
      "outputModuleId": 227,
      "outputId": 3,
      "inputModuleId": 226,
      "inputId": 3,
      "color": "#c9b70e"
    },
    {
      "id": 312,
      "outputModuleId": 227,
      "outputId": 5,
      "inputModuleId": 226,
      "inputId": 0,
      "color": "#c9b70e"
    },
    {
      "id": 361,
      "outputModuleId": 252,
      "outputId": 0,
      "inputModuleId": 226,
      "inputId": 2,
      "color": "#c91847"
    },
    {
      "id": 362,
      "outputModuleId": 227,
      "outputId": 0,
      "inputModuleId": 252,
      "inputId": 2,
      "color": "#0986ad"
    },
    {
      "id": 363,
      "outputModuleId": 227,
      "outputId": 1,
      "inputModuleId": 252,
      "inputId": 3,
      "color": "#c9b70e"
    },
    {
      "id": 364,
      "outputModuleId": 220,
      "outputId": 3,
      "inputModuleId": 253,
      "inputId": 4,
      "color": "#c91847"
    },
    {
      "id": 365,
      "outputModuleId": 253,
      "outputId": 0,
      "inputModuleId": 252,
      "inputId": 0,
      "color": "#0986ad"
    },
    {
      "id": 318,
      "outputModuleId": 255,
      "outputId": 0,
      "inputModuleId": 229,
      "inputId": 0,
      "color": "#c9b70e"
    },
    {
      "id": 366,
      "outputModuleId": 226,
      "outputId": 1,
      "inputModuleId": 255,
      "inputId": 2,
      "color": "#0c8e15"
    },
    {
      "id": 367,
      "outputModuleId": 256,
      "outputId": 10,
      "inputModuleId": 255,
      "inputId": 0,
      "color": "#c91847"
    },
    {
      "id": 368,
      "outputModuleId": 220,
      "outputId": 5,
      "inputModuleId": 256,
      "inputId": 2,
      "color": "#0986ad"
    },
    {
      "id": 369,
      "outputModuleId": 220,
      "outputId": 5,
      "inputModuleId": 256,
      "inputId": 3,
      "color": "#c9b70e"
    },
    {
      "id": 340,
      "outputModuleId": 234,
      "outputId": 12,
      "inputModuleId": 230,
      "inputId": 1,
      "color": "#0986ad"
    }
  ]
}