{
  "version": "1.1.6",
  "modules": [
    {
      "id": 399,
      "plugin": "Core",
      "version": "1.1.6",
      "model": "AudioInterface",
      "params": [],
      "leftModuleId": 917,
      "rightModuleId": 440,
      "data": {
        "audio": {
          "driver": 5,
          "deviceName": "Apple Inc.: MAMA",
          "offset": 0,
          "maxChannels": 8,
          "sampleRate": 48000,
          "blockSize": 1024
        }
      },
      "pos": [
        121,
        4
      ]
    },
    {
      "id": 440,
      "plugin": "Stoermelder-P1",
      "version": "1.8.0",
      "model": "Mb",
      "params": [],
      "leftModuleId": 399,
      "data": {
        "mode": 1
      },
      "pos": [
        131,
        4
      ]
    },
    {
      "id": 819,
      "plugin": "AudibleInstruments",
      "version": "1.5.0",
      "model": "Branches",
      "params": [
        {
          "id": 0,
          "value": 0.326000392
        },
        {
          "id": 1,
          "value": 0.282500029
        },
        {
          "id": 2,
          "value": 0.0
        },
        {
          "id": 3,
          "value": 0.0
        }
      ],
      "leftModuleId": 879,
      "rightModuleId": 881,
      "data": {
        "modes": [
          false,
          false
        ]
      },
      "pos": [
        8,
        3
      ]
    },
    {
      "id": 820,
      "plugin": "Geodesics",
      "version": "1.2.0",
      "model": "Entropia",
      "params": [
        {
          "id": 0,
          "value": 0.0
        },
        {
          "id": 1,
          "value": 0.0
        },
        {
          "id": 2,
          "value": 0.0
        },
        {
          "id": 3,
          "value": 0.0
        },
        {
          "id": 4,
          "value": 0.0
        },
        {
          "id": 5,
          "value": 0.0
        },
        {
          "id": 6,
          "value": 0.761999905
        },
        {
          "id": 7,
          "value": 0.567000508
        },
        {
          "id": 8,
          "value": 0.82200104
        },
        {
          "id": 9,
          "value": 0.751500189
        },
        {
          "id": 10,
          "value": 0.586500466
        },
        {
          "id": 11,
          "value": 0.803000927
        },
        {
          "id": 12,
          "value": 0.720501304
        },
        {
          "id": 13,
          "value": 0.910501122
        },
        {
          "id": 14,
          "value": 0.824999928
        },
        {
          "id": 15,
          "value": 1.0
        },
        {
          "id": 16,
          "value": 0.589999974
        },
        {
          "id": 17,
          "value": 0.715999901
        },
        {
          "id": 18,
          "value": 0.213499546
        },
        {
          "id": 19,
          "value": 0.342499912
        },
        {
          "id": 20,
          "value": 0.280999988
        },
        {
          "id": 21,
          "value": 0.54399997
        },
        {
          "id": 22,
          "value": 0.539500177
        },
        {
          "id": 23,
          "value": 0.569499791
        },
        {
          "id": 24,
          "value": 0.591999948
        },
        {
          "id": 25,
          "value": 0.557500184
        },
        {
          "id": 26,
          "value": 0.455500007
        },
        {
          "id": 27,
          "value": 0.402999878
        },
        {
          "id": 28,
          "value": 0.62650007
        },
        {
          "id": 29,
          "value": 0.0
        },
        {
          "id": 30,
          "value": 0.0
        },
        {
          "id": 31,
          "value": 0.0
        },
        {
          "id": 32,
          "value": 0.0
        },
        {
          "id": 33,
          "value": 0.0
        },
        {
          "id": 34,
          "value": 0.0
        },
        {
          "id": 35,
          "value": 0.0
        },
        {
          "id": 36,
          "value": 0.0
        },
        {
          "id": 37,
          "value": 0.0
        },
        {
          "id": 38,
          "value": 0.0
        },
        {
          "id": 39,
          "value": 0.0
        },
        {
          "id": 40,
          "value": 0.0
        },
        {
          "id": 41,
          "value": 0.0
        },
        {
          "id": 42,
          "value": 0.0
        },
        {
          "id": 43,
          "value": 0.0
        },
        {
          "id": 44,
          "value": 0.0
        }
      ],
      "rightModuleId": 841,
      "data": {
        "panelTheme": 0,
        "running": true,
        "resetOnRun": false,
        "length": 8,
        "quantize": 3,
        "audio": 0,
        "ranges0": 2,
        "ranges1": 2,
        "addMode": true,
        "sources0": 0,
        "sources1": 0,
        "stepIndex": 7,
        "pipeBlue": false,
        "randomCVs0": 0.167948246,
        "randomCVs1": 0.924723089,
        "clkSource": 0
      },
      "pos": [
        0,
        2
      ]
    },
    {
      "id": 833,
      "plugin": "ImpromptuModular",
      "version": "1.1.10",
      "model": "Clocked-Clkd",
      "params": [
        {
          "id": 0,
          "value": -5.0
        },
        {
          "id": 1,
          "value": 5.0
        },
        {
          "id": 2,
          "value": -9.0
        },
        {
          "id": 3,
          "value": 40.0
        },
        {
          "id": 4,
          "value": 0.0
        },
        {
          "id": 5,
          "value": 0.0
        },
        {
          "id": 6,
          "value": 0.0
        },
        {
          "id": 7,
          "value": 0.0
        },
        {
          "id": 8,
          "value": 0.0
        },
        {
          "id": 9,
          "value": 0.0
        }
      ],
      "rightModuleId": 836,
      "data": {
        "panelTheme": 0,
        "running": true,
        "bpmDetectionMode": false,
        "resetOnStartStop": 0,
        "ppqn": 4,
        "resetClockOutputsHigh": true,
        "momentaryRunInput": true,
        "displayIndex": 0,
        "trigOuts": [
          false,
          false,
          false,
          false
        ],
        "clockMaster": 833
      },
      "pos": [
        0,
        1
      ]
    },
    {
      "id": 834,
      "plugin": "VultModulesFree",
      "version": "1.14",
      "model": "Trummor2",
      "params": [
        {
          "id": 0,
          "value": 0.0500000007
        },
        {
          "id": 1,
          "value": 0.5
        },
        {
          "id": 2,
          "value": 0.103500038
        },
        {
          "id": 3,
          "value": 1.0
        },
        {
          "id": 4,
          "value": 0.0
        },
        {
          "id": 5,
          "value": 0.813000143
        },
        {
          "id": 6,
          "value": 0.0
        },
        {
          "id": 7,
          "value": 0.200000003
        },
        {
          "id": 8,
          "value": 0.334000319
        },
        {
          "id": 9,
          "value": 0.0
        },
        {
          "id": 10,
          "value": 0.0
        },
        {
          "id": 11,
          "value": 0.614499986
        },
        {
          "id": 12,
          "value": 0.209500089
        },
        {
          "id": 13,
          "value": 0.417000055
        },
        {
          "id": 14,
          "value": 0.585000157
        },
        {
          "id": 15,
          "value": 0.749075592
        },
        {
          "id": 16,
          "value": 0.316499859
        },
        {
          "id": 17,
          "value": 2.0
        },
        {
          "id": 18,
          "value": 0.0
        },
        {
          "id": 19,
          "value": 0.0500000007
        },
        {
          "id": 20,
          "value": 0.205999911
        },
        {
          "id": 21,
          "value": 0.0
        },
        {
          "id": 22,
          "value": 0.0
        },
        {
          "id": 23,
          "value": 1.0
        },
        {
          "id": 24,
          "value": 0.0
        },
        {
          "id": 25,
          "value": 0.0
        },
        {
          "id": 26,
          "value": 0.0
        },
        {
          "id": 27,
          "value": 0.0
        },
        {
          "id": 28,
          "value": 0.0
        },
        {
          "id": 29,
          "value": 0.0
        },
        {
          "id": 30,
          "value": 0.0
        },
        {
          "id": 31,
          "value": 0.0
        },
        {
          "id": 32,
          "value": 0.0
        }
      ],
      "leftModuleId": 869,
      "data": {
        "mod_a": 0,
        "mod_b": 23,
        "mod_c": 0,
        "mod_d": 0,
        "mk2": true
      },
      "pos": [
        90,
        1
      ]
    },
    {
      "id": 835,
      "plugin": "Valley",
      "version": "1.1.7",
      "model": "uGraph",
      "params": [
        {
          "id": 0,
          "value": 0.0
        },
        {
          "id": 1,
          "value": 0.0
        },
        {
          "id": 2,
          "value": 0.0
        },
        {
          "id": 3,
          "value": 0.601500571
        },
        {
          "id": 4,
          "value": 0.705000937
        },
        {
          "id": 5,
          "value": 0.438000292
        },
        {
          "id": 6,
          "value": 0.393499881
        },
        {
          "id": 7,
          "value": 0.78350091
        },
        {
          "id": 8,
          "value": 0.334999859
        },
        {
          "id": 9,
          "value": 0.384749889
        }
      ],
      "leftModuleId": 849,
      "data": {
        "sequencerMode": 0,
        "triggerOutputMode": 0,
        "accOutputMode": 0,
        "extClockResolution": 2,
        "chaosKnobMode": 0,
        "runMode": 0,
        "panelStyle": 1,
        "running": 1
      },
      "pos": [
        100,
        2
      ]
    },
    {
      "id": 836,
      "plugin": "ImpromptuModular",
      "version": "1.1.10",
      "model": "Clocked-Clkd",
      "params": [
        {
          "id": 0,
          "value": -17.0
        },
        {
          "id": 1,
          "value": 21.0
        },
        {
          "id": 2,
          "value": 0.0
        },
        {
          "id": 3,
          "value": 120.0
        },
        {
          "id": 4,
          "value": 0.0
        },
        {
          "id": 5,
          "value": 0.0
        },
        {
          "id": 6,
          "value": 0.0
        },
        {
          "id": 7,
          "value": 0.0
        },
        {
          "id": 8,
          "value": 0.0
        },
        {
          "id": 9,
          "value": 0.0
        }
      ],
      "leftModuleId": 833,
      "rightModuleId": 844,
      "data": {
        "panelTheme": 0,
        "running": true,
        "bpmDetectionMode": false,
        "resetOnStartStop": 0,
        "ppqn": 4,
        "resetClockOutputsHigh": true,
        "momentaryRunInput": true,
        "displayIndex": 0,
        "trigOuts": [
          false,
          false,
          false,
          false
        ],
        "clockMaster": -1
      },
      "pos": [
        10,
        1
      ]
    },
    {
      "id": 837,
      "plugin": "CatroModulo",
      "version": "1.0.3",
      "model": "CatroModulo_CM-1",
      "params": [
        {
          "id": 0,
          "value": 0.0
        },
        {
          "id": 1,
          "value": 0.0
        },
        {
          "id": 2,
          "value": 0.0
        },
        {
          "id": 3,
          "value": 0.0
        },
        {
          "id": 4,
          "value": 0.0
        },
        {
          "id": 5,
          "value": 0.0
        },
        {
          "id": 6,
          "value": 0.0
        },
        {
          "id": 7,
          "value": 0.0
        },
        {
          "id": 8,
          "value": 0.265999824
        },
        {
          "id": 9,
          "value": 0.324501216
        },
        {
          "id": 10,
          "value": 0.279499799
        },
        {
          "id": 11,
          "value": 0.301999807
        },
        {
          "id": 12,
          "value": 0.0600000881
        },
        {
          "id": 13,
          "value": 0.0
        },
        {
          "id": 14,
          "value": 0.162499994
        },
        {
          "id": 15,
          "value": 0.5
        },
        {
          "id": 16,
          "value": 0.5
        },
        {
          "id": 17,
          "value": 0.5
        },
        {
          "id": 18,
          "value": 0.5
        },
        {
          "id": 19,
          "value": 0.5
        },
        {
          "id": 20,
          "value": 0.5
        },
        {
          "id": 21,
          "value": 0.5
        },
        {
          "id": 22,
          "value": 0.5
        },
        {
          "id": 23,
          "value": 0.5
        },
        {
          "id": 24,
          "value": 0.5
        },
        {
          "id": 25,
          "value": 0.5
        },
        {
          "id": 26,
          "value": 0.5
        },
        {
          "id": 27,
          "value": 0.5
        },
        {
          "id": 28,
          "value": 0.5
        },
        {
          "id": 29,
          "value": 0.5
        },
        {
          "id": 30,
          "value": 0.5
        },
        {
          "id": 31,
          "value": 0.5
        },
        {
          "id": 32,
          "value": 0.0
        },
        {
          "id": 33,
          "value": 0.0
        },
        {
          "id": 34,
          "value": 0.0
        },
        {
          "id": 35,
          "value": 0.0
        }
      ],
      "leftModuleId": 844,
      "rightModuleId": 845,
      "pos": [
        22,
        1
      ]
    },
    {
      "id": 838,
      "plugin": "Valley",
      "version": "1.1.7",
      "model": "Terrorform",
      "params": [
        {
          "id": 0,
          "value": -2.0
        },
        {
          "id": 1,
          "value": -0.18600069
        },
        {
          "id": 2,
          "value": 0.0
        },
        {
          "id": 3,
          "value": 20.0
        },
        {
          "id": 4,
          "value": 0.216000229
        },
        {
          "id": 5,
          "value": 0.0
        },
        {
          "id": 6,
          "value": 0.0
        },
        {
          "id": 7,
          "value": 0.0
        },
        {
          "id": 8,
          "value": 0.0
        },
        {
          "id": 9,
          "value": 0.0
        },
        {
          "id": 10,
          "value": 0.5
        },
        {
          "id": 11,
          "value": 0.0
        },
        {
          "id": 12,
          "value": 0.0
        },
        {
          "id": 13,
          "value": 0.0
        },
        {
          "id": 14,
          "value": 1.0
        },
        {
          "id": 15,
          "value": 1.0
        },
        {
          "id": 16,
          "value": 0.1439998
        },
        {
          "id": 17,
          "value": 0.0
        },
        {
          "id": 18,
          "value": 0.180000082
        },
        {
          "id": 19,
          "value": 0.0
        },
        {
          "id": 20,
          "value": 0.0
        },
        {
          "id": 21,
          "value": 0.0
        },
        {
          "id": 22,
          "value": 0.0
        },
        {
          "id": 23,
          "value": 0.0
        },
        {
          "id": 24,
          "value": 0.0
        },
        {
          "id": 25,
          "value": 0.0
        },
        {
          "id": 26,
          "value": 0.0
        },
        {
          "id": 27,
          "value": 0.0
        },
        {
          "id": 28,
          "value": 0.0
        },
        {
          "id": 29,
          "value": 0.0
        },
        {
          "id": 30,
          "value": 0.0
        },
        {
          "id": 31,
          "value": 0.0
        },
        {
          "id": 32,
          "value": 0.0
        },
        {
          "id": 33,
          "value": 0.0
        },
        {
          "id": 34,
          "value": 0.0
        },
        {
          "id": 35,
          "value": 0.0
        },
        {
          "id": 36,
          "value": 0.0
        },
        {
          "id": 37,
          "value": 0.0
        },
        {
          "id": 38,
          "value": 0.0
        },
        {
          "id": 39,
          "value": 0.0
        },
        {
          "id": 40,
          "value": 0.0
        },
        {
          "id": 41,
          "value": 0.0
        },
        {
          "id": 42,
          "value": 0.0
        },
        {
          "id": 43,
          "value": 0.0
        },
        {
          "id": 44,
          "value": 0.0
        },
        {
          "id": 45,
          "value": 0.0
        },
        {
          "id": 46,
          "value": 0.0
        },
        {
          "id": 47,
          "value": 1.0
        },
        {
          "id": 48,
          "value": 0.0
        },
        {
          "id": 49,
          "value": 0.0
        },
        {
          "id": 50,
          "value": 1.0
        }
      ],
      "leftModuleId": 845,
      "rightModuleId": 870,
      "data": {
        "version": 117,
        "panelStyle": 1,
        "displayStyle": 4,
        "lpgMode": 0,
        "syncChoice": 0,
        "reduceOutputLevel": 0,
        "spreadActive": 0,
        "numVoices": 0,
        "userWaves": []
      },
      "pos": [
        43,
        1
      ]
    },
    {
      "id": 840,
      "plugin": "Valley",
      "version": "1.1.7",
      "model": "Terrorform",
      "params": [
        {
          "id": 0,
          "value": 1.0
        },
        {
          "id": 1,
          "value": 0.0
        },
        {
          "id": 2,
          "value": 0.0
        },
        {
          "id": 3,
          "value": 14.0
        },
        {
          "id": 4,
          "value": 0.31499964
        },
        {
          "id": 5,
          "value": 6.0
        },
        {
          "id": 6,
          "value": 0.091500096
        },
        {
          "id": 7,
          "value": 5.0
        },
        {
          "id": 8,
          "value": 0.522000134
        },
        {
          "id": 9,
          "value": 0.595500588
        },
        {
          "id": 10,
          "value": 0.390000284
        },
        {
          "id": 11,
          "value": 0.0
        },
        {
          "id": 12,
          "value": 0.0
        },
        {
          "id": 13,
          "value": 0.222000107
        },
        {
          "id": 14,
          "value": 1.0
        },
        {
          "id": 15,
          "value": 1.0
        },
        {
          "id": 16,
          "value": 0.0
        },
        {
          "id": 17,
          "value": 0.0
        },
        {
          "id": 18,
          "value": 0.0
        },
        {
          "id": 19,
          "value": 0.744000316
        },
        {
          "id": 20,
          "value": 0.0
        },
        {
          "id": 21,
          "value": 0.0869999602
        },
        {
          "id": 22,
          "value": 0.719999969
        },
        {
          "id": 23,
          "value": 0.0
        },
        {
          "id": 24,
          "value": 0.0
        },
        {
          "id": 25,
          "value": 0.0
        },
        {
          "id": 26,
          "value": 0.0
        },
        {
          "id": 27,
          "value": 0.0
        },
        {
          "id": 28,
          "value": 0.0
        },
        {
          "id": 29,
          "value": 0.194999859
        },
        {
          "id": 30,
          "value": 0.0
        },
        {
          "id": 31,
          "value": 0.269999981
        },
        {
          "id": 32,
          "value": 0.0
        },
        {
          "id": 33,
          "value": 0.0
        },
        {
          "id": 34,
          "value": 0.0
        },
        {
          "id": 35,
          "value": 0.0
        },
        {
          "id": 36,
          "value": 0.0
        },
        {
          "id": 37,
          "value": 0.0
        },
        {
          "id": 38,
          "value": 0.0
        },
        {
          "id": 39,
          "value": 0.0
        },
        {
          "id": 40,
          "value": 0.0
        },
        {
          "id": 41,
          "value": 0.0
        },
        {
          "id": 42,
          "value": 0.0
        },
        {
          "id": 43,
          "value": 0.0
        },
        {
          "id": 44,
          "value": 0.0
        },
        {
          "id": 45,
          "value": 0.0
        },
        {
          "id": 46,
          "value": 0.0
        },
        {
          "id": 47,
          "value": 0.0
        },
        {
          "id": 48,
          "value": 0.0
        },
        {
          "id": 49,
          "value": 0.0
        },
        {
          "id": 50,
          "value": 1.0
        }
      ],
      "leftModuleId": 870,
      "rightModuleId": 846,
      "data": {
        "version": 117,
        "panelStyle": 1,
        "displayStyle": 1,
        "lpgMode": 1,
        "syncChoice": 0,
        "reduceOutputLevel": 0,
        "spreadActive": 0,
        "numVoices": 0,
        "userWaves": []
      },
      "pos": [
        65,
        1
      ]
    },
    {
      "id": 841,
      "plugin": "repelzen",
      "version": "1.1.0",
      "model": "rewin",
      "params": [
        {
          "id": 0,
          "value": 0.0
        },
        {
          "id": 1,
          "value": 0.0
        },
        {
          "id": 2,
          "value": 0.0
        },
        {
          "id": 3,
          "value": 0.0
        },
        {
          "id": 4,
          "value": 0.0
        },
        {
          "id": 5,
          "value": 0.0
        },
        {
          "id": 6,
          "value": 0.0
        },
        {
          "id": 7,
          "value": 0.0
        },
        {
          "id": 8,
          "value": 0.0
        },
        {
          "id": 9,
          "value": 0.0
        },
        {
          "id": 10,
          "value": 0.0
        },
        {
          "id": 11,
          "value": 0.0
        },
        {
          "id": 12,
          "value": 0.0
        },
        {
          "id": 13,
          "value": 0.0
        },
        {
          "id": 14,
          "value": 0.0
        },
        {
          "id": 15,
          "value": 0.0
        },
        {
          "id": 16,
          "value": 0.0
        }
      ],
      "leftModuleId": 820,
      "rightModuleId": 842,
      "data": {
        "notes": [
          true,
          false,
          false,
          false,
          true,
          false,
          false,
          true,
          false,
          false,
          false,
          true,
          true,
          false,
          true,
          false,
          false,
          true,
          false,
          false,
          false,
          true,
          false,
          false,
          false,
          false,
          true,
          false,
          true,
          false,
          false,
          true,
          false,
          false,
          false,
          true,
          true,
          false,
          false,
          false,
          true,
          true,
          false,
          false,
          false,
          true,
          false,
          false,
          false,
          false,
          true,
          false,
          false,
          true,
          false,
          true,
          false,
          false,
          false,
          true,
          true,
          false,
          false,
          false,
          true,
          false,
          false,
          true,
          false,
          true,
          false,
          false,
          false,
          false,
          true,
          false,
          false,
          true,
          false,
          false,
          false,
          true,
          false,
          true,
          false,
          false,
          false,
          false,
          false,
          false,
          false,
          false,
          false,
          false,
          false,
          false,
          false,
          false,
          false,
          false,
          false,
          false,
          false,
          false,
          false,
          false,
          false,
          false,
          false,
          false,
          false,
          false,
          false,
          false,
          false,
          false,
          false,
          false,
          false,
          false,
          false,
          false,
          false,
          false,
          false,
          false,
          false,
          false,
          false,
          false,
          false,
          false,
          false,
          false,
          false,
          false,
          false,
          false,
          false,
          false,
          false,
          false,
          false,
          false,
          false,
          false,
          false,
          false,
          false,
          false,
          false,
          false,
          false,
          false,
          false,
          false,
          false,
          false,
          false,
          false,
          false,
          false,
          false,
          false,
          false,
          false,
          false,
          false,
          false,
          false,
          false,
          false,
          false,
          false,
          false,
          false,
          false,
          false,
          false,
          false,
          false,
          false,
          false,
          false,
          false,
          false,
          false,
          false,
          false,
          false,
          false,
          false
        ],
        "mode": 0
      },
      "pos": [
        21,
        2
      ]
    },
    {
      "id": 842,
      "plugin": "repelzen",
      "version": "1.1.0",
      "model": "retrig",
      "params": [
        {
          "id": 0,
          "value": 0.0
        },
        {
          "id": 1,
          "value": 0.0
        }
      ],
      "leftModuleId": 841,
      "rightModuleId": 901,
      "pos": [
        29,
        2
      ]
    },
    {
      "id": 843,
      "plugin": "MM_Tools",
      "version": "1.0.2",
      "model": "SHEight",
      "params": [
        {
          "id": 0,
          "value": 120.0
        },
        {
          "id": 1,
          "value": 100.0
        },
        {
          "id": 2,
          "value": 100.0
        },
        {
          "id": 3,
          "value": 100.0
        },
        {
          "id": 4,
          "value": 100.0
        },
        {
          "id": 5,
          "value": 100.0
        },
        {
          "id": 6,
          "value": 100.0
        },
        {
          "id": 7,
          "value": 100.0
        },
        {
          "id": 8,
          "value": 100.0
        },
        {
          "id": 9,
          "value": 1.0
        },
        {
          "id": 10,
          "value": 1.0
        },
        {
          "id": 11,
          "value": 1.0
        },
        {
          "id": 12,
          "value": 1.0
        },
        {
          "id": 13,
          "value": 1.0
        },
        {
          "id": 14,
          "value": 1.0
        },
        {
          "id": 15,
          "value": 1.0
        },
        {
          "id": 16,
          "value": 1.0
        },
        {
          "id": 17,
          "value": -5.0
        },
        {
          "id": 18,
          "value": -5.0
        },
        {
          "id": 19,
          "value": -5.0
        },
        {
          "id": 20,
          "value": -5.0
        },
        {
          "id": 21,
          "value": -5.0
        },
        {
          "id": 22,
          "value": -5.0
        },
        {
          "id": 23,
          "value": -5.0
        },
        {
          "id": 24,
          "value": -5.0
        },
        {
          "id": 25,
          "value": 5.0
        },
        {
          "id": 26,
          "value": 5.0
        },
        {
          "id": 27,
          "value": 5.0
        },
        {
          "id": 28,
          "value": 5.0
        },
        {
          "id": 29,
          "value": 5.0
        },
        {
          "id": 30,
          "value": 5.0
        },
        {
          "id": 31,
          "value": 5.0
        },
        {
          "id": 32,
          "value": 5.0
        },
        {
          "id": 33,
          "value": 0.0
        },
        {
          "id": 34,
          "value": 0.0
        },
        {
          "id": 35,
          "value": 0.0
        },
        {
          "id": 36,
          "value": 0.0
        },
        {
          "id": 37,
          "value": 0.0
        },
        {
          "id": 38,
          "value": 0.0
        },
        {
          "id": 39,
          "value": 0.0
        },
        {
          "id": 40,
          "value": 0.0
        },
        {
          "id": 41,
          "value": 0.0
        }
      ],
      "leftModuleId": 848,
      "rightModuleId": 849,
      "pos": [
        82,
        2
      ]
    },
    {
      "id": 844,
      "plugin": "Mental",
      "version": "1.0.2",
      "model": "MentalMults",
      "params": [],
      "leftModuleId": 836,
      "rightModuleId": 837,
      "pos": [
        20,
        1
      ]
    },
    {
      "id": 845,
      "plugin": "Mental",
      "version": "1.0.2",
      "model": "MentalMults",
      "params": [],
      "leftModuleId": 837,
      "rightModuleId": 838,
      "pos": [
        41,
        1
      ]
    },
    {
      "id": 846,
      "plugin": "Mental",
      "version": "1.0.2",
      "model": "MentalMults",
      "params": [],
      "leftModuleId": 840,
      "rightModuleId": 869,
      "pos": [
        85,
        1
      ]
    },
    {
      "id": 847,
      "plugin": "Fundamental",
      "version": "1.4.0",
      "model": "Scope",
      "params": [
        {
          "id": 0,
          "value": 2.32192802
        },
        {
          "id": 1,
          "value": 0.0
        },
        {
          "id": 2,
          "value": 2.32192802
        },
        {
          "id": 3,
          "value": 0.0
        },
        {
          "id": 4,
          "value": 6.01499987
        },
        {
          "id": 5,
          "value": 0.0
        },
        {
          "id": 6,
          "value": 0.0
        },
        {
          "id": 7,
          "value": 0.0
        }
      ],
      "leftModuleId": 868,
      "rightModuleId": 848,
      "data": {
        "lissajous": 0,
        "external": 0
      },
      "pos": [
        67,
        2
      ]
    },
    {
      "id": 848,
      "plugin": "Mental",
      "version": "1.0.2",
      "model": "MentalMults",
      "params": [],
      "leftModuleId": 847,
      "rightModuleId": 843,
      "pos": [
        80,
        2
      ]
    },
    {
      "id": 849,
      "plugin": "Mental",
      "version": "1.0.2",
      "model": "MentalMults",
      "params": [],
      "leftModuleId": 843,
      "rightModuleId": 835,
      "pos": [
        98,
        2
      ]
    },
    {
      "id": 850,
      "plugin": "Mental",
      "version": "1.0.2",
      "model": "MentalMults",
      "params": [],
      "leftModuleId": 875,
      "rightModuleId": 871,
      "pos": [
        59,
        3
      ]
    },
    {
      "id": 853,
      "plugin": "mscHack",
      "version": "1.0.2",
      "model": "Mix_9_3_4",
      "params": [
        {
          "id": 0,
          "value": 0.0
        },
        {
          "id": 1,
          "value": 0.392999589
        },
        {
          "id": 2,
          "value": 0.503999412
        },
        {
          "id": 3,
          "value": 0.452999741
        },
        {
          "id": 4,
          "value": 0.167999864
        },
        {
          "id": 5,
          "value": 0.0
        },
        {
          "id": 6,
          "value": 0.0
        },
        {
          "id": 7,
          "value": 0.0
        },
        {
          "id": 8,
          "value": 0.0
        },
        {
          "id": 9,
          "value": 0.0
        },
        {
          "id": 10,
          "value": 0.0
        },
        {
          "id": 11,
          "value": 0.0
        },
        {
          "id": 12,
          "value": 0.0
        },
        {
          "id": 13,
          "value": 0.455999613
        },
        {
          "id": 14,
          "value": 0.179999962
        },
        {
          "id": 15,
          "value": 0.167999804
        },
        {
          "id": 16,
          "value": 0.0
        },
        {
          "id": 17,
          "value": 0.0
        },
        {
          "id": 18,
          "value": 0.0
        },
        {
          "id": 19,
          "value": 0.0
        },
        {
          "id": 20,
          "value": 0.0
        },
        {
          "id": 21,
          "value": 0.0
        },
        {
          "id": 22,
          "value": 0.0
        },
        {
          "id": 23,
          "value": 0.0
        },
        {
          "id": 24,
          "value": 0.0
        },
        {
          "id": 25,
          "value": 0.0
        },
        {
          "id": 26,
          "value": 0.0
        },
        {
          "id": 27,
          "value": 0.0
        },
        {
          "id": 28,
          "value": 0.0
        },
        {
          "id": 29,
          "value": 0.0
        },
        {
          "id": 30,
          "value": 0.0
        },
        {
          "id": 31,
          "value": 0.0
        },
        {
          "id": 32,
          "value": 0.0
        },
        {
          "id": 33,
          "value": 0.5
        },
        {
          "id": 34,
          "value": 0.136499971
        },
        {
          "id": 35,
          "value": 0.0
        },
        {
          "id": 36,
          "value": 0.5
        },
        {
          "id": 37,
          "value": 0.5
        },
        {
          "id": 38,
          "value": 0.5
        },
        {
          "id": 39,
          "value": 0.5
        },
        {
          "id": 40,
          "value": 0.348499686
        },
        {
          "id": 41,
          "value": 0.5
        },
        {
          "id": 42,
          "value": 0.5
        },
        {
          "id": 43,
          "value": 0.5
        },
        {
          "id": 44,
          "value": 0.5
        },
        {
          "id": 45,
          "value": 0.5
        },
        {
          "id": 46,
          "value": 0.5
        },
        {
          "id": 47,
          "value": 0.5
        },
        {
          "id": 48,
          "value": 0.5
        },
        {
          "id": 49,
          "value": 0.5
        },
        {
          "id": 50,
          "value": 0.415999949
        },
        {
          "id": 51,
          "value": 0.0
        },
        {
          "id": 52,
          "value": 0.5
        },
        {
          "id": 53,
          "value": 0.5
        },
        {
          "id": 54,
          "value": 0.5
        },
        {
          "id": 55,
          "value": 0.5
        },
        {
          "id": 56,
          "value": 0.582499921
        },
        {
          "id": 57,
          "value": 0.5
        },
        {
          "id": 58,
          "value": 0.5
        },
        {
          "id": 59,
          "value": 0.5
        },
        {
          "id": 60,
          "value": 0.5
        },
        {
          "id": 61,
          "value": 0.5
        },
        {
          "id": 62,
          "value": 0.158000067
        },
        {
          "id": 63,
          "value": 0.170000002
        },
        {
          "id": 64,
          "value": 0.5
        },
        {
          "id": 65,
          "value": 0.5
        },
        {
          "id": 66,
          "value": 0.375499755
        },
        {
          "id": 67,
          "value": 0.362000197
        },
        {
          "id": 68,
          "value": 0.5
        },
        {
          "id": 69,
          "value": 0.5
        },
        {
          "id": 70,
          "value": 0.5
        },
        {
          "id": 71,
          "value": 0.5
        },
        {
          "id": 72,
          "value": 0.288499802
        },
        {
          "id": 73,
          "value": 0.5
        },
        {
          "id": 74,
          "value": 0.5
        },
        {
          "id": 75,
          "value": 0.5
        },
        {
          "id": 76,
          "value": 0.5
        },
        {
          "id": 77,
          "value": 0.5
        },
        {
          "id": 78,
          "value": 0.0
        },
        {
          "id": 79,
          "value": 0.0
        },
        {
          "id": 80,
          "value": 0.5
        },
        {
          "id": 81,
          "value": 0.523500562
        },
        {
          "id": 82,
          "value": 0.155999988
        },
        {
          "id": 83,
          "value": 0.149999946
        },
        {
          "id": 84,
          "value": 0.0
        },
        {
          "id": 85,
          "value": 0.40049997
        },
        {
          "id": 86,
          "value": 0.0
        },
        {
          "id": 87,
          "value": 0.0
        },
        {
          "id": 88,
          "value": 0.0
        },
        {
          "id": 89,
          "value": 0.0
        },
        {
          "id": 90,
          "value": 0.0
        },
        {
          "id": 91,
          "value": 0.0
        },
        {
          "id": 92,
          "value": 0.0
        },
        {
          "id": 93,
          "value": 0.739500284
        },
        {
          "id": 94,
          "value": 0.0
        },
        {
          "id": 95,
          "value": 0.0
        },
        {
          "id": 96,
          "value": 0.0
        },
        {
          "id": 97,
          "value": 0.0
        },
        {
          "id": 98,
          "value": 0.0
        },
        {
          "id": 99,
          "value": 0.0
        },
        {
          "id": 100,
          "value": 0.0
        },
        {
          "id": 101,
          "value": 0.279000014
        },
        {
          "id": 102,
          "value": 0.507000089
        },
        {
          "id": 103,
          "value": 0.552000046
        },
        {
          "id": 104,
          "value": 0.0
        },
        {
          "id": 105,
          "value": 0.956499934
        },
        {
          "id": 106,
          "value": 0.247499958
        },
        {
          "id": 107,
          "value": 0.157499984
        },
        {
          "id": 108,
          "value": 0.0
        },
        {
          "id": 109,
          "value": 0.166499987
        },
        {
          "id": 110,
          "value": 0.0
        },
        {
          "id": 111,
          "value": 0.0
        },
        {
          "id": 112,
          "value": 0.0
        },
        {
          "id": 113,
          "value": 0.0
        },
        {
          "id": 114,
          "value": 0.0
        },
        {
          "id": 115,
          "value": 0.0
        },
        {
          "id": 116,
          "value": 0.0
        },
        {
          "id": 117,
          "value": 0.0
        },
        {
          "id": 118,
          "value": 0.0
        },
        {
          "id": 119,
          "value": 0.0
        },
        {
          "id": 120,
          "value": 0.0
        },
        {
          "id": 121,
          "value": 0.0
        },
        {
          "id": 122,
          "value": 0.0
        },
        {
          "id": 123,
          "value": 0.0
        },
        {
          "id": 124,
          "value": 0.0
        },
        {
          "id": 125,
          "value": 0.0
        },
        {
          "id": 126,
          "value": 0.0
        },
        {
          "id": 127,
          "value": 0.0
        },
        {
          "id": 128,
          "value": 0.0
        },
        {
          "id": 129,
          "value": 1.0
        },
        {
          "id": 130,
          "value": 1.0
        },
        {
          "id": 131,
          "value": 1.0
        },
        {
          "id": 132,
          "value": 0.0
        }
      ],
      "leftModuleId": 860,
      "data": {
        "m_bMuteStates": [
          false,
          false,
          false,
          false,
          false,
          false,
          false,
          false,
          false,
          false,
          false,
          false,
          false,
          false,
          false,
          false
        ],
        "m_bSoloStates": [
          false,
          false,
          false,
          false,
          false,
          false,
          false,
          false,
          false,
          false,
          false,
          false,
          false,
          false,
          false,
          false
        ],
        "m_iRouteGroup": [
          3,
          3,
          3,
          3,
          3,
          3,
          3,
          3,
          3
        ],
        "m_bGroupPreMute": [
          true
        ],
        "m_bGainLevelx2": [
          false
        ],
        "m_bPreFader": [
          false,
          false,
          false,
          false,
          false,
          false,
          false,
          false,
          false,
          false,
          false,
          false
        ],
        "m_bAuxIgnoreSolo": [
          false
        ]
      },
      "pos": [
        77,
        3
      ]
    },
    {
      "id": 860,
      "plugin": "AS",
      "version": "1.0.4",
      "model": "QuadVCA",
      "params": [
        {
          "id": 0,
          "value": 0.5
        },
        {
          "id": 1,
          "value": 0.5
        },
        {
          "id": 2,
          "value": 0.5
        },
        {
          "id": 3,
          "value": 0.5
        },
        {
          "id": 4,
          "value": 1.0
        },
        {
          "id": 5,
          "value": 1.0
        },
        {
          "id": 6,
          "value": 1.0
        },
        {
          "id": 7,
          "value": 1.0
        }
      ],
      "leftModuleId": 871,
      "rightModuleId": 853,
      "pos": [
        69,
        3
      ]
    },
    {
      "id": 867,
      "plugin": "Atelier",
      "version": "1.0.4",
      "model": "AtelierPalette",
      "params": [
        {
          "id": 0,
          "value": 0.0
        },
        {
          "id": 1,
          "value": 0.0
        },
        {
          "id": 2,
          "value": 0.0
        },
        {
          "id": 3,
          "value": 0.304999381
        },
        {
          "id": 4,
          "value": 0.303499699
        },
        {
          "id": 5,
          "value": 0.452999592
        },
        {
          "id": 6,
          "value": 0.0
        },
        {
          "id": 7,
          "value": 0.0
        },
        {
          "id": 8,
          "value": 0.27000007
        },
        {
          "id": 9,
          "value": 0.275999874
        },
        {
          "id": 10,
          "value": 0.0
        },
        {
          "id": 11,
          "value": 0.0
        },
        {
          "id": 12,
          "value": 0.909499943
        },
        {
          "id": 13,
          "value": 0.668000102
        },
        {
          "id": 14,
          "value": 0.5
        },
        {
          "id": 15,
          "value": -0.258000135
        },
        {
          "id": 16,
          "value": 0.335000038
        },
        {
          "id": 17,
          "value": 1.0
        },
        {
          "id": 18,
          "value": 0.0
        },
        {
          "id": 19,
          "value": 0.285000116
        },
        {
          "id": 20,
          "value": 0.0
        },
        {
          "id": 21,
          "value": 0.0
        },
        {
          "id": 22,
          "value": 0.18900007
        },
        {
          "id": 23,
          "value": 0.0
        },
        {
          "id": 24,
          "value": 0.0
        },
        {
          "id": 25,
          "value": 0.0
        },
        {
          "id": 26,
          "value": 0.0
        }
      ],
      "leftModuleId": 913,
      "rightModuleId": 868,
      "data": {
        "rsqual": 4,
        "model": 5,
        "lpgColor": 0.881378174,
        "decay": 0.668000102,
        "freetune": false,
        "showmods": true,
        "lpgMode": 0
      },
      "pos": [
        46,
        2
      ]
    },
    {
      "id": 868,
      "plugin": "squinkylabs-plug1",
      "version": "1.0.15",
      "model": "squinkylabs-basic",
      "params": [
        {
          "id": 0,
          "value": 4.0
        },
        {
          "id": 1,
          "value": 0.0
        },
        {
          "id": 2,
          "value": 0.0
        },
        {
          "id": 3,
          "value": 0.0
        },
        {
          "id": 4,
          "value": 73.0
        },
        {
          "id": 5,
          "value": 0.0
        },
        {
          "id": 6,
          "value": 3.0
        }
      ],
      "leftModuleId": 867,
      "rightModuleId": 847,
      "pos": [
        64,
        2
      ]
    },
    {
      "id": 869,
      "plugin": "Fundamental",
      "version": "1.4.0",
      "model": "Noise",
      "params": [],
      "leftModuleId": 846,
      "rightModuleId": 834,
      "pos": [
        87,
        1
      ]
    },
    {
      "id": 870,
      "plugin": "Mental",
      "version": "1.0.2",
      "model": "MentalMults",
      "params": [],
      "leftModuleId": 838,
      "rightModuleId": 840,
      "pos": [
        63,
        1
      ]
    },
    {
      "id": 871,
      "plugin": "AS",
      "version": "1.0.4",
      "model": "QuadVCA",
      "params": [
        {
          "id": 0,
          "value": 1.0
        },
        {
          "id": 1,
          "value": 1.0
        },
        {
          "id": 2,
          "value": 1.0
        },
        {
          "id": 3,
          "value": 0.5
        },
        {
          "id": 4,
          "value": 1.0
        },
        {
          "id": 5,
          "value": 1.0
        },
        {
          "id": 6,
          "value": 1.0
        },
        {
          "id": 7,
          "value": 1.0
        }
      ],
      "leftModuleId": 850,
      "rightModuleId": 860,
      "pos": [
        61,
        3
      ]
    },
    {
      "id": 875,
      "plugin": "CatroModulo",
      "version": "1.0.3",
      "model": "CatroModulo_CM-2",
      "params": [
        {
          "id": 0,
          "value": 0.261000186
        },
        {
          "id": 1,
          "value": 0.377999961
        },
        {
          "id": 2,
          "value": 0.275999933
        },
        {
          "id": 3,
          "value": 0.168999702
        },
        {
          "id": 4,
          "value": 1.0
        },
        {
          "id": 5,
          "value": 0.0
        },
        {
          "id": 6,
          "value": 0.0
        },
        {
          "id": 7,
          "value": 0.0
        },
        {
          "id": 8,
          "value": 0.0
        },
        {
          "id": 9,
          "value": -0.539999723
        },
        {
          "id": 10,
          "value": 0.0
        },
        {
          "id": 11,
          "value": 5.0
        },
        {
          "id": 12,
          "value": 1.0
        },
        {
          "id": 13,
          "value": 0.0
        },
        {
          "id": 14,
          "value": 0.0
        },
        {
          "id": 15,
          "value": 0.0
        },
        {
          "id": 16,
          "value": 1.0
        }
      ],
      "leftModuleId": 891,
      "rightModuleId": 850,
      "pos": [
        48,
        3
      ]
    },
    {
      "id": 877,
      "plugin": "CatroModulo",
      "version": "1.0.3",
      "model": "CatroModulo_CM-8",
      "params": [
        {
          "id": 0,
          "value": 0.0
        },
        {
          "id": 1,
          "value": 0.0
        },
        {
          "id": 2,
          "value": 0.0
        },
        {
          "id": 3,
          "value": 0.0
        },
        {
          "id": 4,
          "value": 0.0
        }
      ],
      "leftModuleId": 878,
      "rightModuleId": 887,
      "pos": [
        32,
        3
      ]
    },
    {
      "id": 878,
      "plugin": "Valley",
      "version": "1.1.7",
      "model": "Plateau",
      "params": [
        {
          "id": 0,
          "value": 0.0
        },
        {
          "id": 1,
          "value": 0.692000389
        },
        {
          "id": 2,
          "value": 0.15899989
        },
        {
          "id": 3,
          "value": 5.1400013
        },
        {
          "id": 4,
          "value": 10.0
        },
        {
          "id": 5,
          "value": 0.0
        },
        {
          "id": 6,
          "value": 10.0
        },
        {
          "id": 7,
          "value": 0.626891732
        },
        {
          "id": 8,
          "value": 10.0
        },
        {
          "id": 9,
          "value": 7.91500044
        },
        {
          "id": 10,
          "value": 0.0
        },
        {
          "id": 11,
          "value": 0.5
        },
        {
          "id": 12,
          "value": 6.76400661
        },
        {
          "id": 13,
          "value": 0.0
        },
        {
          "id": 14,
          "value": 0.0
        },
        {
          "id": 15,
          "value": 0.0
        },
        {
          "id": 16,
          "value": 0.0
        },
        {
          "id": 17,
          "value": 0.0
        },
        {
          "id": 18,
          "value": 0.0
        },
        {
          "id": 19,
          "value": 0.0
        },
        {
          "id": 20,
          "value": 0.0
        },
        {
          "id": 21,
          "value": 0.0
        },
        {
          "id": 22,
          "value": 0.0
        },
        {
          "id": 23,
          "value": 0.0
        },
        {
          "id": 24,
          "value": 0.0
        },
        {
          "id": 25,
          "value": 0.0
        },
        {
          "id": 26,
          "value": 0.0
        },
        {
          "id": 27,
          "value": 0.0
        },
        {
          "id": 28,
          "value": 0.0
        },
        {
          "id": 29,
          "value": 0.0
        },
        {
          "id": 30,
          "value": 1.0
        }
      ],
      "leftModuleId": 881,
      "rightModuleId": 877,
      "data": {
        "frozen": false,
        "freezeToggle": false,
        "panelStyle": 1,
        "tuned": 0,
        "diffuseInput": 1,
        "preDelayCVSens": 0,
        "inputSensitivity": 0,
        "outputSaturation": 0
      },
      "pos": [
        20,
        3
      ]
    },
    {
      "id": 879,
      "plugin": "NYSTHI",
      "version": "1.0.17",
      "model": "DualFeedbackEcho",
      "params": [
        {
          "id": 0,
          "value": 1.57900012
        },
        {
          "id": 1,
          "value": 0.209000006
        },
        {
          "id": 2,
          "value": 0.0
        },
        {
          "id": 3,
          "value": 0.0
        },
        {
          "id": 4,
          "value": 0.582916558
        },
        {
          "id": 5,
          "value": 0.503496051
        }
      ],
      "leftModuleId": 880,
      "rightModuleId": 819,
      "pos": [
        6,
        3
      ]
    },
    {
      "id": 880,
      "plugin": "NYSTHI",
      "version": "1.0.17",
      "model": "DualFeedbackEcho",
      "params": [
        {
          "id": 0,
          "value": 0.636999726
        },
        {
          "id": 1,
          "value": 1.0
        },
        {
          "id": 2,
          "value": 0.0
        },
        {
          "id": 3,
          "value": 0.0
        },
        {
          "id": 4,
          "value": 0.62037915
        },
        {
          "id": 5,
          "value": 0.403096467
        }
      ],
      "leftModuleId": 852,
      "rightModuleId": 879,
      "pos": [
        4,
        3
      ]
    },
    {
      "id": 881,
      "plugin": "Bogaudio",
      "version": "1.1.37",
      "model": "Bogaudio-EightOne",
      "params": [
        {
          "id": 0,
          "value": 8.0
        },
        {
          "id": 1,
          "value": 1.0
        },
        {
          "id": 2,
          "value": 0.0
        }
      ],
      "leftModuleId": 819,
      "rightModuleId": 878,
      "data": {
        "poly_input": 8,
        "select_on_clock": false,
        "triggered_select": false,
        "reverse_on_negative_clock": false
      },
      "pos": [
        14,
        3
      ]
    },
    {
      "id": 887,
      "plugin": "Bogaudio",
      "version": "1.1.37",
      "model": "Bogaudio-LVCF",
      "params": [
        {
          "id": 0,
          "value": 0.444999009
        },
        {
          "id": 1,
          "value": 0.263999909
        },
        {
          "id": 2,
          "value": 0.0104999999
        },
        {
          "id": 3,
          "value": 0.0
        }
      ],
      "leftModuleId": 877,
      "rightModuleId": 890,
      "data": {
        "poles": 4,
        "bandwidthMode": "pitched"
      },
      "pos": [
        37,
        3
      ]
    },
    {
      "id": 889,
      "plugin": "MM_Tools",
      "version": "1.0.2",
      "model": "Tuube",
      "params": [
        {
          "id": 0,
          "value": 3.89799666
        }
      ],
      "leftModuleId": 890,
      "rightModuleId": 891,
      "pos": [
        43,
        3
      ]
    },
    {
      "id": 890,
      "plugin": "Bogaudio",
      "version": "1.1.37",
      "model": "Bogaudio-LVCF",
      "params": [
        {
          "id": 0,
          "value": 0.543110132
        },
        {
          "id": 1,
          "value": 0.0
        },
        {
          "id": 2,
          "value": 0.189000279
        },
        {
          "id": 3,
          "value": 0.0
        }
      ],
      "leftModuleId": 887,
      "rightModuleId": 889,
      "data": {
        "poles": 4,
        "bandwidthMode": "pitched"
      },
      "pos": [
        40,
        3
      ]
    },
    {
      "id": 891,
      "plugin": "Mental",
      "version": "1.0.2",
      "model": "MentalMults",
      "params": [],
      "leftModuleId": 889,
      "rightModuleId": 875,
      "pos": [
        46,
        3
      ]
    },
    {
      "id": 901,
      "plugin": "NYSTHI",
      "version": "1.0.17",
      "model": "EN",
      "params": [
        {
          "id": 0,
          "value": 0.0
        },
        {
          "id": 1,
          "value": 0.0
        },
        {
          "id": 2,
          "value": 0.0
        },
        {
          "id": 3,
          "value": 1.0
        },
        {
          "id": 4,
          "value": 0.0500000007
        },
        {
          "id": 5,
          "value": 0.150000006
        },
        {
          "id": 6,
          "value": 0.100000001
        },
        {
          "id": 7,
          "value": 0.600000024
        },
        {
          "id": 8,
          "value": 0.0
        }
      ],
      "leftModuleId": 842,
      "rightModuleId": 902,
      "data": {
        "m_ar_mode": false,
        "m_looped": false,
        "m_EXPONENTIALMODE": false,
        "m_ZEROONTRIG": false,
        "m_TRIGIFSTABLE": false,
        "m_time_range": 10,
        "m_base_level": 0.0
      },
      "pos": [
        33,
        2
      ]
    },
    {
      "id": 902,
      "plugin": "NYSTHI",
      "version": "1.0.17",
      "model": "EN",
      "params": [
        {
          "id": 0,
          "value": 0.0
        },
        {
          "id": 1,
          "value": 0.0
        },
        {
          "id": 2,
          "value": 0.0
        },
        {
          "id": 3,
          "value": 1.0
        },
        {
          "id": 4,
          "value": 0.0500000007
        },
        {
          "id": 5,
          "value": 0.150000006
        },
        {
          "id": 6,
          "value": 0.100000001
        },
        {
          "id": 7,
          "value": 0.600000024
        },
        {
          "id": 8,
          "value": 0.0
        }
      ],
      "leftModuleId": 901,
      "rightModuleId": 903,
      "data": {
        "m_ar_mode": false,
        "m_looped": false,
        "m_EXPONENTIALMODE": false,
        "m_ZEROONTRIG": false,
        "m_TRIGIFSTABLE": false,
        "m_time_range": 10,
        "m_base_level": 0.0
      },
      "pos": [
        34,
        2
      ]
    },
    {
      "id": 903,
      "plugin": "NYSTHI",
      "version": "1.0.17",
      "model": "EN",
      "params": [
        {
          "id": 0,
          "value": 0.0
        },
        {
          "id": 1,
          "value": 0.0
        },
        {
          "id": 2,
          "value": 0.0
        },
        {
          "id": 3,
          "value": 1.0
        },
        {
          "id": 4,
          "value": 0.0500000007
        },
        {
          "id": 5,
          "value": 0.150000006
        },
        {
          "id": 6,
          "value": 0.100000001
        },
        {
          "id": 7,
          "value": 0.600000024
        },
        {
          "id": 8,
          "value": 0.0
        }
      ],
      "leftModuleId": 902,
      "rightModuleId": 904,
      "data": {
        "m_ar_mode": false,
        "m_looped": false,
        "m_EXPONENTIALMODE": false,
        "m_ZEROONTRIG": false,
        "m_TRIGIFSTABLE": false,
        "m_time_range": 10,
        "m_base_level": 0.0
      },
      "pos": [
        35,
        2
      ]
    },
    {
      "id": 904,
      "plugin": "NYSTHI",
      "version": "1.0.17",
      "model": "EN",
      "params": [
        {
          "id": 0,
          "value": 0.0
        },
        {
          "id": 1,
          "value": 0.0
        },
        {
          "id": 2,
          "value": 0.0
        },
        {
          "id": 3,
          "value": 1.0
        },
        {
          "id": 4,
          "value": 0.0500000007
        },
        {
          "id": 5,
          "value": 0.150000006
        },
        {
          "id": 6,
          "value": 0.100000001
        },
        {
          "id": 7,
          "value": 0.600000024
        },
        {
          "id": 8,
          "value": 0.0
        }
      ],
      "leftModuleId": 903,
      "rightModuleId": 905,
      "data": {
        "m_ar_mode": false,
        "m_looped": false,
        "m_EXPONENTIALMODE": false,
        "m_ZEROONTRIG": false,
        "m_TRIGIFSTABLE": false,
        "m_time_range": 10,
        "m_base_level": 0.0
      },
      "pos": [
        36,
        2
      ]
    },
    {
      "id": 905,
      "plugin": "NYSTHI",
      "version": "1.0.17",
      "model": "EN",
      "params": [
        {
          "id": 0,
          "value": 0.0
        },
        {
          "id": 1,
          "value": 0.0
        },
        {
          "id": 2,
          "value": 0.0
        },
        {
          "id": 3,
          "value": 1.0
        },
        {
          "id": 4,
          "value": 0.0500000007
        },
        {
          "id": 5,
          "value": 0.150000006
        },
        {
          "id": 6,
          "value": 0.100000001
        },
        {
          "id": 7,
          "value": 0.600000024
        },
        {
          "id": 8,
          "value": 0.0
        }
      ],
      "leftModuleId": 904,
      "rightModuleId": 906,
      "data": {
        "m_ar_mode": false,
        "m_looped": false,
        "m_EXPONENTIALMODE": false,
        "m_ZEROONTRIG": false,
        "m_TRIGIFSTABLE": false,
        "m_time_range": 10,
        "m_base_level": 0.0
      },
      "pos": [
        37,
        2
      ]
    },
    {
      "id": 906,
      "plugin": "NYSTHI",
      "version": "1.0.17",
      "model": "EN",
      "params": [
        {
          "id": 0,
          "value": 0.0
        },
        {
          "id": 1,
          "value": 0.0
        },
        {
          "id": 2,
          "value": 0.0
        },
        {
          "id": 3,
          "value": 2.0
        },
        {
          "id": 4,
          "value": 0.0
        },
        {
          "id": 5,
          "value": 0.0
        },
        {
          "id": 6,
          "value": 0.0
        },
        {
          "id": 7,
          "value": 0.0689998567
        },
        {
          "id": 8,
          "value": 0.0
        }
      ],
      "leftModuleId": 905,
      "rightModuleId": 909,
      "data": {
        "m_ar_mode": true,
        "m_looped": false,
        "m_EXPONENTIALMODE": false,
        "m_ZEROONTRIG": false,
        "m_TRIGIFSTABLE": false,
        "m_time_range": 10,
        "m_base_level": 0.0
      },
      "pos": [
        38,
        2
      ]
    },
    {
      "id": 907,
      "plugin": "NYSTHI",
      "version": "1.0.17",
      "model": "SL",
      "params": [
        {
          "id": 0,
          "value": 0.5
        },
        {
          "id": 1,
          "value": 0.5
        },
        {
          "id": 2,
          "value": 0.5
        },
        {
          "id": 3,
          "value": 0.0
        },
        {
          "id": 4,
          "value": 0.5
        },
        {
          "id": 5,
          "value": 0.5
        },
        {
          "id": 6,
          "value": 0.5
        },
        {
          "id": 7,
          "value": 0.0
        }
      ],
      "leftModuleId": 910,
      "rightModuleId": 912,
      "data": {
        "m_bypa1": false,
        "m_bypa2": false
      },
      "pos": [
        41,
        2
      ]
    },
    {
      "id": 909,
      "plugin": "NYSTHI",
      "version": "1.0.17",
      "model": "EN",
      "params": [
        {
          "id": 0,
          "value": 0.0
        },
        {
          "id": 1,
          "value": 0.0
        },
        {
          "id": 2,
          "value": 0.0
        },
        {
          "id": 3,
          "value": 2.0
        },
        {
          "id": 4,
          "value": 0.0
        },
        {
          "id": 5,
          "value": 0.150000006
        },
        {
          "id": 6,
          "value": 0.100000001
        },
        {
          "id": 7,
          "value": 0.0689999983
        },
        {
          "id": 8,
          "value": 0.0
        }
      ],
      "leftModuleId": 906,
      "rightModuleId": 910,
      "data": {
        "m_ar_mode": true,
        "m_looped": false,
        "m_EXPONENTIALMODE": false,
        "m_ZEROONTRIG": false,
        "m_TRIGIFSTABLE": false,
        "m_time_range": 10,
        "m_base_level": 0.0
      },
      "pos": [
        39,
        2
      ]
    },
    {
      "id": 910,
      "plugin": "NYSTHI",
      "version": "1.0.17",
      "model": "EN",
      "params": [
        {
          "id": 0,
          "value": 0.0
        },
        {
          "id": 1,
          "value": 0.0
        },
        {
          "id": 2,
          "value": 0.0
        },
        {
          "id": 3,
          "value": 2.0
        },
        {
          "id": 4,
          "value": 0.0
        },
        {
          "id": 5,
          "value": 0.150000006
        },
        {
          "id": 6,
          "value": 0.100000001
        },
        {
          "id": 7,
          "value": 0.171000004
        },
        {
          "id": 8,
          "value": 0.0
        }
      ],
      "leftModuleId": 909,
      "rightModuleId": 907,
      "data": {
        "m_ar_mode": true,
        "m_looped": false,
        "m_EXPONENTIALMODE": false,
        "m_ZEROONTRIG": false,
        "m_TRIGIFSTABLE": false,
        "m_time_range": 10,
        "m_base_level": 0.0
      },
      "pos": [
        40,
        2
      ]
    },
    {
      "id": 912,
      "plugin": "MockbaModular",
      "version": "1.2.1",
      "model": "CZOsc",
      "params": [
        {
          "id": 0,
          "value": 1.0
        },
        {
          "id": 1,
          "value": 0.0
        },
        {
          "id": 2,
          "value": -23.9990273
        },
        {
          "id": 3,
          "value": 0.0
        },
        {
          "id": 4,
          "value": 1.0
        }
      ],
      "leftModuleId": 907,
      "rightModuleId": 913,
      "pos": [
        42,
        2
      ]
    },
    {
      "id": 913,
      "plugin": "MockbaModular",
      "version": "1.2.1",
      "model": "Filtah",
      "params": [
        {
          "id": 0,
          "value": 0.0
        },
        {
          "id": 1,
          "value": 100.0
        },
        {
          "id": 2,
          "value": 0.734401226
        },
        {
          "id": 3,
          "value": 0.0
        }
      ],
      "leftModuleId": 912,
      "rightModuleId": 867,
      "pos": [
        44,
        2
      ]
    },
    {
      "id": 852,
      "plugin": "VultModulesFree",
      "version": "1.14",
      "model": "Punch",
      "params": [
        {
          "id": 0,
          "value": 1.0
        },
        {
          "id": 1,
          "value": 1.0
        },
        {
          "id": 2,
          "value": 0.0
        }
      ],
      "rightModuleId": 880,
      "pos": [
        0,
        3
      ]
    },
    {
      "id": 914,
      "plugin": "Fundamental",
      "version": "1.4.0",
      "model": "Scope",
      "params": [
        {
          "id": 0,
          "value": 0.0
        },
        {
          "id": 1,
          "value": 0.0
        },
        {
          "id": 2,
          "value": 2.32192802
        },
        {
          "id": 3,
          "value": 0.0
        },
        {
          "id": 4,
          "value": 8.64000225
        },
        {
          "id": 5,
          "value": 0.0
        },
        {
          "id": 6,
          "value": 0.0
        },
        {
          "id": 7,
          "value": 0.0
        }
      ],
      "data": {
        "lissajous": 0,
        "external": 0
      },
      "pos": [
        68,
        0
      ]
    },
    {
      "id": 917,
      "plugin": "VCV-Recorder",
      "version": "1.1.0",
      "model": "Recorder",
      "params": [
        {
          "id": 0,
          "value": 1.0
        },
        {
          "id": 1,
          "value": 0.0
        }
      ],
      "rightModuleId": 399,
      "data": {
        "format": "wav",
        "path": "/Users/andreyv/Documents/Rack/patches/bounces/20210307_2_balance.wav",
        "incrementPath": true,
        "sampleRate": 48000,
        "depth": 16,
        "bitRate": 256000,
        "videoBitRate": 2048000
      },
      "pos": [
        116,
        4
      ]
    }
  ],
  "cables": [
    {
      "id": 4,
      "outputModuleId": 833,
      "outputId": 4,
      "inputModuleId": 836,
      "inputId": 0,
      "color": "#0c8e15"
    },
    {
      "id": 5,
      "outputModuleId": 833,
      "outputId": 5,
      "inputModuleId": 836,
      "inputId": 1,
      "color": "#c91847"
    },
    {
      "id": 6,
      "outputModuleId": 833,
      "outputId": 6,
      "inputModuleId": 836,
      "inputId": 2,
      "color": "#0986ad"
    },
    {
      "id": 12,
      "outputModuleId": 853,
      "outputId": 0,
      "inputModuleId": 399,
      "inputId": 0,
      "color": "#c9b70e"
    },
    {
      "id": 13,
      "outputModuleId": 853,
      "outputId": 1,
      "inputModuleId": 399,
      "inputId": 1,
      "color": "#0c8e15"
    },
    {
      "id": 26,
      "outputModuleId": 844,
      "outputId": 0,
      "inputModuleId": 838,
      "inputId": 20,
      "color": "#0c8e15"
    },
    {
      "id": 27,
      "outputModuleId": 833,
      "outputId": 1,
      "inputModuleId": 844,
      "inputId": 0,
      "color": "#c91847"
    },
    {
      "id": 31,
      "outputModuleId": 849,
      "outputId": 0,
      "inputModuleId": 847,
      "inputId": 0,
      "color": "#c91847"
    },
    {
      "id": 35,
      "outputModuleId": 843,
      "outputId": 1,
      "inputModuleId": 849,
      "inputId": 0,
      "color": "#0986ad"
    },
    {
      "id": 37,
      "outputModuleId": 867,
      "outputId": 2,
      "inputModuleId": 853,
      "inputId": 0,
      "color": "#0c8e15"
    },
    {
      "id": 36,
      "outputModuleId": 849,
      "outputId": 1,
      "inputModuleId": 841,
      "inputId": 2,
      "color": "#c9b70e"
    },
    {
      "id": 38,
      "outputModuleId": 841,
      "outputId": 0,
      "inputModuleId": 867,
      "inputId": 7,
      "color": "#c91847"
    },
    {
      "id": 39,
      "outputModuleId": 841,
      "outputId": 0,
      "inputModuleId": 842,
      "inputId": 0,
      "color": "#0986ad"
    },
    {
      "id": 34,
      "outputModuleId": 875,
      "outputId": 0,
      "inputModuleId": 848,
      "inputId": 0,
      "color": "#c91847"
    },
    {
      "id": 41,
      "outputModuleId": 848,
      "outputId": 0,
      "inputModuleId": 843,
      "inputId": 1,
      "color": "#0c8e15"
    },
    {
      "id": 42,
      "outputModuleId": 848,
      "outputId": 1,
      "inputModuleId": 847,
      "inputId": 1,
      "color": "#c91847"
    },
    {
      "id": 44,
      "outputModuleId": 833,
      "outputId": 2,
      "inputModuleId": 844,
      "inputId": 1,
      "color": "#c9b70e"
    },
    {
      "id": 32,
      "outputModuleId": 844,
      "outputId": 5,
      "inputModuleId": 843,
      "inputId": 0,
      "color": "#0986ad"
    },
    {
      "id": 25,
      "outputModuleId": 838,
      "outputId": 7,
      "inputModuleId": 848,
      "inputId": 1,
      "color": "#c9b70e"
    },
    {
      "id": 48,
      "outputModuleId": 848,
      "outputId": 5,
      "inputModuleId": 875,
      "inputId": 0,
      "color": "#c9b70e"
    },
    {
      "id": 49,
      "outputModuleId": 848,
      "outputId": 6,
      "inputModuleId": 875,
      "inputId": 1,
      "color": "#0c8e15"
    },
    {
      "id": 51,
      "outputModuleId": 841,
      "outputId": 1,
      "inputModuleId": 842,
      "inputId": 1,
      "color": "#c9b70e"
    },
    {
      "id": 52,
      "outputModuleId": 841,
      "outputId": 1,
      "inputModuleId": 914,
      "inputId": 0,
      "color": "#0c8e15"
    },
    {
      "id": 55,
      "outputModuleId": 875,
      "outputId": 1,
      "inputModuleId": 843,
      "inputId": 2,
      "color": "#0c8e15"
    },
    {
      "id": 56,
      "outputModuleId": 841,
      "outputId": 1,
      "inputModuleId": 840,
      "inputId": 0,
      "color": "#0986ad"
    },
    {
      "id": 57,
      "outputModuleId": 819,
      "outputId": 0,
      "inputModuleId": 840,
      "inputId": 26,
      "color": "#0c8e15"
    },
    {
      "id": 58,
      "outputModuleId": 844,
      "outputId": 6,
      "inputModuleId": 819,
      "inputId": 0,
      "color": "#c91847"
    },
    {
      "id": 45,
      "outputModuleId": 819,
      "outputId": 1,
      "inputModuleId": 867,
      "inputId": 5,
      "color": "#0c8e15"
    },
    {
      "id": 59,
      "outputModuleId": 844,
      "outputId": 7,
      "inputModuleId": 819,
      "inputId": 1,
      "color": "#c91847"
    },
    {
      "id": 50,
      "outputModuleId": 849,
      "outputId": 5,
      "inputModuleId": 841,
      "inputId": 3,
      "color": "#0986ad"
    },
    {
      "id": 60,
      "outputModuleId": 843,
      "outputId": 2,
      "inputModuleId": 849,
      "inputId": 1,
      "color": "#0986ad"
    },
    {
      "id": 62,
      "outputModuleId": 849,
      "outputId": 7,
      "inputModuleId": 840,
      "inputId": 8,
      "color": "#0c8e15"
    },
    {
      "id": 61,
      "outputModuleId": 849,
      "outputId": 6,
      "inputModuleId": 840,
      "inputId": 5,
      "color": "#c9b70e"
    },
    {
      "id": 47,
      "outputModuleId": 840,
      "outputId": 7,
      "inputModuleId": 853,
      "inputId": 1,
      "color": "#0986ad"
    },
    {
      "id": 66,
      "outputModuleId": 871,
      "outputId": 0,
      "inputModuleId": 853,
      "inputId": 2,
      "color": "#0986ad"
    },
    {
      "id": 67,
      "outputModuleId": 913,
      "outputId": 0,
      "inputModuleId": 871,
      "inputId": 1,
      "color": "#0c8e15"
    },
    {
      "id": 68,
      "outputModuleId": 912,
      "outputId": 0,
      "inputModuleId": 913,
      "inputId": 2,
      "color": "#c91847"
    },
    {
      "id": 69,
      "outputModuleId": 910,
      "outputId": 0,
      "inputModuleId": 871,
      "inputId": 0,
      "color": "#0986ad"
    },
    {
      "id": 71,
      "outputModuleId": 833,
      "outputId": 3,
      "inputModuleId": 845,
      "inputId": 1,
      "color": "#0c8e15"
    },
    {
      "id": 79,
      "outputModuleId": 837,
      "outputId": 0,
      "inputModuleId": 840,
      "inputId": 7,
      "color": "#0c8e15"
    },
    {
      "id": 82,
      "outputModuleId": 840,
      "outputId": 6,
      "inputModuleId": 853,
      "inputId": 3,
      "color": "#0c8e15"
    },
    {
      "id": 83,
      "outputModuleId": 841,
      "outputId": 2,
      "inputModuleId": 912,
      "inputId": 0,
      "color": "#c91847"
    },
    {
      "id": 84,
      "outputModuleId": 848,
      "outputId": 7,
      "inputModuleId": 875,
      "inputId": 2,
      "color": "#0c8e15"
    },
    {
      "id": 85,
      "outputModuleId": 875,
      "outputId": 2,
      "inputModuleId": 843,
      "inputId": 3,
      "color": "#c91847"
    },
    {
      "id": 88,
      "outputModuleId": 845,
      "outputId": 5,
      "inputModuleId": 820,
      "inputId": 0,
      "color": "#0c8e15"
    },
    {
      "id": 87,
      "outputModuleId": 870,
      "outputId": 6,
      "inputModuleId": 841,
      "inputId": 4,
      "color": "#c9b70e"
    },
    {
      "id": 90,
      "outputModuleId": 843,
      "outputId": 3,
      "inputModuleId": 870,
      "inputId": 1,
      "color": "#c9b70e"
    },
    {
      "id": 92,
      "outputModuleId": 845,
      "outputId": 0,
      "inputModuleId": 835,
      "inputId": 9,
      "color": "#c91847"
    },
    {
      "id": 95,
      "outputModuleId": 836,
      "outputId": 5,
      "inputModuleId": 845,
      "inputId": 0,
      "color": "#0c8e15"
    },
    {
      "id": 94,
      "outputModuleId": 870,
      "outputId": 0,
      "inputModuleId": 820,
      "inputId": 4,
      "color": "#c9b70e"
    },
    {
      "id": 93,
      "outputModuleId": 870,
      "outputId": 1,
      "inputModuleId": 835,
      "inputId": 1,
      "color": "#0986ad"
    },
    {
      "id": 96,
      "outputModuleId": 836,
      "outputId": 4,
      "inputModuleId": 870,
      "inputId": 0,
      "color": "#c91847"
    },
    {
      "id": 97,
      "outputModuleId": 835,
      "outputId": 0,
      "inputModuleId": 834,
      "inputId": 7,
      "color": "#0986ad"
    },
    {
      "id": 99,
      "outputModuleId": 852,
      "outputId": 0,
      "inputModuleId": 853,
      "inputId": 4,
      "color": "#0c8e15"
    },
    {
      "id": 98,
      "outputModuleId": 834,
      "outputId": 4,
      "inputModuleId": 852,
      "inputId": 0,
      "color": "#c9b70e"
    },
    {
      "id": 89,
      "outputModuleId": 846,
      "outputId": 0,
      "inputModuleId": 843,
      "inputId": 11,
      "color": "#0986ad"
    },
    {
      "id": 70,
      "outputModuleId": 846,
      "outputId": 1,
      "inputModuleId": 910,
      "inputId": 0,
      "color": "#c9b70e"
    },
    {
      "id": 101,
      "outputModuleId": 836,
      "outputId": 0,
      "inputModuleId": 846,
      "inputId": 0,
      "color": "#0986ad"
    },
    {
      "id": 102,
      "outputModuleId": 837,
      "outputId": 1,
      "inputModuleId": 875,
      "inputId": 3,
      "color": "#c9b70e"
    },
    {
      "id": 105,
      "outputModuleId": 834,
      "outputId": 5,
      "inputModuleId": 853,
      "inputId": 5,
      "color": "#0986ad"
    },
    {
      "id": 106,
      "outputModuleId": 848,
      "outputId": 8,
      "inputModuleId": 875,
      "inputId": 4,
      "color": "#c9b70e"
    },
    {
      "id": 107,
      "outputModuleId": 875,
      "outputId": 4,
      "inputModuleId": 843,
      "inputId": 4,
      "color": "#0c8e15"
    },
    {
      "id": 108,
      "outputModuleId": 843,
      "outputId": 4,
      "inputModuleId": 841,
      "inputId": 5,
      "color": "#c91847"
    },
    {
      "id": 109,
      "outputModuleId": 841,
      "outputId": 3,
      "inputModuleId": 868,
      "inputId": 0,
      "color": "#0986ad"
    },
    {
      "id": 78,
      "outputModuleId": 846,
      "outputId": 5,
      "inputModuleId": 820,
      "inputId": 1,
      "color": "#c9b70e"
    },
    {
      "id": 80,
      "outputModuleId": 846,
      "outputId": 6,
      "inputModuleId": 837,
      "inputId": 32,
      "color": "#0986ad"
    },
    {
      "id": 110,
      "outputModuleId": 836,
      "outputId": 1,
      "inputModuleId": 846,
      "inputId": 1,
      "color": "#c9b70e"
    },
    {
      "id": 111,
      "outputModuleId": 837,
      "outputId": 2,
      "inputModuleId": 853,
      "inputId": 46,
      "color": "#0c8e15"
    },
    {
      "id": 113,
      "outputModuleId": 871,
      "outputId": 1,
      "inputModuleId": 853,
      "inputId": 6,
      "color": "#0986ad"
    },
    {
      "id": 114,
      "outputModuleId": 909,
      "outputId": 0,
      "inputModuleId": 871,
      "inputId": 2,
      "color": "#c9b70e"
    },
    {
      "id": 115,
      "outputModuleId": 891,
      "outputId": 0,
      "inputModuleId": 909,
      "inputId": 0,
      "color": "#0c8e15"
    },
    {
      "id": 91,
      "outputModuleId": 891,
      "outputId": 1,
      "inputModuleId": 835,
      "inputId": 0,
      "color": "#0c8e15"
    },
    {
      "id": 116,
      "outputModuleId": 836,
      "outputId": 2,
      "inputModuleId": 891,
      "inputId": 0,
      "color": "#0986ad"
    },
    {
      "id": 117,
      "outputModuleId": 891,
      "outputId": 2,
      "inputModuleId": 843,
      "inputId": 12,
      "color": "#c9b70e"
    },
    {
      "id": 112,
      "outputModuleId": 887,
      "outputId": 0,
      "inputModuleId": 871,
      "inputId": 3,
      "color": "#c91847"
    },
    {
      "id": 118,
      "outputModuleId": 868,
      "outputId": 0,
      "inputModuleId": 887,
      "inputId": 0,
      "color": "#0c8e15"
    },
    {
      "id": 119,
      "outputModuleId": 837,
      "outputId": 3,
      "inputModuleId": 887,
      "inputId": 1,
      "color": "#c91847"
    },
    {
      "id": 120,
      "outputModuleId": 869,
      "outputId": 0,
      "inputModuleId": 890,
      "inputId": 0,
      "color": "#c9b70e"
    },
    {
      "id": 121,
      "outputModuleId": 890,
      "outputId": 0,
      "inputModuleId": 852,
      "inputId": 1,
      "color": "#0c8e15"
    },
    {
      "id": 124,
      "outputModuleId": 906,
      "outputId": 0,
      "inputModuleId": 871,
      "inputId": 4,
      "color": "#c9b70e"
    },
    {
      "id": 122,
      "outputModuleId": 852,
      "outputId": 1,
      "inputModuleId": 871,
      "inputId": 5,
      "color": "#c91847"
    },
    {
      "id": 125,
      "outputModuleId": 889,
      "outputId": 0,
      "inputModuleId": 853,
      "inputId": 7,
      "color": "#0c8e15"
    },
    {
      "id": 127,
      "outputModuleId": 871,
      "outputId": 2,
      "inputModuleId": 889,
      "inputId": 0,
      "color": "#0986ad"
    },
    {
      "id": 100,
      "outputModuleId": 875,
      "outputId": 3,
      "inputModuleId": 913,
      "inputId": 0,
      "color": "#c91847"
    },
    {
      "id": 129,
      "outputModuleId": 837,
      "outputId": 4,
      "inputModuleId": 838,
      "inputId": 4,
      "color": "#c91847"
    },
    {
      "id": 130,
      "outputModuleId": 837,
      "outputId": 5,
      "inputModuleId": 838,
      "inputId": 2,
      "color": "#0986ad"
    },
    {
      "id": 131,
      "outputModuleId": 843,
      "outputId": 5,
      "inputModuleId": 867,
      "inputId": 11,
      "color": "#c9b70e"
    },
    {
      "id": 132,
      "outputModuleId": 843,
      "outputId": 6,
      "inputModuleId": 867,
      "inputId": 4,
      "color": "#0c8e15"
    },
    {
      "id": 133,
      "outputModuleId": 837,
      "outputId": 6,
      "inputModuleId": 867,
      "inputId": 3,
      "color": "#c91847"
    },
    {
      "id": 134,
      "outputModuleId": 843,
      "outputId": 7,
      "inputModuleId": 867,
      "inputId": 8,
      "color": "#0986ad"
    },
    {
      "id": 135,
      "outputModuleId": 878,
      "outputId": 0,
      "inputModuleId": 853,
      "inputId": 12,
      "color": "#0c8e15"
    },
    {
      "id": 136,
      "outputModuleId": 878,
      "outputId": 1,
      "inputModuleId": 853,
      "inputId": 28,
      "color": "#c91847"
    },
    {
      "id": 137,
      "outputModuleId": 853,
      "outputId": 8,
      "inputModuleId": 878,
      "inputId": 0,
      "color": "#0986ad"
    },
    {
      "id": 138,
      "outputModuleId": 853,
      "outputId": 12,
      "inputModuleId": 878,
      "inputId": 1,
      "color": "#c9b70e"
    },
    {
      "id": 141,
      "outputModuleId": 880,
      "outputId": 1,
      "inputModuleId": 853,
      "inputId": 29,
      "color": "#0986ad"
    },
    {
      "id": 142,
      "outputModuleId": 853,
      "outputId": 13,
      "inputModuleId": 880,
      "inputId": 1,
      "color": "#c9b70e"
    },
    {
      "id": 139,
      "outputModuleId": 880,
      "outputId": 0,
      "inputModuleId": 853,
      "inputId": 13,
      "color": "#0c8e15"
    },
    {
      "id": 140,
      "outputModuleId": 853,
      "outputId": 9,
      "inputModuleId": 880,
      "inputId": 0,
      "color": "#c91847"
    },
    {
      "id": 144,
      "outputModuleId": 879,
      "outputId": 0,
      "inputModuleId": 853,
      "inputId": 14,
      "color": "#c91847"
    },
    {
      "id": 145,
      "outputModuleId": 879,
      "outputId": 1,
      "inputModuleId": 853,
      "inputId": 30,
      "color": "#0986ad"
    },
    {
      "id": 146,
      "outputModuleId": 853,
      "outputId": 10,
      "inputModuleId": 879,
      "inputId": 0,
      "color": "#c9b70e"
    },
    {
      "id": 147,
      "outputModuleId": 853,
      "outputId": 14,
      "inputModuleId": 879,
      "inputId": 1,
      "color": "#0c8e15"
    },
    {
      "id": 148,
      "outputModuleId": 843,
      "outputId": 8,
      "inputModuleId": 840,
      "inputId": 23,
      "color": "#c91847"
    },
    {
      "id": 149,
      "outputModuleId": 843,
      "outputId": 8,
      "inputModuleId": 840,
      "inputId": 25,
      "color": "#0986ad"
    },
    {
      "id": 150,
      "outputModuleId": 820,
      "outputId": 0,
      "inputModuleId": 841,
      "inputId": 6,
      "color": "#0c8e15"
    },
    {
      "id": 104,
      "outputModuleId": 835,
      "outputId": 1,
      "inputModuleId": 834,
      "inputId": 8,
      "color": "#c91847"
    },
    {
      "id": 126,
      "outputModuleId": 835,
      "outputId": 2,
      "inputModuleId": 906,
      "inputId": 0,
      "color": "#c91847"
    },
    {
      "id": 151,
      "outputModuleId": 853,
      "outputId": 0,
      "inputModuleId": 917,
      "inputId": 2,
      "color": "#c91847"
    },
    {
      "id": 152,
      "outputModuleId": 853,
      "outputId": 1,
      "inputModuleId": 917,
      "inputId": 3,
      "color": "#0986ad"
    }
  ]
}