{
  "version": "1.1.6",
  "modules": [
    {
      "id": 399,
      "plugin": "Core",
      "version": "1.1.6",
      "model": "AudioInterface",
      "params": [],
      "leftModuleId": 400,
      "rightModuleId": 440,
      "data": {
        "audio": {
          "driver": 5,
          "deviceName": "Apple Inc.: Multi-Output Device",
          "offset": 0,
          "maxChannels": 8,
          "sampleRate": 44100,
          "blockSize": 1024
        }
      },
      "pos": [
        90,
        4
      ]
    },
    {
      "id": 400,
      "plugin": "AS",
      "version": "1.0.4",
      "model": "DelayPlusStereoFx",
      "params": [
        {
          "id": 0,
          "value": 0.375
        },
        {
          "id": 1,
          "value": 0.316999823
        },
        {
          "id": 2,
          "value": 0.5
        },
        {
          "id": 3,
          "value": 0.625
        },
        {
          "id": 4,
          "value": 0.316999823
        },
        {
          "id": 5,
          "value": 0.5
        },
        {
          "id": 6,
          "value": 1.0
        },
        {
          "id": 7,
          "value": 0.0
        },
        {
          "id": 8,
          "value": 1.0
        },
        {
          "id": 9,
          "value": 0.0
        }
      ],
      "leftModuleId": 401,
      "rightModuleId": 399,
      "data": {
        "as_FxBypass": [
          false
        ]
      },
      "pos": [
        78,
        4
      ]
    },
    {
      "id": 401,
      "plugin": "Valley",
      "version": "1.1.7",
      "model": "Plateau",
      "params": [
        {
          "id": 0,
          "value": 0.0
        },
        {
          "id": 1,
          "value": 0.39199996
        },
        {
          "id": 2,
          "value": 0.0
        },
        {
          "id": 3,
          "value": 6.80500126
        },
        {
          "id": 4,
          "value": 10.0
        },
        {
          "id": 5,
          "value": 0.5
        },
        {
          "id": 6,
          "value": 6.53499842
        },
        {
          "id": 7,
          "value": 0.463559687
        },
        {
          "id": 8,
          "value": 10.0
        },
        {
          "id": 9,
          "value": 7.89999962
        },
        {
          "id": 10,
          "value": 0.0
        },
        {
          "id": 11,
          "value": 0.5
        },
        {
          "id": 12,
          "value": 0.5
        },
        {
          "id": 13,
          "value": 0.0
        },
        {
          "id": 14,
          "value": 0.0
        },
        {
          "id": 15,
          "value": 0.0
        },
        {
          "id": 16,
          "value": 0.0
        },
        {
          "id": 17,
          "value": 0.0
        },
        {
          "id": 18,
          "value": 0.0
        },
        {
          "id": 19,
          "value": 0.0
        },
        {
          "id": 20,
          "value": 0.0
        },
        {
          "id": 21,
          "value": 0.0
        },
        {
          "id": 22,
          "value": 0.0
        },
        {
          "id": 23,
          "value": 0.0
        },
        {
          "id": 24,
          "value": 0.0
        },
        {
          "id": 25,
          "value": 0.0
        },
        {
          "id": 26,
          "value": 0.0
        },
        {
          "id": 27,
          "value": 0.0
        },
        {
          "id": 28,
          "value": 0.0
        },
        {
          "id": 29,
          "value": 0.0
        },
        {
          "id": 30,
          "value": 1.0
        }
      ],
      "leftModuleId": 459,
      "rightModuleId": 400,
      "data": {
        "frozen": false,
        "freezeToggle": false,
        "panelStyle": 0,
        "tuned": 0,
        "diffuseInput": 1,
        "preDelayCVSens": 0,
        "inputSensitivity": 0,
        "outputSaturation": 0
      },
      "pos": [
        66,
        4
      ]
    },
    {
      "id": 440,
      "plugin": "Stoermelder-P1",
      "version": "1.8.0",
      "model": "Mb",
      "params": [],
      "leftModuleId": 399,
      "data": {
        "mode": 1
      },
      "pos": [
        100,
        4
      ]
    },
    {
      "id": 447,
      "plugin": "ImpromptuModular",
      "version": "1.1.10",
      "model": "Clocked-Clkd",
      "params": [
        {
          "id": 0,
          "value": 9.0
        },
        {
          "id": 1,
          "value": 5.0
        },
        {
          "id": 2,
          "value": -5.0
        },
        {
          "id": 3,
          "value": 100.0
        },
        {
          "id": 4,
          "value": 0.0
        },
        {
          "id": 5,
          "value": 0.0
        },
        {
          "id": 6,
          "value": 0.0
        },
        {
          "id": 7,
          "value": 0.0
        },
        {
          "id": 8,
          "value": 0.0
        },
        {
          "id": 9,
          "value": 0.0
        }
      ],
      "leftModuleId": 509,
      "rightModuleId": 472,
      "data": {
        "panelTheme": 1,
        "running": true,
        "bpmDetectionMode": true,
        "resetOnStartStop": 10,
        "ppqn": 24,
        "resetClockOutputsHigh": true,
        "momentaryRunInput": true,
        "displayIndex": 1,
        "trigOuts": [
          false,
          false,
          false,
          false
        ],
        "clockMaster": -1
      },
      "pos": [
        6,
        3
      ]
    },
    {
      "id": 456,
      "plugin": "MindMeldModular",
      "version": "1.1.12",
      "model": "MixMasterJr",
      "params": [
        {
          "id": 0,
          "value": 0.578303874
        },
        {
          "id": 1,
          "value": 0.816428959
        },
        {
          "id": 2,
          "value": 0.635000467
        },
        {
          "id": 3,
          "value": 0.491369426
        },
        {
          "id": 4,
          "value": 0.733274519
        },
        {
          "id": 5,
          "value": 0.0
        },
        {
          "id": 6,
          "value": 0.0
        },
        {
          "id": 7,
          "value": 1.0
        },
        {
          "id": 8,
          "value": 1.0
        },
        {
          "id": 9,
          "value": 1.0
        },
        {
          "id": 10,
          "value": 0.5
        },
        {
          "id": 11,
          "value": 0.5
        },
        {
          "id": 12,
          "value": 0.5
        },
        {
          "id": 13,
          "value": 0.5
        },
        {
          "id": 14,
          "value": 0.5
        },
        {
          "id": 15,
          "value": 0.5
        },
        {
          "id": 16,
          "value": 0.5
        },
        {
          "id": 17,
          "value": 0.5
        },
        {
          "id": 18,
          "value": 0.5
        },
        {
          "id": 19,
          "value": 0.5
        },
        {
          "id": 20,
          "value": 0.0
        },
        {
          "id": 21,
          "value": 0.0
        },
        {
          "id": 22,
          "value": 0.0
        },
        {
          "id": 23,
          "value": 0.0
        },
        {
          "id": 24,
          "value": 0.0
        },
        {
          "id": 25,
          "value": 0.0
        },
        {
          "id": 26,
          "value": 0.0
        },
        {
          "id": 27,
          "value": 0.0
        },
        {
          "id": 28,
          "value": 0.0
        },
        {
          "id": 29,
          "value": 0.0
        },
        {
          "id": 30,
          "value": 0.0
        },
        {
          "id": 31,
          "value": 0.0
        },
        {
          "id": 32,
          "value": 0.0
        },
        {
          "id": 33,
          "value": 0.0
        },
        {
          "id": 34,
          "value": 0.0
        },
        {
          "id": 35,
          "value": 0.0
        },
        {
          "id": 36,
          "value": 0.0
        },
        {
          "id": 37,
          "value": 0.0
        },
        {
          "id": 38,
          "value": 0.0
        },
        {
          "id": 39,
          "value": 0.0
        },
        {
          "id": 40,
          "value": 0.0
        },
        {
          "id": 41,
          "value": 0.0
        },
        {
          "id": 42,
          "value": 0.0
        },
        {
          "id": 43,
          "value": 1.04157758
        },
        {
          "id": 44,
          "value": 1.0
        },
        {
          "id": 45,
          "value": 0.0
        },
        {
          "id": 46,
          "value": 2.0
        },
        {
          "id": 47,
          "value": 1.0
        },
        {
          "id": 48,
          "value": 1.0
        },
        {
          "id": 49,
          "value": 0.0
        },
        {
          "id": 50,
          "value": 0.0
        },
        {
          "id": 51,
          "value": 0.0
        },
        {
          "id": 52,
          "value": 13.0
        },
        {
          "id": 53,
          "value": 13.0
        },
        {
          "id": 54,
          "value": 13.0
        },
        {
          "id": 55,
          "value": 13.0
        },
        {
          "id": 56,
          "value": 13.0
        },
        {
          "id": 57,
          "value": 13.0
        },
        {
          "id": 58,
          "value": 13.0
        },
        {
          "id": 59,
          "value": 13.0
        },
        {
          "id": 60,
          "value": 20010.0
        },
        {
          "id": 61,
          "value": 20010.0
        },
        {
          "id": 62,
          "value": 20010.0
        },
        {
          "id": 63,
          "value": 20010.0
        },
        {
          "id": 64,
          "value": 20010.0
        },
        {
          "id": 65,
          "value": 20010.0
        },
        {
          "id": 66,
          "value": 20010.0
        },
        {
          "id": 67,
          "value": 20010.0
        },
        {
          "id": 68,
          "value": 13.0
        },
        {
          "id": 69,
          "value": 13.0
        },
        {
          "id": 70,
          "value": 20010.0
        },
        {
          "id": 71,
          "value": 20010.0
        }
      ],
      "rightModuleId": 459,
      "data": {
        "trackLabels": "-01--02--03--04--05--06--07--08-GRP1GRP2",
        "panLawMono": 1,
        "panLawStereo": 1,
        "directOutsMode": 3,
        "directOutsSkipGroupedTracks": 0,
        "auxSendsMode": 3,
        "groupsControlTrackSendLevels": 0,
        "auxReturnsMutedWhenMainSolo": 0,
        "auxReturnsSolosMuteDry": 0,
        "chainMode": 0,
        "colorAndCloak": 117440512,
        "symmetricalFade": false,
        "fadeCvOutsWithVolCv": false,
        "linkBitMask": 0,
        "filterPos": 1,
        "groupedAuxReturnFeedbackProtection": 1,
        "ecoMode": 65535,
        "faders": [
          0.578303874,
          0.816428959,
          0.635000467,
          0.491369426,
          0.733274519,
          0.0,
          0.0,
          1.0,
          1.0,
          1.0
        ],
        "momentaryCvButtons": 1,
        "masterFaderScalesSends": 0,
        "linearVolCvInputs": 0,
        "id_t0_gainAdjust": 1.0,
        "id_t0_fadeRate": 0.0,
        "id_t0_fadeProfile": 0.0,
        "id_t0_directOutsMode": 3,
        "id_t0_auxSendsMode": 3,
        "id_t0_panLawStereo": 1,
        "id_t0_vuColorThemeLocal": 0,
        "id_t0_filterPos": 1,
        "id_t0_dispColorLocal": 0,
        "id_t0_polyStereo": 0,
        "id_t0_panCvLevel": 1.0,
        "id_t0_stereoWidth": 1.0,
        "id_t0_invertInput": 0,
        "id_t1_gainAdjust": 1.0,
        "id_t1_fadeRate": 0.0,
        "id_t1_fadeProfile": 0.0,
        "id_t1_directOutsMode": 3,
        "id_t1_auxSendsMode": 3,
        "id_t1_panLawStereo": 1,
        "id_t1_vuColorThemeLocal": 0,
        "id_t1_filterPos": 1,
        "id_t1_dispColorLocal": 0,
        "id_t1_polyStereo": 0,
        "id_t1_panCvLevel": 1.0,
        "id_t1_stereoWidth": 1.0,
        "id_t1_invertInput": 0,
        "id_t2_gainAdjust": 1.0,
        "id_t2_fadeRate": 0.0,
        "id_t2_fadeProfile": 0.0,
        "id_t2_directOutsMode": 3,
        "id_t2_auxSendsMode": 3,
        "id_t2_panLawStereo": 1,
        "id_t2_vuColorThemeLocal": 0,
        "id_t2_filterPos": 1,
        "id_t2_dispColorLocal": 0,
        "id_t2_polyStereo": 0,
        "id_t2_panCvLevel": 1.0,
        "id_t2_stereoWidth": 1.0,
        "id_t2_invertInput": 0,
        "id_t3_gainAdjust": 1.0,
        "id_t3_fadeRate": 0.0,
        "id_t3_fadeProfile": 0.0,
        "id_t3_directOutsMode": 3,
        "id_t3_auxSendsMode": 3,
        "id_t3_panLawStereo": 1,
        "id_t3_vuColorThemeLocal": 0,
        "id_t3_filterPos": 1,
        "id_t3_dispColorLocal": 0,
        "id_t3_polyStereo": 0,
        "id_t3_panCvLevel": 1.0,
        "id_t3_stereoWidth": 1.0,
        "id_t3_invertInput": 0,
        "id_t4_gainAdjust": 1.0,
        "id_t4_fadeRate": 0.0,
        "id_t4_fadeProfile": 0.0,
        "id_t4_directOutsMode": 3,
        "id_t4_auxSendsMode": 3,
        "id_t4_panLawStereo": 1,
        "id_t4_vuColorThemeLocal": 0,
        "id_t4_filterPos": 1,
        "id_t4_dispColorLocal": 0,
        "id_t4_polyStereo": 0,
        "id_t4_panCvLevel": 1.0,
        "id_t4_stereoWidth": 1.0,
        "id_t4_invertInput": 0,
        "id_t5_gainAdjust": 1.0,
        "id_t5_fadeRate": 0.0,
        "id_t5_fadeProfile": 0.0,
        "id_t5_directOutsMode": 3,
        "id_t5_auxSendsMode": 3,
        "id_t5_panLawStereo": 1,
        "id_t5_vuColorThemeLocal": 0,
        "id_t5_filterPos": 1,
        "id_t5_dispColorLocal": 0,
        "id_t5_polyStereo": 0,
        "id_t5_panCvLevel": 1.0,
        "id_t5_stereoWidth": 1.0,
        "id_t5_invertInput": 0,
        "id_t6_gainAdjust": 1.0,
        "id_t6_fadeRate": 0.0,
        "id_t6_fadeProfile": 0.0,
        "id_t6_directOutsMode": 3,
        "id_t6_auxSendsMode": 3,
        "id_t6_panLawStereo": 1,
        "id_t6_vuColorThemeLocal": 0,
        "id_t6_filterPos": 1,
        "id_t6_dispColorLocal": 0,
        "id_t6_polyStereo": 0,
        "id_t6_panCvLevel": 1.0,
        "id_t6_stereoWidth": 1.0,
        "id_t6_invertInput": 0,
        "id_t7_gainAdjust": 1.0,
        "id_t7_fadeRate": 0.0,
        "id_t7_fadeProfile": 0.0,
        "id_t7_directOutsMode": 3,
        "id_t7_auxSendsMode": 3,
        "id_t7_panLawStereo": 1,
        "id_t7_vuColorThemeLocal": 0,
        "id_t7_filterPos": 1,
        "id_t7_dispColorLocal": 0,
        "id_t7_polyStereo": 0,
        "id_t7_panCvLevel": 1.0,
        "id_t7_stereoWidth": 1.0,
        "id_t7_invertInput": 0,
        "id_g0_fadeRate": 0.0,
        "id_g0_fadeProfile": 0.0,
        "id_g0_directOutsMode": 3,
        "id_g0_auxSendsMode": 3,
        "id_g0_panLawStereo": 1,
        "id_g0_vuColorThemeLocal": 0,
        "id_g0_filterPos": 1,
        "id_g0_dispColorLocal": 0,
        "id_g0_panCvLevel": 1.0,
        "id_g0_stereoWidth": 1.0,
        "id_g1_fadeRate": 0.0,
        "id_g1_fadeProfile": 0.0,
        "id_g1_directOutsMode": 3,
        "id_g1_auxSendsMode": 3,
        "id_g1_panLawStereo": 1,
        "id_g1_vuColorThemeLocal": 0,
        "id_g1_filterPos": 1,
        "id_g1_dispColorLocal": 0,
        "id_g1_panCvLevel": 1.0,
        "id_g1_stereoWidth": 1.0,
        "dcBlock": false,
        "clipping": 0,
        "fadeRate": 0.0,
        "fadeProfile": 0.0,
        "vuColorThemeLocal": 0,
        "dispColorLocal": 0,
        "chainOnly": 0,
        "dimGain": 0.251190007,
        "masterLabel": "MASTER"
      },
      "pos": [
        0,
        4
      ]
    },
    {
      "id": 459,
      "plugin": "MindMeldModular",
      "version": "1.1.12",
      "model": "AuxExpanderJr",
      "params": [
        {
          "id": 0,
          "value": 0.0
        },
        {
          "id": 1,
          "value": 0.0
        },
        {
          "id": 2,
          "value": 0.0
        },
        {
          "id": 3,
          "value": 0.0
        },
        {
          "id": 4,
          "value": 0.0
        },
        {
          "id": 5,
          "value": 0.0
        },
        {
          "id": 6,
          "value": 0.0
        },
        {
          "id": 7,
          "value": 0.0
        },
        {
          "id": 8,
          "value": 0.0
        },
        {
          "id": 9,
          "value": 0.0
        },
        {
          "id": 10,
          "value": 0.0
        },
        {
          "id": 11,
          "value": 0.0
        },
        {
          "id": 12,
          "value": 0.0
        },
        {
          "id": 13,
          "value": 0.0
        },
        {
          "id": 14,
          "value": 0.0
        },
        {
          "id": 15,
          "value": 0.0
        },
        {
          "id": 16,
          "value": 0.0
        },
        {
          "id": 17,
          "value": 0.0
        },
        {
          "id": 18,
          "value": 0.0
        },
        {
          "id": 19,
          "value": 0.0
        },
        {
          "id": 20,
          "value": 0.0
        },
        {
          "id": 21,
          "value": 0.0
        },
        {
          "id": 22,
          "value": 0.0
        },
        {
          "id": 23,
          "value": 0.0
        },
        {
          "id": 24,
          "value": 0.0
        },
        {
          "id": 25,
          "value": 0.0
        },
        {
          "id": 26,
          "value": 0.0
        },
        {
          "id": 27,
          "value": 0.0
        },
        {
          "id": 28,
          "value": 0.0
        },
        {
          "id": 29,
          "value": 0.0
        },
        {
          "id": 30,
          "value": 0.0
        },
        {
          "id": 31,
          "value": 0.0
        },
        {
          "id": 32,
          "value": 1.0
        },
        {
          "id": 33,
          "value": 1.0
        },
        {
          "id": 34,
          "value": 0.0
        },
        {
          "id": 35,
          "value": 0.0
        },
        {
          "id": 36,
          "value": 0.51150018
        },
        {
          "id": 37,
          "value": 0.278999954
        },
        {
          "id": 38,
          "value": 0.0
        },
        {
          "id": 39,
          "value": 0.0
        },
        {
          "id": 40,
          "value": 0.0
        },
        {
          "id": 41,
          "value": 0.0
        },
        {
          "id": 42,
          "value": 0.0
        },
        {
          "id": 43,
          "value": 0.0
        },
        {
          "id": 44,
          "value": 0.0
        },
        {
          "id": 45,
          "value": 0.0
        },
        {
          "id": 46,
          "value": 0.0
        },
        {
          "id": 47,
          "value": 0.0
        },
        {
          "id": 48,
          "value": 0.0
        },
        {
          "id": 49,
          "value": 0.0
        },
        {
          "id": 50,
          "value": 0.0
        },
        {
          "id": 51,
          "value": 0.0
        },
        {
          "id": 52,
          "value": 0.0
        },
        {
          "id": 53,
          "value": 0.0
        },
        {
          "id": 54,
          "value": 0.0
        },
        {
          "id": 55,
          "value": 0.0
        },
        {
          "id": 56,
          "value": 0.0
        },
        {
          "id": 57,
          "value": 0.0
        },
        {
          "id": 58,
          "value": 0.0
        },
        {
          "id": 59,
          "value": 0.0
        },
        {
          "id": 60,
          "value": 0.0
        },
        {
          "id": 61,
          "value": 0.0
        },
        {
          "id": 62,
          "value": 1.0
        },
        {
          "id": 63,
          "value": 1.0
        },
        {
          "id": 64,
          "value": 1.0
        },
        {
          "id": 65,
          "value": 1.0
        },
        {
          "id": 66,
          "value": 0.5
        },
        {
          "id": 67,
          "value": 0.5
        },
        {
          "id": 68,
          "value": 0.5
        },
        {
          "id": 69,
          "value": 0.5
        },
        {
          "id": 70,
          "value": 0.535089016
        },
        {
          "id": 71,
          "value": 0.74297601
        },
        {
          "id": 72,
          "value": 1.0
        },
        {
          "id": 73,
          "value": 1.0
        }
      ],
      "leftModuleId": 456,
      "rightModuleId": 401,
      "data": {
        "directOutsModeLocal": 50529027,
        "panLawStereoLocal": 16843009,
        "vuColorThemeLocal": 0,
        "dispColorAuxLocal": [
          0,
          0,
          0,
          0
        ],
        "auxFadeRatesAndProfiles": [
          0.0,
          0.0,
          0.0,
          0.0,
          0.0,
          0.0,
          0.0,
          0.0
        ],
        "auxLabels": "AUXAAUXBAUXCAUXD",
        "id_x0_hpfCutoffFreq": 13.0,
        "id_x0_lpfCutoffFreq": 20010.0,
        "id_x0_stereoWidth": 1.0,
        "id_x1_hpfCutoffFreq": 13.0,
        "id_x1_lpfCutoffFreq": 20010.0,
        "id_x1_stereoWidth": 1.0,
        "id_x2_hpfCutoffFreq": 13.0,
        "id_x2_lpfCutoffFreq": 20010.0,
        "id_x2_stereoWidth": 1.0,
        "id_x3_hpfCutoffFreq": 13.0,
        "id_x3_lpfCutoffFreq": 20010.0,
        "id_x3_stereoWidth": 1.0,
        "panCvLevels": [
          1.0,
          1.0,
          1.0,
          1.0
        ]
      },
      "pos": [
        36,
        4
      ]
    },
    {
      "id": 462,
      "plugin": "AudibleInstruments",
      "version": "1.5.0",
      "model": "Kinks",
      "params": [],
      "leftModuleId": 472,
      "rightModuleId": 470,
      "pos": [
        21,
        3
      ]
    },
    {
      "id": 464,
      "plugin": "Fundamental",
      "version": "1.4.0",
      "model": "Scope",
      "params": [
        {
          "id": 0,
          "value": 3.32192802
        },
        {
          "id": 1,
          "value": 0.0
        },
        {
          "id": 2,
          "value": 3.32192802
        },
        {
          "id": 3,
          "value": 0.0
        },
        {
          "id": 4,
          "value": 7.9399972
        },
        {
          "id": 5,
          "value": 0.0
        },
        {
          "id": 6,
          "value": 0.0
        },
        {
          "id": 7,
          "value": 0.0
        }
      ],
      "leftModuleId": 488,
      "rightModuleId": 483,
      "data": {
        "lissajous": 0,
        "external": 0
      },
      "pos": [
        50,
        3
      ]
    },
    {
      "id": 467,
      "plugin": "Befaco",
      "version": "1.0.1",
      "model": "Rampage",
      "params": [
        {
          "id": 0,
          "value": 0.0
        },
        {
          "id": 1,
          "value": 2.0
        },
        {
          "id": 2,
          "value": 0.0
        },
        {
          "id": 3,
          "value": 0.0
        },
        {
          "id": 4,
          "value": 0.0
        },
        {
          "id": 5,
          "value": 0.0
        },
        {
          "id": 6,
          "value": 0.801000416
        },
        {
          "id": 7,
          "value": 0.594000399
        },
        {
          "id": 8,
          "value": 0.0839999914
        },
        {
          "id": 9,
          "value": 0.360999912
        },
        {
          "id": 10,
          "value": 0.0
        },
        {
          "id": 11,
          "value": 0.0
        },
        {
          "id": 12,
          "value": 0.5
        }
      ],
      "leftModuleId": 505,
      "rightModuleId": 512,
      "pos": [
        18,
        1
      ]
    },
    {
      "id": 468,
      "plugin": "Bogaudio",
      "version": "1.1.36",
      "model": "Bogaudio-Manual",
      "params": [
        {
          "id": 0,
          "value": 0.0
        }
      ],
      "rightModuleId": 489,
      "data": {
        "triggerOnLoad": false,
        "shouldTriggerOnLoad": true,
        "output_scale": 1.0
      },
      "pos": [
        0,
        2
      ]
    },
    {
      "id": 470,
      "plugin": "AudibleInstruments",
      "version": "1.5.0",
      "model": "Veils",
      "params": [
        {
          "id": 0,
          "value": 0.200000003
        },
        {
          "id": 1,
          "value": 0.343500167
        },
        {
          "id": 2,
          "value": 0.0
        },
        {
          "id": 3,
          "value": 0.0
        },
        {
          "id": 4,
          "value": 1.0
        },
        {
          "id": 5,
          "value": 1.0
        },
        {
          "id": 6,
          "value": 1.0
        },
        {
          "id": 7,
          "value": 1.0
        }
      ],
      "leftModuleId": 462,
      "rightModuleId": 475,
      "pos": [
        25,
        3
      ]
    },
    {
      "id": 472,
      "plugin": "AS",
      "version": "1.0.4",
      "model": "Multiple2_5",
      "params": [],
      "leftModuleId": 447,
      "rightModuleId": 462,
      "pos": [
        16,
        3
      ]
    },
    {
      "id": 475,
      "plugin": "ML_modules",
      "version": "1.1.3",
      "model": "Quantum",
      "params": [
        {
          "id": 0,
          "value": 0.0
        },
        {
          "id": 1,
          "value": 0.0
        },
        {
          "id": 2,
          "value": 0.0
        },
        {
          "id": 3,
          "value": 0.0
        },
        {
          "id": 4,
          "value": 0.0
        },
        {
          "id": 5,
          "value": 0.0
        },
        {
          "id": 6,
          "value": 0.0
        },
        {
          "id": 7,
          "value": 0.0
        },
        {
          "id": 8,
          "value": 0.0
        },
        {
          "id": 9,
          "value": 0.0
        },
        {
          "id": 10,
          "value": 0.0
        },
        {
          "id": 11,
          "value": 0.0
        }
      ],
      "leftModuleId": 470,
      "rightModuleId": 488,
      "data": {
        "scale": [
          1,
          0,
          0,
          1,
          0,
          0,
          0,
          1,
          1,
          0,
          0,
          0
        ],
        "mode": 1,
        "transpose_select": 1,
        "toggle_mode": 0
      },
      "pos": [
        37,
        3
      ]
    },
    {
      "id": 476,
      "plugin": "VultModulesFree",
      "version": "1.14",
      "model": "Slap",
      "params": [
        {
          "id": 0,
          "value": 0.0345000029
        },
        {
          "id": 1,
          "value": 0.243499845
        },
        {
          "id": 2,
          "value": 0.0
        },
        {
          "id": 3,
          "value": 0.186500028
        },
        {
          "id": 4,
          "value": 0.0
        },
        {
          "id": 5,
          "value": 0.0
        },
        {
          "id": 6,
          "value": 0.0
        },
        {
          "id": 7,
          "value": 0.0
        },
        {
          "id": 8,
          "value": 0.0
        }
      ],
      "leftModuleId": 478,
      "rightModuleId": 490,
      "pos": [
        89,
        3
      ]
    },
    {
      "id": 478,
      "plugin": "NANOModules",
      "version": "1.6.0.2",
      "model": "FONT",
      "params": [
        {
          "id": 0,
          "value": 0.0
        },
        {
          "id": 1,
          "value": 28.0
        },
        {
          "id": 2,
          "value": 0.116999932
        },
        {
          "id": 3,
          "value": 0.0
        }
      ],
      "leftModuleId": 481,
      "rightModuleId": 476,
      "pos": [
        83,
        3
      ]
    },
    {
      "id": 481,
      "plugin": "Bogaudio",
      "version": "1.1.36",
      "model": "Bogaudio-FMOp",
      "params": [
        {
          "id": 0,
          "value": -1.0
        },
        {
          "id": 1,
          "value": 0.0
        },
        {
          "id": 2,
          "value": 0.041999992
        },
        {
          "id": 3,
          "value": 0.179729953
        },
        {
          "id": 4,
          "value": 1.0
        },
        {
          "id": 5,
          "value": 0.179729909
        },
        {
          "id": 6,
          "value": 0.148499906
        },
        {
          "id": 7,
          "value": 0.527999938
        },
        {
          "id": 8,
          "value": 1.0
        },
        {
          "id": 9,
          "value": 1.0
        },
        {
          "id": 10,
          "value": 0.0
        },
        {
          "id": 11,
          "value": 0.0
        }
      ],
      "leftModuleId": 483,
      "rightModuleId": 478,
      "data": {
        "linearLevel": false,
        "antialias_feedback": true,
        "antialias_depth": true
      },
      "pos": [
        73,
        3
      ]
    },
    {
      "id": 483,
      "plugin": "Bogaudio",
      "version": "1.1.36",
      "model": "Bogaudio-FMOp",
      "params": [
        {
          "id": 0,
          "value": -0.273999244
        },
        {
          "id": 1,
          "value": 0.0
        },
        {
          "id": 2,
          "value": 0.041999992
        },
        {
          "id": 3,
          "value": 0.179729953
        },
        {
          "id": 4,
          "value": 1.0
        },
        {
          "id": 5,
          "value": 0.179729909
        },
        {
          "id": 6,
          "value": 0.0
        },
        {
          "id": 7,
          "value": 0.0749999732
        },
        {
          "id": 8,
          "value": 1.0
        },
        {
          "id": 9,
          "value": 1.0
        },
        {
          "id": 10,
          "value": 0.0
        },
        {
          "id": 11,
          "value": 0.0
        }
      ],
      "leftModuleId": 464,
      "rightModuleId": 481,
      "data": {
        "linearLevel": false,
        "antialias_feedback": true,
        "antialias_depth": true
      },
      "pos": [
        63,
        3
      ]
    },
    {
      "id": 485,
      "plugin": "VultModulesFree",
      "version": "1.14",
      "model": "Trummor2",
      "params": [
        {
          "id": 0,
          "value": 0.0500000007
        },
        {
          "id": 1,
          "value": 0.437000155
        },
        {
          "id": 2,
          "value": 0.243000314
        },
        {
          "id": 3,
          "value": 0.634500086
        },
        {
          "id": 4,
          "value": 0.0
        },
        {
          "id": 5,
          "value": 0.0
        },
        {
          "id": 6,
          "value": 0.0
        },
        {
          "id": 7,
          "value": 0.200000003
        },
        {
          "id": 8,
          "value": 0.728500366
        },
        {
          "id": 9,
          "value": 0.0
        },
        {
          "id": 10,
          "value": 0.0
        },
        {
          "id": 11,
          "value": 0.699999988
        },
        {
          "id": 12,
          "value": 0.513999641
        },
        {
          "id": 13,
          "value": 0.704999983
        },
        {
          "id": 14,
          "value": -0.588999927
        },
        {
          "id": 15,
          "value": 0.949999988
        },
        {
          "id": 16,
          "value": 0.0
        },
        {
          "id": 17,
          "value": 0.0
        },
        {
          "id": 18,
          "value": 0.0
        },
        {
          "id": 19,
          "value": 0.0500000007
        },
        {
          "id": 20,
          "value": 0.328999847
        },
        {
          "id": 21,
          "value": 0.0
        },
        {
          "id": 22,
          "value": 0.0
        },
        {
          "id": 23,
          "value": 0.100000001
        },
        {
          "id": 24,
          "value": 0.0
        },
        {
          "id": 25,
          "value": 1.0
        },
        {
          "id": 26,
          "value": 0.0
        },
        {
          "id": 27,
          "value": 0.0
        },
        {
          "id": 28,
          "value": 0.0
        },
        {
          "id": 29,
          "value": 0.0
        },
        {
          "id": 30,
          "value": 0.0
        },
        {
          "id": 31,
          "value": 0.0
        },
        {
          "id": 32,
          "value": 0.0
        }
      ],
      "leftModuleId": 489,
      "rightModuleId": 487,
      "data": {
        "mod_a": 0,
        "mod_b": 0,
        "mod_c": 0,
        "mod_d": 0,
        "mk2": true
      },
      "pos": [
        16,
        2
      ]
    },
    {
      "id": 487,
      "plugin": "Fundamental",
      "version": "1.4.0",
      "model": "VCF",
      "params": [
        {
          "id": 0,
          "value": 0.546500742
        },
        {
          "id": 1,
          "value": 0.5
        },
        {
          "id": 2,
          "value": 0.0
        },
        {
          "id": 3,
          "value": 0.0
        },
        {
          "id": 4,
          "value": 0.180000186
        }
      ],
      "leftModuleId": 485,
      "rightModuleId": 499,
      "pos": [
        36,
        2
      ]
    },
    {
      "id": 488,
      "plugin": "AS",
      "version": "1.0.4",
      "model": "Multiple2_5",
      "params": [],
      "leftModuleId": 475,
      "rightModuleId": 464,
      "pos": [
        45,
        3
      ]
    },
    {
      "id": 489,
      "plugin": "computerscare",
      "version": "1.3.0",
      "model": "computerscare-laundry-soup",
      "params": [
        {
          "id": 0,
          "value": 0.0
        },
        {
          "id": 1,
          "value": 0.0
        },
        {
          "id": 2,
          "value": 0.0
        },
        {
          "id": 3,
          "value": 0.0
        },
        {
          "id": 4,
          "value": 0.0
        },
        {
          "id": 5,
          "value": 0.0
        },
        {
          "id": 6,
          "value": 0.0
        },
        {
          "id": 7,
          "value": 0.0
        }
      ],
      "leftModuleId": 468,
      "rightModuleId": 485,
      "data": {
        "sequences": [
          "33271",
          "[,4]@4,[0,31]@4",
          "[311,2]@16",
          "4",
          "5",
          "888811?11@48"
        ],
        "channelCount": [
          -1,
          -1,
          -1,
          -1,
          -1,
          -1
        ]
      },
      "pos": [
        3,
        2
      ]
    },
    {
      "id": 490,
      "plugin": "Bogaudio",
      "version": "1.1.36",
      "model": "Bogaudio-VCF",
      "params": [
        {
          "id": 0,
          "value": 0.100609981
        },
        {
          "id": 1,
          "value": 0.0
        },
        {
          "id": 2,
          "value": 0.0
        },
        {
          "id": 3,
          "value": 0.0
        },
        {
          "id": 4,
          "value": 1.0
        },
        {
          "id": 5,
          "value": 1.0
        }
      ],
      "leftModuleId": 476,
      "data": {
        "bandwidthMode": "pitched"
      },
      "pos": [
        99,
        3
      ]
    },
    {
      "id": 494,
      "plugin": "VultModulesFree",
      "version": "1.14",
      "model": "Debriatus",
      "params": [
        {
          "id": 0,
          "value": 0.17249997
        },
        {
          "id": 1,
          "value": 0.0
        },
        {
          "id": 2,
          "value": 0.292500019
        },
        {
          "id": 3,
          "value": 0.312999785
        },
        {
          "id": 4,
          "value": 0.0
        },
        {
          "id": 5,
          "value": 0.0
        },
        {
          "id": 6,
          "value": 0.0
        },
        {
          "id": 7,
          "value": 0.0
        }
      ],
      "leftModuleId": 502,
      "rightModuleId": 500,
      "pos": [
        69,
        2
      ]
    },
    {
      "id": 499,
      "plugin": "cf",
      "version": "1.1.1",
      "model": "MONO",
      "params": [
        {
          "id": 0,
          "value": 0.0
        },
        {
          "id": 1,
          "value": 6.51999903
        },
        {
          "id": 2,
          "value": 0.0
        },
        {
          "id": 3,
          "value": 0.0
        }
      ],
      "leftModuleId": 487,
      "rightModuleId": 502,
      "data": {
        "solostate": 0,
        "onstate": 1
      },
      "pos": [
        44,
        2
      ]
    },
    {
      "id": 500,
      "plugin": "cf",
      "version": "1.1.1",
      "model": "STEREO",
      "params": [
        {
          "id": 0,
          "value": 0.0
        },
        {
          "id": 1,
          "value": 3.10999918
        },
        {
          "id": 2,
          "value": 0.0
        },
        {
          "id": 3,
          "value": 0.0
        }
      ],
      "leftModuleId": 494,
      "rightModuleId": 501,
      "data": {
        "solostate": 0,
        "onstate": 1
      },
      "pos": [
        79,
        2
      ]
    },
    {
      "id": 501,
      "plugin": "cf",
      "version": "1.1.1",
      "model": "MASTER",
      "params": [
        {
          "id": 0,
          "value": 3.24500108
        },
        {
          "id": 1,
          "value": 0.0
        }
      ],
      "leftModuleId": 500,
      "data": {
        "onstate": 1
      },
      "pos": [
        85,
        2
      ]
    },
    {
      "id": 502,
      "plugin": "SurgeRack",
      "version": "1.7.1.2",
      "model": "SurgePhaser",
      "params": [
        {
          "id": 0,
          "value": 0.884000361
        },
        {
          "id": 1,
          "value": 0.991000175
        },
        {
          "id": 2,
          "value": 0.970999897
        },
        {
          "id": 3,
          "value": 0.287499905
        },
        {
          "id": 4,
          "value": 0.56400001
        },
        {
          "id": 5,
          "value": 0.405000061
        },
        {
          "id": 6,
          "value": 0.383999974
        },
        {
          "id": 7,
          "value": 0.111000009
        },
        {
          "id": 8,
          "value": 0.0
        },
        {
          "id": 9,
          "value": 0.0
        },
        {
          "id": 10,
          "value": 0.0
        },
        {
          "id": 11,
          "value": 0.0
        },
        {
          "id": 12,
          "value": 1.0
        },
        {
          "id": 13,
          "value": 1.0
        },
        {
          "id": 14,
          "value": 0.0
        },
        {
          "id": 15,
          "value": 0.0
        },
        {
          "id": 16,
          "value": 0.0
        },
        {
          "id": 17,
          "value": 0.0
        },
        {
          "id": 18,
          "value": 0.0
        },
        {
          "id": 19,
          "value": 0.0
        },
        {
          "id": 20,
          "value": 0.0
        },
        {
          "id": 21,
          "value": 0.0
        },
        {
          "id": 22,
          "value": 0.0
        },
        {
          "id": 23,
          "value": 0.0
        },
        {
          "id": 24,
          "value": 0.0
        },
        {
          "id": 25,
          "value": 0.0
        },
        {
          "id": 26,
          "value": 1.0
        },
        {
          "id": 27,
          "value": 0.0
        },
        {
          "id": 28,
          "value": 0.0
        },
        {
          "id": 29,
          "value": 0.0
        },
        {
          "id": 30,
          "value": 0.0
        },
        {
          "id": 31,
          "value": 0.0
        },
        {
          "id": 32,
          "value": 0.0
        },
        {
          "id": 33,
          "value": 0.0
        },
        {
          "id": 34,
          "value": 0.0
        },
        {
          "id": 35,
          "value": 0.0
        },
        {
          "id": 36,
          "value": 0.0
        },
        {
          "id": 37,
          "value": 0.0
        },
        {
          "id": 38,
          "value": 0.0
        },
        {
          "id": 39,
          "value": 0.0
        },
        {
          "id": 40,
          "value": 0.0
        },
        {
          "id": 41,
          "value": 0.0
        },
        {
          "id": 42,
          "value": 0.0
        },
        {
          "id": 43,
          "value": 0.0
        },
        {
          "id": 44,
          "value": 0.0
        },
        {
          "id": 45,
          "value": 0.0
        },
        {
          "id": 46,
          "value": 0.0
        },
        {
          "id": 47,
          "value": 0.0
        },
        {
          "id": 48,
          "value": 0.0
        },
        {
          "id": 49,
          "value": 0.0
        },
        {
          "id": 50,
          "value": 0.0
        }
      ],
      "leftModuleId": 499,
      "rightModuleId": 494,
      "data": {
        "comment": "No Comment",
        "buildInfo": "os:macos pluggit:ef6e397 surgegit:5270cfb9 buildtime=Sep 10 2020 10:29:46"
      },
      "pos": [
        50,
        2
      ]
    },
    {
      "id": 504,
      "plugin": "Autodafe-DrumKit",
      "version": "1.0.0",
      "model": "DrumsSnare",
      "params": [
        {
          "id": 0,
          "value": 0.0
        }
      ],
      "rightModuleId": 506,
      "data": {
        "sampletype": 1
      },
      "pos": [
        0,
        1
      ]
    },
    {
      "id": 505,
      "plugin": "Hora-treasureFree",
      "version": "1.0.3",
      "model": "HiHat",
      "params": [
        {
          "id": 0,
          "value": 0.424400091
        },
        {
          "id": 1,
          "value": 0.488700122
        },
        {
          "id": 2,
          "value": 0.730440021
        },
        {
          "id": 3,
          "value": 0.0
        },
        {
          "id": 4,
          "value": 0.0
        },
        {
          "id": 5,
          "value": 0.313500226
        },
        {
          "id": 6,
          "value": 1.25049996
        },
        {
          "id": 7,
          "value": 0.800000012
        },
        {
          "id": 8,
          "value": 0.800000012
        },
        {
          "id": 9,
          "value": 0.600000024
        },
        {
          "id": 10,
          "value": 0.652149796
        },
        {
          "id": 11,
          "value": 0.421000004
        }
      ],
      "leftModuleId": 506,
      "rightModuleId": 467,
      "pos": [
        10,
        1
      ]
    },
    {
      "id": 506,
      "plugin": "AudibleInstruments",
      "version": "1.5.0",
      "model": "Branches",
      "params": [
        {
          "id": 0,
          "value": 0.5
        },
        {
          "id": 1,
          "value": 0.372499913
        },
        {
          "id": 2,
          "value": 0.0
        },
        {
          "id": 3,
          "value": 0.0
        }
      ],
      "leftModuleId": 504,
      "rightModuleId": 505,
      "data": {
        "modes": [
          false,
          false
        ]
      },
      "pos": [
        4,
        1
      ]
    },
    {
      "id": 509,
      "plugin": "SynthKit",
      "version": "1.0.1",
      "model": "ClockDivider",
      "params": [],
      "leftModuleId": 513,
      "rightModuleId": 447,
      "pos": [
        3,
        3
      ]
    },
    {
      "id": 510,
      "plugin": "Bogaudio",
      "version": "1.1.36",
      "model": "Bogaudio-FMOp",
      "params": [
        {
          "id": 0,
          "value": 0.0
        },
        {
          "id": 1,
          "value": 0.0
        },
        {
          "id": 2,
          "value": 0.0604209974
        },
        {
          "id": 3,
          "value": 0.509730041
        },
        {
          "id": 4,
          "value": 0.0
        },
        {
          "id": 5,
          "value": 0.233729884
        },
        {
          "id": 6,
          "value": 0.0
        },
        {
          "id": 7,
          "value": 0.230999947
        },
        {
          "id": 8,
          "value": 1.0
        },
        {
          "id": 9,
          "value": 1.0
        },
        {
          "id": 10,
          "value": 0.0
        },
        {
          "id": 11,
          "value": 0.0
        }
      ],
      "leftModuleId": 511,
      "data": {
        "linearLevel": false,
        "antialias_feedback": true,
        "antialias_depth": true
      },
      "pos": [
        65,
        1
      ]
    },
    {
      "id": 511,
      "plugin": "mscHack",
      "version": "1.0.2",
      "model": "ARP700",
      "params": [],
      "leftModuleId": 512,
      "rightModuleId": 510,
      "data": {
        "m_bPauseState": [
          false
        ],
        "m_CurrentPattern": [
          0
        ],
        "m_PatternSave": [
          5,
          0,
          3,
          7,
          10,
          12,
          -1,
          -1,
          1,
          1,
          1,
          1,
          1,
          1,
          1,
          1,
          1,
          1,
          1,
          1,
          1,
          1,
          1,
          2,
          2,
          2,
          1,
          1,
          1,
          5,
          5,
          5,
          4,
          4,
          4,
          5,
          5,
          5,
          5,
          5,
          5,
          5,
          5,
          5,
          3,
          3,
          3,
          5,
          5,
          5,
          0,
          0,
          0,
          0,
          0,
          0,
          0,
          0,
          0,
          0,
          0,
          0,
          0,
          0,
          0,
          0,
          0,
          0,
          0,
          0,
          0,
          0,
          0,
          0,
          0,
          0,
          1,
          0,
          0,
          0,
          0,
          0,
          0,
          0,
          0,
          0,
          0,
          0,
          -1,
          -1,
          -1,
          -1,
          -1,
          -1,
          -1,
          0,
          0,
          0,
          0,
          0,
          0,
          0,
          0,
          0,
          0,
          0,
          0,
          0,
          0,
          0,
          0,
          0,
          0,
          0,
          0,
          0,
          0,
          0,
          0,
          0,
          0,
          0,
          0,
          0,
          0,
          0,
          0,
          0,
          0,
          0,
          0,
          0,
          0,
          0,
          0,
          0,
          0,
          0,
          0,
          0,
          0,
          0,
          0,
          0,
          0,
          0,
          0,
          0,
          0,
          0,
          0,
          0,
          0,
          0,
          0,
          0,
          0,
          0,
          0,
          0,
          0,
          0,
          0,
          0,
          0,
          0,
          0,
          0,
          0,
          0,
          0,
          0,
          0,
          0,
          0,
          -1,
          -1,
          -1,
          -1,
          -1,
          -1,
          -1,
          0,
          0,
          0,
          0,
          0,
          0,
          0,
          0,
          0,
          0,
          0,
          0,
          0,
          0,
          0,
          0,
          0,
          0,
          0,
          0,
          0,
          0,
          0,
          0,
          0,
          0,
          0,
          0,
          0,
          0,
          0,
          0,
          0,
          0,
          0,
          0,
          0,
          0,
          0,
          0,
          0,
          0,
          0,
          0,
          0,
          0,
          0,
          0,
          0,
          0,
          0,
          0,
          0,
          0,
          0,
          0,
          0,
          0,
          0,
          0,
          0,
          0,
          0,
          0,
          0,
          0,
          0,
          0,
          0,
          0,
          0,
          0,
          0,
          0,
          0,
          0,
          0,
          0,
          0,
          0,
          -1,
          -1,
          -1,
          -1,
          -1,
          -1,
          -1,
          0,
          0,
          0,
          0,
          0,
          0,
          0,
          0,
          0,
          0,
          0,
          0,
          0,
          0,
          0,
          0,
          0,
          0,
          0,
          0,
          0,
          0,
          0,
          0,
          0,
          0,
          0,
          0,
          0,
          0,
          0,
          0,
          0,
          0,
          0,
          0,
          0,
          0,
          0,
          0,
          0,
          0,
          0,
          0,
          0,
          0,
          0,
          0,
          0,
          0,
          0,
          0,
          0,
          0,
          0,
          0,
          0,
          0,
          0,
          0,
          0,
          0,
          0,
          0,
          0,
          0,
          0,
          0,
          0,
          0,
          0,
          0,
          0,
          0,
          0,
          0,
          0,
          0,
          0,
          0,
          -1,
          -1,
          -1,
          -1,
          -1,
          -1,
          -1,
          0,
          0,
          0,
          0,
          0,
          0,
          0,
          0,
          0,
          0,
          0,
          0,
          0,
          0,
          0,
          0,
          0,
          0,
          0,
          0,
          0,
          0,
          0,
          0,
          0,
          0,
          0,
          0,
          0,
          0,
          0,
          0,
          0,
          0,
          0,
          0,
          0,
          0,
          0,
          0,
          0,
          0,
          0,
          0,
          0,
          0,
          0,
          0,
          0,
          0,
          0,
          0,
          0,
          0,
          0,
          0,
          0,
          0,
          0,
          0,
          0,
          0,
          0,
          0,
          0,
          0,
          0,
          0,
          0,
          0,
          0,
          0,
          0,
          0,
          0,
          0,
          0,
          0,
          0,
          0,
          -1,
          -1,
          -1,
          -1,
          -1,
          -1,
          -1,
          0,
          0,
          0,
          0,
          0,
          0,
          0,
          0,
          0,
          0,
          0,
          0,
          0,
          0,
          0,
          0,
          0,
          0,
          0,
          0,
          0,
          0,
          0,
          0,
          0,
          0,
          0,
          0,
          0,
          0,
          0,
          0,
          0,
          0,
          0,
          0,
          0,
          0,
          0,
          0,
          0,
          0,
          0,
          0,
          0,
          0,
          0,
          0,
          0,
          0,
          0,
          0,
          0,
          0,
          0,
          0,
          0,
          0,
          0,
          0,
          0,
          0,
          0,
          0,
          0,
          0,
          0,
          0,
          0,
          0,
          0,
          0,
          0,
          0,
          0,
          0,
          0,
          0,
          0,
          0,
          -1,
          -1,
          -1,
          -1,
          -1,
          -1,
          -1,
          0,
          0,
          0,
          0,
          0,
          0,
          0,
          0,
          0,
          0,
          0,
          0,
          0,
          0,
          0,
          0,
          0,
          0,
          0,
          0,
          0,
          0,
          0,
          0,
          0,
          0,
          0,
          0,
          0,
          0,
          0,
          0,
          0,
          0,
          0,
          0,
          0,
          0,
          0,
          0,
          0,
          0,
          0,
          0,
          0,
          0,
          0,
          0,
          0,
          0,
          0,
          0,
          0,
          0,
          0,
          0,
          0,
          0,
          0,
          0,
          0,
          0,
          0,
          0,
          0,
          0,
          0,
          0,
          0,
          0,
          0,
          0,
          0,
          0,
          0,
          0,
          0,
          0,
          0,
          0,
          -1,
          -1,
          -1,
          -1,
          -1,
          -1,
          -1,
          0,
          0,
          0,
          0,
          0,
          0,
          0,
          0,
          0,
          0,
          0,
          0,
          0,
          0,
          0,
          0,
          0,
          0,
          0,
          0,
          0,
          0,
          0,
          0,
          0,
          0,
          0,
          0,
          0,
          0,
          0,
          0,
          0,
          0,
          0,
          0,
          0,
          0,
          0,
          0,
          0,
          0,
          0,
          0,
          0,
          0,
          0,
          0,
          0,
          0,
          0,
          0,
          0,
          0,
          0,
          0,
          0,
          0,
          0,
          0,
          0,
          0,
          0,
          0,
          0,
          0,
          0,
          0,
          0,
          0,
          0,
          0,
          0,
          0,
          0,
          0,
          0,
          0,
          0,
          0,
          -1,
          -1,
          -1,
          -1,
          -1,
          -1,
          -1,
          0,
          0,
          0,
          0,
          0,
          0,
          0,
          0,
          0,
          0,
          0,
          0,
          0,
          0,
          0,
          0,
          0,
          0,
          0,
          0,
          0,
          0,
          0,
          0,
          0,
          0,
          0,
          0,
          0,
          0,
          0,
          0,
          0,
          0,
          0,
          0,
          0,
          0,
          0,
          0,
          0,
          0,
          0,
          0,
          0,
          0,
          0,
          0,
          0,
          0,
          0,
          0,
          0,
          0,
          0,
          0,
          0,
          0,
          0,
          0,
          0,
          0,
          0,
          0,
          0,
          0,
          0,
          0,
          0,
          0,
          0,
          0,
          0,
          0,
          0,
          0,
          0,
          0,
          0,
          0,
          -1,
          -1,
          -1,
          -1,
          -1,
          -1,
          -1,
          0,
          0,
          0,
          0,
          0,
          0,
          0,
          0,
          0,
          0,
          0,
          0,
          0,
          0,
          0,
          0,
          0,
          0,
          0,
          0,
          0,
          0,
          0,
          0,
          0,
          0,
          0,
          0,
          0,
          0,
          0,
          0,
          0,
          0,
          0,
          0,
          0,
          0,
          0,
          0,
          0,
          0,
          0,
          0,
          0,
          0,
          0,
          0,
          0,
          0,
          0,
          0,
          0,
          0,
          0,
          0,
          0,
          0,
          0,
          0,
          0,
          0,
          0,
          0,
          0,
          0,
          0,
          0,
          0,
          0,
          0,
          0,
          0,
          0,
          0,
          0,
          0,
          0,
          0,
          0,
          -1,
          -1,
          -1,
          -1,
          -1,
          -1,
          -1,
          0,
          0,
          0,
          0,
          0,
          0,
          0,
          0,
          0,
          0,
          0,
          0,
          0,
          0,
          0,
          0,
          0,
          0,
          0,
          0,
          0,
          0,
          0,
          0,
          0,
          0,
          0,
          0,
          0,
          0,
          0,
          0,
          0,
          0,
          0,
          0,
          0,
          0,
          0,
          0,
          0,
          0,
          0,
          0,
          0,
          0,
          0,
          0,
          0,
          0,
          0,
          0,
          0,
          0,
          0,
          0,
          0,
          0,
          0,
          0,
          0,
          0,
          0,
          0,
          0,
          0,
          0,
          0,
          0,
          0,
          0,
          0,
          0,
          0,
          0,
          0,
          0,
          0,
          0,
          0,
          -1,
          -1,
          -1,
          -1,
          -1,
          -1,
          -1,
          0,
          0,
          0,
          0,
          0,
          0,
          0,
          0,
          0,
          0,
          0,
          0,
          0,
          0,
          0,
          0,
          0,
          0,
          0,
          0,
          0,
          0,
          0,
          0,
          0,
          0,
          0,
          0,
          0,
          0,
          0,
          0,
          0,
          0,
          0,
          0,
          0,
          0,
          0,
          0,
          0,
          0,
          0,
          0,
          0,
          0,
          0,
          0,
          0,
          0,
          0,
          0,
          0,
          0,
          0,
          0,
          0,
          0,
          0,
          0,
          0,
          0,
          0,
          0,
          0,
          0,
          0,
          0,
          0,
          0,
          0,
          0,
          0,
          0,
          0,
          0,
          0,
          0,
          0,
          0,
          -1,
          -1,
          -1,
          -1,
          -1,
          -1,
          -1,
          0,
          0,
          0,
          0,
          0,
          0,
          0,
          0,
          0,
          0,
          0,
          0,
          0,
          0,
          0,
          0,
          0,
          0,
          0,
          0,
          0,
          0,
          0,
          0,
          0,
          0,
          0,
          0,
          0,
          0,
          0,
          0,
          0,
          0,
          0,
          0,
          0,
          0,
          0,
          0,
          0,
          0,
          0,
          0,
          0,
          0,
          0,
          0,
          0,
          0,
          0,
          0,
          0,
          0,
          0,
          0,
          0,
          0,
          0,
          0,
          0,
          0,
          0,
          0,
          0,
          0,
          0,
          0,
          0,
          0,
          0,
          0,
          0,
          0,
          0,
          0,
          0,
          0,
          0,
          0,
          -1,
          -1,
          -1,
          -1,
          -1,
          -1,
          -1,
          0,
          0,
          0,
          0,
          0,
          0,
          0,
          0,
          0,
          0,
          0,
          0,
          0,
          0,
          0,
          0,
          0,
          0,
          0,
          0,
          0,
          0,
          0,
          0,
          0,
          0,
          0,
          0,
          0,
          0,
          0,
          0,
          0,
          0,
          0,
          0,
          0,
          0,
          0,
          0,
          0,
          0,
          0,
          0,
          0,
          0,
          0,
          0,
          0,
          0,
          0,
          0,
          0,
          0,
          0,
          0,
          0,
          0,
          0,
          0,
          0,
          0,
          0,
          0,
          0,
          0,
          0,
          0,
          0,
          0,
          0,
          0,
          0,
          0,
          0,
          0,
          0,
          0,
          0,
          0,
          -1,
          -1,
          -1,
          -1,
          -1,
          -1,
          -1,
          0,
          0,
          0,
          0,
          0,
          0,
          0,
          0,
          0,
          0,
          0,
          0,
          0,
          0,
          0,
          0,
          0,
          0,
          0,
          0,
          0,
          0,
          0,
          0,
          0,
          0,
          0,
          0,
          0,
          0,
          0,
          0,
          0,
          0,
          0,
          0,
          0,
          0,
          0,
          0,
          0,
          0,
          0,
          0,
          0,
          0,
          0,
          0,
          0,
          0,
          0,
          0,
          0,
          0,
          0,
          0,
          0,
          0,
          0,
          0,
          0,
          0,
          0,
          0,
          0,
          0,
          0,
          0,
          0,
          0,
          0,
          0,
          0,
          0,
          0,
          0,
          0,
          0,
          0,
          0,
          -1,
          -1,
          -1,
          -1,
          -1,
          -1,
          -1,
          0,
          0,
          0,
          0,
          0,
          0,
          0,
          0,
          0,
          0,
          0,
          0,
          0,
          0,
          0,
          0,
          0,
          0,
          0,
          0,
          0,
          0,
          0,
          0,
          0,
          0,
          0,
          0,
          0,
          0,
          0,
          0,
          0,
          0,
          0,
          0,
          0,
          0,
          0,
          0,
          0,
          0,
          0,
          0,
          0,
          0,
          0,
          0,
          0,
          0,
          0,
          0,
          0,
          0,
          0,
          0,
          0,
          0,
          0,
          0,
          0,
          0,
          0,
          0,
          0,
          0,
          0,
          0,
          0,
          0,
          0,
          0,
          0,
          0,
          0,
          0,
          0,
          0,
          0
        ],
        "m_PatternsUsed": [
          15
        ]
      },
      "pos": [
        38,
        1
      ]
    },
    {
      "id": 512,
      "plugin": "Mental",
      "version": "1.0.2",
      "model": "MentalMults",
      "params": [],
      "leftModuleId": 467,
      "rightModuleId": 511,
      "pos": [
        36,
        1
      ]
    },
    {
      "id": 513,
      "plugin": "SynthKit",
      "version": "1.0.1",
      "model": "ClockDivider",
      "params": [],
      "rightModuleId": 509,
      "pos": [
        0,
        3
      ]
    },
    {
      "id": 514,
      "plugin": "VultModulesFree",
      "version": "1.14",
      "model": "Trummor2",
      "params": [
        {
          "id": 0,
          "value": 0.0320000015
        },
        {
          "id": 1,
          "value": 0.521000028
        },
        {
          "id": 2,
          "value": 0.0434999652
        },
        {
          "id": 3,
          "value": 0.370500028
        },
        {
          "id": 4,
          "value": 0.0
        },
        {
          "id": 5,
          "value": 0.0
        },
        {
          "id": 6,
          "value": 0.0
        },
        {
          "id": 7,
          "value": 0.200000003
        },
        {
          "id": 8,
          "value": 0.400000006
        },
        {
          "id": 9,
          "value": 0.0
        },
        {
          "id": 10,
          "value": 0.0
        },
        {
          "id": 11,
          "value": 0.699999988
        },
        {
          "id": 12,
          "value": 0.174999744
        },
        {
          "id": 13,
          "value": 1.0
        },
        {
          "id": 14,
          "value": -0.356999934
        },
        {
          "id": 15,
          "value": 0.949999988
        },
        {
          "id": 16,
          "value": 0.0
        },
        {
          "id": 17,
          "value": 0.0
        },
        {
          "id": 18,
          "value": 0.0
        },
        {
          "id": 19,
          "value": 0.0500000007
        },
        {
          "id": 20,
          "value": 0.255499989
        },
        {
          "id": 21,
          "value": 0.0
        },
        {
          "id": 22,
          "value": 0.0
        },
        {
          "id": 23,
          "value": 0.100000001
        },
        {
          "id": 24,
          "value": 0.0
        },
        {
          "id": 25,
          "value": 0.0
        },
        {
          "id": 26,
          "value": 0.0
        },
        {
          "id": 27,
          "value": 0.0
        },
        {
          "id": 28,
          "value": 0.0
        },
        {
          "id": 29,
          "value": 0.0
        },
        {
          "id": 30,
          "value": 0.0
        },
        {
          "id": 31,
          "value": 0.0
        },
        {
          "id": 32,
          "value": 0.0
        }
      ],
      "leftModuleId": 515,
      "rightModuleId": 516,
      "data": {
        "mod_a": 0,
        "mod_b": 0,
        "mod_c": 0,
        "mod_d": 0,
        "mk2": true
      },
      "pos": [
        13,
        0
      ]
    },
    {
      "id": 515,
      "plugin": "computerscare",
      "version": "1.3.0",
      "model": "computerscare-laundry-soup",
      "params": [
        {
          "id": 0,
          "value": 0.0
        },
        {
          "id": 1,
          "value": 0.0
        },
        {
          "id": 2,
          "value": 0.0
        },
        {
          "id": 3,
          "value": 0.0
        },
        {
          "id": 4,
          "value": 0.0
        },
        {
          "id": 5,
          "value": 0.0
        },
        {
          "id": 6,
          "value": 0.0
        },
        {
          "id": 7,
          "value": 0.0
        }
      ],
      "rightModuleId": 514,
      "data": {
        "sequences": [
          "4@24,31@8",
          "[,4]@4,00041",
          "[311,2]@16",
          "4",
          "5",
          "888811?11@48"
        ],
        "channelCount": [
          -1,
          -1,
          -1,
          -1,
          -1,
          -1
        ]
      },
      "pos": [
        0,
        0
      ]
    },
    {
      "id": 516,
      "plugin": "VultModulesFree",
      "version": "1.14",
      "model": "Tangents",
      "params": [
        {
          "id": 0,
          "value": 0.659000099
        },
        {
          "id": 1,
          "value": 0.335999936
        },
        {
          "id": 2,
          "value": 0.0
        },
        {
          "id": 3,
          "value": 0.0
        },
        {
          "id": 4,
          "value": 1.11000013
        },
        {
          "id": 5,
          "value": 0.0
        },
        {
          "id": 6,
          "value": 0.0
        }
      ],
      "leftModuleId": 514,
      "rightModuleId": 517,
      "pos": [
        33,
        0
      ]
    },
    {
      "id": 517,
      "plugin": "VultModulesFree",
      "version": "1.14",
      "model": "Trummor2",
      "params": [
        {
          "id": 0,
          "value": 0.0320000015
        },
        {
          "id": 1,
          "value": 0.521000028
        },
        {
          "id": 2,
          "value": 0.0434999652
        },
        {
          "id": 3,
          "value": 0.370500028
        },
        {
          "id": 4,
          "value": 0.0
        },
        {
          "id": 5,
          "value": 0.0
        },
        {
          "id": 6,
          "value": 0.0
        },
        {
          "id": 7,
          "value": 0.200000003
        },
        {
          "id": 8,
          "value": 0.400000006
        },
        {
          "id": 9,
          "value": 0.0
        },
        {
          "id": 10,
          "value": 0.0
        },
        {
          "id": 11,
          "value": 0.0
        },
        {
          "id": 12,
          "value": 0.114999838
        },
        {
          "id": 13,
          "value": 0.0
        },
        {
          "id": 14,
          "value": -0.413000017
        },
        {
          "id": 15,
          "value": 0.598024487
        },
        {
          "id": 16,
          "value": 0.74999994
        },
        {
          "id": 17,
          "value": 0.0
        },
        {
          "id": 18,
          "value": 0.0
        },
        {
          "id": 19,
          "value": 0.0500000007
        },
        {
          "id": 20,
          "value": 0.255499989
        },
        {
          "id": 21,
          "value": 0.0
        },
        {
          "id": 22,
          "value": 0.0
        },
        {
          "id": 23,
          "value": 0.605499983
        },
        {
          "id": 24,
          "value": 0.0
        },
        {
          "id": 25,
          "value": 0.0
        },
        {
          "id": 26,
          "value": 0.0
        },
        {
          "id": 27,
          "value": 0.0
        },
        {
          "id": 28,
          "value": 0.0
        },
        {
          "id": 29,
          "value": 0.0
        },
        {
          "id": 30,
          "value": 0.0
        },
        {
          "id": 31,
          "value": 0.0
        },
        {
          "id": 32,
          "value": 0.0
        }
      ],
      "leftModuleId": 516,
      "rightModuleId": 518,
      "data": {
        "mod_a": 0,
        "mod_b": 0,
        "mod_c": 0,
        "mod_d": 0,
        "mk2": true
      },
      "pos": [
        43,
        0
      ]
    },
    {
      "id": 518,
      "plugin": "VultModulesFree",
      "version": "1.14",
      "model": "Tangents",
      "params": [
        {
          "id": 0,
          "value": 1.0
        },
        {
          "id": 1,
          "value": 0.0
        },
        {
          "id": 2,
          "value": 0.0
        },
        {
          "id": 3,
          "value": 0.0
        },
        {
          "id": 4,
          "value": 1.33500004
        },
        {
          "id": 5,
          "value": 0.0
        },
        {
          "id": 6,
          "value": 0.0
        }
      ],
      "leftModuleId": 517,
      "pos": [
        63,
        0
      ]
    }
  ],
  "cables": [
    {
      "id": 777,
      "outputModuleId": 456,
      "outputId": 2,
      "inputModuleId": 399,
      "inputId": 0,
      "color": "#c9b70e"
    },
    {
      "id": 778,
      "outputModuleId": 456,
      "outputId": 3,
      "inputModuleId": 399,
      "inputId": 1,
      "color": "#c91847"
    },
    {
      "id": 779,
      "outputModuleId": 459,
      "outputId": 0,
      "inputModuleId": 400,
      "inputId": 9,
      "color": "#0986ad"
    },
    {
      "id": 780,
      "outputModuleId": 459,
      "outputId": 4,
      "inputModuleId": 400,
      "inputId": 10,
      "color": "#c9b70e"
    },
    {
      "id": 781,
      "outputModuleId": 400,
      "outputId": 2,
      "inputModuleId": 459,
      "inputId": 0,
      "color": "#0c8e15"
    },
    {
      "id": 782,
      "outputModuleId": 400,
      "outputId": 3,
      "inputModuleId": 459,
      "inputId": 1,
      "color": "#c91847"
    },
    {
      "id": 783,
      "outputModuleId": 459,
      "outputId": 1,
      "inputModuleId": 401,
      "inputId": 0,
      "color": "#0986ad"
    },
    {
      "id": 784,
      "outputModuleId": 459,
      "outputId": 5,
      "inputModuleId": 401,
      "inputId": 1,
      "color": "#0c8e15"
    },
    {
      "id": 785,
      "outputModuleId": 401,
      "outputId": 0,
      "inputModuleId": 459,
      "inputId": 2,
      "color": "#c91847"
    },
    {
      "id": 786,
      "outputModuleId": 401,
      "outputId": 1,
      "inputModuleId": 459,
      "inputId": 3,
      "color": "#0986ad"
    },
    {
      "id": 795,
      "outputModuleId": 462,
      "outputId": 6,
      "inputModuleId": 462,
      "inputId": 0,
      "color": "#0c8e15"
    },
    {
      "id": 797,
      "outputModuleId": 447,
      "outputId": 2,
      "inputModuleId": 472,
      "inputId": 0,
      "color": "#0986ad"
    },
    {
      "id": 798,
      "outputModuleId": 472,
      "outputId": 0,
      "inputModuleId": 462,
      "inputId": 4,
      "color": "#c9b70e"
    },
    {
      "id": 802,
      "outputModuleId": 470,
      "outputId": 0,
      "inputModuleId": 475,
      "inputId": 0,
      "color": "#c9b70e"
    },
    {
      "id": 808,
      "outputModuleId": 470,
      "outputId": 0,
      "inputModuleId": 464,
      "inputId": 1,
      "color": "#c91847"
    },
    {
      "id": 814,
      "outputModuleId": 478,
      "outputId": 0,
      "inputModuleId": 476,
      "inputId": 5,
      "color": "#c91847"
    },
    {
      "id": 796,
      "outputModuleId": 462,
      "outputId": 1,
      "inputModuleId": 472,
      "inputId": 1,
      "color": "#c91847"
    },
    {
      "id": 815,
      "outputModuleId": 472,
      "outputId": 5,
      "inputModuleId": 470,
      "inputId": 0,
      "color": "#0986ad"
    },
    {
      "id": 816,
      "outputModuleId": 472,
      "outputId": 6,
      "inputModuleId": 470,
      "inputId": 1,
      "color": "#c9b70e"
    },
    {
      "id": 817,
      "outputModuleId": 470,
      "outputId": 1,
      "inputModuleId": 478,
      "inputId": 1,
      "color": "#0c8e15"
    },
    {
      "id": 821,
      "outputModuleId": 481,
      "outputId": 0,
      "inputModuleId": 478,
      "inputId": 0,
      "color": "#0c8e15"
    },
    {
      "id": 826,
      "outputModuleId": 483,
      "outputId": 0,
      "inputModuleId": 481,
      "inputId": 6,
      "color": "#0986ad"
    },
    {
      "id": 822,
      "outputModuleId": 475,
      "outputId": 0,
      "inputModuleId": 488,
      "inputId": 0,
      "color": "#0986ad"
    },
    {
      "id": 807,
      "outputModuleId": 488,
      "outputId": 0,
      "inputModuleId": 464,
      "inputId": 0,
      "color": "#0c8e15"
    },
    {
      "id": 824,
      "outputModuleId": 488,
      "outputId": 1,
      "inputModuleId": 481,
      "inputId": 4,
      "color": "#0c8e15"
    },
    {
      "id": 829,
      "outputModuleId": 488,
      "outputId": 2,
      "inputModuleId": 483,
      "inputId": 4,
      "color": "#c91847"
    },
    {
      "id": 828,
      "outputModuleId": 475,
      "outputId": 2,
      "inputModuleId": 488,
      "inputId": 1,
      "color": "#0c8e15"
    },
    {
      "id": 823,
      "outputModuleId": 488,
      "outputId": 5,
      "inputModuleId": 481,
      "inputId": 5,
      "color": "#c9b70e"
    },
    {
      "id": 825,
      "outputModuleId": 488,
      "outputId": 6,
      "inputModuleId": 476,
      "inputId": 0,
      "color": "#c91847"
    },
    {
      "id": 827,
      "outputModuleId": 488,
      "outputId": 7,
      "inputModuleId": 483,
      "inputId": 5,
      "color": "#c9b70e"
    },
    {
      "id": 831,
      "outputModuleId": 489,
      "outputId": 0,
      "inputModuleId": 485,
      "inputId": 0,
      "color": "#c91847"
    },
    {
      "id": 812,
      "outputModuleId": 490,
      "outputId": 0,
      "inputModuleId": 456,
      "inputId": 0,
      "color": "#c9b70e"
    },
    {
      "id": 833,
      "outputModuleId": 476,
      "outputId": 0,
      "inputModuleId": 490,
      "inputId": 3,
      "color": "#c9b70e"
    },
    {
      "id": 840,
      "outputModuleId": 485,
      "outputId": 0,
      "inputModuleId": 487,
      "inputId": 3,
      "color": "#c9b70e"
    },
    {
      "id": 853,
      "outputModuleId": 500,
      "outputId": 1,
      "inputModuleId": 501,
      "inputId": 2,
      "color": "#0c8e15"
    },
    {
      "id": 852,
      "outputModuleId": 499,
      "outputId": 2,
      "inputModuleId": 500,
      "inputId": 6,
      "color": "#c9b70e"
    },
    {
      "id": 851,
      "outputModuleId": 499,
      "outputId": 1,
      "inputModuleId": 500,
      "inputId": 5,
      "color": "#c91847"
    },
    {
      "id": 854,
      "outputModuleId": 500,
      "outputId": 2,
      "inputModuleId": 501,
      "inputId": 3,
      "color": "#0986ad"
    },
    {
      "id": 855,
      "outputModuleId": 501,
      "outputId": 2,
      "inputModuleId": 456,
      "inputId": 2,
      "color": "#c9b70e"
    },
    {
      "id": 856,
      "outputModuleId": 501,
      "outputId": 3,
      "inputModuleId": 456,
      "inputId": 3,
      "color": "#0c8e15"
    },
    {
      "id": 857,
      "outputModuleId": 487,
      "outputId": 0,
      "inputModuleId": 499,
      "inputId": 8,
      "color": "#c91847"
    },
    {
      "id": 858,
      "outputModuleId": 487,
      "outputId": 1,
      "inputModuleId": 502,
      "inputId": 0,
      "color": "#0986ad"
    },
    {
      "id": 861,
      "outputModuleId": 502,
      "outputId": 0,
      "inputModuleId": 494,
      "inputId": 0,
      "color": "#c91847"
    },
    {
      "id": 862,
      "outputModuleId": 502,
      "outputId": 1,
      "inputModuleId": 494,
      "inputId": 5,
      "color": "#0986ad"
    },
    {
      "id": 863,
      "outputModuleId": 494,
      "outputId": 0,
      "inputModuleId": 500,
      "inputId": 8,
      "color": "#c9b70e"
    },
    {
      "id": 864,
      "outputModuleId": 494,
      "outputId": 1,
      "inputModuleId": 500,
      "inputId": 9,
      "color": "#0c8e15"
    },
    {
      "id": 865,
      "outputModuleId": 487,
      "outputId": 1,
      "inputModuleId": 502,
      "inputId": 1,
      "color": "#c91847"
    },
    {
      "id": 868,
      "outputModuleId": 489,
      "outputId": 1,
      "inputModuleId": 504,
      "inputId": 0,
      "color": "#0c8e15"
    },
    {
      "id": 869,
      "outputModuleId": 504,
      "outputId": 0,
      "inputModuleId": 456,
      "inputId": 4,
      "color": "#c91847"
    },
    {
      "id": 870,
      "outputModuleId": 506,
      "outputId": 0,
      "inputModuleId": 505,
      "inputId": 0,
      "color": "#0986ad"
    },
    {
      "id": 871,
      "outputModuleId": 506,
      "outputId": 2,
      "inputModuleId": 505,
      "inputId": 1,
      "color": "#c9b70e"
    },
    {
      "id": 872,
      "outputModuleId": 505,
      "outputId": 2,
      "inputModuleId": 456,
      "inputId": 6,
      "color": "#0c8e15"
    },
    {
      "id": 873,
      "outputModuleId": 489,
      "outputId": 2,
      "inputModuleId": 506,
      "inputId": 0,
      "color": "#c91847"
    },
    {
      "id": 830,
      "outputModuleId": 472,
      "outputId": 1,
      "inputModuleId": 489,
      "inputId": 0,
      "color": "#0c8e15"
    },
    {
      "id": 881,
      "outputModuleId": 447,
      "outputId": 1,
      "inputModuleId": 489,
      "inputId": 4,
      "color": "#0986ad"
    },
    {
      "id": 884,
      "outputModuleId": 447,
      "outputId": 0,
      "inputModuleId": 509,
      "inputId": 0,
      "color": "#c91847"
    },
    {
      "id": 888,
      "outputModuleId": 511,
      "outputId": 1,
      "inputModuleId": 510,
      "inputId": 4,
      "color": "#c91847"
    },
    {
      "id": 889,
      "outputModuleId": 511,
      "outputId": 0,
      "inputModuleId": 510,
      "inputId": 5,
      "color": "#0986ad"
    },
    {
      "id": 890,
      "outputModuleId": 510,
      "outputId": 0,
      "inputModuleId": 456,
      "inputId": 8,
      "color": "#c9b70e"
    },
    {
      "id": 892,
      "outputModuleId": 509,
      "outputId": 7,
      "inputModuleId": 511,
      "inputId": 3,
      "color": "#c91847"
    },
    {
      "id": 893,
      "outputModuleId": 472,
      "outputId": 2,
      "inputModuleId": 511,
      "inputId": 0,
      "color": "#c9b70e"
    },
    {
      "id": 887,
      "outputModuleId": 467,
      "outputId": 7,
      "inputModuleId": 512,
      "inputId": 0,
      "color": "#0c8e15"
    },
    {
      "id": 894,
      "outputModuleId": 512,
      "outputId": 0,
      "inputModuleId": 505,
      "inputId": 3,
      "color": "#0c8e15"
    },
    {
      "id": 883,
      "outputModuleId": 512,
      "outputId": 5,
      "inputModuleId": 505,
      "inputId": 4,
      "color": "#0c8e15"
    },
    {
      "id": 895,
      "outputModuleId": 467,
      "outputId": 6,
      "inputModuleId": 512,
      "inputId": 1,
      "color": "#c91847"
    },
    {
      "id": 896,
      "outputModuleId": 512,
      "outputId": 1,
      "inputModuleId": 510,
      "inputId": 2,
      "color": "#0986ad"
    },
    {
      "id": 885,
      "outputModuleId": 509,
      "outputId": 7,
      "inputModuleId": 513,
      "inputId": 0,
      "color": "#0986ad"
    },
    {
      "id": 898,
      "outputModuleId": 506,
      "outputId": 1,
      "inputModuleId": 467,
      "inputId": 3,
      "color": "#0c8e15"
    },
    {
      "id": 897,
      "outputModuleId": 513,
      "outputId": 1,
      "inputModuleId": 467,
      "inputId": 2,
      "color": "#c9b70e"
    },
    {
      "id": 886,
      "outputModuleId": 467,
      "outputId": 4,
      "inputModuleId": 506,
      "inputId": 1,
      "color": "#c9b70e"
    },
    {
      "id": 899,
      "outputModuleId": 468,
      "outputId": 0,
      "inputModuleId": 489,
      "inputId": 1,
      "color": "#0986ad"
    },
    {
      "id": 900,
      "outputModuleId": 468,
      "outputId": 1,
      "inputModuleId": 515,
      "inputId": 1,
      "color": "#c9b70e"
    },
    {
      "id": 901,
      "outputModuleId": 472,
      "outputId": 3,
      "inputModuleId": 515,
      "inputId": 0,
      "color": "#0986ad"
    },
    {
      "id": 902,
      "outputModuleId": 515,
      "outputId": 0,
      "inputModuleId": 514,
      "inputId": 0,
      "color": "#c9b70e"
    },
    {
      "id": 903,
      "outputModuleId": 516,
      "outputId": 0,
      "inputModuleId": 456,
      "inputId": 10,
      "color": "#0c8e15"
    },
    {
      "id": 904,
      "outputModuleId": 514,
      "outputId": 0,
      "inputModuleId": 516,
      "inputId": 0,
      "color": "#c91847"
    },
    {
      "id": 905,
      "outputModuleId": 515,
      "outputId": 1,
      "inputModuleId": 517,
      "inputId": 0,
      "color": "#0986ad"
    },
    {
      "id": 907,
      "outputModuleId": 517,
      "outputId": 0,
      "inputModuleId": 518,
      "inputId": 0,
      "color": "#c91847"
    },
    {
      "id": 908,
      "outputModuleId": 518,
      "outputId": 0,
      "inputModuleId": 456,
      "inputId": 12,
      "color": "#0986ad"
    }
  ]
}