{
  "version": "1.1.6",
  "modules": [
    {
      "id": 1,
      "plugin": "Core",
      "version": "1.1.6",
      "model": "AudioInterface",
      "params": [],
      "leftModuleId": 77,
      "rightModuleId": 20,
      "data": {
        "audio": {
          "driver": 5,
          "deviceName": "Apple Inc.: Built-in Output",
          "offset": 0,
          "maxChannels": 8,
          "sampleRate": 44100,
          "blockSize": 256
        }
      },
      "pos": [
        84,
        0
      ]
    },
    {
      "id": 5,
      "plugin": "Core",
      "version": "1.1.6",
      "model": "MIDIToCVInterface",
      "params": [],
      "leftModuleId": 80,
      "rightModuleId": 7,
      "data": {
        "channels": 1,
        "polyMode": 0,
        "clockDivision": 24,
        "lastPitch": 8192,
        "lastMod": 0,
        "midi": {
          "driver": -11,
          "deviceName": "QWERTY keyboard (US)",
          "channel": -1
        }
      },
      "pos": [
        33,
        0
      ]
    },
    {
      "id": 7,
      "plugin": "Fundamental",
      "version": "1.4.0",
      "model": "Scope",
      "params": [
        {
          "id": 0,
          "value": 0.0
        },
        {
          "id": 1,
          "value": 0.0
        },
        {
          "id": 2,
          "value": 0.0
        },
        {
          "id": 3,
          "value": 0.0
        },
        {
          "id": 4,
          "value": 14.0
        },
        {
          "id": 5,
          "value": 0.0
        },
        {
          "id": 6,
          "value": 0.0
        },
        {
          "id": 7,
          "value": 0.0
        }
      ],
      "leftModuleId": 5,
      "rightModuleId": 11,
      "data": {
        "lissajous": 0,
        "external": 0
      },
      "pos": [
        41,
        0
      ]
    },
    {
      "id": 11,
      "plugin": "Fundamental",
      "version": "1.4.0",
      "model": "VCMixer",
      "params": [
        {
          "id": 0,
          "value": 1.0
        },
        {
          "id": 1,
          "value": 0.74119848
        },
        {
          "id": 2,
          "value": 0.749683619
        },
        {
          "id": 3,
          "value": 0.609676778
        },
        {
          "id": 4,
          "value": 0.550279975
        }
      ],
      "leftModuleId": 7,
      "rightModuleId": 76,
      "pos": [
        54,
        0
      ]
    },
    {
      "id": 20,
      "plugin": "Core",
      "version": "1.1.6",
      "model": "Notes",
      "params": [],
      "leftModuleId": 1,
      "rightModuleId": 104,
      "text": "Just the clock",
      "pos": [
        94,
        0
      ]
    },
    {
      "id": 76,
      "plugin": "Fundamental",
      "version": "1.4.0",
      "model": "VCMixer",
      "params": [
        {
          "id": 0,
          "value": 1.0
        },
        {
          "id": 1,
          "value": 1.0
        },
        {
          "id": 2,
          "value": 0.910904467
        },
        {
          "id": 3,
          "value": 1.0
        },
        {
          "id": 4,
          "value": 1.0
        }
      ],
      "leftModuleId": 11,
      "rightModuleId": 77,
      "pos": [
        64,
        0
      ]
    },
    {
      "id": 77,
      "plugin": "Fundamental",
      "version": "1.4.0",
      "model": "VCMixer",
      "params": [
        {
          "id": 0,
          "value": 1.0
        },
        {
          "id": 1,
          "value": 1.0
        },
        {
          "id": 2,
          "value": 0.932117581
        },
        {
          "id": 3,
          "value": 1.0
        },
        {
          "id": 4,
          "value": 1.0
        }
      ],
      "leftModuleId": 76,
      "rightModuleId": 1,
      "pos": [
        74,
        0
      ]
    },
    {
      "id": 80,
      "plugin": "DrumKit",
      "version": "1.1.4",
      "model": "Gnome",
      "params": [
        {
          "id": 0,
          "value": 93.5800629
        },
        {
          "id": 1,
          "value": 0.474250048
        },
        {
          "id": 2,
          "value": 0.0
        },
        {
          "id": 3,
          "value": 0.0
        }
      ],
      "leftModuleId": 112,
      "rightModuleId": 5,
      "data": {
        "running": false
      },
      "pos": [
        24,
        0
      ]
    },
    {
      "id": 81,
      "plugin": "DrumKit",
      "version": "1.1.4",
      "model": "SyntheticBassDrum",
      "params": [
        {
          "id": 0,
          "value": 0.0
        },
        {
          "id": 1,
          "value": 0.0555000678
        },
        {
          "id": 2,
          "value": 3.28499961
        },
        {
          "id": 3,
          "value": 0.345500141
        },
        {
          "id": 4,
          "value": 10.0
        },
        {
          "id": 5,
          "value": 0.877500415
        },
        {
          "id": 6,
          "value": 0.0
        },
        {
          "id": 7,
          "value": 1.0
        }
      ],
      "leftModuleId": 92,
      "rightModuleId": 83,
      "pos": [
        33,
        1
      ]
    },
    {
      "id": 83,
      "plugin": "VultModulesFree",
      "version": "1.14",
      "model": "Boomstick",
      "params": [
        {
          "id": 0,
          "value": 0.288000107
        },
        {
          "id": 1,
          "value": 0.819000065
        },
        {
          "id": 2,
          "value": 1.0
        },
        {
          "id": 3,
          "value": 1.0
        },
        {
          "id": 4,
          "value": 0.0
        }
      ],
      "leftModuleId": 81,
      "rightModuleId": 84,
      "pos": [
        42,
        1
      ]
    },
    {
      "id": 84,
      "plugin": "FehlerFabrik-Suite",
      "version": "1.1.1",
      "model": "Chi",
      "params": [
        {
          "id": 0,
          "value": 1.0
        },
        {
          "id": 1,
          "value": 0.708999813
        },
        {
          "id": 2,
          "value": 0.498999387
        },
        {
          "id": 3,
          "value": 0.0
        },
        {
          "id": 4,
          "value": 0.0
        },
        {
          "id": 5,
          "value": 0.0
        },
        {
          "id": 6,
          "value": 0.342000306
        },
        {
          "id": 7,
          "value": 0.5
        }
      ],
      "leftModuleId": 83,
      "rightModuleId": 86,
      "pos": [
        50,
        1
      ]
    },
    {
      "id": 86,
      "plugin": "AudibleInstruments",
      "version": "1.5.0",
      "model": "Shades",
      "params": [
        {
          "id": 0,
          "value": 1.0
        },
        {
          "id": 1,
          "value": 1.0
        },
        {
          "id": 2,
          "value": 0.5
        },
        {
          "id": 3,
          "value": 0.0
        },
        {
          "id": 4,
          "value": 0.0
        },
        {
          "id": 5,
          "value": 0.0
        }
      ],
      "leftModuleId": 84,
      "rightModuleId": 87,
      "pos": [
        72,
        1
      ]
    },
    {
      "id": 87,
      "plugin": "rackwindows",
      "version": "1.1.2",
      "model": "vibrato",
      "params": [
        {
          "id": 0,
          "value": 0.198999926
        },
        {
          "id": 1,
          "value": 0.0689998716
        },
        {
          "id": 2,
          "value": 0.630999982
        },
        {
          "id": 3,
          "value": 0.0
        },
        {
          "id": 4,
          "value": 1.0
        }
      ],
      "leftModuleId": 86,
      "rightModuleId": 88,
      "data": {
        "quality": 0
      },
      "pos": [
        78,
        1
      ]
    },
    {
      "id": 88,
      "plugin": "rackwindows",
      "version": "1.1.2",
      "model": "chorus",
      "params": [
        {
          "id": 0,
          "value": 0.383500129
        },
        {
          "id": 1,
          "value": 0.821999967
        },
        {
          "id": 2,
          "value": 0.660999894
        },
        {
          "id": 3,
          "value": 0.0
        }
      ],
      "leftModuleId": 87,
      "rightModuleId": 89,
      "data": {
        "quality": 0
      },
      "pos": [
        86,
        1
      ]
    },
    {
      "id": 89,
      "plugin": "Autodafe",
      "version": "1.0.1",
      "model": "PhaserFx",
      "params": [
        {
          "id": 0,
          "value": 0.126000151
        },
        {
          "id": 1,
          "value": 0.359099776
        },
        {
          "id": 2,
          "value": 1.0
        }
      ],
      "leftModuleId": 88,
      "rightModuleId": 90,
      "pos": [
        92,
        1
      ]
    },
    {
      "id": 90,
      "plugin": "Autodafe",
      "version": "1.0.1",
      "model": "PhaserFx",
      "params": [
        {
          "id": 0,
          "value": 0.154500216
        },
        {
          "id": 1,
          "value": 0.286424965
        },
        {
          "id": 2,
          "value": 1.0
        }
      ],
      "leftModuleId": 89,
      "rightModuleId": 91,
      "pos": [
        98,
        1
      ]
    },
    {
      "id": 91,
      "plugin": "rackwindows",
      "version": "1.1.2",
      "model": "mv",
      "params": [
        {
          "id": 0,
          "value": 0.119999997
        },
        {
          "id": 1,
          "value": 0.199499995
        },
        {
          "id": 2,
          "value": 0.0
        },
        {
          "id": 3,
          "value": 0.27699998
        },
        {
          "id": 4,
          "value": 0.0
        },
        {
          "id": 5,
          "value": 0.0
        },
        {
          "id": 6,
          "value": 0.0
        },
        {
          "id": 7,
          "value": 0.0
        }
      ],
      "leftModuleId": 90,
      "rightModuleId": 102,
      "data": {
        "quality": 0
      },
      "pos": [
        104,
        1
      ]
    },
    {
      "id": 92,
      "plugin": "Autodafe-DrumKit",
      "version": "1.0.0",
      "model": "DrumsSnare",
      "params": [
        {
          "id": 0,
          "value": 0.0
        }
      ],
      "leftModuleId": 93,
      "rightModuleId": 81,
      "data": {
        "sampletype": 4
      },
      "pos": [
        29,
        1
      ]
    },
    {
      "id": 93,
      "plugin": "Fundamental",
      "version": "1.4.0",
      "model": "ADSR",
      "params": [
        {
          "id": 0,
          "value": 0.0
        },
        {
          "id": 1,
          "value": 0.187999934
        },
        {
          "id": 2,
          "value": 0.0
        },
        {
          "id": 3,
          "value": 0.5
        }
      ],
      "leftModuleId": 110,
      "rightModuleId": 92,
      "pos": [
        21,
        1
      ]
    },
    {
      "id": 94,
      "plugin": "AudibleInstruments",
      "version": "1.5.0",
      "model": "Rings",
      "params": [
        {
          "id": 0,
          "value": 0.0
        },
        {
          "id": 1,
          "value": 0.0
        },
        {
          "id": 2,
          "value": 30.0
        },
        {
          "id": 3,
          "value": 0.5
        },
        {
          "id": 4,
          "value": 0.318499804
        },
        {
          "id": 5,
          "value": 0.33949998
        },
        {
          "id": 6,
          "value": 0.5
        },
        {
          "id": 7,
          "value": 0.0
        },
        {
          "id": 8,
          "value": 0.0
        },
        {
          "id": 9,
          "value": 0.0
        },
        {
          "id": 10,
          "value": 0.0
        },
        {
          "id": 11,
          "value": 0.0
        }
      ],
      "leftModuleId": 95,
      "rightModuleId": 96,
      "data": {
        "polyphony": 2,
        "model": 0,
        "easterEgg": false
      },
      "pos": [
        48,
        2
      ]
    },
    {
      "id": 95,
      "plugin": "AudibleInstruments",
      "version": "1.5.0",
      "model": "Marbles",
      "params": [
        {
          "id": 0,
          "value": 0.0
        },
        {
          "id": 1,
          "value": 0.0
        },
        {
          "id": 2,
          "value": 1.0
        },
        {
          "id": 3,
          "value": 0.0
        },
        {
          "id": 4,
          "value": 0.191000059
        },
        {
          "id": 5,
          "value": 0.0
        },
        {
          "id": 6,
          "value": 0.0
        },
        {
          "id": 7,
          "value": 0.429000109
        },
        {
          "id": 8,
          "value": 0.5
        },
        {
          "id": 9,
          "value": 0.271999747
        },
        {
          "id": 10,
          "value": 0.0
        },
        {
          "id": 11,
          "value": 0.0
        },
        {
          "id": 12,
          "value": 0.0
        },
        {
          "id": 13,
          "value": 0.629999638
        },
        {
          "id": 14,
          "value": 0.813500166
        }
      ],
      "leftModuleId": 113,
      "rightModuleId": 94,
      "data": {
        "t_deja_vu": false,
        "x_deja_vu": true,
        "t_mode": 0,
        "x_mode": 0,
        "t_range": 1,
        "x_range": 1,
        "external": false,
        "x_scale": 4,
        "y_divider_index": 8,
        "x_clock_source_internal": 0
      },
      "pos": [
        30,
        2
      ]
    },
    {
      "id": 96,
      "plugin": "AudibleInstruments",
      "version": "1.5.0",
      "model": "Rings",
      "params": [
        {
          "id": 0,
          "value": 0.0
        },
        {
          "id": 1,
          "value": 0.0
        },
        {
          "id": 2,
          "value": 40.9800186
        },
        {
          "id": 3,
          "value": 0.687499642
        },
        {
          "id": 4,
          "value": 0.510499895
        },
        {
          "id": 5,
          "value": 0.234499902
        },
        {
          "id": 6,
          "value": 0.237499878
        },
        {
          "id": 7,
          "value": 0.0
        },
        {
          "id": 8,
          "value": 0.0
        },
        {
          "id": 9,
          "value": 0.0
        },
        {
          "id": 10,
          "value": 0.0
        },
        {
          "id": 11,
          "value": 0.0
        }
      ],
      "leftModuleId": 94,
      "rightModuleId": 97,
      "data": {
        "polyphony": 2,
        "model": 1,
        "easterEgg": false
      },
      "pos": [
        62,
        2
      ]
    },
    {
      "id": 97,
      "plugin": "Bogaudio",
      "version": "1.1.35",
      "model": "Bogaudio-Bool",
      "params": [],
      "leftModuleId": 96,
      "rightModuleId": 98,
      "data": {},
      "pos": [
        76,
        2
      ]
    },
    {
      "id": 98,
      "plugin": "Fundamental",
      "version": "1.4.0",
      "model": "LFO",
      "params": [
        {
          "id": 0,
          "value": 1.0
        },
        {
          "id": 1,
          "value": 1.0
        },
        {
          "id": 2,
          "value": -2.59100056
        },
        {
          "id": 3,
          "value": 0.0
        },
        {
          "id": 4,
          "value": 0.0
        },
        {
          "id": 5,
          "value": 0.5
        },
        {
          "id": 6,
          "value": 0.0
        }
      ],
      "leftModuleId": 97,
      "rightModuleId": 99,
      "pos": [
        79,
        2
      ]
    },
    {
      "id": 99,
      "plugin": "Fundamental",
      "version": "1.4.0",
      "model": "VCMixer",
      "params": [
        {
          "id": 0,
          "value": 1.70899987
        },
        {
          "id": 1,
          "value": 1.29698479
        },
        {
          "id": 2,
          "value": 0.575735867
        },
        {
          "id": 3,
          "value": 1.0
        },
        {
          "id": 4,
          "value": 1.0
        }
      ],
      "leftModuleId": 98,
      "rightModuleId": 101,
      "pos": [
        89,
        2
      ]
    },
    {
      "id": 101,
      "plugin": "AudibleInstruments",
      "version": "1.5.0",
      "model": "Clouds",
      "params": [
        {
          "id": 0,
          "value": 0.0
        },
        {
          "id": 1,
          "value": 0.0
        },
        {
          "id": 2,
          "value": 0.0
        },
        {
          "id": 3,
          "value": 0.5
        },
        {
          "id": 4,
          "value": 0.5
        },
        {
          "id": 5,
          "value": 0.0
        },
        {
          "id": 6,
          "value": 1.0
        },
        {
          "id": 7,
          "value": 0.676999986
        },
        {
          "id": 8,
          "value": 0.898999929
        },
        {
          "id": 9,
          "value": 0.5
        },
        {
          "id": 10,
          "value": 0.738000512
        },
        {
          "id": 11,
          "value": 0.0555004925
        },
        {
          "id": 12,
          "value": 0.0
        }
      ],
      "leftModuleId": 99,
      "data": {
        "playback": 0,
        "quality": 3,
        "blendMode": 2
      },
      "pos": [
        99,
        2
      ]
    },
    {
      "id": 102,
      "plugin": "Fundamental",
      "version": "1.4.0",
      "model": "LFO",
      "params": [
        {
          "id": 0,
          "value": 1.0
        },
        {
          "id": 1,
          "value": 1.0
        },
        {
          "id": 2,
          "value": -1.16000044
        },
        {
          "id": 3,
          "value": 0.270000011
        },
        {
          "id": 4,
          "value": 0.0
        },
        {
          "id": 5,
          "value": 0.5
        },
        {
          "id": 6,
          "value": 0.0
        }
      ],
      "leftModuleId": 91,
      "rightModuleId": 103,
      "pos": [
        114,
        1
      ]
    },
    {
      "id": 103,
      "plugin": "Fundamental",
      "version": "1.4.0",
      "model": "VCA",
      "params": [
        {
          "id": 0,
          "value": 0.597999811
        },
        {
          "id": 1,
          "value": 1.0
        }
      ],
      "leftModuleId": 102,
      "pos": [
        124,
        1
      ]
    },
    {
      "id": 104,
      "plugin": "Fundamental",
      "version": "1.4.0",
      "model": "VCF",
      "params": [
        {
          "id": 0,
          "value": 1.0
        },
        {
          "id": 1,
          "value": 0.5
        },
        {
          "id": 2,
          "value": 0.290999949
        },
        {
          "id": 3,
          "value": 0.0
        },
        {
          "id": 4,
          "value": 0.0
        }
      ],
      "leftModuleId": 20,
      "rightModuleId": 105,
      "pos": [
        110,
        0
      ]
    },
    {
      "id": 105,
      "plugin": "Fundamental",
      "version": "1.4.0",
      "model": "VCF",
      "params": [
        {
          "id": 0,
          "value": 1.0
        },
        {
          "id": 1,
          "value": 0.5
        },
        {
          "id": 2,
          "value": 0.300000012
        },
        {
          "id": 3,
          "value": 0.0
        },
        {
          "id": 4,
          "value": 0.0
        }
      ],
      "leftModuleId": 104,
      "pos": [
        118,
        0
      ]
    },
    {
      "id": 107,
      "plugin": "Fundamental",
      "version": "1.4.0",
      "model": "Noise",
      "params": [],
      "rightModuleId": 108,
      "pos": [
        7,
        1
      ]
    },
    {
      "id": 108,
      "plugin": "Bogaudio",
      "version": "1.1.35",
      "model": "Bogaudio-SampleHold",
      "params": [
        {
          "id": 0,
          "value": 0.0
        },
        {
          "id": 1,
          "value": 0.0
        },
        {
          "id": 2,
          "value": 0.0
        },
        {
          "id": 3,
          "value": 0.0
        },
        {
          "id": 4,
          "value": 1.0
        },
        {
          "id": 5,
          "value": 0.0
        }
      ],
      "leftModuleId": 107,
      "rightModuleId": 109,
      "data": {
        "poly_input": 0,
        "noise_type": 0,
        "range_offset": 1.0,
        "range_scale": 5.0
      },
      "pos": [
        10,
        1
      ]
    },
    {
      "id": 109,
      "plugin": "Fundamental",
      "version": "1.4.0",
      "model": "VCA",
      "params": [
        {
          "id": 0,
          "value": 0.433000118
        },
        {
          "id": 1,
          "value": 1.0
        }
      ],
      "leftModuleId": 108,
      "rightModuleId": 110,
      "pos": [
        13,
        1
      ]
    },
    {
      "id": 110,
      "plugin": "Fundamental",
      "version": "1.4.0",
      "model": "Quantizer",
      "params": [],
      "leftModuleId": 109,
      "rightModuleId": 93,
      "data": {
        "enabledNotes": [
          false,
          true,
          false,
          true,
          true,
          false,
          true,
          false,
          true,
          false,
          true,
          true
        ]
      },
      "pos": [
        18,
        1
      ]
    },
    {
      "id": 112,
      "plugin": "Fundamental",
      "version": "1.4.0",
      "model": "SequentialSwitch2",
      "params": [
        {
          "id": 0,
          "value": 2.0
        }
      ],
      "rightModuleId": 80,
      "pos": [
        21,
        0
      ]
    },
    {
      "id": 113,
      "plugin": "Autodafe-DrumKit",
      "version": "1.0.0",
      "model": "DrumsKick",
      "params": [
        {
          "id": 0,
          "value": 0.0
        }
      ],
      "leftModuleId": 114,
      "rightModuleId": 95,
      "data": {
        "sampletype": 2
      },
      "pos": [
        26,
        2
      ]
    },
    {
      "id": 114,
      "plugin": "Fundamental",
      "version": "1.4.0",
      "model": "ADSR",
      "params": [
        {
          "id": 0,
          "value": 0.761500239
        },
        {
          "id": 1,
          "value": 0.0
        },
        {
          "id": 2,
          "value": 1.0
        },
        {
          "id": 3,
          "value": 0.046999976
        }
      ],
      "leftModuleId": 115,
      "rightModuleId": 113,
      "pos": [
        18,
        2
      ]
    },
    {
      "id": 115,
      "plugin": "Fundamental",
      "version": "1.4.0",
      "model": "Scope",
      "params": [
        {
          "id": 0,
          "value": 0.0
        },
        {
          "id": 1,
          "value": 0.0
        },
        {
          "id": 2,
          "value": -0.0
        },
        {
          "id": 3,
          "value": 0.0
        },
        {
          "id": 4,
          "value": 8.19000053
        },
        {
          "id": 5,
          "value": 0.0
        },
        {
          "id": 6,
          "value": 2.15000463
        },
        {
          "id": 7,
          "value": 0.0
        }
      ],
      "leftModuleId": 116,
      "rightModuleId": 114,
      "data": {
        "lissajous": 0,
        "external": 1
      },
      "pos": [
        5,
        2
      ]
    },
    {
      "id": 116,
      "plugin": "Bogaudio",
      "version": "1.1.35",
      "model": "Bogaudio-RGate",
      "params": [
        {
          "id": 0,
          "value": 0.256999373
        },
        {
          "id": 1,
          "value": 0.0
        },
        {
          "id": 2,
          "value": 0.0
        }
      ],
      "rightModuleId": 115,
      "data": {
        "reset_mode": 0,
        "initial_clock_seconds": 0.5,
        "poly_input": 4
      },
      "pos": [
        0,
        2
      ]
    }
  ],
  "cables": [
    {
      "id": 90,
      "outputModuleId": 11,
      "outputId": 0,
      "inputModuleId": 76,
      "inputId": 1,
      "color": "#0986ad"
    },
    {
      "id": 91,
      "outputModuleId": 11,
      "outputId": 0,
      "inputModuleId": 77,
      "inputId": 1,
      "color": "#c9b70e"
    },
    {
      "id": 92,
      "outputModuleId": 76,
      "outputId": 0,
      "inputModuleId": 1,
      "inputId": 0,
      "color": "#0c8e15"
    },
    {
      "id": 93,
      "outputModuleId": 77,
      "outputId": 0,
      "inputModuleId": 1,
      "inputId": 1,
      "color": "#c91847"
    },
    {
      "id": 94,
      "outputModuleId": 76,
      "outputId": 0,
      "inputModuleId": 7,
      "inputId": 0,
      "color": "#0986ad"
    },
    {
      "id": 95,
      "outputModuleId": 77,
      "outputId": 0,
      "inputModuleId": 7,
      "inputId": 1,
      "color": "#c9b70e"
    },
    {
      "id": 99,
      "outputModuleId": 84,
      "outputId": 0,
      "inputModuleId": 83,
      "inputId": 2,
      "color": "#c91847"
    },
    {
      "id": 102,
      "outputModuleId": 81,
      "outputId": 0,
      "inputModuleId": 84,
      "inputId": 5,
      "color": "#0986ad"
    },
    {
      "id": 106,
      "outputModuleId": 84,
      "outputId": 2,
      "inputModuleId": 86,
      "inputId": 1,
      "color": "#0986ad"
    },
    {
      "id": 108,
      "outputModuleId": 86,
      "outputId": 2,
      "inputModuleId": 87,
      "inputId": 5,
      "color": "#c91847"
    },
    {
      "id": 109,
      "outputModuleId": 87,
      "outputId": 1,
      "inputModuleId": 88,
      "inputId": 2,
      "color": "#0986ad"
    },
    {
      "id": 111,
      "outputModuleId": 84,
      "outputId": 1,
      "inputModuleId": 86,
      "inputId": 0,
      "color": "#0c8e15"
    },
    {
      "id": 112,
      "outputModuleId": 87,
      "outputId": 1,
      "inputModuleId": 88,
      "inputId": 3,
      "color": "#c91847"
    },
    {
      "id": 113,
      "outputModuleId": 83,
      "outputId": 0,
      "inputModuleId": 11,
      "inputId": 2,
      "color": "#0986ad"
    },
    {
      "id": 116,
      "outputModuleId": 88,
      "outputId": 1,
      "inputModuleId": 90,
      "inputId": 0,
      "color": "#c91847"
    },
    {
      "id": 117,
      "outputModuleId": 88,
      "outputId": 0,
      "inputModuleId": 89,
      "inputId": 0,
      "color": "#0986ad"
    },
    {
      "id": 118,
      "outputModuleId": 89,
      "outputId": 0,
      "inputModuleId": 91,
      "inputId": 4,
      "color": "#c9b70e"
    },
    {
      "id": 119,
      "outputModuleId": 90,
      "outputId": 0,
      "inputModuleId": 91,
      "inputId": 5,
      "color": "#0c8e15"
    },
    {
      "id": 96,
      "outputModuleId": 80,
      "outputId": 2,
      "inputModuleId": 81,
      "inputId": 0,
      "color": "#0986ad"
    },
    {
      "id": 120,
      "outputModuleId": 80,
      "outputId": 1,
      "inputModuleId": 92,
      "inputId": 0,
      "color": "#c91847"
    },
    {
      "id": 121,
      "outputModuleId": 92,
      "outputId": 0,
      "inputModuleId": 11,
      "inputId": 1,
      "color": "#c9b70e"
    },
    {
      "id": 122,
      "outputModuleId": 93,
      "outputId": 0,
      "inputModuleId": 83,
      "inputId": 0,
      "color": "#0c8e15"
    },
    {
      "id": 123,
      "outputModuleId": 80,
      "outputId": 2,
      "inputModuleId": 93,
      "inputId": 4,
      "color": "#c91847"
    },
    {
      "id": 128,
      "outputModuleId": 95,
      "outputId": 0,
      "inputModuleId": 94,
      "inputId": 5,
      "color": "#0986ad"
    },
    {
      "id": 132,
      "outputModuleId": 95,
      "outputId": 6,
      "inputModuleId": 96,
      "inputId": 6,
      "color": "#0986ad"
    },
    {
      "id": 129,
      "outputModuleId": 95,
      "outputId": 4,
      "inputModuleId": 94,
      "inputId": 6,
      "color": "#c9b70e"
    },
    {
      "id": 126,
      "outputModuleId": 80,
      "outputId": 3,
      "inputModuleId": 95,
      "inputId": 2,
      "color": "#0c8e15"
    },
    {
      "id": 130,
      "outputModuleId": 95,
      "outputId": 2,
      "inputModuleId": 97,
      "inputId": 0,
      "color": "#0c8e15"
    },
    {
      "id": 133,
      "outputModuleId": 97,
      "outputId": 0,
      "inputModuleId": 96,
      "inputId": 5,
      "color": "#c9b70e"
    },
    {
      "id": 134,
      "outputModuleId": 98,
      "outputId": 3,
      "inputModuleId": 97,
      "inputId": 1,
      "color": "#0c8e15"
    },
    {
      "id": 135,
      "outputModuleId": 94,
      "outputId": 0,
      "inputModuleId": 99,
      "inputId": 1,
      "color": "#c91847"
    },
    {
      "id": 136,
      "outputModuleId": 96,
      "outputId": 0,
      "inputModuleId": 99,
      "inputId": 2,
      "color": "#0986ad"
    },
    {
      "id": 137,
      "outputModuleId": 99,
      "outputId": 0,
      "inputModuleId": 101,
      "inputId": 6,
      "color": "#c9b70e"
    },
    {
      "id": 138,
      "outputModuleId": 99,
      "outputId": 0,
      "inputModuleId": 101,
      "inputId": 7,
      "color": "#0c8e15"
    },
    {
      "id": 124,
      "outputModuleId": 101,
      "outputId": 0,
      "inputModuleId": 76,
      "inputId": 3,
      "color": "#0986ad"
    },
    {
      "id": 139,
      "outputModuleId": 101,
      "outputId": 1,
      "inputModuleId": 77,
      "inputId": 3,
      "color": "#c91847"
    },
    {
      "id": 141,
      "outputModuleId": 98,
      "outputId": 3,
      "inputModuleId": 101,
      "inputId": 0,
      "color": "#c9b70e"
    },
    {
      "id": 142,
      "outputModuleId": 102,
      "outputId": 0,
      "inputModuleId": 101,
      "inputId": 2,
      "color": "#0c8e15"
    },
    {
      "id": 143,
      "outputModuleId": 102,
      "outputId": 1,
      "inputModuleId": 102,
      "inputId": 0,
      "color": "#c91847"
    },
    {
      "id": 144,
      "outputModuleId": 102,
      "outputId": 2,
      "inputModuleId": 101,
      "inputId": 5,
      "color": "#0986ad"
    },
    {
      "id": 146,
      "outputModuleId": 102,
      "outputId": 2,
      "inputModuleId": 103,
      "inputId": 5,
      "color": "#0c8e15"
    },
    {
      "id": 145,
      "outputModuleId": 102,
      "outputId": 0,
      "inputModuleId": 103,
      "inputId": 2,
      "color": "#c9b70e"
    },
    {
      "id": 147,
      "outputModuleId": 103,
      "outputId": 1,
      "inputModuleId": 87,
      "inputId": 2,
      "color": "#c91847"
    },
    {
      "id": 148,
      "outputModuleId": 103,
      "outputId": 0,
      "inputModuleId": 87,
      "inputId": 3,
      "color": "#0986ad"
    },
    {
      "id": 114,
      "outputModuleId": 104,
      "outputId": 0,
      "inputModuleId": 76,
      "inputId": 2,
      "color": "#c9b70e"
    },
    {
      "id": 115,
      "outputModuleId": 105,
      "outputId": 0,
      "inputModuleId": 77,
      "inputId": 2,
      "color": "#0c8e15"
    },
    {
      "id": 149,
      "outputModuleId": 91,
      "outputId": 0,
      "inputModuleId": 104,
      "inputId": 3,
      "color": "#c9b70e"
    },
    {
      "id": 150,
      "outputModuleId": 91,
      "outputId": 1,
      "inputModuleId": 105,
      "inputId": 3,
      "color": "#0c8e15"
    },
    {
      "id": 151,
      "outputModuleId": 103,
      "outputId": 0,
      "inputModuleId": 87,
      "inputId": 1,
      "color": "#c91847"
    },
    {
      "id": 153,
      "outputModuleId": 107,
      "outputId": 0,
      "inputModuleId": 108,
      "inputId": 1,
      "color": "#c9b70e"
    },
    {
      "id": 154,
      "outputModuleId": 80,
      "outputId": 0,
      "inputModuleId": 108,
      "inputId": 0,
      "color": "#0c8e15"
    },
    {
      "id": 155,
      "outputModuleId": 108,
      "outputId": 0,
      "inputModuleId": 109,
      "inputId": 2,
      "color": "#0986ad"
    },
    {
      "id": 156,
      "outputModuleId": 109,
      "outputId": 0,
      "inputModuleId": 110,
      "inputId": 0,
      "color": "#c9b70e"
    },
    {
      "id": 158,
      "outputModuleId": 80,
      "outputId": 0,
      "inputModuleId": 112,
      "inputId": 0,
      "color": "#c91847"
    },
    {
      "id": 157,
      "outputModuleId": 112,
      "outputId": 0,
      "inputModuleId": 81,
      "inputId": 1,
      "color": "#0c8e15"
    },
    {
      "id": 159,
      "outputModuleId": 110,
      "outputId": 0,
      "inputModuleId": 112,
      "inputId": 3,
      "color": "#0986ad"
    },
    {
      "id": 160,
      "outputModuleId": 80,
      "outputId": 2,
      "inputModuleId": 113,
      "inputId": 0,
      "color": "#c9b70e"
    },
    {
      "id": 161,
      "outputModuleId": 113,
      "outputId": 0,
      "inputModuleId": 11,
      "inputId": 3,
      "color": "#0c8e15"
    },
    {
      "id": 163,
      "outputModuleId": 114,
      "outputId": 0,
      "inputModuleId": 95,
      "inputId": 3,
      "color": "#0c8e15"
    },
    {
      "id": 164,
      "outputModuleId": 114,
      "outputId": 0,
      "inputModuleId": 115,
      "inputId": 0,
      "color": "#c91847"
    },
    {
      "id": 162,
      "outputModuleId": 80,
      "outputId": 0,
      "inputModuleId": 116,
      "inputId": 4,
      "color": "#c9b70e"
    },
    {
      "id": 166,
      "outputModuleId": 116,
      "outputId": 0,
      "inputModuleId": 114,
      "inputId": 4,
      "color": "#c9b70e"
    },
    {
      "id": 167,
      "outputModuleId": 80,
      "outputId": 0,
      "inputModuleId": 115,
      "inputId": 2,
      "color": "#c91847"
    }
  ]
}