{
  "version": "1.1.6",
  "modules": [
    {
      "id": 1,
      "plugin": "Core",
      "version": "1.1.6",
      "model": "AudioInterface",
      "params": [],
      "leftModuleId": 202,
      "data": {
        "audio": {
          "driver": 5,
          "deviceName": "Apple Inc.: Multi-Output Device",
          "offset": 0,
          "maxChannels": 8,
          "sampleRate": 44100,
          "blockSize": 256
        }
      },
      "pos": [
        45,
        0
      ]
    },
    {
      "id": 5,
      "plugin": "Core",
      "version": "1.1.6",
      "model": "MIDIToCVInterface",
      "params": [],
      "leftModuleId": 220,
      "rightModuleId": 187,
      "data": {
        "channels": 1,
        "polyMode": 0,
        "clockDivision": 24,
        "lastPitch": 8192,
        "lastMod": 0,
        "midi": {
          "driver": -11,
          "deviceName": "QWERTY keyboard (US)",
          "channel": -1
        }
      },
      "pos": [
        10,
        1
      ]
    },
    {
      "id": 20,
      "plugin": "Core",
      "version": "1.1.6",
      "model": "Notes",
      "params": [],
      "rightModuleId": 186,
      "text": "poop",
      "pos": [
        0,
        0
      ]
    },
    {
      "id": 180,
      "plugin": "AS",
      "version": "1.0.4",
      "model": "Mixer8ch",
      "params": [
        {
          "id": 0,
          "value": 0.430999845
        },
        {
          "id": 1,
          "value": 0.67500037
        },
        {
          "id": 2,
          "value": 0.0
        },
        {
          "id": 3,
          "value": 0.76500088
        },
        {
          "id": 4,
          "value": 0.0
        },
        {
          "id": 5,
          "value": 0.286999911
        },
        {
          "id": 6,
          "value": 0.298999697
        },
        {
          "id": 7,
          "value": 0.800000012
        },
        {
          "id": 8,
          "value": 1.0
        },
        {
          "id": 9,
          "value": 0.0
        },
        {
          "id": 10,
          "value": 0.0
        },
        {
          "id": 11,
          "value": 0.0
        },
        {
          "id": 12,
          "value": 0.0
        },
        {
          "id": 13,
          "value": -1.0
        },
        {
          "id": 14,
          "value": 1.0
        },
        {
          "id": 15,
          "value": 0.0
        },
        {
          "id": 16,
          "value": 0.0
        },
        {
          "id": 17,
          "value": 0.0
        },
        {
          "id": 18,
          "value": 0.0
        },
        {
          "id": 19,
          "value": 0.0
        },
        {
          "id": 20,
          "value": 0.0
        },
        {
          "id": 21,
          "value": 0.0
        },
        {
          "id": 22,
          "value": 0.0
        },
        {
          "id": 23,
          "value": 0.0
        },
        {
          "id": 24,
          "value": 0.0
        },
        {
          "id": 25,
          "value": 0.0
        }
      ],
      "leftModuleId": 187,
      "rightModuleId": 203,
      "data": {
        "as_MixerMutes": [
          0,
          0,
          0,
          0,
          0,
          0,
          0,
          0,
          0
        ]
      },
      "pos": [
        23,
        1
      ]
    },
    {
      "id": 186,
      "plugin": "NYSTHI",
      "version": "1.0.17",
      "model": "PolyRecorder",
      "params": [
        {
          "id": 0,
          "value": 0.0
        },
        {
          "id": 1,
          "value": 0.0
        },
        {
          "id": 2,
          "value": 0.0
        }
      ],
      "leftModuleId": 20,
      "rightModuleId": 193,
      "data": {
        "wavebits": 9,
        "m_attenuation": 0.5,
        "m_raw_pcm_float": 0.0,
        "m_autoenumeratefiles": true,
        "m_must_consolidate": false,
        "m_separated_stems": true,
        "m_separated_stems_in_dir": true,
        "m_separated_stems_are_stereo": false,
        "m_use_start_as_startstop_toggle": true
      },
      "pos": [
        16,
        0
      ]
    },
    {
      "id": 187,
      "plugin": "Fundamental",
      "version": "1.4.0",
      "model": "Merge",
      "params": [],
      "leftModuleId": 5,
      "rightModuleId": 180,
      "data": {
        "channels": -1
      },
      "pos": [
        18,
        1
      ]
    },
    {
      "id": 193,
      "plugin": "Fundamental",
      "version": "1.4.0",
      "model": "Split",
      "params": [],
      "leftModuleId": 186,
      "rightModuleId": 195,
      "pos": [
        24,
        0
      ]
    },
    {
      "id": 195,
      "plugin": "AS",
      "version": "1.0.4",
      "model": "MonoVUmeter",
      "params": [],
      "leftModuleId": 193,
      "rightModuleId": 196,
      "pos": [
        29,
        0
      ]
    },
    {
      "id": 196,
      "plugin": "AS",
      "version": "1.0.4",
      "model": "MonoVUmeter",
      "params": [],
      "leftModuleId": 195,
      "rightModuleId": 197,
      "pos": [
        31,
        0
      ]
    },
    {
      "id": 197,
      "plugin": "AS",
      "version": "1.0.4",
      "model": "MonoVUmeter",
      "params": [],
      "leftModuleId": 196,
      "rightModuleId": 198,
      "pos": [
        33,
        0
      ]
    },
    {
      "id": 198,
      "plugin": "AS",
      "version": "1.0.4",
      "model": "MonoVUmeter",
      "params": [],
      "leftModuleId": 197,
      "rightModuleId": 199,
      "pos": [
        35,
        0
      ]
    },
    {
      "id": 199,
      "plugin": "AS",
      "version": "1.0.4",
      "model": "MonoVUmeter",
      "params": [],
      "leftModuleId": 198,
      "rightModuleId": 200,
      "pos": [
        37,
        0
      ]
    },
    {
      "id": 200,
      "plugin": "AS",
      "version": "1.0.4",
      "model": "MonoVUmeter",
      "params": [],
      "leftModuleId": 199,
      "rightModuleId": 201,
      "pos": [
        39,
        0
      ]
    },
    {
      "id": 201,
      "plugin": "AS",
      "version": "1.0.4",
      "model": "MonoVUmeter",
      "params": [],
      "leftModuleId": 200,
      "rightModuleId": 202,
      "pos": [
        41,
        0
      ]
    },
    {
      "id": 202,
      "plugin": "AS",
      "version": "1.0.4",
      "model": "MonoVUmeter",
      "params": [],
      "leftModuleId": 201,
      "rightModuleId": 1,
      "pos": [
        43,
        0
      ]
    },
    {
      "id": 203,
      "plugin": "JW-Modules",
      "version": "1.0.21",
      "model": "BlankPanel_MD",
      "params": [],
      "leftModuleId": 180,
      "pos": [
        49,
        1
      ]
    },
    {
      "id": 220,
      "plugin": "AS",
      "version": "1.0.4",
      "model": "BPMClock",
      "params": [
        {
          "id": 0,
          "value": 92.0
        },
        {
          "id": 1,
          "value": 1.0
        },
        {
          "id": 2,
          "value": 4.0
        },
        {
          "id": 3,
          "value": 1.0
        },
        {
          "id": 4,
          "value": 0.0
        },
        {
          "id": 5,
          "value": 0.0
        }
      ],
      "leftModuleId": 221,
      "rightModuleId": 5,
      "data": {
        "run": [
          1
        ]
      },
      "pos": [
        4,
        1
      ]
    },
    {
      "id": 221,
      "plugin": "StellareModular",
      "version": "1.0.0",
      "model": "BlankPanel",
      "params": [],
      "rightModuleId": 220,
      "pos": [
        0,
        1
      ]
    },
    {
      "id": 222,
      "plugin": "StellareModular",
      "version": "1.0.0",
      "model": "TuringMachine",
      "params": [
        {
          "id": 0,
          "value": 0.399499953
        },
        {
          "id": 1,
          "value": 0.301999569
        },
        {
          "id": 2,
          "value": 0.381499857
        },
        {
          "id": 3,
          "value": 0.091999948
        },
        {
          "id": 4,
          "value": 0.28550005
        },
        {
          "id": 5,
          "value": 0.0
        },
        {
          "id": 6,
          "value": 7.0
        },
        {
          "id": 7,
          "value": 0.12400005
        },
        {
          "id": 8,
          "value": 0.0
        },
        {
          "id": 9,
          "value": 0.0
        },
        {
          "id": 10,
          "value": 0.0
        },
        {
          "id": 11,
          "value": 0.0
        },
        {
          "id": 12,
          "value": 0.0
        }
      ],
      "leftModuleId": 240,
      "rightModuleId": 229,
      "data": {
        "pulses_mode": 0
      },
      "pos": [
        17,
        2
      ]
    },
    {
      "id": 224,
      "plugin": "Bogaudio",
      "version": "1.1.35",
      "model": "Bogaudio-RGate",
      "params": [
        {
          "id": 0,
          "value": 0.1864997
        },
        {
          "id": 1,
          "value": 0.147000015
        },
        {
          "id": 2,
          "value": 0.0
        }
      ],
      "leftModuleId": 236,
      "rightModuleId": 239,
      "data": {
        "reset_mode": 0,
        "initial_clock_seconds": 0.5,
        "poly_input": 4
      },
      "pos": [
        6,
        2
      ]
    },
    {
      "id": 225,
      "plugin": "Bogaudio",
      "version": "1.1.35",
      "model": "Bogaudio-LLFO",
      "params": [
        {
          "id": 0,
          "value": -4.17300224
        },
        {
          "id": 1,
          "value": 0.0
        },
        {
          "id": 2,
          "value": 4.0
        },
        {
          "id": 3,
          "value": 1.0
        },
        {
          "id": 4,
          "value": 1.0
        }
      ],
      "rightModuleId": 236,
      "data": {},
      "pos": [
        0,
        2
      ]
    },
    {
      "id": 227,
      "plugin": "AudibleInstruments",
      "version": "1.5.0",
      "model": "Plaits",
      "params": [
        {
          "id": 0,
          "value": 0.0
        },
        {
          "id": 1,
          "value": 0.0
        },
        {
          "id": 2,
          "value": 1.0
        },
        {
          "id": 3,
          "value": 0.739501894
        },
        {
          "id": 4,
          "value": 0.362999737
        },
        {
          "id": 5,
          "value": 0.5
        },
        {
          "id": 6,
          "value": 0.0
        },
        {
          "id": 7,
          "value": 0.0
        },
        {
          "id": 8,
          "value": 0.0
        },
        {
          "id": 9,
          "value": 0.5
        },
        {
          "id": 10,
          "value": 0.5
        }
      ],
      "leftModuleId": 241,
      "rightModuleId": 228,
      "data": {
        "lowCpu": false,
        "model": 1
      },
      "pos": [
        31,
        3
      ]
    },
    {
      "id": 228,
      "plugin": "AudibleInstruments",
      "version": "1.5.0",
      "model": "Plaits",
      "params": [
        {
          "id": 0,
          "value": 0.0
        },
        {
          "id": 1,
          "value": 0.0
        },
        {
          "id": 2,
          "value": -1.0
        },
        {
          "id": 3,
          "value": 0.25
        },
        {
          "id": 4,
          "value": 0.65400064
        },
        {
          "id": 5,
          "value": 0.699000061
        },
        {
          "id": 6,
          "value": 0.516000092
        },
        {
          "id": 7,
          "value": 0.0
        },
        {
          "id": 8,
          "value": 0.0
        },
        {
          "id": 9,
          "value": 0.5
        },
        {
          "id": 10,
          "value": 0.5
        }
      ],
      "leftModuleId": 227,
      "data": {
        "lowCpu": false,
        "model": 0
      },
      "pos": [
        43,
        3
      ]
    },
    {
      "id": 229,
      "plugin": "JW-Modules",
      "version": "1.0.21",
      "model": "Quantizer",
      "params": [
        {
          "id": 0,
          "value": 0.0
        },
        {
          "id": 1,
          "value": 15.0
        },
        {
          "id": 2,
          "value": 0.0
        }
      ],
      "leftModuleId": 222,
      "rightModuleId": 234,
      "data": {},
      "pos": [
        35,
        2
      ]
    },
    {
      "id": 230,
      "plugin": "Ohmer",
      "version": "1.1.6",
      "model": "SplitterModule",
      "params": [],
      "leftModuleId": 232,
      "rightModuleId": 235,
      "data": {
        "Theme": 0
      },
      "pos": [
        45,
        2
      ]
    },
    {
      "id": 232,
      "plugin": "ML_modules",
      "version": "1.1.3",
      "model": "Sum8",
      "params": [],
      "leftModuleId": 234,
      "rightModuleId": 230,
      "pos": [
        42,
        2
      ]
    },
    {
      "id": 234,
      "plugin": "Bogaudio",
      "version": "1.1.35",
      "model": "Bogaudio-Reftone",
      "params": [
        {
          "id": 0,
          "value": 0.0
        },
        {
          "id": 1,
          "value": 4.0
        },
        {
          "id": 2,
          "value": 0.0
        }
      ],
      "leftModuleId": 229,
      "rightModuleId": 232,
      "data": {},
      "pos": [
        39,
        2
      ]
    },
    {
      "id": 235,
      "plugin": "Ohmer",
      "version": "1.1.6",
      "model": "Metriks",
      "params": [
        {
          "id": 1,
          "value": 0.0
        },
        {
          "id": 2,
          "value": 0.0
        },
        {
          "id": 3,
          "value": 0.0
        }
      ],
      "leftModuleId": 230,
      "data": {
        "Theme": 0,
        "Mode": 0,
        "lastVMin": 0.0,
        "lastVMax": 5.0,
        "MtrxOptions": [
          0,
          0,
          0,
          0,
          0,
          0,
          0,
          0,
          0,
          0,
          0,
          0,
          0,
          0,
          0,
          0,
          17,
          0,
          0,
          0
        ]
      },
      "pos": [
        47,
        2
      ]
    },
    {
      "id": 236,
      "plugin": "Bogaudio",
      "version": "1.1.35",
      "model": "Bogaudio-Slew",
      "params": [
        {
          "id": 0,
          "value": 0.296730131
        },
        {
          "id": 1,
          "value": 0.0
        },
        {
          "id": 2,
          "value": 0.332730025
        },
        {
          "id": 3,
          "value": 0.0
        }
      ],
      "leftModuleId": 225,
      "rightModuleId": 224,
      "data": {},
      "pos": [
        3,
        2
      ]
    },
    {
      "id": 239,
      "plugin": "Bogaudio",
      "version": "1.1.35",
      "model": "Bogaudio-LLFO",
      "params": [
        {
          "id": 0,
          "value": -3.80250168
        },
        {
          "id": 1,
          "value": 0.0
        },
        {
          "id": 2,
          "value": 4.0
        },
        {
          "id": 3,
          "value": 0.75
        },
        {
          "id": 4,
          "value": 0.25
        }
      ],
      "leftModuleId": 224,
      "rightModuleId": 240,
      "data": {},
      "pos": [
        11,
        2
      ]
    },
    {
      "id": 240,
      "plugin": "Bogaudio",
      "version": "1.1.35",
      "model": "Bogaudio-Slew",
      "params": [
        {
          "id": 0,
          "value": 0.193230003
        },
        {
          "id": 1,
          "value": 0.0
        },
        {
          "id": 2,
          "value": 0.217229977
        },
        {
          "id": 3,
          "value": 0.0
        }
      ],
      "leftModuleId": 239,
      "rightModuleId": 222,
      "data": {},
      "pos": [
        14,
        2
      ]
    },
    {
      "id": 241,
      "plugin": "Ohmer",
      "version": "1.1.6",
      "model": "Metriks",
      "params": [
        {
          "id": 1,
          "value": 0.0
        },
        {
          "id": 2,
          "value": 0.0
        },
        {
          "id": 3,
          "value": 0.0
        }
      ],
      "leftModuleId": 242,
      "rightModuleId": 227,
      "data": {
        "Theme": 0,
        "Mode": 0,
        "lastVMin": 0.0,
        "lastVMax": 2.92099881,
        "MtrxOptions": [
          0,
          0,
          0,
          0,
          0,
          0,
          0,
          0,
          0,
          0,
          0,
          0,
          0,
          0,
          0,
          0,
          17,
          0,
          0,
          0
        ]
      },
      "pos": [
        23,
        3
      ]
    },
    {
      "id": 242,
      "plugin": "Valley",
      "version": "1.1.7",
      "model": "Plateau",
      "params": [
        {
          "id": 0,
          "value": 0.0
        },
        {
          "id": 1,
          "value": 0.345499516
        },
        {
          "id": 2,
          "value": 0.103500016
        },
        {
          "id": 3,
          "value": 5.55999899
        },
        {
          "id": 4,
          "value": 10.0
        },
        {
          "id": 5,
          "value": 0.304999769
        },
        {
          "id": 6,
          "value": 7.13499928
        },
        {
          "id": 7,
          "value": 0.68628484
        },
        {
          "id": 8,
          "value": 8.7549963
        },
        {
          "id": 9,
          "value": 7.65999699
        },
        {
          "id": 10,
          "value": 0.0
        },
        {
          "id": 11,
          "value": 0.5
        },
        {
          "id": 12,
          "value": 0.5
        },
        {
          "id": 13,
          "value": 0.0
        },
        {
          "id": 14,
          "value": 0.0
        },
        {
          "id": 15,
          "value": 0.0
        },
        {
          "id": 16,
          "value": 0.0
        },
        {
          "id": 17,
          "value": 0.0
        },
        {
          "id": 18,
          "value": -0.0360000059
        },
        {
          "id": 19,
          "value": 0.0
        },
        {
          "id": 20,
          "value": 0.0
        },
        {
          "id": 21,
          "value": 0.0240000095
        },
        {
          "id": 22,
          "value": 0.0
        },
        {
          "id": 23,
          "value": 0.0
        },
        {
          "id": 24,
          "value": 0.0
        },
        {
          "id": 25,
          "value": 0.0
        },
        {
          "id": 26,
          "value": 0.0
        },
        {
          "id": 27,
          "value": 0.0
        },
        {
          "id": 28,
          "value": 0.0
        },
        {
          "id": 29,
          "value": 0.0
        },
        {
          "id": 30,
          "value": 1.0
        }
      ],
      "leftModuleId": 244,
      "rightModuleId": 241,
      "data": {
        "frozen": false,
        "freezeToggle": false,
        "panelStyle": 0,
        "tuned": 0,
        "diffuseInput": 1,
        "preDelayCVSens": 0,
        "inputSensitivity": 0,
        "outputSaturation": 0
      },
      "pos": [
        11,
        3
      ]
    },
    {
      "id": 243,
      "plugin": "Bogaudio",
      "version": "1.1.35",
      "model": "Bogaudio-EightFO",
      "params": [
        {
          "id": 0,
          "value": -3.64650059
        },
        {
          "id": 1,
          "value": 3.0
        },
        {
          "id": 2,
          "value": 0.0
        },
        {
          "id": 3,
          "value": 0.0
        },
        {
          "id": 4,
          "value": 0.0
        },
        {
          "id": 5,
          "value": 0.0
        },
        {
          "id": 6,
          "value": 0.0
        },
        {
          "id": 7,
          "value": 0.0
        },
        {
          "id": 8,
          "value": 0.0
        },
        {
          "id": 9,
          "value": 0.0
        },
        {
          "id": 10,
          "value": 0.0
        },
        {
          "id": 11,
          "value": 0.0
        },
        {
          "id": 12,
          "value": 0.0
        },
        {
          "id": 13,
          "value": 1.0
        }
      ],
      "rightModuleId": 250,
      "data": {},
      "pos": [
        0,
        4
      ]
    },
    {
      "id": 244,
      "plugin": "AS",
      "version": "1.0.4",
      "model": "QuadVCA",
      "params": [
        {
          "id": 0,
          "value": 0.3349998
        },
        {
          "id": 1,
          "value": 0.680000246
        },
        {
          "id": 2,
          "value": 0.69199878
        },
        {
          "id": 3,
          "value": 0.376999706
        },
        {
          "id": 4,
          "value": 1.0
        },
        {
          "id": 5,
          "value": 1.0
        },
        {
          "id": 6,
          "value": 1.0
        },
        {
          "id": 7,
          "value": 1.0
        }
      ],
      "leftModuleId": 245,
      "rightModuleId": 242,
      "pos": [
        3,
        3
      ]
    },
    {
      "id": 245,
      "plugin": "RJModules",
      "version": "1.7.2",
      "model": "Slapback",
      "params": [
        {
          "id": 0,
          "value": 33.0
        },
        {
          "id": 1,
          "value": 97.4565964
        }
      ],
      "rightModuleId": 244,
      "pos": [
        0,
        3
      ]
    },
    {
      "id": 246,
      "plugin": "Hora-PCMDrumFree",
      "version": "1.0.2",
      "model": "Hora-PCMDrumLDrum",
      "params": [
        {
          "id": 0,
          "value": 0.607600033
        },
        {
          "id": 1,
          "value": 1.0
        },
        {
          "id": 2,
          "value": 0.0
        },
        {
          "id": 3,
          "value": 1.25499988
        },
        {
          "id": 4,
          "value": 2.0
        },
        {
          "id": 5,
          "value": 1.0
        },
        {
          "id": 6,
          "value": 0.773999989
        }
      ],
      "leftModuleId": 250,
      "rightModuleId": 248,
      "pos": [
        22,
        4
      ]
    },
    {
      "id": 248,
      "plugin": "Hora-PCMDrumFree",
      "version": "1.0.2",
      "model": "Hora-PCMDrumLDrum",
      "params": [
        {
          "id": 0,
          "value": 0.0
        },
        {
          "id": 1,
          "value": 1.0
        },
        {
          "id": 2,
          "value": 0.0
        },
        {
          "id": 3,
          "value": 1.27900016
        },
        {
          "id": 4,
          "value": 2.0
        },
        {
          "id": 5,
          "value": 1.0
        },
        {
          "id": 6,
          "value": 0.414000154
        }
      ],
      "leftModuleId": 246,
      "rightModuleId": 251,
      "pos": [
        30,
        4
      ]
    },
    {
      "id": 249,
      "plugin": "AS",
      "version": "1.0.4",
      "model": "Mixer8ch",
      "params": [
        {
          "id": 0,
          "value": 0.800000012
        },
        {
          "id": 1,
          "value": 0.355999917
        },
        {
          "id": 2,
          "value": 0.800000012
        },
        {
          "id": 3,
          "value": 0.398000121
        },
        {
          "id": 4,
          "value": 0.800000012
        },
        {
          "id": 5,
          "value": 0.800000012
        },
        {
          "id": 6,
          "value": 0.800000012
        },
        {
          "id": 7,
          "value": 0.800000012
        },
        {
          "id": 8,
          "value": 0.800000012
        },
        {
          "id": 9,
          "value": 0.0
        },
        {
          "id": 10,
          "value": 0.0
        },
        {
          "id": 11,
          "value": 0.0
        },
        {
          "id": 12,
          "value": 0.0
        },
        {
          "id": 13,
          "value": 0.0
        },
        {
          "id": 14,
          "value": 0.0
        },
        {
          "id": 15,
          "value": 0.0
        },
        {
          "id": 16,
          "value": 0.0
        },
        {
          "id": 17,
          "value": 0.0
        },
        {
          "id": 18,
          "value": 0.0
        },
        {
          "id": 19,
          "value": 0.0
        },
        {
          "id": 20,
          "value": 0.0
        },
        {
          "id": 21,
          "value": 0.0
        },
        {
          "id": 22,
          "value": 0.0
        },
        {
          "id": 23,
          "value": 0.0
        },
        {
          "id": 24,
          "value": 0.0
        },
        {
          "id": 25,
          "value": 0.0
        }
      ],
      "rightModuleId": 253,
      "data": {
        "as_MixerMutes": [
          0,
          0,
          0,
          0,
          0,
          0,
          0,
          0,
          0
        ]
      },
      "pos": [
        0,
        5
      ]
    },
    {
      "id": 250,
      "plugin": "Bogaudio",
      "version": "1.1.35",
      "model": "Bogaudio-RGate",
      "params": [
        {
          "id": 0,
          "value": 0.300499588
        },
        {
          "id": 1,
          "value": 0.0
        },
        {
          "id": 2,
          "value": 0.0
        }
      ],
      "leftModuleId": 243,
      "rightModuleId": 246,
      "data": {
        "reset_mode": 0,
        "initial_clock_seconds": 0.5,
        "poly_input": 4
      },
      "pos": [
        17,
        4
      ]
    },
    {
      "id": 251,
      "plugin": "Fundamental",
      "version": "1.4.0",
      "model": "VCF",
      "params": [
        {
          "id": 0,
          "value": 0.336500019
        },
        {
          "id": 1,
          "value": 0.5
        },
        {
          "id": 2,
          "value": 0.0
        },
        {
          "id": 3,
          "value": 0.0
        },
        {
          "id": 4,
          "value": 0.337499976
        }
      ],
      "leftModuleId": 248,
      "rightModuleId": 256,
      "pos": [
        38,
        4
      ]
    },
    {
      "id": 253,
      "plugin": "AudibleInstruments",
      "version": "1.5.0",
      "model": "Plaits",
      "params": [
        {
          "id": 0,
          "value": 0.0
        },
        {
          "id": 1,
          "value": 0.0
        },
        {
          "id": 2,
          "value": -3.0
        },
        {
          "id": 3,
          "value": 0.692000449
        },
        {
          "id": 4,
          "value": 0.0
        },
        {
          "id": 5,
          "value": 0.441500038
        },
        {
          "id": 6,
          "value": 0.879000068
        },
        {
          "id": 7,
          "value": 0.0
        },
        {
          "id": 8,
          "value": 0.0
        },
        {
          "id": 9,
          "value": 0.5
        },
        {
          "id": 10,
          "value": 0.5
        }
      ],
      "leftModuleId": 249,
      "rightModuleId": 254,
      "data": {
        "lowCpu": false,
        "model": 13
      },
      "pos": [
        26,
        5
      ]
    },
    {
      "id": 254,
      "plugin": "Bogaudio",
      "version": "1.1.35",
      "model": "Bogaudio-LLFO",
      "params": [
        {
          "id": 0,
          "value": -1.42350006
        },
        {
          "id": 1,
          "value": 0.0
        },
        {
          "id": 2,
          "value": 0.0
        },
        {
          "id": 3,
          "value": 0.5
        },
        {
          "id": 4,
          "value": 0.5
        }
      ],
      "leftModuleId": 253,
      "data": {},
      "pos": [
        38,
        5
      ]
    },
    {
      "id": 255,
      "plugin": "AS",
      "version": "1.0.4",
      "model": "ReverbFx",
      "params": [
        {
          "id": 0,
          "value": 0.5
        },
        {
          "id": 1,
          "value": 0.0
        },
        {
          "id": 2,
          "value": 1.0
        },
        {
          "id": 3,
          "value": 0.0
        }
      ],
      "leftModuleId": 256,
      "data": {
        "as_FxBypass": [
          false
        ]
      },
      "pos": [
        51,
        4
      ]
    },
    {
      "id": 256,
      "plugin": "Befaco",
      "version": "1.0.1",
      "model": "Mixer",
      "params": [
        {
          "id": 0,
          "value": 0.229499981
        },
        {
          "id": 1,
          "value": 0.319500148
        },
        {
          "id": 2,
          "value": 0.0
        },
        {
          "id": 3,
          "value": 0.0
        }
      ],
      "leftModuleId": 251,
      "rightModuleId": 255,
      "pos": [
        46,
        4
      ]
    }
  ],
  "cables": [
    {
      "id": 249,
      "outputModuleId": 180,
      "outputId": 2,
      "inputModuleId": 187,
      "inputId": 0,
      "color": "#c91847"
    },
    {
      "id": 250,
      "outputModuleId": 180,
      "outputId": 3,
      "inputModuleId": 187,
      "inputId": 1,
      "color": "#0986ad"
    },
    {
      "id": 251,
      "outputModuleId": 180,
      "outputId": 4,
      "inputModuleId": 187,
      "inputId": 2,
      "color": "#c9b70e"
    },
    {
      "id": 252,
      "outputModuleId": 180,
      "outputId": 5,
      "inputModuleId": 187,
      "inputId": 3,
      "color": "#0c8e15"
    },
    {
      "id": 253,
      "outputModuleId": 180,
      "outputId": 6,
      "inputModuleId": 187,
      "inputId": 4,
      "color": "#c91847"
    },
    {
      "id": 254,
      "outputModuleId": 180,
      "outputId": 7,
      "inputModuleId": 187,
      "inputId": 5,
      "color": "#0986ad"
    },
    {
      "id": 255,
      "outputModuleId": 180,
      "outputId": 8,
      "inputModuleId": 187,
      "inputId": 6,
      "color": "#c9b70e"
    },
    {
      "id": 256,
      "outputModuleId": 180,
      "outputId": 9,
      "inputModuleId": 187,
      "inputId": 7,
      "color": "#0c8e15"
    },
    {
      "id": 257,
      "outputModuleId": 187,
      "outputId": 0,
      "inputModuleId": 186,
      "inputId": 0,
      "color": "#c91847"
    },
    {
      "id": 260,
      "outputModuleId": 187,
      "outputId": 0,
      "inputModuleId": 193,
      "inputId": 0,
      "color": "#0986ad"
    },
    {
      "id": 270,
      "outputModuleId": 193,
      "outputId": 0,
      "inputModuleId": 195,
      "inputId": 0,
      "color": "#c91847"
    },
    {
      "id": 271,
      "outputModuleId": 193,
      "outputId": 1,
      "inputModuleId": 196,
      "inputId": 0,
      "color": "#0986ad"
    },
    {
      "id": 272,
      "outputModuleId": 193,
      "outputId": 2,
      "inputModuleId": 197,
      "inputId": 0,
      "color": "#c9b70e"
    },
    {
      "id": 273,
      "outputModuleId": 193,
      "outputId": 3,
      "inputModuleId": 198,
      "inputId": 0,
      "color": "#0c8e15"
    },
    {
      "id": 274,
      "outputModuleId": 193,
      "outputId": 4,
      "inputModuleId": 199,
      "inputId": 0,
      "color": "#c91847"
    },
    {
      "id": 275,
      "outputModuleId": 193,
      "outputId": 5,
      "inputModuleId": 200,
      "inputId": 0,
      "color": "#0986ad"
    },
    {
      "id": 276,
      "outputModuleId": 193,
      "outputId": 6,
      "inputModuleId": 201,
      "inputId": 0,
      "color": "#c9b70e"
    },
    {
      "id": 277,
      "outputModuleId": 193,
      "outputId": 7,
      "inputModuleId": 202,
      "inputId": 0,
      "color": "#0c8e15"
    },
    {
      "id": 307,
      "outputModuleId": 220,
      "outputId": 2,
      "inputModuleId": 224,
      "inputId": 4,
      "color": "#0986ad"
    },
    {
      "id": 308,
      "outputModuleId": 224,
      "outputId": 0,
      "inputModuleId": 222,
      "inputId": 0,
      "color": "#c9b70e"
    },
    {
      "id": 316,
      "outputModuleId": 230,
      "outputId": 8,
      "inputModuleId": 227,
      "inputId": 7,
      "color": "#c91847"
    },
    {
      "id": 317,
      "outputModuleId": 230,
      "outputId": 7,
      "inputModuleId": 228,
      "inputId": 7,
      "color": "#0986ad"
    },
    {
      "id": 314,
      "outputModuleId": 222,
      "outputId": 14,
      "inputModuleId": 229,
      "inputId": 2,
      "color": "#c9b70e"
    },
    {
      "id": 319,
      "outputModuleId": 229,
      "outputId": 0,
      "inputModuleId": 232,
      "inputId": 0,
      "color": "#0c8e15"
    },
    {
      "id": 320,
      "outputModuleId": 234,
      "outputId": 0,
      "inputModuleId": 232,
      "inputId": 1,
      "color": "#c91847"
    },
    {
      "id": 321,
      "outputModuleId": 232,
      "outputId": 0,
      "inputModuleId": 230,
      "inputId": 0,
      "color": "#0986ad"
    },
    {
      "id": 324,
      "outputModuleId": 227,
      "outputId": 1,
      "inputModuleId": 180,
      "inputId": 4,
      "color": "#0986ad"
    },
    {
      "id": 326,
      "outputModuleId": 228,
      "outputId": 1,
      "inputModuleId": 180,
      "inputId": 10,
      "color": "#0c8e15"
    },
    {
      "id": 327,
      "outputModuleId": 222,
      "outputId": 0,
      "inputModuleId": 227,
      "inputId": 5,
      "color": "#c91847"
    },
    {
      "id": 313,
      "outputModuleId": 225,
      "outputId": 0,
      "inputModuleId": 236,
      "inputId": 2,
      "color": "#0986ad"
    },
    {
      "id": 330,
      "outputModuleId": 236,
      "outputId": 0,
      "inputModuleId": 224,
      "inputId": 1,
      "color": "#0c8e15"
    },
    {
      "id": 336,
      "outputModuleId": 239,
      "outputId": 0,
      "inputModuleId": 240,
      "inputId": 2,
      "color": "#0c8e15"
    },
    {
      "id": 338,
      "outputModuleId": 240,
      "outputId": 0,
      "inputModuleId": 235,
      "inputId": 0,
      "color": "#0986ad"
    },
    {
      "id": 323,
      "outputModuleId": 227,
      "outputId": 0,
      "inputModuleId": 180,
      "inputId": 1,
      "color": "#c91847"
    },
    {
      "id": 340,
      "outputModuleId": 227,
      "outputId": 0,
      "inputModuleId": 242,
      "inputId": 0,
      "color": "#0c8e15"
    },
    {
      "id": 341,
      "outputModuleId": 227,
      "outputId": 0,
      "inputModuleId": 242,
      "inputId": 1,
      "color": "#c91847"
    },
    {
      "id": 342,
      "outputModuleId": 242,
      "outputId": 0,
      "inputModuleId": 180,
      "inputId": 13,
      "color": "#0986ad"
    },
    {
      "id": 343,
      "outputModuleId": 242,
      "outputId": 1,
      "inputModuleId": 180,
      "inputId": 16,
      "color": "#c9b70e"
    },
    {
      "id": 344,
      "outputModuleId": 222,
      "outputId": 12,
      "inputModuleId": 242,
      "inputId": 7,
      "color": "#0c8e15"
    },
    {
      "id": 345,
      "outputModuleId": 243,
      "outputId": 0,
      "inputModuleId": 244,
      "inputId": 1,
      "color": "#c91847"
    },
    {
      "id": 346,
      "outputModuleId": 244,
      "outputId": 0,
      "inputModuleId": 242,
      "inputId": 15,
      "color": "#0986ad"
    },
    {
      "id": 347,
      "outputModuleId": 244,
      "outputId": 0,
      "inputModuleId": 242,
      "inputId": 3,
      "color": "#c9b70e"
    },
    {
      "id": 348,
      "outputModuleId": 243,
      "outputId": 1,
      "inputModuleId": 244,
      "inputId": 3,
      "color": "#0c8e15"
    },
    {
      "id": 349,
      "outputModuleId": 244,
      "outputId": 1,
      "inputModuleId": 228,
      "inputId": 1,
      "color": "#c91847"
    },
    {
      "id": 350,
      "outputModuleId": 220,
      "outputId": 4,
      "inputModuleId": 225,
      "inputId": 1,
      "color": "#0986ad"
    },
    {
      "id": 351,
      "outputModuleId": 220,
      "outputId": 4,
      "inputModuleId": 239,
      "inputId": 1,
      "color": "#c9b70e"
    },
    {
      "id": 352,
      "outputModuleId": 220,
      "outputId": 4,
      "inputModuleId": 222,
      "inputId": 1,
      "color": "#0c8e15"
    },
    {
      "id": 353,
      "outputModuleId": 220,
      "outputId": 4,
      "inputModuleId": 243,
      "inputId": 10,
      "color": "#c91847"
    },
    {
      "id": 355,
      "outputModuleId": 245,
      "outputId": 1,
      "inputModuleId": 244,
      "inputId": 5,
      "color": "#0c8e15"
    },
    {
      "id": 354,
      "outputModuleId": 228,
      "outputId": 0,
      "inputModuleId": 245,
      "inputId": 1,
      "color": "#c9b70e"
    },
    {
      "id": 325,
      "outputModuleId": 244,
      "outputId": 2,
      "inputModuleId": 180,
      "inputId": 19,
      "color": "#c9b70e"
    },
    {
      "id": 356,
      "outputModuleId": 228,
      "outputId": 0,
      "inputModuleId": 180,
      "inputId": 7,
      "color": "#c91847"
    },
    {
      "id": 358,
      "outputModuleId": 246,
      "outputId": 0,
      "inputModuleId": 180,
      "inputId": 22,
      "color": "#0c8e15"
    },
    {
      "id": 359,
      "outputModuleId": 220,
      "outputId": 0,
      "inputModuleId": 246,
      "inputId": 1,
      "color": "#0986ad"
    },
    {
      "id": 364,
      "outputModuleId": 220,
      "outputId": 0,
      "inputModuleId": 250,
      "inputId": 4,
      "color": "#0c8e15"
    },
    {
      "id": 365,
      "outputModuleId": 250,
      "outputId": 0,
      "inputModuleId": 248,
      "inputId": 3,
      "color": "#c91847"
    },
    {
      "id": 363,
      "outputModuleId": 251,
      "outputId": 1,
      "inputModuleId": 249,
      "inputId": 1,
      "color": "#c9b70e"
    },
    {
      "id": 366,
      "outputModuleId": 248,
      "outputId": 0,
      "inputModuleId": 251,
      "inputId": 3,
      "color": "#0986ad"
    },
    {
      "id": 367,
      "outputModuleId": 180,
      "outputId": 0,
      "inputModuleId": 1,
      "inputId": 0,
      "color": "#c9b70e"
    },
    {
      "id": 362,
      "outputModuleId": 180,
      "outputId": 1,
      "inputModuleId": 1,
      "inputId": 1,
      "color": "#c91847"
    },
    {
      "id": 368,
      "outputModuleId": 249,
      "outputId": 0,
      "inputModuleId": 180,
      "inputId": 25,
      "color": "#0c8e15"
    },
    {
      "id": 369,
      "outputModuleId": 249,
      "outputId": 1,
      "inputModuleId": 180,
      "inputId": 26,
      "color": "#c91847"
    },
    {
      "id": 339,
      "outputModuleId": 222,
      "outputId": 12,
      "inputModuleId": 241,
      "inputId": 0,
      "color": "#c9b70e"
    },
    {
      "id": 372,
      "outputModuleId": 253,
      "outputId": 0,
      "inputModuleId": 249,
      "inputId": 4,
      "color": "#0c8e15"
    },
    {
      "id": 373,
      "outputModuleId": 230,
      "outputId": 6,
      "inputModuleId": 253,
      "inputId": 7,
      "color": "#c91847"
    },
    {
      "id": 375,
      "outputModuleId": 222,
      "outputId": 12,
      "inputModuleId": 253,
      "inputId": 1,
      "color": "#0c8e15"
    },
    {
      "id": 379,
      "outputModuleId": 254,
      "outputId": 0,
      "inputModuleId": 253,
      "inputId": 4,
      "color": "#c91847"
    },
    {
      "id": 374,
      "outputModuleId": 222,
      "outputId": 8,
      "inputModuleId": 253,
      "inputId": 5,
      "color": "#0986ad"
    },
    {
      "id": 328,
      "outputModuleId": 222,
      "outputId": 5,
      "inputModuleId": 228,
      "inputId": 5,
      "color": "#0986ad"
    },
    {
      "id": 360,
      "outputModuleId": 222,
      "outputId": 9,
      "inputModuleId": 248,
      "inputId": 1,
      "color": "#c9b70e"
    },
    {
      "id": 380,
      "outputModuleId": 246,
      "outputId": 0,
      "inputModuleId": 256,
      "inputId": 0,
      "color": "#c9b70e"
    },
    {
      "id": 381,
      "outputModuleId": 256,
      "outputId": 0,
      "inputModuleId": 255,
      "inputId": 0,
      "color": "#0986ad"
    },
    {
      "id": 382,
      "outputModuleId": 248,
      "outputId": 0,
      "inputModuleId": 256,
      "inputId": 1,
      "color": "#c9b70e"
    },
    {
      "id": 383,
      "outputModuleId": 255,
      "outputId": 0,
      "inputModuleId": 249,
      "inputId": 7,
      "color": "#0c8e15"
    },
    {
      "id": 337,
      "outputModuleId": 240,
      "outputId": 0,
      "inputModuleId": 222,
      "inputId": 2,
      "color": "#c91847"
    }
  ]
}