{
  "version": "1.1.6",
  "modules": [
    {
      "id": 1,
      "plugin": "Core",
      "version": "1.1.6",
      "model": "AudioInterface",
      "params": [],
      "leftModuleId": 77,
      "rightModuleId": 20,
      "data": {
        "audio": {
          "driver": 5,
          "deviceName": "SteelSeries: SteelSeries Arctis 1 Wireless",
          "offset": 0,
          "maxChannels": 8,
          "sampleRate": 44100,
          "blockSize": 256
        }
      },
      "pos": [
        66,
        0
      ]
    },
    {
      "id": 5,
      "plugin": "Core",
      "version": "1.1.6",
      "model": "MIDIToCVInterface",
      "params": [],
      "leftModuleId": 78,
      "rightModuleId": 7,
      "data": {
        "channels": 1,
        "polyMode": 0,
        "clockDivision": 24,
        "lastPitch": 8192,
        "lastMod": 0,
        "midi": {
          "driver": -11,
          "deviceName": "QWERTY keyboard (US)",
          "channel": -1
        }
      },
      "pos": [
        15,
        0
      ]
    },
    {
      "id": 7,
      "plugin": "Fundamental",
      "version": "1.4.0",
      "model": "Scope",
      "params": [
        {
          "id": 0,
          "value": 0.0
        },
        {
          "id": 1,
          "value": 0.0
        },
        {
          "id": 2,
          "value": 0.0
        },
        {
          "id": 3,
          "value": 0.0
        },
        {
          "id": 4,
          "value": 14.0
        },
        {
          "id": 5,
          "value": 0.0
        },
        {
          "id": 6,
          "value": 0.0
        },
        {
          "id": 7,
          "value": 0.0
        }
      ],
      "leftModuleId": 5,
      "rightModuleId": 11,
      "data": {
        "lissajous": 0,
        "external": 0
      },
      "pos": [
        23,
        0
      ]
    },
    {
      "id": 11,
      "plugin": "Fundamental",
      "version": "1.4.0",
      "model": "VCMixer",
      "params": [
        {
          "id": 0,
          "value": 1.0
        },
        {
          "id": 1,
          "value": 0.835800588
        },
        {
          "id": 2,
          "value": 0.857013106
        },
        {
          "id": 3,
          "value": 1.0
        },
        {
          "id": 4,
          "value": 1.0
        }
      ],
      "leftModuleId": 7,
      "rightModuleId": 76,
      "pos": [
        36,
        0
      ]
    },
    {
      "id": 20,
      "plugin": "Core",
      "version": "1.1.6",
      "model": "Notes",
      "params": [],
      "leftModuleId": 1,
      "text": "Turn on the clock",
      "pos": [
        76,
        0
      ]
    },
    {
      "id": 76,
      "plugin": "Fundamental",
      "version": "1.4.0",
      "model": "VCMixer",
      "params": [
        {
          "id": 0,
          "value": 1.0
        },
        {
          "id": 1,
          "value": 1.0
        },
        {
          "id": 2,
          "value": 1.0
        },
        {
          "id": 3,
          "value": 1.0
        },
        {
          "id": 4,
          "value": 1.0
        }
      ],
      "leftModuleId": 11,
      "rightModuleId": 77,
      "pos": [
        46,
        0
      ]
    },
    {
      "id": 77,
      "plugin": "Fundamental",
      "version": "1.4.0",
      "model": "VCMixer",
      "params": [
        {
          "id": 0,
          "value": 1.0
        },
        {
          "id": 1,
          "value": 1.0
        },
        {
          "id": 2,
          "value": 1.0
        },
        {
          "id": 3,
          "value": 1.0
        },
        {
          "id": 4,
          "value": 1.0
        }
      ],
      "leftModuleId": 76,
      "rightModuleId": 1,
      "pos": [
        56,
        0
      ]
    },
    {
      "id": 78,
      "plugin": "JW-Modules",
      "version": "1.0.21",
      "model": "SimpleClock",
      "params": [
        {
          "id": 0,
          "value": 1.56399965
        },
        {
          "id": 1,
          "value": 0.0
        },
        {
          "id": 2,
          "value": -2.0
        },
        {
          "id": 3,
          "value": 0.0
        }
      ],
      "rightModuleId": 5,
      "data": {
        "clockMult": 1,
        "running": true
      },
      "pos": [
        11,
        0
      ]
    },
    {
      "id": 82,
      "plugin": "AudibleInstruments",
      "version": "1.5.0",
      "model": "Elements",
      "params": [
        {
          "id": 0,
          "value": 1.0
        },
        {
          "id": 1,
          "value": 0.516000271
        },
        {
          "id": 2,
          "value": 0.193499923
        },
        {
          "id": 3,
          "value": 1.0
        },
        {
          "id": 4,
          "value": 0.0
        },
        {
          "id": 5,
          "value": 0.0
        },
        {
          "id": 6,
          "value": 0.261000335
        },
        {
          "id": 7,
          "value": 0.591500103
        },
        {
          "id": 8,
          "value": 0.414000064
        },
        {
          "id": 9,
          "value": 0.395000041
        },
        {
          "id": 10,
          "value": 0.240499839
        },
        {
          "id": 11,
          "value": 1.0
        },
        {
          "id": 12,
          "value": 0.57949996
        },
        {
          "id": 13,
          "value": 0.427999943
        },
        {
          "id": 14,
          "value": 0.702499986
        },
        {
          "id": 15,
          "value": 0.408499926
        },
        {
          "id": 16,
          "value": 1.6110003
        },
        {
          "id": 17,
          "value": 0.0
        },
        {
          "id": 18,
          "value": 0.294
        },
        {
          "id": 19,
          "value": 0.0
        },
        {
          "id": 20,
          "value": 0.0
        },
        {
          "id": 21,
          "value": 0.0
        },
        {
          "id": 22,
          "value": 0.0
        },
        {
          "id": 23,
          "value": 0.0
        },
        {
          "id": 24,
          "value": 0.0
        },
        {
          "id": 25,
          "value": 0.0
        },
        {
          "id": 26,
          "value": 0.0
        },
        {
          "id": 27,
          "value": 0.0
        }
      ],
      "leftModuleId": 83,
      "rightModuleId": 88,
      "data": {
        "model": 0
      },
      "pos": [
        38,
        1
      ]
    },
    {
      "id": 83,
      "plugin": "AudibleInstruments",
      "version": "1.5.0",
      "model": "Marbles",
      "params": [
        {
          "id": 0,
          "value": 0.0
        },
        {
          "id": 1,
          "value": 0.0
        },
        {
          "id": 2,
          "value": 1.0
        },
        {
          "id": 3,
          "value": 0.0
        },
        {
          "id": 4,
          "value": 0.507499874
        },
        {
          "id": 5,
          "value": 0.0
        },
        {
          "id": 6,
          "value": 0.0
        },
        {
          "id": 7,
          "value": 0.440999627
        },
        {
          "id": 8,
          "value": 0.24950017
        },
        {
          "id": 9,
          "value": 0.657500029
        },
        {
          "id": 10,
          "value": 0.0
        },
        {
          "id": 11,
          "value": 0.0
        },
        {
          "id": 12,
          "value": 0.0
        },
        {
          "id": 13,
          "value": 0.686499715
        },
        {
          "id": 14,
          "value": 0.794499755
        }
      ],
      "leftModuleId": 102,
      "rightModuleId": 82,
      "data": {
        "t_deja_vu": true,
        "x_deja_vu": true,
        "t_mode": 0,
        "x_mode": 0,
        "t_range": 1,
        "x_range": 0,
        "external": false,
        "x_scale": 2,
        "y_divider_index": 8,
        "x_clock_source_internal": 0
      },
      "pos": [
        20,
        1
      ]
    },
    {
      "id": 86,
      "plugin": "Fundamental",
      "version": "1.4.0",
      "model": "VCO",
      "params": [
        {
          "id": 0,
          "value": 1.0
        },
        {
          "id": 1,
          "value": 1.0
        },
        {
          "id": 2,
          "value": -21.3299866
        },
        {
          "id": 3,
          "value": 0.0
        },
        {
          "id": 4,
          "value": 1.0
        },
        {
          "id": 5,
          "value": 0.5
        },
        {
          "id": 6,
          "value": 0.0
        }
      ],
      "rightModuleId": 87,
      "pos": [
        43,
        2
      ]
    },
    {
      "id": 87,
      "plugin": "Fundamental",
      "version": "1.4.0",
      "model": "LFO",
      "params": [
        {
          "id": 0,
          "value": 1.0
        },
        {
          "id": 1,
          "value": 1.0
        },
        {
          "id": 2,
          "value": -1.29499996
        },
        {
          "id": 3,
          "value": 0.566999972
        },
        {
          "id": 4,
          "value": 0.0
        },
        {
          "id": 5,
          "value": 0.5
        },
        {
          "id": 6,
          "value": 0.0
        }
      ],
      "leftModuleId": 86,
      "rightModuleId": 90,
      "pos": [
        53,
        2
      ]
    },
    {
      "id": 88,
      "plugin": "Fundamental",
      "version": "1.4.0",
      "model": "VCF",
      "params": [
        {
          "id": 0,
          "value": 0.70449996
        },
        {
          "id": 1,
          "value": 0.5
        },
        {
          "id": 2,
          "value": 0.433500051
        },
        {
          "id": 3,
          "value": 1.0
        },
        {
          "id": 4,
          "value": 0.0
        }
      ],
      "leftModuleId": 82,
      "rightModuleId": 89,
      "pos": [
        72,
        1
      ]
    },
    {
      "id": 89,
      "plugin": "Fundamental",
      "version": "1.4.0",
      "model": "VCF",
      "params": [
        {
          "id": 0,
          "value": 0.712000012
        },
        {
          "id": 1,
          "value": 0.5
        },
        {
          "id": 2,
          "value": 0.0
        },
        {
          "id": 3,
          "value": 1.0
        },
        {
          "id": 4,
          "value": 0.0
        }
      ],
      "leftModuleId": 88,
      "pos": [
        80,
        1
      ]
    },
    {
      "id": 90,
      "plugin": "Fundamental",
      "version": "1.4.0",
      "model": "ADSR",
      "params": [
        {
          "id": 0,
          "value": 0.0
        },
        {
          "id": 1,
          "value": 0.555500031
        },
        {
          "id": 2,
          "value": 0.0
        },
        {
          "id": 3,
          "value": 0.5
        }
      ],
      "leftModuleId": 87,
      "pos": [
        63,
        2
      ]
    },
    {
      "id": 92,
      "plugin": "Fundamental",
      "version": "1.4.0",
      "model": "VCO",
      "params": [
        {
          "id": 0,
          "value": 1.0
        },
        {
          "id": 1,
          "value": 1.0
        },
        {
          "id": 2,
          "value": -12.061348
        },
        {
          "id": 3,
          "value": 0.0
        },
        {
          "id": 4,
          "value": 0.0
        },
        {
          "id": 5,
          "value": 0.5
        },
        {
          "id": 6,
          "value": 0.0
        }
      ],
      "leftModuleId": 97,
      "rightModuleId": 93,
      "pos": [
        20,
        2
      ]
    },
    {
      "id": 93,
      "plugin": "Fundamental",
      "version": "1.4.0",
      "model": "VCA-1",
      "params": [
        {
          "id": 0,
          "value": 1.0
        },
        {
          "id": 1,
          "value": 1.0
        }
      ],
      "leftModuleId": 92,
      "rightModuleId": 94,
      "pos": [
        30,
        2
      ]
    },
    {
      "id": 94,
      "plugin": "Fundamental",
      "version": "1.4.0",
      "model": "VCF",
      "params": [
        {
          "id": 0,
          "value": 0.445000291
        },
        {
          "id": 1,
          "value": 0.5
        },
        {
          "id": 2,
          "value": 0.411000103
        },
        {
          "id": 3,
          "value": 0.40299964
        },
        {
          "id": 4,
          "value": 0.882000685
        }
      ],
      "leftModuleId": 93,
      "pos": [
        33,
        2
      ]
    },
    {
      "id": 95,
      "plugin": "Fundamental",
      "version": "1.4.0",
      "model": "ADSR",
      "params": [
        {
          "id": 0,
          "value": 0.105000034
        },
        {
          "id": 1,
          "value": 0.781999886
        },
        {
          "id": 2,
          "value": 0.0
        },
        {
          "id": 3,
          "value": 0.5
        }
      ],
      "leftModuleId": 96,
      "rightModuleId": 97,
      "pos": [
        9,
        2
      ]
    },
    {
      "id": 96,
      "plugin": "Fundamental",
      "version": "1.4.0",
      "model": "ADSR",
      "params": [
        {
          "id": 0,
          "value": 0.0
        },
        {
          "id": 1,
          "value": 0.431000143
        },
        {
          "id": 2,
          "value": 0.0
        },
        {
          "id": 3,
          "value": 0.5
        }
      ],
      "rightModuleId": 95,
      "pos": [
        1,
        2
      ]
    },
    {
      "id": 97,
      "plugin": "Fundamental",
      "version": "1.4.0",
      "model": "Octave",
      "params": [
        {
          "id": 0,
          "value": -4.0
        }
      ],
      "leftModuleId": 95,
      "rightModuleId": 92,
      "pos": [
        17,
        2
      ]
    },
    {
      "id": 98,
      "plugin": "Fundamental",
      "version": "1.4.0",
      "model": "VCO",
      "params": [
        {
          "id": 0,
          "value": 1.0
        },
        {
          "id": 1,
          "value": 1.0
        },
        {
          "id": 2,
          "value": -37.4953613
        },
        {
          "id": 3,
          "value": 0.0
        },
        {
          "id": 4,
          "value": 0.622500479
        },
        {
          "id": 5,
          "value": 0.5
        },
        {
          "id": 6,
          "value": 0.0
        }
      ],
      "leftModuleId": 100,
      "rightModuleId": 99,
      "pos": [
        20,
        3
      ]
    },
    {
      "id": 99,
      "plugin": "Fundamental",
      "version": "1.4.0",
      "model": "VCA-1",
      "params": [
        {
          "id": 0,
          "value": 1.0
        },
        {
          "id": 1,
          "value": 1.0
        }
      ],
      "leftModuleId": 98,
      "rightModuleId": 103,
      "pos": [
        30,
        3
      ]
    },
    {
      "id": 100,
      "plugin": "Fundamental",
      "version": "1.4.0",
      "model": "ADSR",
      "params": [
        {
          "id": 0,
          "value": 0.0
        },
        {
          "id": 1,
          "value": 0.270499617
        },
        {
          "id": 2,
          "value": 0.0
        },
        {
          "id": 3,
          "value": 0.5
        }
      ],
      "leftModuleId": 101,
      "rightModuleId": 98,
      "pos": [
        12,
        3
      ]
    },
    {
      "id": 101,
      "plugin": "Fundamental",
      "version": "1.4.0",
      "model": "ADSR",
      "params": [
        {
          "id": 0,
          "value": 0.0
        },
        {
          "id": 1,
          "value": 0.694999874
        },
        {
          "id": 2,
          "value": 0.0
        },
        {
          "id": 3,
          "value": 0.5
        }
      ],
      "rightModuleId": 100,
      "pos": [
        4,
        3
      ]
    },
    {
      "id": 102,
      "plugin": "VultModulesFree",
      "version": "1.14",
      "model": "Trummor2",
      "params": [
        {
          "id": 0,
          "value": 0.21799998
        },
        {
          "id": 1,
          "value": 0.5
        },
        {
          "id": 2,
          "value": 0.0
        },
        {
          "id": 3,
          "value": 0.0
        },
        {
          "id": 4,
          "value": 0.0
        },
        {
          "id": 5,
          "value": 0.0
        },
        {
          "id": 6,
          "value": 0.0
        },
        {
          "id": 7,
          "value": 0.200000003
        },
        {
          "id": 8,
          "value": 0.400000006
        },
        {
          "id": 9,
          "value": 0.0
        },
        {
          "id": 10,
          "value": 0.0
        },
        {
          "id": 11,
          "value": 0.0
        },
        {
          "id": 12,
          "value": 0.338499904
        },
        {
          "id": 13,
          "value": 0.395999998
        },
        {
          "id": 14,
          "value": 0.369000047
        },
        {
          "id": 15,
          "value": 0.656449735
        },
        {
          "id": 16,
          "value": 0.531000435
        },
        {
          "id": 17,
          "value": 0.0
        },
        {
          "id": 18,
          "value": 0.0
        },
        {
          "id": 19,
          "value": 0.278000027
        },
        {
          "id": 20,
          "value": 0.292999953
        },
        {
          "id": 21,
          "value": 0.0
        },
        {
          "id": 22,
          "value": 0.0
        },
        {
          "id": 23,
          "value": 0.686500907
        },
        {
          "id": 24,
          "value": 0.0
        },
        {
          "id": 25,
          "value": 0.0
        },
        {
          "id": 26,
          "value": 0.0
        },
        {
          "id": 27,
          "value": 0.0
        },
        {
          "id": 28,
          "value": 0.0
        },
        {
          "id": 29,
          "value": 0.0
        },
        {
          "id": 30,
          "value": 0.0
        },
        {
          "id": 31,
          "value": 0.0
        },
        {
          "id": 32,
          "value": 0.0
        }
      ],
      "rightModuleId": 83,
      "data": {
        "mod_a": 0,
        "mod_b": 0,
        "mod_c": 0,
        "mod_d": 0,
        "mk2": true
      },
      "pos": [
        0,
        1
      ]
    },
    {
      "id": 103,
      "plugin": "Fundamental",
      "version": "1.4.0",
      "model": "VCF",
      "params": [
        {
          "id": 0,
          "value": 0.734500051
        },
        {
          "id": 1,
          "value": 0.5
        },
        {
          "id": 2,
          "value": 0.00150000001
        },
        {
          "id": 3,
          "value": 0.468999714
        },
        {
          "id": 4,
          "value": 0.373500705
        }
      ],
      "leftModuleId": 99,
      "pos": [
        33,
        3
      ]
    },
    {
      "id": 104,
      "plugin": "AudibleInstruments",
      "version": "1.5.0",
      "model": "Clouds",
      "params": [
        {
          "id": 0,
          "value": 0.0
        },
        {
          "id": 1,
          "value": 0.0
        },
        {
          "id": 2,
          "value": 0.0
        },
        {
          "id": 3,
          "value": 0.5
        },
        {
          "id": 4,
          "value": 0.5
        },
        {
          "id": 5,
          "value": 0.0
        },
        {
          "id": 6,
          "value": 0.5
        },
        {
          "id": 7,
          "value": 0.5
        },
        {
          "id": 8,
          "value": 0.5
        },
        {
          "id": 9,
          "value": 0.5
        },
        {
          "id": 10,
          "value": 0.0
        },
        {
          "id": 11,
          "value": 0.0
        },
        {
          "id": 12,
          "value": 0.0
        }
      ],
      "data": {
        "playback": 0,
        "quality": 0,
        "blendMode": 0
      },
      "pos": [
        72,
        2
      ]
    }
  ],
  "cables": [
    {
      "id": 90,
      "outputModuleId": 11,
      "outputId": 0,
      "inputModuleId": 76,
      "inputId": 1,
      "color": "#0986ad"
    },
    {
      "id": 91,
      "outputModuleId": 11,
      "outputId": 0,
      "inputModuleId": 77,
      "inputId": 1,
      "color": "#c9b70e"
    },
    {
      "id": 92,
      "outputModuleId": 76,
      "outputId": 0,
      "inputModuleId": 1,
      "inputId": 0,
      "color": "#0c8e15"
    },
    {
      "id": 93,
      "outputModuleId": 77,
      "outputId": 0,
      "inputModuleId": 1,
      "inputId": 1,
      "color": "#c91847"
    },
    {
      "id": 94,
      "outputModuleId": 76,
      "outputId": 0,
      "inputModuleId": 7,
      "inputId": 0,
      "color": "#0986ad"
    },
    {
      "id": 95,
      "outputModuleId": 77,
      "outputId": 0,
      "inputModuleId": 7,
      "inputId": 1,
      "color": "#c9b70e"
    },
    {
      "id": 170,
      "outputModuleId": 83,
      "outputId": 0,
      "inputModuleId": 82,
      "inputId": 2,
      "color": "#c9b70e"
    },
    {
      "id": 171,
      "outputModuleId": 83,
      "outputId": 5,
      "inputModuleId": 82,
      "inputId": 0,
      "color": "#0c8e15"
    },
    {
      "id": 174,
      "outputModuleId": 78,
      "outputId": 0,
      "inputModuleId": 83,
      "inputId": 2,
      "color": "#c9b70e"
    },
    {
      "id": 175,
      "outputModuleId": 86,
      "outputId": 0,
      "inputModuleId": 82,
      "inputId": 1,
      "color": "#c9b70e"
    },
    {
      "id": 176,
      "outputModuleId": 87,
      "outputId": 0,
      "inputModuleId": 86,
      "inputId": 1,
      "color": "#0c8e15"
    },
    {
      "id": 177,
      "outputModuleId": 87,
      "outputId": 1,
      "inputModuleId": 87,
      "inputId": 0,
      "color": "#c91847"
    },
    {
      "id": 178,
      "outputModuleId": 82,
      "outputId": 0,
      "inputModuleId": 88,
      "inputId": 3,
      "color": "#0986ad"
    },
    {
      "id": 179,
      "outputModuleId": 82,
      "outputId": 1,
      "inputModuleId": 89,
      "inputId": 3,
      "color": "#c9b70e"
    },
    {
      "id": 182,
      "outputModuleId": 83,
      "outputId": 0,
      "inputModuleId": 90,
      "inputId": 4,
      "color": "#0986ad"
    },
    {
      "id": 183,
      "outputModuleId": 90,
      "outputId": 0,
      "inputModuleId": 88,
      "inputId": 0,
      "color": "#c9b70e"
    },
    {
      "id": 184,
      "outputModuleId": 90,
      "outputId": 0,
      "inputModuleId": 89,
      "inputId": 0,
      "color": "#0c8e15"
    },
    {
      "id": 185,
      "outputModuleId": 87,
      "outputId": 0,
      "inputModuleId": 82,
      "inputId": 7,
      "color": "#c91847"
    },
    {
      "id": 190,
      "outputModuleId": 92,
      "outputId": 1,
      "inputModuleId": 93,
      "inputId": 1,
      "color": "#0c8e15"
    },
    {
      "id": 191,
      "outputModuleId": 93,
      "outputId": 0,
      "inputModuleId": 94,
      "inputId": 3,
      "color": "#c91847"
    },
    {
      "id": 192,
      "outputModuleId": 94,
      "outputId": 0,
      "inputModuleId": 11,
      "inputId": 1,
      "color": "#0986ad"
    },
    {
      "id": 193,
      "outputModuleId": 95,
      "outputId": 0,
      "inputModuleId": 93,
      "inputId": 0,
      "color": "#c9b70e"
    },
    {
      "id": 196,
      "outputModuleId": 96,
      "outputId": 0,
      "inputModuleId": 94,
      "inputId": 0,
      "color": "#c9b70e"
    },
    {
      "id": 199,
      "outputModuleId": 97,
      "outputId": 0,
      "inputModuleId": 92,
      "inputId": 0,
      "color": "#c91847"
    },
    {
      "id": 198,
      "outputModuleId": 83,
      "outputId": 4,
      "inputModuleId": 97,
      "inputId": 0,
      "color": "#0986ad"
    },
    {
      "id": 195,
      "outputModuleId": 83,
      "outputId": 2,
      "inputModuleId": 96,
      "inputId": 4,
      "color": "#0986ad"
    },
    {
      "id": 200,
      "outputModuleId": 83,
      "outputId": 2,
      "inputModuleId": 95,
      "inputId": 4,
      "color": "#0986ad"
    },
    {
      "id": 201,
      "outputModuleId": 83,
      "outputId": 2,
      "inputModuleId": 101,
      "inputId": 4,
      "color": "#0c8e15"
    },
    {
      "id": 202,
      "outputModuleId": 83,
      "outputId": 2,
      "inputModuleId": 100,
      "inputId": 4,
      "color": "#c91847"
    },
    {
      "id": 203,
      "outputModuleId": 101,
      "outputId": 0,
      "inputModuleId": 99,
      "inputId": 0,
      "color": "#0986ad"
    },
    {
      "id": 204,
      "outputModuleId": 98,
      "outputId": 0,
      "inputModuleId": 99,
      "inputId": 1,
      "color": "#c9b70e"
    },
    {
      "id": 207,
      "outputModuleId": 78,
      "outputId": 2,
      "inputModuleId": 102,
      "inputId": 0,
      "color": "#0986ad"
    },
    {
      "id": 208,
      "outputModuleId": 102,
      "outputId": 0,
      "inputModuleId": 11,
      "inputId": 3,
      "color": "#c9b70e"
    },
    {
      "id": 205,
      "outputModuleId": 100,
      "outputId": 0,
      "inputModuleId": 98,
      "inputId": 1,
      "color": "#0c8e15"
    },
    {
      "id": 206,
      "outputModuleId": 103,
      "outputId": 0,
      "inputModuleId": 11,
      "inputId": 2,
      "color": "#c91847"
    },
    {
      "id": 209,
      "outputModuleId": 99,
      "outputId": 0,
      "inputModuleId": 103,
      "inputId": 3,
      "color": "#0c8e15"
    },
    {
      "id": 210,
      "outputModuleId": 100,
      "outputId": 0,
      "inputModuleId": 103,
      "inputId": 0,
      "color": "#c91847"
    },
    {
      "id": 180,
      "outputModuleId": 104,
      "outputId": 0,
      "inputModuleId": 76,
      "inputId": 2,
      "color": "#0c8e15"
    },
    {
      "id": 181,
      "outputModuleId": 104,
      "outputId": 1,
      "inputModuleId": 77,
      "inputId": 2,
      "color": "#c91847"
    },
    {
      "id": 211,
      "outputModuleId": 88,
      "outputId": 0,
      "inputModuleId": 104,
      "inputId": 6,
      "color": "#0986ad"
    },
    {
      "id": 212,
      "outputModuleId": 89,
      "outputId": 0,
      "inputModuleId": 104,
      "inputId": 7,
      "color": "#c9b70e"
    }
  ]
}