{
  "version": "1.1.6",
  "modules": [
    {
      "id": 1,
      "plugin": "Core",
      "version": "1.1.6",
      "model": "AudioInterface",
      "params": [],
      "leftModuleId": 11,
      "rightModuleId": 20,
      "data": {
        "audio": {
          "driver": 5,
          "deviceName": "SteelSeries: SteelSeries Arctis 1 Wireless",
          "offset": 0,
          "maxChannels": 8,
          "sampleRate": 44100,
          "blockSize": 256
        }
      },
      "pos": [
        31,
        0
      ]
    },
    {
      "id": 5,
      "plugin": "Core",
      "version": "1.1.6",
      "model": "MIDIToCVInterface",
      "params": [],
      "rightModuleId": 7,
      "data": {
        "channels": 1,
        "polyMode": 0,
        "clockDivision": 24,
        "lastPitch": 8192,
        "lastMod": 0,
        "midi": {
          "driver": -11,
          "deviceName": "QWERTY keyboard (US)",
          "channel": -1
        }
      },
      "pos": [
        0,
        0
      ]
    },
    {
      "id": 7,
      "plugin": "Fundamental",
      "version": "1.4.0",
      "model": "Scope",
      "params": [
        {
          "id": 0,
          "value": 0.0
        },
        {
          "id": 1,
          "value": 0.0
        },
        {
          "id": 2,
          "value": 0.0
        },
        {
          "id": 3,
          "value": 0.0
        },
        {
          "id": 4,
          "value": 14.0
        },
        {
          "id": 5,
          "value": 0.0
        },
        {
          "id": 6,
          "value": 0.0
        },
        {
          "id": 7,
          "value": 0.0
        }
      ],
      "leftModuleId": 5,
      "rightModuleId": 11,
      "data": {
        "lissajous": 0,
        "external": 0
      },
      "pos": [
        8,
        0
      ]
    },
    {
      "id": 11,
      "plugin": "Fundamental",
      "version": "1.4.0",
      "model": "VCMixer",
      "params": [
        {
          "id": 0,
          "value": 1.0
        },
        {
          "id": 1,
          "value": 1.0
        },
        {
          "id": 2,
          "value": 1.0
        },
        {
          "id": 3,
          "value": 1.0
        },
        {
          "id": 4,
          "value": 1.0
        }
      ],
      "leftModuleId": 7,
      "rightModuleId": 1,
      "pos": [
        21,
        0
      ]
    },
    {
      "id": 20,
      "plugin": "Core",
      "version": "1.1.6",
      "model": "Notes",
      "params": [],
      "leftModuleId": 1,
      "text": "just press run on the seq...",
      "pos": [
        41,
        0
      ]
    },
    {
      "id": 21,
      "plugin": "AudibleInstruments",
      "version": "1.5.0",
      "model": "Braids",
      "params": [
        {
          "id": 0,
          "value": 0.0
        },
        {
          "id": 1,
          "value": -2.0
        },
        {
          "id": 2,
          "value": 0.0
        },
        {
          "id": 3,
          "value": 0.158499986
        },
        {
          "id": 4,
          "value": 0.336000144
        },
        {
          "id": 5,
          "value": 1.0
        },
        {
          "id": 6,
          "value": 0.684001088
        }
      ],
      "leftModuleId": 24,
      "rightModuleId": 25,
      "data": {
        "settings": [
          31,
          0,
          0,
          0,
          0,
          0,
          0,
          0,
          0,
          0,
          0,
          0,
          0,
          0,
          0,
          0,
          0,
          0,
          0,
          0
        ],
        "lowCpu": false
      },
      "pos": [
        25,
        1
      ]
    },
    {
      "id": 23,
      "plugin": "Fundamental",
      "version": "1.4.0",
      "model": "SEQ3",
      "params": [
        {
          "id": 0,
          "value": 2.0
        },
        {
          "id": 1,
          "value": 0.0
        },
        {
          "id": 2,
          "value": 0.0
        },
        {
          "id": 3,
          "value": 8.0
        },
        {
          "id": 4,
          "value": 2.24999738
        },
        {
          "id": 5,
          "value": 0.0
        },
        {
          "id": 6,
          "value": 0.0
        },
        {
          "id": 7,
          "value": 2.325001
        },
        {
          "id": 8,
          "value": 2.25
        },
        {
          "id": 9,
          "value": 0.0
        },
        {
          "id": 10,
          "value": 0.0
        },
        {
          "id": 11,
          "value": 0.0
        },
        {
          "id": 12,
          "value": 0.0
        },
        {
          "id": 13,
          "value": 0.0
        },
        {
          "id": 14,
          "value": 0.0
        },
        {
          "id": 15,
          "value": 0.0
        },
        {
          "id": 16,
          "value": 0.0
        },
        {
          "id": 17,
          "value": 0.0
        },
        {
          "id": 18,
          "value": 0.0
        },
        {
          "id": 19,
          "value": 0.0
        },
        {
          "id": 20,
          "value": 0.0
        },
        {
          "id": 21,
          "value": 0.0
        },
        {
          "id": 22,
          "value": 0.0
        },
        {
          "id": 23,
          "value": 0.0
        },
        {
          "id": 24,
          "value": 0.0
        },
        {
          "id": 25,
          "value": 0.0
        },
        {
          "id": 26,
          "value": 0.0
        },
        {
          "id": 27,
          "value": 0.0
        },
        {
          "id": 28,
          "value": 0.0
        },
        {
          "id": 29,
          "value": 0.0
        },
        {
          "id": 30,
          "value": 0.0
        },
        {
          "id": 31,
          "value": 0.0
        },
        {
          "id": 32,
          "value": 0.0
        },
        {
          "id": 33,
          "value": 0.0
        },
        {
          "id": 34,
          "value": 0.0
        },
        {
          "id": 35,
          "value": 0.0
        }
      ],
      "rightModuleId": 24,
      "data": {
        "running": false,
        "gates": [
          1,
          0,
          0,
          1,
          1,
          0,
          0,
          0
        ]
      },
      "pos": [
        0,
        1
      ]
    },
    {
      "id": 24,
      "plugin": "Fundamental",
      "version": "1.4.0",
      "model": "Quantizer",
      "params": [],
      "leftModuleId": 23,
      "rightModuleId": 21,
      "data": {
        "enabledNotes": [
          true,
          true,
          true,
          true,
          true,
          true,
          true,
          true,
          true,
          true,
          true,
          true
        ]
      },
      "pos": [
        22,
        1
      ]
    },
    {
      "id": 25,
      "plugin": "Bogaudio",
      "version": "1.1.35",
      "model": "Bogaudio-ADSR",
      "params": [
        {
          "id": 0,
          "value": 0.0344999991
        },
        {
          "id": 1,
          "value": 0.366000324
        },
        {
          "id": 2,
          "value": 0.0
        },
        {
          "id": 3,
          "value": 0.0
        },
        {
          "id": 4,
          "value": 0.0
        }
      ],
      "leftModuleId": 21,
      "rightModuleId": 27,
      "data": {
        "invert": 1.0
      },
      "pos": [
        41,
        1
      ]
    },
    {
      "id": 27,
      "plugin": "Bogaudio",
      "version": "1.1.35",
      "model": "Bogaudio-Sine",
      "params": [
        {
          "id": 0,
          "value": 2.24099898
        },
        {
          "id": 1,
          "value": 1.0
        },
        {
          "id": 2,
          "value": 0.0
        },
        {
          "id": 3,
          "value": 0.0
        }
      ],
      "leftModuleId": 25,
      "rightModuleId": 28,
      "data": {
        "poly_input": 0,
        "wave": 0,
        "fm_mode": false,
        "linear_mode": false
      },
      "pos": [
        44,
        1
      ]
    },
    {
      "id": 28,
      "plugin": "Fundamental",
      "version": "1.4.0",
      "model": "VCF",
      "params": [
        {
          "id": 0,
          "value": 0.576500177
        },
        {
          "id": 1,
          "value": 0.5
        },
        {
          "id": 2,
          "value": 0.334499568
        },
        {
          "id": 3,
          "value": 0.636999726
        },
        {
          "id": 4,
          "value": 0.32100004
        }
      ],
      "leftModuleId": 27,
      "rightModuleId": 29,
      "pos": [
        47,
        1
      ]
    },
    {
      "id": 29,
      "plugin": "Bogaudio",
      "version": "1.1.35",
      "model": "Bogaudio-ADSR",
      "params": [
        {
          "id": 0,
          "value": 0.0
        },
        {
          "id": 1,
          "value": 0.153000176
        },
        {
          "id": 2,
          "value": 0.0
        },
        {
          "id": 3,
          "value": 0.0
        },
        {
          "id": 4,
          "value": 0.0
        }
      ],
      "leftModuleId": 28,
      "rightModuleId": 34,
      "data": {
        "invert": 1.0
      },
      "pos": [
        55,
        1
      ]
    },
    {
      "id": 30,
      "plugin": "AudibleInstruments",
      "version": "1.5.0",
      "model": "Clouds",
      "params": [
        {
          "id": 0,
          "value": 0.0
        },
        {
          "id": 1,
          "value": 0.0
        },
        {
          "id": 2,
          "value": 0.0
        },
        {
          "id": 3,
          "value": 0.811999917
        },
        {
          "id": 4,
          "value": 1.0
        },
        {
          "id": 5,
          "value": 1.18800044
        },
        {
          "id": 6,
          "value": 1.0
        },
        {
          "id": 7,
          "value": 0.936499953
        },
        {
          "id": 8,
          "value": 0.930499792
        },
        {
          "id": 9,
          "value": 0.461500466
        },
        {
          "id": 10,
          "value": 0.771000087
        },
        {
          "id": 11,
          "value": 0.23849982
        },
        {
          "id": 12,
          "value": 0.426000327
        }
      ],
      "leftModuleId": 36,
      "data": {
        "playback": 0,
        "quality": 0,
        "blendMode": 3
      },
      "pos": [
        50,
        2
      ]
    },
    {
      "id": 34,
      "plugin": "Fundamental",
      "version": "1.4.0",
      "model": "VCMixer",
      "params": [
        {
          "id": 0,
          "value": 1.0
        },
        {
          "id": 1,
          "value": 1.0
        },
        {
          "id": 2,
          "value": 1.0
        },
        {
          "id": 3,
          "value": 1.0
        },
        {
          "id": 4,
          "value": 1.0
        }
      ],
      "leftModuleId": 29,
      "pos": [
        58,
        1
      ]
    },
    {
      "id": 36,
      "plugin": "ML_modules",
      "version": "1.1.3",
      "model": "FreeVerb",
      "params": [
        {
          "id": 0,
          "value": 0.468999982
        },
        {
          "id": 1,
          "value": 0.0
        },
        {
          "id": 2,
          "value": 0.0
        }
      ],
      "leftModuleId": 37,
      "rightModuleId": 30,
      "pos": [
        44,
        2
      ]
    },
    {
      "id": 37,
      "plugin": "ML_modules",
      "version": "1.1.3",
      "model": "FreeVerb",
      "params": [
        {
          "id": 0,
          "value": 0.453999966
        },
        {
          "id": 1,
          "value": 0.0
        },
        {
          "id": 2,
          "value": 0.0
        }
      ],
      "leftModuleId": 38,
      "rightModuleId": 36,
      "pos": [
        38,
        2
      ]
    },
    {
      "id": 38,
      "plugin": "Bogaudio",
      "version": "1.1.35",
      "model": "Bogaudio-Mix2",
      "params": [
        {
          "id": 0,
          "value": 0.909090936
        },
        {
          "id": 1,
          "value": 0.0
        }
      ],
      "leftModuleId": 39,
      "rightModuleId": 37,
      "data": {},
      "pos": [
        33,
        2
      ]
    },
    {
      "id": 39,
      "plugin": "Bogaudio",
      "version": "1.1.35",
      "model": "Bogaudio-Mix2",
      "params": [
        {
          "id": 0,
          "value": 0.909090936
        },
        {
          "id": 1,
          "value": 0.0
        }
      ],
      "rightModuleId": 38,
      "data": {},
      "pos": [
        28,
        2
      ]
    }
  ],
  "cables": [
    {
      "id": 14,
      "outputModuleId": 23,
      "outputId": 0,
      "inputModuleId": 21,
      "inputId": 0,
      "color": "#0986ad"
    },
    {
      "id": 15,
      "outputModuleId": 24,
      "outputId": 0,
      "inputModuleId": 21,
      "inputId": 1,
      "color": "#c9b70e"
    },
    {
      "id": 16,
      "outputModuleId": 23,
      "outputId": 1,
      "inputModuleId": 24,
      "inputId": 0,
      "color": "#0c8e15"
    },
    {
      "id": 17,
      "outputModuleId": 23,
      "outputId": 0,
      "inputModuleId": 25,
      "inputId": 0,
      "color": "#c91847"
    },
    {
      "id": 22,
      "outputModuleId": 24,
      "outputId": 0,
      "inputModuleId": 27,
      "inputId": 0,
      "color": "#c9b70e"
    },
    {
      "id": 21,
      "outputModuleId": 27,
      "outputId": 0,
      "inputModuleId": 21,
      "inputId": 3,
      "color": "#0986ad"
    },
    {
      "id": 25,
      "outputModuleId": 29,
      "outputId": 0,
      "inputModuleId": 28,
      "inputId": 0,
      "color": "#c9b70e"
    },
    {
      "id": 26,
      "outputModuleId": 23,
      "outputId": 0,
      "inputModuleId": 29,
      "inputId": 0,
      "color": "#0c8e15"
    },
    {
      "id": 20,
      "outputModuleId": 21,
      "outputId": 0,
      "inputModuleId": 28,
      "inputId": 3,
      "color": "#c91847"
    },
    {
      "id": 54,
      "outputModuleId": 28,
      "outputId": 0,
      "inputModuleId": 34,
      "inputId": 1,
      "color": "#c9b70e"
    },
    {
      "id": 55,
      "outputModuleId": 11,
      "outputId": 1,
      "inputModuleId": 1,
      "inputId": 0,
      "color": "#c91847"
    },
    {
      "id": 56,
      "outputModuleId": 11,
      "outputId": 2,
      "inputModuleId": 1,
      "inputId": 1,
      "color": "#0986ad"
    },
    {
      "id": 58,
      "outputModuleId": 25,
      "outputId": 0,
      "inputModuleId": 34,
      "inputId": 5,
      "color": "#0c8e15"
    },
    {
      "id": 59,
      "outputModuleId": 34,
      "outputId": 0,
      "inputModuleId": 30,
      "inputId": 6,
      "color": "#c91847"
    },
    {
      "id": 60,
      "outputModuleId": 34,
      "outputId": 0,
      "inputModuleId": 30,
      "inputId": 7,
      "color": "#0986ad"
    },
    {
      "id": 63,
      "outputModuleId": 30,
      "outputId": 0,
      "inputModuleId": 36,
      "inputId": 0,
      "color": "#c91847"
    },
    {
      "id": 64,
      "outputModuleId": 30,
      "outputId": 1,
      "inputModuleId": 37,
      "inputId": 0,
      "color": "#c9b70e"
    },
    {
      "id": 65,
      "outputModuleId": 37,
      "outputId": 0,
      "inputModuleId": 38,
      "inputId": 2,
      "color": "#0c8e15"
    },
    {
      "id": 66,
      "outputModuleId": 36,
      "outputId": 0,
      "inputModuleId": 38,
      "inputId": 3,
      "color": "#c91847"
    },
    {
      "id": 67,
      "outputModuleId": 38,
      "outputId": 0,
      "inputModuleId": 11,
      "inputId": 1,
      "color": "#0986ad"
    },
    {
      "id": 68,
      "outputModuleId": 36,
      "outputId": 1,
      "inputModuleId": 39,
      "inputId": 2,
      "color": "#c9b70e"
    },
    {
      "id": 69,
      "outputModuleId": 37,
      "outputId": 1,
      "inputModuleId": 39,
      "inputId": 3,
      "color": "#0c8e15"
    },
    {
      "id": 70,
      "outputModuleId": 39,
      "outputId": 0,
      "inputModuleId": 11,
      "inputId": 2,
      "color": "#c91847"
    }
  ]
}