{
  "version": "1.1.6",
  "modules": [
    {
      "id": 399,
      "plugin": "Core",
      "version": "1.1.6",
      "model": "AudioInterface",
      "params": [],
      "leftModuleId": 772,
      "rightModuleId": 440,
      "data": {
        "audio": {
          "driver": 5,
          "deviceName": "Apple Inc.: MAMA",
          "offset": 0,
          "maxChannels": 8,
          "sampleRate": 48000,
          "blockSize": 1024
        }
      },
      "pos": [
        139,
        1
      ]
    },
    {
      "id": 440,
      "plugin": "Stoermelder-P1",
      "version": "1.8.0",
      "model": "Mb",
      "params": [],
      "leftModuleId": 399,
      "data": {
        "mode": 1
      },
      "pos": [
        149,
        1
      ]
    },
    {
      "id": 576,
      "plugin": "MindMeldModular",
      "version": "1.1.12",
      "model": "MixMaster",
      "params": [
        {
          "id": 0,
          "value": 0.663600922
        },
        {
          "id": 1,
          "value": 1.0
        },
        {
          "id": 2,
          "value": 1.0
        },
        {
          "id": 3,
          "value": 1.0
        },
        {
          "id": 4,
          "value": 1.0
        },
        {
          "id": 5,
          "value": 1.0
        },
        {
          "id": 6,
          "value": 1.0
        },
        {
          "id": 7,
          "value": 1.0
        },
        {
          "id": 8,
          "value": 1.0
        },
        {
          "id": 9,
          "value": 1.0
        },
        {
          "id": 10,
          "value": 1.0
        },
        {
          "id": 11,
          "value": 1.0
        },
        {
          "id": 12,
          "value": 1.0
        },
        {
          "id": 13,
          "value": 1.0
        },
        {
          "id": 14,
          "value": 1.0
        },
        {
          "id": 15,
          "value": 1.0
        },
        {
          "id": 16,
          "value": 1.0
        },
        {
          "id": 17,
          "value": 1.0
        },
        {
          "id": 18,
          "value": 1.0
        },
        {
          "id": 19,
          "value": 1.0
        },
        {
          "id": 20,
          "value": 0.5
        },
        {
          "id": 21,
          "value": 0.5
        },
        {
          "id": 22,
          "value": 0.5
        },
        {
          "id": 23,
          "value": 0.5
        },
        {
          "id": 24,
          "value": 0.5
        },
        {
          "id": 25,
          "value": 0.5
        },
        {
          "id": 26,
          "value": 0.5
        },
        {
          "id": 27,
          "value": 0.5
        },
        {
          "id": 28,
          "value": 0.5
        },
        {
          "id": 29,
          "value": 0.5
        },
        {
          "id": 30,
          "value": 0.5
        },
        {
          "id": 31,
          "value": 0.5
        },
        {
          "id": 32,
          "value": 0.5
        },
        {
          "id": 33,
          "value": 0.5
        },
        {
          "id": 34,
          "value": 0.5
        },
        {
          "id": 35,
          "value": 0.5
        },
        {
          "id": 36,
          "value": 0.5
        },
        {
          "id": 37,
          "value": 0.5
        },
        {
          "id": 38,
          "value": 0.5
        },
        {
          "id": 39,
          "value": 0.5
        },
        {
          "id": 40,
          "value": 0.0
        },
        {
          "id": 41,
          "value": 0.0
        },
        {
          "id": 42,
          "value": 0.0
        },
        {
          "id": 43,
          "value": 0.0
        },
        {
          "id": 44,
          "value": 0.0
        },
        {
          "id": 45,
          "value": 0.0
        },
        {
          "id": 46,
          "value": 0.0
        },
        {
          "id": 47,
          "value": 0.0
        },
        {
          "id": 48,
          "value": 0.0
        },
        {
          "id": 49,
          "value": 0.0
        },
        {
          "id": 50,
          "value": 0.0
        },
        {
          "id": 51,
          "value": 0.0
        },
        {
          "id": 52,
          "value": 0.0
        },
        {
          "id": 53,
          "value": 0.0
        },
        {
          "id": 54,
          "value": 0.0
        },
        {
          "id": 55,
          "value": 0.0
        },
        {
          "id": 56,
          "value": 0.0
        },
        {
          "id": 57,
          "value": 0.0
        },
        {
          "id": 58,
          "value": 0.0
        },
        {
          "id": 59,
          "value": 0.0
        },
        {
          "id": 60,
          "value": 0.0
        },
        {
          "id": 61,
          "value": 0.0
        },
        {
          "id": 62,
          "value": 0.0
        },
        {
          "id": 63,
          "value": 0.0
        },
        {
          "id": 64,
          "value": 0.0
        },
        {
          "id": 65,
          "value": 0.0
        },
        {
          "id": 66,
          "value": 0.0
        },
        {
          "id": 67,
          "value": 0.0
        },
        {
          "id": 68,
          "value": 0.0
        },
        {
          "id": 69,
          "value": 0.0
        },
        {
          "id": 70,
          "value": 0.0
        },
        {
          "id": 71,
          "value": 0.0
        },
        {
          "id": 72,
          "value": 0.0
        },
        {
          "id": 73,
          "value": 0.0
        },
        {
          "id": 74,
          "value": 0.0
        },
        {
          "id": 75,
          "value": 0.0
        },
        {
          "id": 76,
          "value": 0.0
        },
        {
          "id": 77,
          "value": 0.0
        },
        {
          "id": 78,
          "value": 0.0
        },
        {
          "id": 79,
          "value": 0.0
        },
        {
          "id": 80,
          "value": 0.0
        },
        {
          "id": 81,
          "value": 0.0
        },
        {
          "id": 82,
          "value": 0.0
        },
        {
          "id": 83,
          "value": 1.0
        },
        {
          "id": 84,
          "value": 0.0
        },
        {
          "id": 85,
          "value": 0.0
        },
        {
          "id": 86,
          "value": 0.0
        },
        {
          "id": 87,
          "value": 0.0
        },
        {
          "id": 88,
          "value": 0.0
        },
        {
          "id": 89,
          "value": 0.0
        },
        {
          "id": 90,
          "value": 0.0
        },
        {
          "id": 91,
          "value": 0.0
        },
        {
          "id": 92,
          "value": 0.0
        },
        {
          "id": 93,
          "value": 0.0
        },
        {
          "id": 94,
          "value": 0.0
        },
        {
          "id": 95,
          "value": 0.0
        },
        {
          "id": 96,
          "value": 0.0
        },
        {
          "id": 97,
          "value": 0.0
        },
        {
          "id": 98,
          "value": 0.0
        },
        {
          "id": 99,
          "value": 0.0
        },
        {
          "id": 100,
          "value": 13.0
        },
        {
          "id": 101,
          "value": 13.0
        },
        {
          "id": 102,
          "value": 13.0
        },
        {
          "id": 103,
          "value": 13.0
        },
        {
          "id": 104,
          "value": 13.0
        },
        {
          "id": 105,
          "value": 13.0
        },
        {
          "id": 106,
          "value": 13.0
        },
        {
          "id": 107,
          "value": 13.0
        },
        {
          "id": 108,
          "value": 13.0
        },
        {
          "id": 109,
          "value": 13.0
        },
        {
          "id": 110,
          "value": 13.0
        },
        {
          "id": 111,
          "value": 13.0
        },
        {
          "id": 112,
          "value": 13.0
        },
        {
          "id": 113,
          "value": 13.0
        },
        {
          "id": 114,
          "value": 13.0
        },
        {
          "id": 115,
          "value": 13.0
        },
        {
          "id": 116,
          "value": 20010.0
        },
        {
          "id": 117,
          "value": 20010.0
        },
        {
          "id": 118,
          "value": 20010.0
        },
        {
          "id": 119,
          "value": 20010.0
        },
        {
          "id": 120,
          "value": 20010.0
        },
        {
          "id": 121,
          "value": 20010.0
        },
        {
          "id": 122,
          "value": 20010.0
        },
        {
          "id": 123,
          "value": 20010.0
        },
        {
          "id": 124,
          "value": 20010.0
        },
        {
          "id": 125,
          "value": 20010.0
        },
        {
          "id": 126,
          "value": 20010.0
        },
        {
          "id": 127,
          "value": 20010.0
        },
        {
          "id": 128,
          "value": 20010.0
        },
        {
          "id": 129,
          "value": 20010.0
        },
        {
          "id": 130,
          "value": 20010.0
        },
        {
          "id": 131,
          "value": 20010.0
        },
        {
          "id": 132,
          "value": 13.0
        },
        {
          "id": 133,
          "value": 13.0
        },
        {
          "id": 134,
          "value": 13.0
        },
        {
          "id": 135,
          "value": 13.0
        },
        {
          "id": 136,
          "value": 20010.0
        },
        {
          "id": 137,
          "value": 20010.0
        },
        {
          "id": 138,
          "value": 20010.0
        },
        {
          "id": 139,
          "value": 20010.0
        }
      ],
      "leftModuleId": 579,
      "rightModuleId": 577,
      "data": {
        "trackLabels": "-01--02--03--04--05--06--07--08--09--10--11--12--13--14--15--16-GRP1GRP2GRP3GRP4",
        "panLawMono": 1,
        "panLawStereo": 1,
        "directOutsMode": 3,
        "directOutsSkipGroupedTracks": 0,
        "auxSendsMode": 3,
        "groupsControlTrackSendLevels": 0,
        "auxReturnsMutedWhenMainSolo": 0,
        "auxReturnsSolosMuteDry": 0,
        "chainMode": 0,
        "colorAndCloak": 117440512,
        "symmetricalFade": false,
        "fadeCvOutsWithVolCv": false,
        "linkBitMask": 0,
        "filterPos": 1,
        "groupedAuxReturnFeedbackProtection": 1,
        "ecoMode": 65535,
        "faders": [
          0.663600922,
          1.0,
          1.0,
          1.0,
          1.0,
          1.0,
          1.0,
          1.0,
          1.0,
          1.0,
          1.0,
          1.0,
          1.0,
          1.0,
          1.0,
          1.0,
          1.0,
          1.0,
          1.0,
          1.0
        ],
        "momentaryCvButtons": 1,
        "masterFaderScalesSends": 0,
        "linearVolCvInputs": 0,
        "id_t0_gainAdjust": 1.0,
        "id_t0_fadeRate": 0.0,
        "id_t0_fadeProfile": 0.0,
        "id_t0_directOutsMode": 3,
        "id_t0_auxSendsMode": 3,
        "id_t0_panLawStereo": 1,
        "id_t0_vuColorThemeLocal": 0,
        "id_t0_filterPos": 1,
        "id_t0_dispColorLocal": 0,
        "id_t0_polyStereo": 0,
        "id_t0_panCvLevel": 1.0,
        "id_t0_stereoWidth": 1.0,
        "id_t0_invertInput": 0,
        "id_t1_gainAdjust": 1.0,
        "id_t1_fadeRate": 0.0,
        "id_t1_fadeProfile": 0.0,
        "id_t1_directOutsMode": 3,
        "id_t1_auxSendsMode": 3,
        "id_t1_panLawStereo": 1,
        "id_t1_vuColorThemeLocal": 0,
        "id_t1_filterPos": 1,
        "id_t1_dispColorLocal": 0,
        "id_t1_polyStereo": 0,
        "id_t1_panCvLevel": 1.0,
        "id_t1_stereoWidth": 1.0,
        "id_t1_invertInput": 0,
        "id_t2_gainAdjust": 1.0,
        "id_t2_fadeRate": 0.0,
        "id_t2_fadeProfile": 0.0,
        "id_t2_directOutsMode": 3,
        "id_t2_auxSendsMode": 3,
        "id_t2_panLawStereo": 1,
        "id_t2_vuColorThemeLocal": 0,
        "id_t2_filterPos": 1,
        "id_t2_dispColorLocal": 0,
        "id_t2_polyStereo": 0,
        "id_t2_panCvLevel": 1.0,
        "id_t2_stereoWidth": 1.0,
        "id_t2_invertInput": 0,
        "id_t3_gainAdjust": 1.0,
        "id_t3_fadeRate": 0.0,
        "id_t3_fadeProfile": 0.0,
        "id_t3_directOutsMode": 3,
        "id_t3_auxSendsMode": 3,
        "id_t3_panLawStereo": 1,
        "id_t3_vuColorThemeLocal": 0,
        "id_t3_filterPos": 1,
        "id_t3_dispColorLocal": 0,
        "id_t3_polyStereo": 0,
        "id_t3_panCvLevel": 1.0,
        "id_t3_stereoWidth": 1.0,
        "id_t3_invertInput": 0,
        "id_t4_gainAdjust": 1.0,
        "id_t4_fadeRate": 0.0,
        "id_t4_fadeProfile": 0.0,
        "id_t4_directOutsMode": 3,
        "id_t4_auxSendsMode": 3,
        "id_t4_panLawStereo": 1,
        "id_t4_vuColorThemeLocal": 0,
        "id_t4_filterPos": 1,
        "id_t4_dispColorLocal": 0,
        "id_t4_polyStereo": 0,
        "id_t4_panCvLevel": 1.0,
        "id_t4_stereoWidth": 1.0,
        "id_t4_invertInput": 0,
        "id_t5_gainAdjust": 1.0,
        "id_t5_fadeRate": 0.0,
        "id_t5_fadeProfile": 0.0,
        "id_t5_directOutsMode": 3,
        "id_t5_auxSendsMode": 3,
        "id_t5_panLawStereo": 1,
        "id_t5_vuColorThemeLocal": 0,
        "id_t5_filterPos": 1,
        "id_t5_dispColorLocal": 0,
        "id_t5_polyStereo": 0,
        "id_t5_panCvLevel": 1.0,
        "id_t5_stereoWidth": 1.0,
        "id_t5_invertInput": 0,
        "id_t6_gainAdjust": 1.0,
        "id_t6_fadeRate": 0.0,
        "id_t6_fadeProfile": 0.0,
        "id_t6_directOutsMode": 3,
        "id_t6_auxSendsMode": 3,
        "id_t6_panLawStereo": 1,
        "id_t6_vuColorThemeLocal": 0,
        "id_t6_filterPos": 1,
        "id_t6_dispColorLocal": 0,
        "id_t6_polyStereo": 0,
        "id_t6_panCvLevel": 1.0,
        "id_t6_stereoWidth": 1.0,
        "id_t6_invertInput": 0,
        "id_t7_gainAdjust": 1.0,
        "id_t7_fadeRate": 0.0,
        "id_t7_fadeProfile": 0.0,
        "id_t7_directOutsMode": 3,
        "id_t7_auxSendsMode": 3,
        "id_t7_panLawStereo": 1,
        "id_t7_vuColorThemeLocal": 0,
        "id_t7_filterPos": 1,
        "id_t7_dispColorLocal": 0,
        "id_t7_polyStereo": 0,
        "id_t7_panCvLevel": 1.0,
        "id_t7_stereoWidth": 1.0,
        "id_t7_invertInput": 0,
        "id_t8_gainAdjust": 1.0,
        "id_t8_fadeRate": 0.0,
        "id_t8_fadeProfile": 0.0,
        "id_t8_directOutsMode": 3,
        "id_t8_auxSendsMode": 3,
        "id_t8_panLawStereo": 1,
        "id_t8_vuColorThemeLocal": 0,
        "id_t8_filterPos": 1,
        "id_t8_dispColorLocal": 0,
        "id_t8_polyStereo": 0,
        "id_t8_panCvLevel": 1.0,
        "id_t8_stereoWidth": 1.0,
        "id_t8_invertInput": 0,
        "id_t9_gainAdjust": 1.0,
        "id_t9_fadeRate": 0.0,
        "id_t9_fadeProfile": 0.0,
        "id_t9_directOutsMode": 3,
        "id_t9_auxSendsMode": 3,
        "id_t9_panLawStereo": 1,
        "id_t9_vuColorThemeLocal": 0,
        "id_t9_filterPos": 1,
        "id_t9_dispColorLocal": 0,
        "id_t9_polyStereo": 0,
        "id_t9_panCvLevel": 1.0,
        "id_t9_stereoWidth": 1.0,
        "id_t9_invertInput": 0,
        "id_t10_gainAdjust": 1.0,
        "id_t10_fadeRate": 0.0,
        "id_t10_fadeProfile": 0.0,
        "id_t10_directOutsMode": 3,
        "id_t10_auxSendsMode": 3,
        "id_t10_panLawStereo": 1,
        "id_t10_vuColorThemeLocal": 0,
        "id_t10_filterPos": 1,
        "id_t10_dispColorLocal": 0,
        "id_t10_polyStereo": 0,
        "id_t10_panCvLevel": 1.0,
        "id_t10_stereoWidth": 1.0,
        "id_t10_invertInput": 0,
        "id_t11_gainAdjust": 1.0,
        "id_t11_fadeRate": 0.0,
        "id_t11_fadeProfile": 0.0,
        "id_t11_directOutsMode": 3,
        "id_t11_auxSendsMode": 3,
        "id_t11_panLawStereo": 1,
        "id_t11_vuColorThemeLocal": 0,
        "id_t11_filterPos": 1,
        "id_t11_dispColorLocal": 0,
        "id_t11_polyStereo": 0,
        "id_t11_panCvLevel": 1.0,
        "id_t11_stereoWidth": 1.0,
        "id_t11_invertInput": 0,
        "id_t12_gainAdjust": 1.0,
        "id_t12_fadeRate": 0.0,
        "id_t12_fadeProfile": 0.0,
        "id_t12_directOutsMode": 3,
        "id_t12_auxSendsMode": 3,
        "id_t12_panLawStereo": 1,
        "id_t12_vuColorThemeLocal": 0,
        "id_t12_filterPos": 1,
        "id_t12_dispColorLocal": 0,
        "id_t12_polyStereo": 0,
        "id_t12_panCvLevel": 1.0,
        "id_t12_stereoWidth": 1.0,
        "id_t12_invertInput": 0,
        "id_t13_gainAdjust": 1.0,
        "id_t13_fadeRate": 0.0,
        "id_t13_fadeProfile": 0.0,
        "id_t13_directOutsMode": 3,
        "id_t13_auxSendsMode": 3,
        "id_t13_panLawStereo": 1,
        "id_t13_vuColorThemeLocal": 0,
        "id_t13_filterPos": 1,
        "id_t13_dispColorLocal": 0,
        "id_t13_polyStereo": 0,
        "id_t13_panCvLevel": 1.0,
        "id_t13_stereoWidth": 1.0,
        "id_t13_invertInput": 0,
        "id_t14_gainAdjust": 1.0,
        "id_t14_fadeRate": 0.0,
        "id_t14_fadeProfile": 0.0,
        "id_t14_directOutsMode": 3,
        "id_t14_auxSendsMode": 3,
        "id_t14_panLawStereo": 1,
        "id_t14_vuColorThemeLocal": 0,
        "id_t14_filterPos": 1,
        "id_t14_dispColorLocal": 0,
        "id_t14_polyStereo": 0,
        "id_t14_panCvLevel": 1.0,
        "id_t14_stereoWidth": 1.0,
        "id_t14_invertInput": 0,
        "id_t15_gainAdjust": 1.0,
        "id_t15_fadeRate": 0.0,
        "id_t15_fadeProfile": 0.0,
        "id_t15_directOutsMode": 3,
        "id_t15_auxSendsMode": 3,
        "id_t15_panLawStereo": 1,
        "id_t15_vuColorThemeLocal": 0,
        "id_t15_filterPos": 1,
        "id_t15_dispColorLocal": 0,
        "id_t15_polyStereo": 0,
        "id_t15_panCvLevel": 1.0,
        "id_t15_stereoWidth": 1.0,
        "id_t15_invertInput": 0,
        "id_g0_fadeRate": 0.0,
        "id_g0_fadeProfile": 0.0,
        "id_g0_directOutsMode": 3,
        "id_g0_auxSendsMode": 3,
        "id_g0_panLawStereo": 1,
        "id_g0_vuColorThemeLocal": 0,
        "id_g0_filterPos": 1,
        "id_g0_dispColorLocal": 0,
        "id_g0_panCvLevel": 1.0,
        "id_g0_stereoWidth": 1.0,
        "id_g1_fadeRate": 0.0,
        "id_g1_fadeProfile": 0.0,
        "id_g1_directOutsMode": 3,
        "id_g1_auxSendsMode": 3,
        "id_g1_panLawStereo": 1,
        "id_g1_vuColorThemeLocal": 0,
        "id_g1_filterPos": 1,
        "id_g1_dispColorLocal": 0,
        "id_g1_panCvLevel": 1.0,
        "id_g1_stereoWidth": 1.0,
        "id_g2_fadeRate": 0.0,
        "id_g2_fadeProfile": 0.0,
        "id_g2_directOutsMode": 3,
        "id_g2_auxSendsMode": 3,
        "id_g2_panLawStereo": 1,
        "id_g2_vuColorThemeLocal": 0,
        "id_g2_filterPos": 1,
        "id_g2_dispColorLocal": 0,
        "id_g2_panCvLevel": 1.0,
        "id_g2_stereoWidth": 1.0,
        "id_g3_fadeRate": 0.0,
        "id_g3_fadeProfile": 0.0,
        "id_g3_directOutsMode": 3,
        "id_g3_auxSendsMode": 3,
        "id_g3_panLawStereo": 1,
        "id_g3_vuColorThemeLocal": 0,
        "id_g3_filterPos": 1,
        "id_g3_dispColorLocal": 0,
        "id_g3_panCvLevel": 1.0,
        "id_g3_stereoWidth": 1.0,
        "dcBlock": false,
        "clipping": 0,
        "fadeRate": 0.0,
        "fadeProfile": 0.0,
        "vuColorThemeLocal": 0,
        "dispColorLocal": 0,
        "chainOnly": 0,
        "dimGain": 0.251190007,
        "masterLabel": "MASTER"
      },
      "pos": [
        6,
        2
      ]
    },
    {
      "id": 577,
      "plugin": "MindMeldModular",
      "version": "1.1.12",
      "model": "AuxExpander",
      "params": [
        {
          "id": 0,
          "value": 0.0
        },
        {
          "id": 1,
          "value": 0.0
        },
        {
          "id": 2,
          "value": 0.0
        },
        {
          "id": 3,
          "value": 0.0
        },
        {
          "id": 4,
          "value": 0.0
        },
        {
          "id": 5,
          "value": 0.0
        },
        {
          "id": 6,
          "value": 0.0
        },
        {
          "id": 7,
          "value": 0.0
        },
        {
          "id": 8,
          "value": 0.0
        },
        {
          "id": 9,
          "value": 0.0
        },
        {
          "id": 10,
          "value": 0.0
        },
        {
          "id": 11,
          "value": 0.0
        },
        {
          "id": 12,
          "value": 0.0
        },
        {
          "id": 13,
          "value": 0.0
        },
        {
          "id": 14,
          "value": 0.0
        },
        {
          "id": 15,
          "value": 0.0
        },
        {
          "id": 16,
          "value": 0.0
        },
        {
          "id": 17,
          "value": 0.0
        },
        {
          "id": 18,
          "value": 0.0
        },
        {
          "id": 19,
          "value": 0.0
        },
        {
          "id": 20,
          "value": 0.0
        },
        {
          "id": 21,
          "value": 0.0
        },
        {
          "id": 22,
          "value": 0.0
        },
        {
          "id": 23,
          "value": 0.0
        },
        {
          "id": 24,
          "value": 0.0
        },
        {
          "id": 25,
          "value": 0.0
        },
        {
          "id": 26,
          "value": 0.0
        },
        {
          "id": 27,
          "value": 0.0
        },
        {
          "id": 28,
          "value": 0.0
        },
        {
          "id": 29,
          "value": 0.0
        },
        {
          "id": 30,
          "value": 0.0
        },
        {
          "id": 31,
          "value": 0.0
        },
        {
          "id": 32,
          "value": 0.0
        },
        {
          "id": 33,
          "value": 0.0
        },
        {
          "id": 34,
          "value": 0.0
        },
        {
          "id": 35,
          "value": 0.0
        },
        {
          "id": 36,
          "value": 0.0
        },
        {
          "id": 37,
          "value": 0.0
        },
        {
          "id": 38,
          "value": 0.0
        },
        {
          "id": 39,
          "value": 0.0
        },
        {
          "id": 40,
          "value": 0.0
        },
        {
          "id": 41,
          "value": 0.0
        },
        {
          "id": 42,
          "value": 0.0
        },
        {
          "id": 43,
          "value": 0.0
        },
        {
          "id": 44,
          "value": 0.0
        },
        {
          "id": 45,
          "value": 0.0
        },
        {
          "id": 46,
          "value": 0.0
        },
        {
          "id": 47,
          "value": 0.0
        },
        {
          "id": 48,
          "value": 0.0
        },
        {
          "id": 49,
          "value": 0.0
        },
        {
          "id": 50,
          "value": 0.0
        },
        {
          "id": 51,
          "value": 0.0
        },
        {
          "id": 52,
          "value": 0.0
        },
        {
          "id": 53,
          "value": 0.0
        },
        {
          "id": 54,
          "value": 0.0
        },
        {
          "id": 55,
          "value": 0.0
        },
        {
          "id": 56,
          "value": 0.0
        },
        {
          "id": 57,
          "value": 0.0
        },
        {
          "id": 58,
          "value": 0.0
        },
        {
          "id": 59,
          "value": 0.0
        },
        {
          "id": 60,
          "value": 0.0
        },
        {
          "id": 61,
          "value": 0.0
        },
        {
          "id": 62,
          "value": 0.0
        },
        {
          "id": 63,
          "value": 0.0
        },
        {
          "id": 64,
          "value": 0.0
        },
        {
          "id": 65,
          "value": 0.0
        },
        {
          "id": 66,
          "value": 0.0
        },
        {
          "id": 67,
          "value": 0.0
        },
        {
          "id": 68,
          "value": 0.0
        },
        {
          "id": 69,
          "value": 0.0
        },
        {
          "id": 70,
          "value": 0.0
        },
        {
          "id": 71,
          "value": 0.0
        },
        {
          "id": 72,
          "value": 0.0
        },
        {
          "id": 73,
          "value": 0.0
        },
        {
          "id": 74,
          "value": 0.0
        },
        {
          "id": 75,
          "value": 0.0
        },
        {
          "id": 76,
          "value": 0.0
        },
        {
          "id": 77,
          "value": 0.0
        },
        {
          "id": 78,
          "value": 0.0
        },
        {
          "id": 79,
          "value": 0.0
        },
        {
          "id": 80,
          "value": 0.0
        },
        {
          "id": 81,
          "value": 0.0
        },
        {
          "id": 82,
          "value": 0.0
        },
        {
          "id": 83,
          "value": 0.0
        },
        {
          "id": 84,
          "value": 0.0
        },
        {
          "id": 85,
          "value": 0.0
        },
        {
          "id": 86,
          "value": 0.0
        },
        {
          "id": 87,
          "value": 0.0
        },
        {
          "id": 88,
          "value": 0.0
        },
        {
          "id": 89,
          "value": 0.0
        },
        {
          "id": 90,
          "value": 0.0
        },
        {
          "id": 91,
          "value": 0.0
        },
        {
          "id": 92,
          "value": 0.0
        },
        {
          "id": 93,
          "value": 0.0
        },
        {
          "id": 94,
          "value": 0.0
        },
        {
          "id": 95,
          "value": 0.0
        },
        {
          "id": 96,
          "value": 0.0
        },
        {
          "id": 97,
          "value": 0.0
        },
        {
          "id": 98,
          "value": 0.0
        },
        {
          "id": 99,
          "value": 0.0
        },
        {
          "id": 100,
          "value": 0.0
        },
        {
          "id": 101,
          "value": 0.0
        },
        {
          "id": 102,
          "value": 0.0
        },
        {
          "id": 103,
          "value": 0.0
        },
        {
          "id": 104,
          "value": 0.0
        },
        {
          "id": 105,
          "value": 0.0
        },
        {
          "id": 106,
          "value": 0.0
        },
        {
          "id": 107,
          "value": 0.0
        },
        {
          "id": 108,
          "value": 0.0
        },
        {
          "id": 109,
          "value": 0.0
        },
        {
          "id": 110,
          "value": 0.0
        },
        {
          "id": 111,
          "value": 0.0
        },
        {
          "id": 112,
          "value": 1.0
        },
        {
          "id": 113,
          "value": 1.0
        },
        {
          "id": 114,
          "value": 1.0
        },
        {
          "id": 115,
          "value": 1.0
        },
        {
          "id": 116,
          "value": 0.5
        },
        {
          "id": 117,
          "value": 0.5
        },
        {
          "id": 118,
          "value": 0.5
        },
        {
          "id": 119,
          "value": 0.5
        },
        {
          "id": 120,
          "value": 1.0
        },
        {
          "id": 121,
          "value": 1.0
        },
        {
          "id": 122,
          "value": 1.0
        },
        {
          "id": 123,
          "value": 1.0
        }
      ],
      "leftModuleId": 576,
      "data": {
        "directOutsModeLocal": 50529027,
        "panLawStereoLocal": 16843009,
        "vuColorThemeLocal": 0,
        "dispColorAuxLocal": [
          0,
          0,
          0,
          0
        ],
        "auxFadeRatesAndProfiles": [
          0.0,
          0.0,
          0.0,
          0.0,
          0.0,
          0.0,
          0.0,
          0.0
        ],
        "auxLabels": "AUXAAUXBAUXCAUXD",
        "id_x0_hpfCutoffFreq": 13.0,
        "id_x0_lpfCutoffFreq": 20010.0,
        "id_x0_stereoWidth": 1.0,
        "id_x1_hpfCutoffFreq": 13.0,
        "id_x1_lpfCutoffFreq": 20010.0,
        "id_x1_stereoWidth": 1.0,
        "id_x2_hpfCutoffFreq": 13.0,
        "id_x2_lpfCutoffFreq": 20010.0,
        "id_x2_stereoWidth": 1.0,
        "id_x3_hpfCutoffFreq": 13.0,
        "id_x3_lpfCutoffFreq": 20010.0,
        "id_x3_stereoWidth": 1.0,
        "panCvLevels": [
          1.0,
          1.0,
          1.0,
          1.0
        ]
      },
      "pos": [
        67,
        2
      ]
    },
    {
      "id": 579,
      "plugin": "LittleUtils",
      "version": "1.0.3",
      "model": "TeleportOut",
      "params": [],
      "leftModuleId": 580,
      "rightModuleId": 576,
      "data": {
        "label": ""
      },
      "pos": [
        3,
        2
      ]
    },
    {
      "id": 580,
      "plugin": "LittleUtils",
      "version": "1.0.3",
      "model": "TeleportOut",
      "params": [],
      "rightModuleId": 579,
      "data": {
        "label": ""
      },
      "pos": [
        0,
        2
      ]
    },
    {
      "id": 760,
      "plugin": "MM_Tools",
      "version": "1.0.2",
      "model": "SHEight",
      "params": [
        {
          "id": 0,
          "value": 120.0
        },
        {
          "id": 1,
          "value": 100.0
        },
        {
          "id": 2,
          "value": 100.0
        },
        {
          "id": 3,
          "value": 100.0
        },
        {
          "id": 4,
          "value": 100.0
        },
        {
          "id": 5,
          "value": 100.0
        },
        {
          "id": 6,
          "value": 100.0
        },
        {
          "id": 7,
          "value": 100.0
        },
        {
          "id": 8,
          "value": 100.0
        },
        {
          "id": 9,
          "value": 1.0
        },
        {
          "id": 10,
          "value": 1.0
        },
        {
          "id": 11,
          "value": 1.0
        },
        {
          "id": 12,
          "value": 1.0
        },
        {
          "id": 13,
          "value": 1.0
        },
        {
          "id": 14,
          "value": 1.0
        },
        {
          "id": 15,
          "value": 1.0
        },
        {
          "id": 16,
          "value": 1.0
        },
        {
          "id": 17,
          "value": -2.0
        },
        {
          "id": 18,
          "value": -5.0
        },
        {
          "id": 19,
          "value": -5.0
        },
        {
          "id": 20,
          "value": -5.0
        },
        {
          "id": 21,
          "value": -5.0
        },
        {
          "id": 22,
          "value": -5.0
        },
        {
          "id": 23,
          "value": -5.0
        },
        {
          "id": 24,
          "value": -5.0
        },
        {
          "id": 25,
          "value": 2.0
        },
        {
          "id": 26,
          "value": 5.0
        },
        {
          "id": 27,
          "value": 5.0
        },
        {
          "id": 28,
          "value": 5.0
        },
        {
          "id": 29,
          "value": 5.0
        },
        {
          "id": 30,
          "value": 5.0
        },
        {
          "id": 31,
          "value": 5.0
        },
        {
          "id": 32,
          "value": 5.0
        },
        {
          "id": 33,
          "value": 0.0
        },
        {
          "id": 34,
          "value": 0.0
        },
        {
          "id": 35,
          "value": 0.0
        },
        {
          "id": 36,
          "value": 0.0
        },
        {
          "id": 37,
          "value": 0.0
        },
        {
          "id": 38,
          "value": 0.0
        },
        {
          "id": 39,
          "value": 0.0
        },
        {
          "id": 40,
          "value": 0.0
        },
        {
          "id": 41,
          "value": 0.0
        }
      ],
      "rightModuleId": 773,
      "pos": [
        31,
        1
      ]
    },
    {
      "id": 761,
      "plugin": "ImpromptuModular",
      "version": "1.1.10",
      "model": "Clocked",
      "params": [
        {
          "id": 0,
          "value": 120.0
        },
        {
          "id": 1,
          "value": 2.0
        },
        {
          "id": 2,
          "value": 0.0
        },
        {
          "id": 3,
          "value": 0.0
        },
        {
          "id": 4,
          "value": 0.0
        },
        {
          "id": 5,
          "value": 0.0
        },
        {
          "id": 6,
          "value": 0.0
        },
        {
          "id": 7,
          "value": 0.0
        },
        {
          "id": 8,
          "value": 0.5
        },
        {
          "id": 9,
          "value": 0.5
        },
        {
          "id": 10,
          "value": 0.5
        },
        {
          "id": 11,
          "value": 0.5
        },
        {
          "id": 12,
          "value": 0.0
        },
        {
          "id": 13,
          "value": 0.0
        },
        {
          "id": 14,
          "value": 0.0
        },
        {
          "id": 15,
          "value": 0.0
        },
        {
          "id": 16,
          "value": 0.0
        },
        {
          "id": 17,
          "value": 0.0
        },
        {
          "id": 18,
          "value": 0.0
        },
        {
          "id": 19,
          "value": 0.0
        }
      ],
      "rightModuleId": 798,
      "data": {
        "panelTheme": 0,
        "running": true,
        "displayDelayNoteMode": true,
        "bpmDetectionMode": false,
        "resetOnStartStop": 0,
        "ppqn": 4,
        "resetClockOutputsHigh": true,
        "momentaryRunInput": true,
        "clockMaster": false
      },
      "pos": [
        0,
        1
      ]
    },
    {
      "id": 762,
      "plugin": "Fundamental",
      "version": "1.4.0",
      "model": "Scope",
      "params": [
        {
          "id": 0,
          "value": 0.0
        },
        {
          "id": 1,
          "value": 0.0
        },
        {
          "id": 2,
          "value": 0.0
        },
        {
          "id": 3,
          "value": 0.0
        },
        {
          "id": 4,
          "value": 6.0
        },
        {
          "id": 5,
          "value": 0.0
        },
        {
          "id": 6,
          "value": 0.0
        },
        {
          "id": 7,
          "value": 0.0
        }
      ],
      "leftModuleId": 787,
      "rightModuleId": 763,
      "data": {
        "lissajous": 0,
        "external": 0
      },
      "pos": [
        56,
        1
      ]
    },
    {
      "id": 763,
      "plugin": "OrangeLine",
      "version": "1.3.3",
      "model": "Fence",
      "params": [
        {
          "id": 0,
          "value": -3.02999568
        },
        {
          "id": 1,
          "value": -2.08332825
        },
        {
          "id": 2,
          "value": 0.0
        },
        {
          "id": 3,
          "value": 0.0
        },
        {
          "id": 4,
          "value": 0.0
        },
        {
          "id": 5,
          "value": 0.0
        }
      ],
      "leftModuleId": 762,
      "rightModuleId": 768,
      "data": {
        "mode": 1.0,
        "rawLow": -10.0,
        "rawHigh": 10.0,
        "rawLink": 0.0,
        "rawStep": 9.99999975e-5,
        "qtzLow": -3.02999568,
        "qtzHigh": -2.08332825,
        "qtzLink": 1.0,
        "qtzStep": 0.0,
        "shprLow": -5.0,
        "shprHigh": 5.0,
        "shprLink": 0.0,
        "shprStep": 0.0,
        "lowClamped": 0.0,
        "highClamped": 0.0,
        "link": 1.0,
        "linkDelta": 0.946667433,
        "gate": 0.0,
        "style": 0.0
      },
      "pos": [
        69,
        1
      ]
    },
    {
      "id": 764,
      "plugin": "OrangeLine",
      "version": "1.3.3",
      "model": "Fence",
      "params": [
        {
          "id": 0,
          "value": -2.00999665
        },
        {
          "id": 1,
          "value": -1.06332922
        },
        {
          "id": 2,
          "value": 0.0
        },
        {
          "id": 3,
          "value": 0.0
        },
        {
          "id": 4,
          "value": 0.0
        },
        {
          "id": 5,
          "value": 0.0
        }
      ],
      "leftModuleId": 768,
      "rightModuleId": 769,
      "data": {
        "mode": 1.0,
        "rawLow": -10.0,
        "rawHigh": 10.0,
        "rawLink": 0.0,
        "rawStep": 9.99999975e-5,
        "qtzLow": -2.00999665,
        "qtzHigh": -1.06332922,
        "qtzLink": 1.0,
        "qtzStep": 0.0,
        "shprLow": -5.0,
        "shprHigh": 5.0,
        "shprLink": 0.0,
        "shprStep": 0.0,
        "lowClamped": 0.0,
        "highClamped": 0.0,
        "link": 1.0,
        "linkDelta": 0.946667433,
        "gate": 0.0,
        "style": 1.0
      },
      "pos": [
        83,
        1
      ]
    },
    {
      "id": 765,
      "plugin": "OrangeLine",
      "version": "1.3.3",
      "model": "Fence",
      "params": [
        {
          "id": 0,
          "value": -0.959997416
        },
        {
          "id": 1,
          "value": -0.0733299851
        },
        {
          "id": 2,
          "value": 0.0
        },
        {
          "id": 3,
          "value": 0.0
        },
        {
          "id": 4,
          "value": 0.0
        },
        {
          "id": 5,
          "value": 0.0
        }
      ],
      "leftModuleId": 769,
      "rightModuleId": 770,
      "data": {
        "mode": 1.0,
        "rawLow": -10.0,
        "rawHigh": 10.0,
        "rawLink": 0.0,
        "rawStep": 9.99999975e-5,
        "qtzLow": -0.959997416,
        "qtzHigh": -0.0733299851,
        "qtzLink": 1.0,
        "qtzStep": 0.0,
        "shprLow": -5.0,
        "shprHigh": 5.0,
        "shprLink": 0.0,
        "shprStep": 0.0,
        "lowClamped": 0.0,
        "highClamped": 0.0,
        "link": 1.0,
        "linkDelta": 0.88666743,
        "gate": 0.0,
        "style": 2.0
      },
      "pos": [
        97,
        1
      ]
    },
    {
      "id": 766,
      "plugin": "OrangeLine",
      "version": "1.3.3",
      "model": "Fence",
      "params": [
        {
          "id": 0,
          "value": 2.44379044e-6
        },
        {
          "id": 1,
          "value": 0.946669817
        },
        {
          "id": 2,
          "value": 0.0
        },
        {
          "id": 3,
          "value": 0.0
        },
        {
          "id": 4,
          "value": 0.0
        },
        {
          "id": 5,
          "value": 0.0
        }
      ],
      "leftModuleId": 770,
      "rightModuleId": 771,
      "data": {
        "mode": 1.0,
        "rawLow": -10.0,
        "rawHigh": 10.0,
        "rawLink": 0.0,
        "rawStep": 9.99999975e-5,
        "qtzLow": 2.44379044e-6,
        "qtzHigh": 0.946669817,
        "qtzLink": 1.0,
        "qtzStep": 0.0,
        "shprLow": -5.0,
        "shprHigh": 5.0,
        "shprLink": 0.0,
        "shprStep": 0.0,
        "lowClamped": 0.0,
        "highClamped": 0.0,
        "link": 1.0,
        "linkDelta": 0.946667373,
        "gate": 0.0,
        "style": 1.0
      },
      "pos": [
        111,
        1
      ]
    },
    {
      "id": 767,
      "plugin": "OrangeLine",
      "version": "1.3.3",
      "model": "Fence",
      "params": [
        {
          "id": 0,
          "value": 0.990002036
        },
        {
          "id": 1,
          "value": 1.93666935
        },
        {
          "id": 2,
          "value": 0.0
        },
        {
          "id": 3,
          "value": 0.0
        },
        {
          "id": 4,
          "value": 0.0
        },
        {
          "id": 5,
          "value": 0.0
        }
      ],
      "leftModuleId": 771,
      "rightModuleId": 772,
      "data": {
        "mode": 1.0,
        "rawLow": -10.0,
        "rawHigh": 10.0,
        "rawLink": 0.0,
        "rawStep": 9.99999975e-5,
        "qtzLow": 0.990002036,
        "qtzHigh": 1.93666935,
        "qtzLink": 1.0,
        "qtzStep": 0.0,
        "shprLow": -5.0,
        "shprHigh": 5.0,
        "shprLink": 0.0,
        "shprStep": 0.0,
        "lowClamped": 0.0,
        "highClamped": 0.0,
        "link": 1.0,
        "linkDelta": 0.946667373,
        "gate": 0.0,
        "style": 0.0
      },
      "pos": [
        125,
        1
      ]
    },
    {
      "id": 768,
      "plugin": "ML_modules",
      "version": "1.1.3",
      "model": "Quantum",
      "params": [
        {
          "id": 0,
          "value": 0.0
        },
        {
          "id": 1,
          "value": 0.0
        },
        {
          "id": 2,
          "value": 0.0
        },
        {
          "id": 3,
          "value": 0.0
        },
        {
          "id": 4,
          "value": 0.0
        },
        {
          "id": 5,
          "value": 0.0
        },
        {
          "id": 6,
          "value": 0.0
        },
        {
          "id": 7,
          "value": 0.0
        },
        {
          "id": 8,
          "value": 0.0
        },
        {
          "id": 9,
          "value": 0.0
        },
        {
          "id": 10,
          "value": 0.0
        },
        {
          "id": 11,
          "value": 0.0
        }
      ],
      "leftModuleId": 763,
      "rightModuleId": 764,
      "data": {
        "scale": [
          1,
          0,
          0,
          0,
          0,
          0,
          0,
          1,
          0,
          0,
          0,
          0
        ],
        "mode": 1,
        "transpose_select": 1,
        "toggle_mode": 0
      },
      "pos": [
        75,
        1
      ]
    },
    {
      "id": 769,
      "plugin": "ML_modules",
      "version": "1.1.3",
      "model": "Quantum",
      "params": [
        {
          "id": 0,
          "value": 0.0
        },
        {
          "id": 1,
          "value": 0.0
        },
        {
          "id": 2,
          "value": 0.0
        },
        {
          "id": 3,
          "value": 0.0
        },
        {
          "id": 4,
          "value": 0.0
        },
        {
          "id": 5,
          "value": 0.0
        },
        {
          "id": 6,
          "value": 0.0
        },
        {
          "id": 7,
          "value": 0.0
        },
        {
          "id": 8,
          "value": 0.0
        },
        {
          "id": 9,
          "value": 0.0
        },
        {
          "id": 10,
          "value": 0.0
        },
        {
          "id": 11,
          "value": 0.0
        }
      ],
      "leftModuleId": 764,
      "rightModuleId": 765,
      "data": {
        "scale": [
          0,
          0,
          1,
          0,
          0,
          0,
          0,
          0,
          0,
          1,
          0,
          0
        ],
        "mode": 1,
        "transpose_select": 1,
        "toggle_mode": 0
      },
      "pos": [
        89,
        1
      ]
    },
    {
      "id": 770,
      "plugin": "ML_modules",
      "version": "1.1.3",
      "model": "Quantum",
      "params": [
        {
          "id": 0,
          "value": 0.0
        },
        {
          "id": 1,
          "value": 0.0
        },
        {
          "id": 2,
          "value": 0.0
        },
        {
          "id": 3,
          "value": 0.0
        },
        {
          "id": 4,
          "value": 0.0
        },
        {
          "id": 5,
          "value": 0.0
        },
        {
          "id": 6,
          "value": 0.0
        },
        {
          "id": 7,
          "value": 0.0
        },
        {
          "id": 8,
          "value": 0.0
        },
        {
          "id": 9,
          "value": 0.0
        },
        {
          "id": 10,
          "value": 0.0
        },
        {
          "id": 11,
          "value": 0.0
        }
      ],
      "leftModuleId": 765,
      "rightModuleId": 766,
      "data": {
        "scale": [
          0,
          0,
          0,
          0,
          1,
          0,
          0,
          0,
          0,
          0,
          0,
          1
        ],
        "mode": 1,
        "transpose_select": 1,
        "toggle_mode": 0
      },
      "pos": [
        103,
        1
      ]
    },
    {
      "id": 771,
      "plugin": "ML_modules",
      "version": "1.1.3",
      "model": "Quantum",
      "params": [
        {
          "id": 0,
          "value": 0.0
        },
        {
          "id": 1,
          "value": 0.0
        },
        {
          "id": 2,
          "value": 0.0
        },
        {
          "id": 3,
          "value": 0.0
        },
        {
          "id": 4,
          "value": 0.0
        },
        {
          "id": 5,
          "value": 0.0
        },
        {
          "id": 6,
          "value": 0.0
        },
        {
          "id": 7,
          "value": 0.0
        },
        {
          "id": 8,
          "value": 0.0
        },
        {
          "id": 9,
          "value": 0.0
        },
        {
          "id": 10,
          "value": 0.0
        },
        {
          "id": 11,
          "value": 0.0
        }
      ],
      "leftModuleId": 766,
      "rightModuleId": 767,
      "data": {
        "scale": [
          0,
          0,
          0,
          0,
          0,
          0,
          1,
          0,
          0,
          0,
          0,
          0
        ],
        "mode": 1,
        "transpose_select": 1,
        "toggle_mode": 0
      },
      "pos": [
        117,
        1
      ]
    },
    {
      "id": 772,
      "plugin": "ML_modules",
      "version": "1.1.3",
      "model": "Quantum",
      "params": [
        {
          "id": 0,
          "value": 0.0
        },
        {
          "id": 1,
          "value": 0.0
        },
        {
          "id": 2,
          "value": 0.0
        },
        {
          "id": 3,
          "value": 0.0
        },
        {
          "id": 4,
          "value": 0.0
        },
        {
          "id": 5,
          "value": 0.0
        },
        {
          "id": 6,
          "value": 0.0
        },
        {
          "id": 7,
          "value": 0.0
        },
        {
          "id": 8,
          "value": 0.0
        },
        {
          "id": 9,
          "value": 0.0
        },
        {
          "id": 10,
          "value": 0.0
        },
        {
          "id": 11,
          "value": 0.0
        }
      ],
      "leftModuleId": 767,
      "rightModuleId": 399,
      "data": {
        "scale": [
          0,
          1,
          0,
          0,
          0,
          0,
          0,
          0,
          1,
          0,
          0,
          0
        ],
        "mode": 1,
        "transpose_select": 1,
        "toggle_mode": 0
      },
      "pos": [
        131,
        1
      ]
    },
    {
      "id": 773,
      "plugin": "Bogaudio",
      "version": "1.1.37",
      "model": "Bogaudio-Mult",
      "params": [],
      "leftModuleId": 760,
      "rightModuleId": 777,
      "data": {},
      "pos": [
        47,
        1
      ]
    },
    {
      "id": 775,
      "plugin": "Bogaudio",
      "version": "1.1.37",
      "model": "Bogaudio-Cmp",
      "params": [
        {
          "id": 0,
          "value": 0.0
        },
        {
          "id": 1,
          "value": -0.200000003
        },
        {
          "id": 2,
          "value": 0.5
        },
        {
          "id": 3,
          "value": 0.100000001
        },
        {
          "id": 4,
          "value": 0.0
        }
      ],
      "rightModuleId": 776,
      "data": {},
      "pos": [
        55,
        0
      ]
    },
    {
      "id": 776,
      "plugin": "Bogaudio",
      "version": "1.1.37",
      "model": "Bogaudio-Cmp",
      "params": [
        {
          "id": 0,
          "value": 0.0
        },
        {
          "id": 1,
          "value": -0.100000001
        },
        {
          "id": 2,
          "value": 0.5
        },
        {
          "id": 3,
          "value": 0.100000001
        },
        {
          "id": 4,
          "value": 0.0
        }
      ],
      "leftModuleId": 775,
      "rightModuleId": 779,
      "data": {},
      "pos": [
        61,
        0
      ]
    },
    {
      "id": 777,
      "plugin": "Bogaudio",
      "version": "1.1.37",
      "model": "Bogaudio-Mult",
      "params": [],
      "leftModuleId": 773,
      "rightModuleId": 787,
      "data": {},
      "pos": [
        50,
        1
      ]
    },
    {
      "id": 779,
      "plugin": "Bogaudio",
      "version": "1.1.37",
      "model": "Bogaudio-Bool",
      "params": [],
      "leftModuleId": 776,
      "rightModuleId": 780,
      "data": {},
      "pos": [
        67,
        0
      ]
    },
    {
      "id": 780,
      "plugin": "Bogaudio",
      "version": "1.1.37",
      "model": "Bogaudio-Cmp",
      "params": [
        {
          "id": 0,
          "value": 0.0
        },
        {
          "id": 1,
          "value": -0.100000001
        },
        {
          "id": 2,
          "value": 0.5
        },
        {
          "id": 3,
          "value": 0.100000001
        },
        {
          "id": 4,
          "value": 0.0
        }
      ],
      "leftModuleId": 779,
      "rightModuleId": 781,
      "data": {},
      "pos": [
        70,
        0
      ]
    },
    {
      "id": 781,
      "plugin": "Bogaudio",
      "version": "1.1.37",
      "model": "Bogaudio-Cmp",
      "params": [
        {
          "id": 0,
          "value": 0.0
        },
        {
          "id": 1,
          "value": 0.0
        },
        {
          "id": 2,
          "value": 0.5
        },
        {
          "id": 3,
          "value": 0.100000001
        },
        {
          "id": 4,
          "value": 0.0
        }
      ],
      "leftModuleId": 780,
      "rightModuleId": 782,
      "data": {},
      "pos": [
        76,
        0
      ]
    },
    {
      "id": 782,
      "plugin": "Bogaudio",
      "version": "1.1.37",
      "model": "Bogaudio-Bool",
      "params": [],
      "leftModuleId": 781,
      "rightModuleId": 783,
      "data": {},
      "pos": [
        82,
        0
      ]
    },
    {
      "id": 783,
      "plugin": "Bogaudio",
      "version": "1.1.37",
      "model": "Bogaudio-Cmp",
      "params": [
        {
          "id": 0,
          "value": 0.0
        },
        {
          "id": 1,
          "value": 0.0
        },
        {
          "id": 2,
          "value": 0.5
        },
        {
          "id": 3,
          "value": 0.100000001
        },
        {
          "id": 4,
          "value": 0.0
        }
      ],
      "leftModuleId": 782,
      "rightModuleId": 784,
      "data": {},
      "pos": [
        85,
        0
      ]
    },
    {
      "id": 784,
      "plugin": "Bogaudio",
      "version": "1.1.37",
      "model": "Bogaudio-Cmp",
      "params": [
        {
          "id": 0,
          "value": 0.0
        },
        {
          "id": 1,
          "value": 0.100000001
        },
        {
          "id": 2,
          "value": 0.5
        },
        {
          "id": 3,
          "value": 0.100000001
        },
        {
          "id": 4,
          "value": 0.0
        }
      ],
      "leftModuleId": 783,
      "rightModuleId": 786,
      "data": {},
      "pos": [
        91,
        0
      ]
    },
    {
      "id": 786,
      "plugin": "Bogaudio",
      "version": "1.1.37",
      "model": "Bogaudio-Bool",
      "params": [],
      "leftModuleId": 784,
      "rightModuleId": 788,
      "data": {},
      "pos": [
        97,
        0
      ]
    },
    {
      "id": 787,
      "plugin": "Bogaudio",
      "version": "1.1.37",
      "model": "Bogaudio-Mult",
      "params": [],
      "leftModuleId": 777,
      "rightModuleId": 762,
      "data": {},
      "pos": [
        53,
        1
      ]
    },
    {
      "id": 788,
      "plugin": "Bogaudio",
      "version": "1.1.37",
      "model": "Bogaudio-Cmp",
      "params": [
        {
          "id": 0,
          "value": 0.0
        },
        {
          "id": 1,
          "value": 0.100000001
        },
        {
          "id": 2,
          "value": 0.5
        },
        {
          "id": 3,
          "value": 0.100000001
        },
        {
          "id": 4,
          "value": 0.0
        }
      ],
      "leftModuleId": 786,
      "rightModuleId": 789,
      "data": {},
      "pos": [
        100,
        0
      ]
    },
    {
      "id": 789,
      "plugin": "Bogaudio",
      "version": "1.1.37",
      "model": "Bogaudio-Cmp",
      "params": [
        {
          "id": 0,
          "value": 0.0
        },
        {
          "id": 1,
          "value": 0.200000003
        },
        {
          "id": 2,
          "value": 0.5
        },
        {
          "id": 3,
          "value": 0.100000001
        },
        {
          "id": 4,
          "value": 0.0
        }
      ],
      "leftModuleId": 788,
      "rightModuleId": 790,
      "data": {},
      "pos": [
        106,
        0
      ]
    },
    {
      "id": 790,
      "plugin": "Bogaudio",
      "version": "1.1.37",
      "model": "Bogaudio-Bool",
      "params": [],
      "leftModuleId": 789,
      "rightModuleId": 791,
      "data": {},
      "pos": [
        112,
        0
      ]
    },
    {
      "id": 791,
      "plugin": "Bogaudio",
      "version": "1.1.37",
      "model": "Bogaudio-Cmp",
      "params": [
        {
          "id": 0,
          "value": 0.0
        },
        {
          "id": 1,
          "value": 0.200000003
        },
        {
          "id": 2,
          "value": 0.5
        },
        {
          "id": 3,
          "value": 0.100000001
        },
        {
          "id": 4,
          "value": 0.0
        }
      ],
      "leftModuleId": 790,
      "rightModuleId": 792,
      "data": {},
      "pos": [
        115,
        0
      ]
    },
    {
      "id": 792,
      "plugin": "Bogaudio",
      "version": "1.1.37",
      "model": "Bogaudio-Cmp",
      "params": [
        {
          "id": 0,
          "value": 0.0
        },
        {
          "id": 1,
          "value": 0.300000012
        },
        {
          "id": 2,
          "value": 0.5
        },
        {
          "id": 3,
          "value": 0.100000001
        },
        {
          "id": 4,
          "value": 0.0
        }
      ],
      "leftModuleId": 791,
      "rightModuleId": 793,
      "data": {},
      "pos": [
        121,
        0
      ]
    },
    {
      "id": 793,
      "plugin": "Bogaudio",
      "version": "1.1.37",
      "model": "Bogaudio-Bool",
      "params": [],
      "leftModuleId": 792,
      "rightModuleId": 794,
      "data": {},
      "pos": [
        127,
        0
      ]
    },
    {
      "id": 794,
      "plugin": "Bogaudio",
      "version": "1.1.37",
      "model": "Bogaudio-Mute8",
      "params": [
        {
          "id": 0,
          "value": 0.0
        },
        {
          "id": 1,
          "value": 0.0
        },
        {
          "id": 2,
          "value": 0.0
        },
        {
          "id": 3,
          "value": 0.0
        },
        {
          "id": 4,
          "value": 0.0
        },
        {
          "id": 5,
          "value": 0.0
        },
        {
          "id": 6,
          "value": 0.0
        },
        {
          "id": 7,
          "value": 0.0
        }
      ],
      "leftModuleId": 793,
      "rightModuleId": 795,
      "data": {
        "latching_cvs": false
      },
      "pos": [
        130,
        0
      ]
    },
    {
      "id": 795,
      "plugin": "Fundamental",
      "version": "1.4.0",
      "model": "Unity",
      "params": [
        {
          "id": 0,
          "value": 0.0
        },
        {
          "id": 1,
          "value": 0.0
        }
      ],
      "leftModuleId": 794,
      "rightModuleId": 797,
      "data": {
        "merge": false
      },
      "pos": [
        140,
        0
      ]
    },
    {
      "id": 797,
      "plugin": "Bogaudio",
      "version": "1.1.37",
      "model": "Bogaudio-FMOp",
      "params": [
        {
          "id": 0,
          "value": 0.0
        },
        {
          "id": 1,
          "value": 0.0
        },
        {
          "id": 2,
          "value": 0.0989999995
        },
        {
          "id": 3,
          "value": 0.316229999
        },
        {
          "id": 4,
          "value": 0.761500061
        },
        {
          "id": 5,
          "value": 0.415230066
        },
        {
          "id": 6,
          "value": 0.0
        },
        {
          "id": 7,
          "value": 0.229499936
        },
        {
          "id": 8,
          "value": 1.0
        },
        {
          "id": 9,
          "value": 1.0
        },
        {
          "id": 10,
          "value": 0.0
        },
        {
          "id": 11,
          "value": 0.0
        }
      ],
      "leftModuleId": 795,
      "data": {
        "linearLevel": false,
        "antialias_feedback": true,
        "antialias_depth": true
      },
      "pos": [
        146,
        0
      ]
    },
    {
      "id": 798,
      "plugin": "Bogaudio",
      "version": "1.1.37",
      "model": "Bogaudio-LFO",
      "params": [
        {
          "id": 0,
          "value": -4.29000139
        },
        {
          "id": 1,
          "value": 0.0
        },
        {
          "id": 2,
          "value": 0.0
        },
        {
          "id": 3,
          "value": 0.0
        },
        {
          "id": 4,
          "value": 0.0
        },
        {
          "id": 5,
          "value": 1.0
        },
        {
          "id": 6,
          "value": 0.0
        }
      ],
      "leftModuleId": 761,
      "data": {
        "offset_cv_to_smoothing": false
      },
      "pos": [
        20,
        1
      ]
    }
  ],
  "cables": [
    {
      "id": 0,
      "outputModuleId": 576,
      "outputId": 3,
      "inputModuleId": 399,
      "inputId": 0,
      "color": "#c9b70e"
    },
    {
      "id": 1,
      "outputModuleId": 576,
      "outputId": 4,
      "inputModuleId": 399,
      "inputId": 1,
      "color": "#0c8e15"
    },
    {
      "id": 113,
      "outputModuleId": 761,
      "outputId": 0,
      "inputModuleId": 760,
      "inputId": 9,
      "color": "#c9b70e"
    },
    {
      "id": 116,
      "outputModuleId": 760,
      "outputId": 1,
      "inputModuleId": 773,
      "inputId": 0,
      "color": "#0986ad"
    },
    {
      "id": 117,
      "outputModuleId": 773,
      "outputId": 0,
      "inputModuleId": 763,
      "inputId": 4,
      "color": "#c9b70e"
    },
    {
      "id": 118,
      "outputModuleId": 773,
      "outputId": 1,
      "inputModuleId": 764,
      "inputId": 4,
      "color": "#0c8e15"
    },
    {
      "id": 119,
      "outputModuleId": 773,
      "outputId": 2,
      "inputModuleId": 765,
      "inputId": 4,
      "color": "#c91847"
    },
    {
      "id": 120,
      "outputModuleId": 773,
      "outputId": 3,
      "inputModuleId": 766,
      "inputId": 4,
      "color": "#0986ad"
    },
    {
      "id": 121,
      "outputModuleId": 773,
      "outputId": 4,
      "inputModuleId": 767,
      "inputId": 4,
      "color": "#c9b70e"
    },
    {
      "id": 122,
      "outputModuleId": 763,
      "outputId": 1,
      "inputModuleId": 768,
      "inputId": 0,
      "color": "#0c8e15"
    },
    {
      "id": 123,
      "outputModuleId": 764,
      "outputId": 1,
      "inputModuleId": 769,
      "inputId": 0,
      "color": "#c91847"
    },
    {
      "id": 124,
      "outputModuleId": 765,
      "outputId": 1,
      "inputModuleId": 770,
      "inputId": 0,
      "color": "#c9b70e"
    },
    {
      "id": 125,
      "outputModuleId": 766,
      "outputId": 1,
      "inputModuleId": 771,
      "inputId": 0,
      "color": "#0c8e15"
    },
    {
      "id": 126,
      "outputModuleId": 767,
      "outputId": 1,
      "inputModuleId": 772,
      "inputId": 0,
      "color": "#c91847"
    },
    {
      "id": 129,
      "outputModuleId": 773,
      "outputId": 5,
      "inputModuleId": 777,
      "inputId": 0,
      "color": "#0986ad"
    },
    {
      "id": 130,
      "outputModuleId": 777,
      "outputId": 0,
      "inputModuleId": 775,
      "inputId": 0,
      "color": "#c9b70e"
    },
    {
      "id": 132,
      "outputModuleId": 777,
      "outputId": 1,
      "inputModuleId": 776,
      "inputId": 0,
      "color": "#c91847"
    },
    {
      "id": 134,
      "outputModuleId": 775,
      "outputId": 0,
      "inputModuleId": 779,
      "inputId": 0,
      "color": "#c91847"
    },
    {
      "id": 135,
      "outputModuleId": 776,
      "outputId": 1,
      "inputModuleId": 779,
      "inputId": 1,
      "color": "#0986ad"
    },
    {
      "id": 136,
      "outputModuleId": 780,
      "outputId": 0,
      "inputModuleId": 782,
      "inputId": 0,
      "color": "#c9b70e"
    },
    {
      "id": 137,
      "outputModuleId": 781,
      "outputId": 1,
      "inputModuleId": 782,
      "inputId": 1,
      "color": "#0c8e15"
    },
    {
      "id": 138,
      "outputModuleId": 777,
      "outputId": 2,
      "inputModuleId": 780,
      "inputId": 0,
      "color": "#c91847"
    },
    {
      "id": 139,
      "outputModuleId": 777,
      "outputId": 3,
      "inputModuleId": 781,
      "inputId": 0,
      "color": "#0986ad"
    },
    {
      "id": 140,
      "outputModuleId": 783,
      "outputId": 0,
      "inputModuleId": 786,
      "inputId": 0,
      "color": "#c9b70e"
    },
    {
      "id": 141,
      "outputModuleId": 784,
      "outputId": 1,
      "inputModuleId": 786,
      "inputId": 1,
      "color": "#0c8e15"
    },
    {
      "id": 142,
      "outputModuleId": 777,
      "outputId": 4,
      "inputModuleId": 783,
      "inputId": 0,
      "color": "#c91847"
    },
    {
      "id": 114,
      "outputModuleId": 787,
      "outputId": 5,
      "inputModuleId": 762,
      "inputId": 0,
      "color": "#0c8e15"
    },
    {
      "id": 143,
      "outputModuleId": 777,
      "outputId": 5,
      "inputModuleId": 787,
      "inputId": 0,
      "color": "#0986ad"
    },
    {
      "id": 144,
      "outputModuleId": 787,
      "outputId": 0,
      "inputModuleId": 784,
      "inputId": 0,
      "color": "#c9b70e"
    },
    {
      "id": 145,
      "outputModuleId": 788,
      "outputId": 0,
      "inputModuleId": 790,
      "inputId": 0,
      "color": "#0c8e15"
    },
    {
      "id": 146,
      "outputModuleId": 789,
      "outputId": 1,
      "inputModuleId": 790,
      "inputId": 1,
      "color": "#c91847"
    },
    {
      "id": 147,
      "outputModuleId": 787,
      "outputId": 1,
      "inputModuleId": 788,
      "inputId": 0,
      "color": "#0986ad"
    },
    {
      "id": 148,
      "outputModuleId": 787,
      "outputId": 2,
      "inputModuleId": 789,
      "inputId": 0,
      "color": "#c9b70e"
    },
    {
      "id": 149,
      "outputModuleId": 792,
      "outputId": 1,
      "inputModuleId": 793,
      "inputId": 1,
      "color": "#0c8e15"
    },
    {
      "id": 150,
      "outputModuleId": 791,
      "outputId": 0,
      "inputModuleId": 793,
      "inputId": 0,
      "color": "#c91847"
    },
    {
      "id": 151,
      "outputModuleId": 787,
      "outputId": 3,
      "inputModuleId": 791,
      "inputId": 0,
      "color": "#0986ad"
    },
    {
      "id": 152,
      "outputModuleId": 787,
      "outputId": 4,
      "inputModuleId": 792,
      "inputId": 0,
      "color": "#c9b70e"
    },
    {
      "id": 153,
      "outputModuleId": 768,
      "outputId": 0,
      "inputModuleId": 794,
      "inputId": 0,
      "color": "#0c8e15"
    },
    {
      "id": 154,
      "outputModuleId": 769,
      "outputId": 0,
      "inputModuleId": 794,
      "inputId": 1,
      "color": "#c91847"
    },
    {
      "id": 155,
      "outputModuleId": 770,
      "outputId": 0,
      "inputModuleId": 794,
      "inputId": 2,
      "color": "#0986ad"
    },
    {
      "id": 156,
      "outputModuleId": 771,
      "outputId": 0,
      "inputModuleId": 794,
      "inputId": 3,
      "color": "#c9b70e"
    },
    {
      "id": 157,
      "outputModuleId": 772,
      "outputId": 0,
      "inputModuleId": 794,
      "inputId": 4,
      "color": "#0c8e15"
    },
    {
      "id": 159,
      "outputModuleId": 782,
      "outputId": 3,
      "inputModuleId": 794,
      "inputId": 9,
      "color": "#0986ad"
    },
    {
      "id": 158,
      "outputModuleId": 779,
      "outputId": 3,
      "inputModuleId": 794,
      "inputId": 8,
      "color": "#c91847"
    },
    {
      "id": 163,
      "outputModuleId": 779,
      "outputId": 0,
      "inputModuleId": 779,
      "inputId": 2,
      "color": "#0986ad"
    },
    {
      "id": 164,
      "outputModuleId": 782,
      "outputId": 0,
      "inputModuleId": 782,
      "inputId": 2,
      "color": "#c9b70e"
    },
    {
      "id": 160,
      "outputModuleId": 786,
      "outputId": 3,
      "inputModuleId": 794,
      "inputId": 10,
      "color": "#c9b70e"
    },
    {
      "id": 165,
      "outputModuleId": 786,
      "outputId": 0,
      "inputModuleId": 786,
      "inputId": 2,
      "color": "#0c8e15"
    },
    {
      "id": 161,
      "outputModuleId": 790,
      "outputId": 3,
      "inputModuleId": 794,
      "inputId": 11,
      "color": "#0c8e15"
    },
    {
      "id": 166,
      "outputModuleId": 790,
      "outputId": 0,
      "inputModuleId": 790,
      "inputId": 2,
      "color": "#c91847"
    },
    {
      "id": 162,
      "outputModuleId": 793,
      "outputId": 3,
      "inputModuleId": 794,
      "inputId": 12,
      "color": "#c91847"
    },
    {
      "id": 167,
      "outputModuleId": 793,
      "outputId": 0,
      "inputModuleId": 793,
      "inputId": 2,
      "color": "#0986ad"
    },
    {
      "id": 168,
      "outputModuleId": 794,
      "outputId": 0,
      "inputModuleId": 795,
      "inputId": 0,
      "color": "#c9b70e"
    },
    {
      "id": 170,
      "outputModuleId": 794,
      "outputId": 2,
      "inputModuleId": 795,
      "inputId": 4,
      "color": "#c91847"
    },
    {
      "id": 171,
      "outputModuleId": 794,
      "outputId": 3,
      "inputModuleId": 795,
      "inputId": 1,
      "color": "#0986ad"
    },
    {
      "id": 172,
      "outputModuleId": 794,
      "outputId": 4,
      "inputModuleId": 795,
      "inputId": 3,
      "color": "#c9b70e"
    },
    {
      "id": 176,
      "outputModuleId": 797,
      "outputId": 0,
      "inputModuleId": 576,
      "inputId": 0,
      "color": "#c9b70e"
    },
    {
      "id": 177,
      "outputModuleId": 761,
      "outputId": 1,
      "inputModuleId": 797,
      "inputId": 5,
      "color": "#0c8e15"
    },
    {
      "id": 169,
      "outputModuleId": 794,
      "outputId": 1,
      "inputModuleId": 795,
      "inputId": 2,
      "color": "#0c8e15"
    },
    {
      "id": 175,
      "outputModuleId": 795,
      "outputId": 0,
      "inputModuleId": 797,
      "inputId": 4,
      "color": "#0986ad"
    },
    {
      "id": 178,
      "outputModuleId": 798,
      "outputId": 3,
      "inputModuleId": 760,
      "inputId": 1,
      "color": "#c91847"
    }
  ]
}