{
  "version": "1.1.6",
  "modules": [
    {
      "id": 1,
      "plugin": "Core",
      "version": "1.1.6",
      "model": "AudioInterface",
      "params": [],
      "leftModuleId": 67,
      "rightModuleId": 20,
      "data": {
        "audio": {
          "driver": 5,
          "deviceName": "Apple Inc.: Built-in Output",
          "offset": 0,
          "maxChannels": 8,
          "sampleRate": 44100,
          "blockSize": 256
        }
      },
      "pos": [
        51,
        1
      ]
    },
    {
      "id": 7,
      "plugin": "Fundamental",
      "version": "1.4.0",
      "model": "Scope",
      "params": [
        {
          "id": 0,
          "value": 0.0
        },
        {
          "id": 1,
          "value": 0.0
        },
        {
          "id": 2,
          "value": 0.0
        },
        {
          "id": 3,
          "value": 0.0
        },
        {
          "id": 4,
          "value": 12.5149899
        },
        {
          "id": 5,
          "value": 0.0
        },
        {
          "id": 6,
          "value": 0.0
        },
        {
          "id": 7,
          "value": 0.0
        }
      ],
      "rightModuleId": 11,
      "data": {
        "lissajous": 0,
        "external": 0
      },
      "pos": [
        0,
        1
      ]
    },
    {
      "id": 11,
      "plugin": "Fundamental",
      "version": "1.4.0",
      "model": "VCMixer",
      "params": [
        {
          "id": 0,
          "value": 1.0
        },
        {
          "id": 1,
          "value": 1.0
        },
        {
          "id": 2,
          "value": 1.0
        },
        {
          "id": 3,
          "value": 1.0
        },
        {
          "id": 4,
          "value": 1.0
        }
      ],
      "leftModuleId": 7,
      "rightModuleId": 55,
      "pos": [
        13,
        1
      ]
    },
    {
      "id": 20,
      "plugin": "Core",
      "version": "1.1.6",
      "model": "Notes",
      "params": [],
      "leftModuleId": 1,
      "text": "Turn on the clock",
      "pos": [
        61,
        1
      ]
    },
    {
      "id": 41,
      "plugin": "VultModulesFree",
      "version": "1.14",
      "model": "Trummor",
      "params": [
        {
          "id": 0,
          "value": 1.0
        },
        {
          "id": 1,
          "value": 0.0404999964
        },
        {
          "id": 2,
          "value": 0.0
        },
        {
          "id": 3,
          "value": 0.367999911
        },
        {
          "id": 4,
          "value": 0.596999884
        },
        {
          "id": 5,
          "value": 0.0
        },
        {
          "id": 6,
          "value": 0.0500000007
        },
        {
          "id": 7,
          "value": 0.0254999977
        },
        {
          "id": 8,
          "value": 0.0
        },
        {
          "id": 9,
          "value": 0.5
        },
        {
          "id": 10,
          "value": 0.0
        },
        {
          "id": 11,
          "value": -0.699999988
        },
        {
          "id": 12,
          "value": 0.0
        },
        {
          "id": 13,
          "value": 0.0
        },
        {
          "id": 14,
          "value": 0.0
        },
        {
          "id": 15,
          "value": 0.0
        },
        {
          "id": 16,
          "value": 0.26099968
        },
        {
          "id": 17,
          "value": 0.552000165
        },
        {
          "id": 18,
          "value": 0.0
        },
        {
          "id": 19,
          "value": 0.0
        },
        {
          "id": 20,
          "value": 0.0
        }
      ],
      "rightModuleId": 49,
      "pos": [
        0,
        2
      ]
    },
    {
      "id": 44,
      "plugin": "JW-Modules",
      "version": "1.0.21",
      "model": "SimpleClock",
      "params": [
        {
          "id": 0,
          "value": 2.8360014
        },
        {
          "id": 1,
          "value": 0.0
        },
        {
          "id": 2,
          "value": -2.0
        },
        {
          "id": 3,
          "value": 0.0
        }
      ],
      "rightModuleId": 58,
      "data": {
        "clockMult": 1,
        "running": false
      },
      "pos": [
        0,
        0
      ]
    },
    {
      "id": 46,
      "plugin": "Bogaudio",
      "version": "1.1.35",
      "model": "Bogaudio-SampleHold",
      "params": [
        {
          "id": 0,
          "value": 0.0
        },
        {
          "id": 1,
          "value": 0.0
        },
        {
          "id": 2,
          "value": 0.0
        },
        {
          "id": 3,
          "value": 0.0
        },
        {
          "id": 4,
          "value": 0.0
        },
        {
          "id": 5,
          "value": 0.0
        }
      ],
      "leftModuleId": 47,
      "rightModuleId": 74,
      "data": {
        "poly_input": 0,
        "noise_type": 0,
        "range_offset": 1.0,
        "range_scale": 5.0
      },
      "pos": [
        10,
        0
      ]
    },
    {
      "id": 47,
      "plugin": "Fundamental",
      "version": "1.4.0",
      "model": "Noise",
      "params": [],
      "leftModuleId": 58,
      "rightModuleId": 46,
      "pos": [
        7,
        0
      ]
    },
    {
      "id": 48,
      "plugin": "VultModulesFree",
      "version": "1.14",
      "model": "Trummor",
      "params": [
        {
          "id": 0,
          "value": 0.178000048
        },
        {
          "id": 1,
          "value": 0.330000043
        },
        {
          "id": 2,
          "value": 0.0
        },
        {
          "id": 3,
          "value": 0.367999911
        },
        {
          "id": 4,
          "value": 0.596999884
        },
        {
          "id": 5,
          "value": 0.0
        },
        {
          "id": 6,
          "value": 0.0500000007
        },
        {
          "id": 7,
          "value": 0.24899976
        },
        {
          "id": 8,
          "value": 0.241199702
        },
        {
          "id": 9,
          "value": -0.38199994
        },
        {
          "id": 10,
          "value": 0.0
        },
        {
          "id": 11,
          "value": 0.506000042
        },
        {
          "id": 12,
          "value": 0.0
        },
        {
          "id": 13,
          "value": 0.0
        },
        {
          "id": 14,
          "value": 0.0
        },
        {
          "id": 15,
          "value": 1.0
        },
        {
          "id": 16,
          "value": 0.11099983
        },
        {
          "id": 17,
          "value": 0.0
        },
        {
          "id": 18,
          "value": 0.0
        },
        {
          "id": 19,
          "value": 0.0
        },
        {
          "id": 20,
          "value": 0.0
        }
      ],
      "rightModuleId": 52,
      "pos": [
        0,
        3
      ]
    },
    {
      "id": 49,
      "plugin": "AudibleInstruments",
      "version": "1.5.0",
      "model": "Braids",
      "params": [
        {
          "id": 0,
          "value": 0.0
        },
        {
          "id": 1,
          "value": -1.0
        },
        {
          "id": 2,
          "value": 0.0
        },
        {
          "id": 3,
          "value": 0.5
        },
        {
          "id": 4,
          "value": 0.783000052
        },
        {
          "id": 5,
          "value": 0.696500003
        },
        {
          "id": 6,
          "value": 0.479498267
        }
      ],
      "leftModuleId": 41,
      "rightModuleId": 50,
      "data": {
        "settings": [
          22,
          0,
          0,
          0,
          0,
          0,
          0,
          0,
          0,
          0,
          0,
          0,
          0,
          0,
          0,
          0,
          0,
          0,
          0,
          0
        ],
        "lowCpu": false
      },
      "pos": [
        20,
        2
      ]
    },
    {
      "id": 50,
      "plugin": "Fundamental",
      "version": "1.4.0",
      "model": "ADSR",
      "params": [
        {
          "id": 0,
          "value": 0.0
        },
        {
          "id": 1,
          "value": 0.713000178
        },
        {
          "id": 2,
          "value": 0.0
        },
        {
          "id": 3,
          "value": 0.360499859
        }
      ],
      "leftModuleId": 49,
      "rightModuleId": 54,
      "pos": [
        36,
        2
      ]
    },
    {
      "id": 51,
      "plugin": "Bogaudio",
      "version": "1.1.35",
      "model": "Bogaudio-Bool",
      "params": [],
      "leftModuleId": 52,
      "rightModuleId": 60,
      "data": {},
      "pos": [
        30,
        3
      ]
    },
    {
      "id": 52,
      "plugin": "Fundamental",
      "version": "1.4.0",
      "model": "LFO",
      "params": [
        {
          "id": 0,
          "value": 1.0
        },
        {
          "id": 1,
          "value": 1.0
        },
        {
          "id": 2,
          "value": -0.970998585
        },
        {
          "id": 3,
          "value": 0.372000128
        },
        {
          "id": 4,
          "value": 0.0
        },
        {
          "id": 5,
          "value": 0.5
        },
        {
          "id": 6,
          "value": 0.0
        }
      ],
      "leftModuleId": 48,
      "rightModuleId": 51,
      "pos": [
        20,
        3
      ]
    },
    {
      "id": 53,
      "plugin": "AudibleInstruments",
      "version": "1.5.0",
      "model": "Clouds",
      "params": [
        {
          "id": 0,
          "value": 0.0
        },
        {
          "id": 1,
          "value": 0.0
        },
        {
          "id": 2,
          "value": 0.0
        },
        {
          "id": 3,
          "value": 0.71450007
        },
        {
          "id": 4,
          "value": 1.0
        },
        {
          "id": 5,
          "value": 0.0
        },
        {
          "id": 6,
          "value": 1.0
        },
        {
          "id": 7,
          "value": 0.896000564
        },
        {
          "id": 8,
          "value": 1.0
        },
        {
          "id": 9,
          "value": 0.466500044
        },
        {
          "id": 10,
          "value": 0.0
        },
        {
          "id": 11,
          "value": 0.0
        },
        {
          "id": 12,
          "value": 0.596499681
        }
      ],
      "leftModuleId": 54,
      "rightModuleId": 65,
      "data": {
        "playback": 0,
        "quality": 0,
        "blendMode": 3
      },
      "pos": [
        47,
        2
      ]
    },
    {
      "id": 54,
      "plugin": "Fundamental",
      "version": "1.4.0",
      "model": "VCA-1",
      "params": [
        {
          "id": 0,
          "value": 1.0
        },
        {
          "id": 1,
          "value": 1.0
        }
      ],
      "leftModuleId": 50,
      "rightModuleId": 53,
      "pos": [
        44,
        2
      ]
    },
    {
      "id": 55,
      "plugin": "Fundamental",
      "version": "1.4.0",
      "model": "VCMixer",
      "params": [
        {
          "id": 0,
          "value": 1.0
        },
        {
          "id": 1,
          "value": 1.0
        },
        {
          "id": 2,
          "value": 1.41421354
        },
        {
          "id": 3,
          "value": 1.0
        },
        {
          "id": 4,
          "value": 1.0
        }
      ],
      "leftModuleId": 11,
      "rightModuleId": 56,
      "pos": [
        23,
        1
      ]
    },
    {
      "id": 56,
      "plugin": "Fundamental",
      "version": "1.4.0",
      "model": "VCMixer",
      "params": [
        {
          "id": 0,
          "value": 1.0
        },
        {
          "id": 1,
          "value": 1.0
        },
        {
          "id": 2,
          "value": 1.41421354
        },
        {
          "id": 3,
          "value": 1.0
        },
        {
          "id": 4,
          "value": 1.0
        }
      ],
      "leftModuleId": 55,
      "rightModuleId": 67,
      "pos": [
        33,
        1
      ]
    },
    {
      "id": 58,
      "plugin": "Fundamental",
      "version": "1.4.0",
      "model": "Noise",
      "params": [],
      "leftModuleId": 44,
      "rightModuleId": 47,
      "pos": [
        4,
        0
      ]
    },
    {
      "id": 59,
      "plugin": "AudibleInstruments",
      "version": "1.5.0",
      "model": "Rings",
      "params": [
        {
          "id": 0,
          "value": 0.0
        },
        {
          "id": 1,
          "value": 0.0
        },
        {
          "id": 2,
          "value": 40.5300064
        },
        {
          "id": 3,
          "value": 0.801499903
        },
        {
          "id": 4,
          "value": 0.612499833
        },
        {
          "id": 5,
          "value": 0.5
        },
        {
          "id": 6,
          "value": 0.606500268
        },
        {
          "id": 7,
          "value": 0.0
        },
        {
          "id": 8,
          "value": 0.401999861
        },
        {
          "id": 9,
          "value": 0.371999949
        },
        {
          "id": 10,
          "value": 0.0
        },
        {
          "id": 11,
          "value": 0.270000011
        }
      ],
      "leftModuleId": 62,
      "rightModuleId": 64,
      "data": {
        "polyphony": 2,
        "model": 0,
        "easterEgg": false
      },
      "pos": [
        47,
        3
      ]
    },
    {
      "id": 60,
      "plugin": "Fundamental",
      "version": "1.4.0",
      "model": "Noise",
      "params": [],
      "leftModuleId": 51,
      "rightModuleId": 61,
      "pos": [
        33,
        3
      ]
    },
    {
      "id": 61,
      "plugin": "Bogaudio",
      "version": "1.1.35",
      "model": "Bogaudio-SampleHold",
      "params": [
        {
          "id": 0,
          "value": 0.0
        },
        {
          "id": 1,
          "value": 0.0
        },
        {
          "id": 2,
          "value": 0.0
        },
        {
          "id": 3,
          "value": 0.0
        },
        {
          "id": 4,
          "value": 0.0
        },
        {
          "id": 5,
          "value": 0.0
        }
      ],
      "leftModuleId": 60,
      "rightModuleId": 63,
      "data": {
        "poly_input": 0,
        "noise_type": 0,
        "range_offset": 1.0,
        "range_scale": 5.0
      },
      "pos": [
        36,
        3
      ]
    },
    {
      "id": 62,
      "plugin": "Fundamental",
      "version": "1.4.0",
      "model": "Quantizer",
      "params": [],
      "leftModuleId": 63,
      "rightModuleId": 59,
      "data": {
        "enabledNotes": [
          true,
          true,
          false,
          true,
          false,
          true,
          true,
          true,
          true,
          false,
          true,
          false
        ]
      },
      "pos": [
        44,
        3
      ]
    },
    {
      "id": 63,
      "plugin": "Fundamental",
      "version": "1.4.0",
      "model": "VCA",
      "params": [
        {
          "id": 0,
          "value": 0.634000063
        },
        {
          "id": 1,
          "value": 1.0
        }
      ],
      "leftModuleId": 61,
      "rightModuleId": 62,
      "pos": [
        39,
        3
      ]
    },
    {
      "id": 64,
      "plugin": "AudibleInstruments",
      "version": "1.5.0",
      "model": "Clouds",
      "params": [
        {
          "id": 0,
          "value": 0.0
        },
        {
          "id": 1,
          "value": 0.0
        },
        {
          "id": 2,
          "value": 0.0
        },
        {
          "id": 3,
          "value": 0.71450007
        },
        {
          "id": 4,
          "value": 1.0
        },
        {
          "id": 5,
          "value": 0.0
        },
        {
          "id": 6,
          "value": 1.0
        },
        {
          "id": 7,
          "value": 0.896000564
        },
        {
          "id": 8,
          "value": 1.0
        },
        {
          "id": 9,
          "value": 0.466500044
        },
        {
          "id": 10,
          "value": 0.0
        },
        {
          "id": 11,
          "value": 0.0
        },
        {
          "id": 12,
          "value": 0.596499681
        }
      ],
      "leftModuleId": 59,
      "data": {
        "playback": 0,
        "quality": 0,
        "blendMode": 3
      },
      "pos": [
        61,
        3
      ]
    },
    {
      "id": 65,
      "plugin": "Fundamental",
      "version": "1.4.0",
      "model": "LFO",
      "params": [
        {
          "id": 0,
          "value": 1.0
        },
        {
          "id": 1,
          "value": 1.0
        },
        {
          "id": 2,
          "value": 2.1879952
        },
        {
          "id": 3,
          "value": 0.3525002
        },
        {
          "id": 4,
          "value": 0.0
        },
        {
          "id": 5,
          "value": 0.5
        },
        {
          "id": 6,
          "value": 0.0
        }
      ],
      "leftModuleId": 53,
      "rightModuleId": 66,
      "pos": [
        65,
        2
      ]
    },
    {
      "id": 66,
      "plugin": "Fundamental",
      "version": "1.4.0",
      "model": "LFO",
      "params": [
        {
          "id": 0,
          "value": 0.0
        },
        {
          "id": 1,
          "value": 1.0
        },
        {
          "id": 2,
          "value": -1.37600744
        },
        {
          "id": 3,
          "value": 0.0
        },
        {
          "id": 4,
          "value": 0.0
        },
        {
          "id": 5,
          "value": 0.5
        },
        {
          "id": 6,
          "value": 0.0
        }
      ],
      "leftModuleId": 65,
      "pos": [
        75,
        2
      ]
    },
    {
      "id": 67,
      "plugin": "Fundamental",
      "version": "1.4.0",
      "model": "Mutes",
      "params": [
        {
          "id": 0,
          "value": 0.0
        },
        {
          "id": 1,
          "value": 0.0
        },
        {
          "id": 2,
          "value": 0.0
        },
        {
          "id": 3,
          "value": 0.0
        },
        {
          "id": 4,
          "value": 0.0
        },
        {
          "id": 5,
          "value": 0.0
        },
        {
          "id": 6,
          "value": 0.0
        },
        {
          "id": 7,
          "value": 0.0
        },
        {
          "id": 8,
          "value": 0.0
        },
        {
          "id": 9,
          "value": 0.0
        }
      ],
      "leftModuleId": 56,
      "rightModuleId": 1,
      "data": {
        "states": [
          true,
          true,
          true,
          true,
          true,
          true,
          true,
          true,
          true,
          true
        ]
      },
      "pos": [
        43,
        1
      ]
    },
    {
      "id": 68,
      "plugin": "Fundamental",
      "version": "1.4.0",
      "model": "Delay",
      "params": [
        {
          "id": 0,
          "value": 0.453500181
        },
        {
          "id": 1,
          "value": 0.38650015
        },
        {
          "id": 2,
          "value": 0.682499826
        },
        {
          "id": 3,
          "value": 0.0
        }
      ],
      "leftModuleId": 71,
      "rightModuleId": 73,
      "pos": [
        32,
        0
      ]
    },
    {
      "id": 70,
      "plugin": "Fundamental",
      "version": "1.4.0",
      "model": "LFO2",
      "params": [
        {
          "id": 0,
          "value": 1.0
        },
        {
          "id": 1,
          "value": 1.0
        },
        {
          "id": 2,
          "value": -1.0789969
        },
        {
          "id": 3,
          "value": 1.5
        },
        {
          "id": 4,
          "value": 0.5
        }
      ],
      "leftModuleId": 74,
      "rightModuleId": 71,
      "pos": [
        21,
        0
      ]
    },
    {
      "id": 71,
      "plugin": "Fundamental",
      "version": "1.4.0",
      "model": "VCA",
      "params": [
        {
          "id": 0,
          "value": 0.305499524
        },
        {
          "id": 1,
          "value": 0.511000335
        }
      ],
      "leftModuleId": 70,
      "rightModuleId": 68,
      "pos": [
        27,
        0
      ]
    },
    {
      "id": 72,
      "plugin": "Fundamental",
      "version": "1.4.0",
      "model": "LFO",
      "params": [
        {
          "id": 0,
          "value": 1.0
        },
        {
          "id": 1,
          "value": 1.0
        },
        {
          "id": 2,
          "value": -2.94200301
        },
        {
          "id": 3,
          "value": 0.0
        },
        {
          "id": 4,
          "value": 0.0
        },
        {
          "id": 5,
          "value": 0.179540068
        },
        {
          "id": 6,
          "value": 0.0
        }
      ],
      "leftModuleId": 73,
      "rightModuleId": 75,
      "pos": [
        43,
        0
      ]
    },
    {
      "id": 73,
      "plugin": "Bogaudio",
      "version": "1.1.35",
      "model": "Bogaudio-Slew",
      "params": [
        {
          "id": 0,
          "value": 0.316229999
        },
        {
          "id": 1,
          "value": 0.0
        },
        {
          "id": 2,
          "value": 0.316229999
        },
        {
          "id": 3,
          "value": 0.0
        }
      ],
      "leftModuleId": 68,
      "rightModuleId": 72,
      "data": {},
      "pos": [
        40,
        0
      ]
    },
    {
      "id": 74,
      "plugin": "Fundamental",
      "version": "1.4.0",
      "model": "ADSR",
      "params": [
        {
          "id": 0,
          "value": 0.079500027
        },
        {
          "id": 1,
          "value": 0.565999985
        },
        {
          "id": 2,
          "value": 0.0
        },
        {
          "id": 3,
          "value": 0.5
        }
      ],
      "leftModuleId": 46,
      "rightModuleId": 70,
      "pos": [
        13,
        0
      ]
    },
    {
      "id": 75,
      "plugin": "Fundamental",
      "version": "1.4.0",
      "model": "VCO2",
      "params": [
        {
          "id": 0,
          "value": 1.0
        },
        {
          "id": 1,
          "value": 1.0
        },
        {
          "id": 2,
          "value": -24.1379986
        },
        {
          "id": 3,
          "value": 1.5
        },
        {
          "id": 4,
          "value": 0.0
        }
      ],
      "leftModuleId": 72,
      "pos": [
        53,
        0
      ]
    }
  ],
  "cables": [
    {
      "id": 14,
      "outputModuleId": 41,
      "outputId": 0,
      "inputModuleId": 11,
      "inputId": 1,
      "color": "#c9b70e"
    },
    {
      "id": 20,
      "outputModuleId": 46,
      "outputId": 1,
      "inputModuleId": 41,
      "inputId": 3,
      "color": "#0986ad"
    },
    {
      "id": 23,
      "outputModuleId": 47,
      "outputId": 0,
      "inputModuleId": 46,
      "inputId": 3,
      "color": "#c91847"
    },
    {
      "id": 24,
      "outputModuleId": 44,
      "outputId": 2,
      "inputModuleId": 41,
      "inputId": 0,
      "color": "#c9b70e"
    },
    {
      "id": 28,
      "outputModuleId": 48,
      "outputId": 0,
      "inputModuleId": 11,
      "inputId": 2,
      "color": "#0c8e15"
    },
    {
      "id": 29,
      "outputModuleId": 44,
      "outputId": 3,
      "inputModuleId": 48,
      "inputId": 0,
      "color": "#0986ad"
    },
    {
      "id": 30,
      "outputModuleId": 46,
      "outputId": 1,
      "inputModuleId": 49,
      "inputId": 1,
      "color": "#c9b70e"
    },
    {
      "id": 33,
      "outputModuleId": 44,
      "outputId": 0,
      "inputModuleId": 51,
      "inputId": 0,
      "color": "#0986ad"
    },
    {
      "id": 34,
      "outputModuleId": 52,
      "outputId": 3,
      "inputModuleId": 51,
      "inputId": 1,
      "color": "#c9b70e"
    },
    {
      "id": 35,
      "outputModuleId": 51,
      "outputId": 0,
      "inputModuleId": 50,
      "inputId": 4,
      "color": "#0c8e15"
    },
    {
      "id": 36,
      "outputModuleId": 46,
      "outputId": 1,
      "inputModuleId": 49,
      "inputId": 3,
      "color": "#c91847"
    },
    {
      "id": 32,
      "outputModuleId": 50,
      "outputId": 0,
      "inputModuleId": 54,
      "inputId": 0,
      "color": "#c91847"
    },
    {
      "id": 31,
      "outputModuleId": 49,
      "outputId": 0,
      "inputModuleId": 54,
      "inputId": 1,
      "color": "#0c8e15"
    },
    {
      "id": 37,
      "outputModuleId": 54,
      "outputId": 0,
      "inputModuleId": 53,
      "inputId": 6,
      "color": "#0986ad"
    },
    {
      "id": 38,
      "outputModuleId": 54,
      "outputId": 0,
      "inputModuleId": 53,
      "inputId": 7,
      "color": "#c9b70e"
    },
    {
      "id": 41,
      "outputModuleId": 55,
      "outputId": 0,
      "inputModuleId": 7,
      "inputId": 0,
      "color": "#c9b70e"
    },
    {
      "id": 42,
      "outputModuleId": 56,
      "outputId": 0,
      "inputModuleId": 7,
      "inputId": 1,
      "color": "#0c8e15"
    },
    {
      "id": 47,
      "outputModuleId": 53,
      "outputId": 0,
      "inputModuleId": 55,
      "inputId": 2,
      "color": "#0986ad"
    },
    {
      "id": 48,
      "outputModuleId": 53,
      "outputId": 1,
      "inputModuleId": 56,
      "inputId": 2,
      "color": "#c9b70e"
    },
    {
      "id": 49,
      "outputModuleId": 44,
      "outputId": 0,
      "inputModuleId": 46,
      "inputId": 0,
      "color": "#0c8e15"
    },
    {
      "id": 52,
      "outputModuleId": 58,
      "outputId": 0,
      "inputModuleId": 46,
      "inputId": 1,
      "color": "#c9b70e"
    },
    {
      "id": 51,
      "outputModuleId": 46,
      "outputId": 0,
      "inputModuleId": 53,
      "inputId": 4,
      "color": "#0986ad"
    },
    {
      "id": 53,
      "outputModuleId": 46,
      "outputId": 0,
      "inputModuleId": 53,
      "inputId": 8,
      "color": "#c91847"
    },
    {
      "id": 54,
      "outputModuleId": 52,
      "outputId": 1,
      "inputModuleId": 53,
      "inputId": 3,
      "color": "#0986ad"
    },
    {
      "id": 55,
      "outputModuleId": 60,
      "outputId": 0,
      "inputModuleId": 61,
      "inputId": 1,
      "color": "#c9b70e"
    },
    {
      "id": 25,
      "outputModuleId": 44,
      "outputId": 2,
      "inputModuleId": 46,
      "inputId": 2,
      "color": "#0c8e15"
    },
    {
      "id": 56,
      "outputModuleId": 44,
      "outputId": 2,
      "inputModuleId": 61,
      "inputId": 0,
      "color": "#0c8e15"
    },
    {
      "id": 59,
      "outputModuleId": 62,
      "outputId": 0,
      "inputModuleId": 59,
      "inputId": 6,
      "color": "#c9b70e"
    },
    {
      "id": 58,
      "outputModuleId": 61,
      "outputId": 0,
      "inputModuleId": 63,
      "inputId": 2,
      "color": "#0986ad"
    },
    {
      "id": 61,
      "outputModuleId": 63,
      "outputId": 0,
      "inputModuleId": 62,
      "inputId": 0,
      "color": "#c91847"
    },
    {
      "id": 63,
      "outputModuleId": 59,
      "outputId": 0,
      "inputModuleId": 64,
      "inputId": 6,
      "color": "#c9b70e"
    },
    {
      "id": 64,
      "outputModuleId": 59,
      "outputId": 1,
      "inputModuleId": 64,
      "inputId": 7,
      "color": "#0c8e15"
    },
    {
      "id": 65,
      "outputModuleId": 64,
      "outputId": 0,
      "inputModuleId": 55,
      "inputId": 3,
      "color": "#c91847"
    },
    {
      "id": 66,
      "outputModuleId": 64,
      "outputId": 1,
      "inputModuleId": 56,
      "inputId": 3,
      "color": "#0986ad"
    },
    {
      "id": 67,
      "outputModuleId": 65,
      "outputId": 0,
      "inputModuleId": 59,
      "inputId": 1,
      "color": "#c9b70e"
    },
    {
      "id": 68,
      "outputModuleId": 65,
      "outputId": 3,
      "inputModuleId": 59,
      "inputId": 4,
      "color": "#0c8e15"
    },
    {
      "id": 69,
      "outputModuleId": 66,
      "outputId": 0,
      "inputModuleId": 65,
      "inputId": 0,
      "color": "#c91847"
    },
    {
      "id": 70,
      "outputModuleId": 66,
      "outputId": 1,
      "inputModuleId": 64,
      "inputId": 9,
      "color": "#0986ad"
    },
    {
      "id": 73,
      "outputModuleId": 65,
      "outputId": 0,
      "inputModuleId": 52,
      "inputId": 0,
      "color": "#c91847"
    },
    {
      "id": 43,
      "outputModuleId": 55,
      "outputId": 0,
      "inputModuleId": 67,
      "inputId": 0,
      "color": "#0986ad"
    },
    {
      "id": 44,
      "outputModuleId": 56,
      "outputId": 0,
      "inputModuleId": 67,
      "inputId": 1,
      "color": "#c9b70e"
    },
    {
      "id": 74,
      "outputModuleId": 67,
      "outputId": 0,
      "inputModuleId": 1,
      "inputId": 0,
      "color": "#c9b70e"
    },
    {
      "id": 75,
      "outputModuleId": 67,
      "outputId": 1,
      "inputModuleId": 1,
      "inputId": 1,
      "color": "#0c8e15"
    },
    {
      "id": 76,
      "outputModuleId": 11,
      "outputId": 0,
      "inputModuleId": 68,
      "inputId": 4,
      "color": "#c91847"
    },
    {
      "id": 77,
      "outputModuleId": 68,
      "outputId": 0,
      "inputModuleId": 55,
      "inputId": 1,
      "color": "#0986ad"
    },
    {
      "id": 78,
      "outputModuleId": 68,
      "outputId": 0,
      "inputModuleId": 56,
      "inputId": 1,
      "color": "#c9b70e"
    },
    {
      "id": 81,
      "outputModuleId": 70,
      "outputId": 0,
      "inputModuleId": 71,
      "inputId": 5,
      "color": "#0986ad"
    },
    {
      "id": 82,
      "outputModuleId": 71,
      "outputId": 1,
      "inputModuleId": 68,
      "inputId": 1,
      "color": "#c9b70e"
    },
    {
      "id": 83,
      "outputModuleId": 72,
      "outputId": 3,
      "inputModuleId": 73,
      "inputId": 2,
      "color": "#0c8e15"
    },
    {
      "id": 84,
      "outputModuleId": 73,
      "outputId": 0,
      "inputModuleId": 68,
      "inputId": 3,
      "color": "#c91847"
    },
    {
      "id": 86,
      "outputModuleId": 44,
      "outputId": 4,
      "inputModuleId": 74,
      "inputId": 4,
      "color": "#c9b70e"
    },
    {
      "id": 87,
      "outputModuleId": 74,
      "outputId": 0,
      "inputModuleId": 68,
      "inputId": 0,
      "color": "#0c8e15"
    },
    {
      "id": 88,
      "outputModuleId": 75,
      "outputId": 0,
      "inputModuleId": 71,
      "inputId": 2,
      "color": "#c91847"
    },
    {
      "id": 89,
      "outputModuleId": 71,
      "outputId": 0,
      "inputModuleId": 68,
      "inputId": 2,
      "color": "#0986ad"
    }
  ]
}