{
  "version": "1.1.6",
  "modules": [
    {
      "id": 1,
      "plugin": "Core",
      "version": "1.1.6",
      "model": "AudioInterface",
      "params": [],
      "leftModuleId": 202,
      "data": {
        "audio": {
          "driver": 5,
          "deviceName": "Apple Inc.: Multi-Output Device",
          "offset": 0,
          "maxChannels": 8,
          "sampleRate": 44100,
          "blockSize": 256
        }
      },
      "pos": [
        55,
        0
      ]
    },
    {
      "id": 5,
      "plugin": "Core",
      "version": "1.1.6",
      "model": "MIDIToCVInterface",
      "params": [],
      "leftModuleId": 170,
      "rightModuleId": 187,
      "data": {
        "channels": 1,
        "polyMode": 0,
        "clockDivision": 24,
        "lastPitch": 8192,
        "lastMod": 0,
        "midi": {
          "driver": -11,
          "deviceName": "QWERTY keyboard (US)",
          "channel": -1
        }
      },
      "pos": [
        20,
        1
      ]
    },
    {
      "id": 20,
      "plugin": "Core",
      "version": "1.1.6",
      "model": "Notes",
      "params": [],
      "rightModuleId": 186,
      "text": "poop",
      "pos": [
        10,
        0
      ]
    },
    {
      "id": 170,
      "plugin": "Autodafe",
      "version": "1.0.1",
      "model": "BPMClock",
      "params": [
        {
          "id": 0,
          "value": 120.0
        },
        {
          "id": 1,
          "value": 0.0
        },
        {
          "id": 2,
          "value": 0.0
        },
        {
          "id": 3,
          "value": 0.0
        },
        {
          "id": 4,
          "value": 0.0
        }
      ],
      "rightModuleId": 5,
      "data": {
        "bpmint": 120,
        "bpmdec": 0
      },
      "pos": [
        10,
        1
      ]
    },
    {
      "id": 180,
      "plugin": "AS",
      "version": "1.0.4",
      "model": "Mixer8ch",
      "params": [
        {
          "id": 0,
          "value": 0.800000012
        },
        {
          "id": 1,
          "value": 0.800000012
        },
        {
          "id": 2,
          "value": 0.800000012
        },
        {
          "id": 3,
          "value": 0.800000012
        },
        {
          "id": 4,
          "value": 0.800000012
        },
        {
          "id": 5,
          "value": 0.800000012
        },
        {
          "id": 6,
          "value": 0.800000012
        },
        {
          "id": 7,
          "value": 0.800000012
        },
        {
          "id": 8,
          "value": 0.800000012
        },
        {
          "id": 9,
          "value": -1.0
        },
        {
          "id": 10,
          "value": 1.0
        },
        {
          "id": 11,
          "value": 0.0
        },
        {
          "id": 12,
          "value": 0.0
        },
        {
          "id": 13,
          "value": 0.0
        },
        {
          "id": 14,
          "value": 0.0
        },
        {
          "id": 15,
          "value": 0.0
        },
        {
          "id": 16,
          "value": 0.0
        },
        {
          "id": 17,
          "value": 0.0
        },
        {
          "id": 18,
          "value": 0.0
        },
        {
          "id": 19,
          "value": 0.0
        },
        {
          "id": 20,
          "value": 0.0
        },
        {
          "id": 21,
          "value": 0.0
        },
        {
          "id": 22,
          "value": 0.0
        },
        {
          "id": 23,
          "value": 0.0
        },
        {
          "id": 24,
          "value": 0.0
        },
        {
          "id": 25,
          "value": 0.0
        }
      ],
      "leftModuleId": 187,
      "rightModuleId": 203,
      "data": {
        "as_MixerMutes": [
          0,
          0,
          0,
          0,
          0,
          0,
          0,
          0,
          0
        ]
      },
      "pos": [
        33,
        1
      ]
    },
    {
      "id": 186,
      "plugin": "NYSTHI",
      "version": "1.0.17",
      "model": "PolyRecorder",
      "params": [
        {
          "id": 0,
          "value": 0.0
        },
        {
          "id": 1,
          "value": 0.0
        },
        {
          "id": 2,
          "value": 0.0
        }
      ],
      "leftModuleId": 20,
      "rightModuleId": 193,
      "data": {
        "wavebits": 9,
        "m_attenuation": 0.5,
        "m_raw_pcm_float": 0.0,
        "m_autoenumeratefiles": true,
        "m_must_consolidate": false,
        "m_separated_stems": true,
        "m_separated_stems_in_dir": true,
        "m_separated_stems_are_stereo": false,
        "m_use_start_as_startstop_toggle": true
      },
      "pos": [
        26,
        0
      ]
    },
    {
      "id": 187,
      "plugin": "Fundamental",
      "version": "1.4.0",
      "model": "Merge",
      "params": [],
      "leftModuleId": 5,
      "rightModuleId": 180,
      "data": {
        "channels": -1
      },
      "pos": [
        28,
        1
      ]
    },
    {
      "id": 193,
      "plugin": "Fundamental",
      "version": "1.4.0",
      "model": "Split",
      "params": [],
      "leftModuleId": 186,
      "rightModuleId": 195,
      "pos": [
        34,
        0
      ]
    },
    {
      "id": 195,
      "plugin": "AS",
      "version": "1.0.4",
      "model": "MonoVUmeter",
      "params": [],
      "leftModuleId": 193,
      "rightModuleId": 196,
      "pos": [
        39,
        0
      ]
    },
    {
      "id": 196,
      "plugin": "AS",
      "version": "1.0.4",
      "model": "MonoVUmeter",
      "params": [],
      "leftModuleId": 195,
      "rightModuleId": 197,
      "pos": [
        41,
        0
      ]
    },
    {
      "id": 197,
      "plugin": "AS",
      "version": "1.0.4",
      "model": "MonoVUmeter",
      "params": [],
      "leftModuleId": 196,
      "rightModuleId": 198,
      "pos": [
        43,
        0
      ]
    },
    {
      "id": 198,
      "plugin": "AS",
      "version": "1.0.4",
      "model": "MonoVUmeter",
      "params": [],
      "leftModuleId": 197,
      "rightModuleId": 199,
      "pos": [
        45,
        0
      ]
    },
    {
      "id": 199,
      "plugin": "AS",
      "version": "1.0.4",
      "model": "MonoVUmeter",
      "params": [],
      "leftModuleId": 198,
      "rightModuleId": 200,
      "pos": [
        47,
        0
      ]
    },
    {
      "id": 200,
      "plugin": "AS",
      "version": "1.0.4",
      "model": "MonoVUmeter",
      "params": [],
      "leftModuleId": 199,
      "rightModuleId": 201,
      "pos": [
        49,
        0
      ]
    },
    {
      "id": 201,
      "plugin": "AS",
      "version": "1.0.4",
      "model": "MonoVUmeter",
      "params": [],
      "leftModuleId": 200,
      "rightModuleId": 202,
      "pos": [
        51,
        0
      ]
    },
    {
      "id": 202,
      "plugin": "AS",
      "version": "1.0.4",
      "model": "MonoVUmeter",
      "params": [],
      "leftModuleId": 201,
      "rightModuleId": 1,
      "pos": [
        53,
        0
      ]
    },
    {
      "id": 203,
      "plugin": "JW-Modules",
      "version": "1.0.21",
      "model": "BlankPanel_MD",
      "params": [],
      "leftModuleId": 180,
      "pos": [
        59,
        1
      ]
    },
    {
      "id": 204,
      "plugin": "AudibleInstruments",
      "version": "1.5.0",
      "model": "Clouds",
      "params": [
        {
          "id": 0,
          "value": 0.0
        },
        {
          "id": 1,
          "value": 0.0
        },
        {
          "id": 2,
          "value": 0.0
        },
        {
          "id": 3,
          "value": 1.0
        },
        {
          "id": 4,
          "value": 0.85550034
        },
        {
          "id": 5,
          "value": 0.0
        },
        {
          "id": 6,
          "value": 0.999500036
        },
        {
          "id": 7,
          "value": 0.759499848
        },
        {
          "id": 8,
          "value": 1.0
        },
        {
          "id": 9,
          "value": 1.0
        },
        {
          "id": 10,
          "value": 0.468000144
        },
        {
          "id": 11,
          "value": 0.615001798
        },
        {
          "id": 12,
          "value": 0.358500034
        }
      ],
      "leftModuleId": 206,
      "data": {
        "playback": 0,
        "quality": 0,
        "blendMode": 2
      },
      "pos": [
        13,
        2
      ]
    },
    {
      "id": 206,
      "plugin": "NYSTHI",
      "version": "1.0.17",
      "model": "complexSimpler",
      "params": [
        {
          "id": 0,
          "value": 0.724000454
        },
        {
          "id": 1,
          "value": 0.0
        },
        {
          "id": 2,
          "value": 0.0
        },
        {
          "id": 3,
          "value": 0.0
        },
        {
          "id": 4,
          "value": 1.0
        },
        {
          "id": 5,
          "value": 0.0
        },
        {
          "id": 6,
          "value": 0.0
        },
        {
          "id": 7,
          "value": 1.0
        },
        {
          "id": 8,
          "value": 0.0
        },
        {
          "id": 9,
          "value": 0.0
        },
        {
          "id": 10,
          "value": 0.0
        },
        {
          "id": 11,
          "value": 1.0
        },
        {
          "id": 12,
          "value": 2.0
        },
        {
          "id": 13,
          "value": 0.0
        },
        {
          "id": 14,
          "value": 0.0
        },
        {
          "id": 15,
          "value": 0.0
        }
      ],
      "rightModuleId": 204,
      "data": {
        "PARAM_ONESHOT_value": 1.0,
        "m_busy_mode": false,
        "m_autoplay_on_load": true,
        "m_original_file_name": "/Users/andreyv/Music/Navy Red/Freesound Samples/40617__digifishmusic__kt-day-dry.wav",
        "m_gated": false,
        "m_cv_can_be_negative": false
      },
      "pos": [
        6,
        2
      ]
    },
    {
      "id": 209,
      "plugin": "RJModules",
      "version": "1.7.2",
      "model": "Chord",
      "params": [
        {
          "id": 0,
          "value": 48.0
        },
        {
          "id": 1,
          "value": 1.0
        }
      ],
      "pos": [
        36,
        2
      ]
    },
    {
      "id": 210,
      "plugin": "Fundamental",
      "version": "1.4.0",
      "model": "SequentialSwitch2",
      "params": [
        {
          "id": 0,
          "value": 0.0
        }
      ],
      "pos": [
        52,
        2
      ]
    },
    {
      "id": 211,
      "plugin": "Bogaudio",
      "version": "1.1.35",
      "model": "Bogaudio-Slew",
      "params": [
        {
          "id": 0,
          "value": 0.262230039
        },
        {
          "id": 1,
          "value": 0.257999957
        },
        {
          "id": 2,
          "value": 0.220230117
        },
        {
          "id": 3,
          "value": -0.302999943
        }
      ],
      "data": {},
      "pos": [
        48,
        2
      ]
    },
    {
      "id": 212,
      "plugin": "Bogaudio",
      "version": "1.1.35",
      "model": "Bogaudio-EightFO",
      "params": [
        {
          "id": 0,
          "value": -0.623999953
        },
        {
          "id": 1,
          "value": 3.0
        },
        {
          "id": 2,
          "value": 0.0
        },
        {
          "id": 3,
          "value": 0.0
        },
        {
          "id": 4,
          "value": 0.0
        },
        {
          "id": 5,
          "value": 0.0
        },
        {
          "id": 6,
          "value": 0.0
        },
        {
          "id": 7,
          "value": 0.0
        },
        {
          "id": 8,
          "value": 0.0
        },
        {
          "id": 9,
          "value": 0.0
        },
        {
          "id": 10,
          "value": 0.0
        },
        {
          "id": 11,
          "value": 0.0
        },
        {
          "id": 12,
          "value": 0.0
        },
        {
          "id": 13,
          "value": 1.0
        }
      ],
      "leftModuleId": 214,
      "data": {},
      "pos": [
        17,
        3
      ]
    },
    {
      "id": 213,
      "plugin": "AudibleInstruments",
      "version": "1.5.0",
      "model": "Veils",
      "params": [
        {
          "id": 0,
          "value": 1.0
        },
        {
          "id": 1,
          "value": 1.0
        },
        {
          "id": 2,
          "value": 1.0
        },
        {
          "id": 3,
          "value": 1.0
        },
        {
          "id": 4,
          "value": 0.798999965
        },
        {
          "id": 5,
          "value": 1.0
        },
        {
          "id": 6,
          "value": 1.0
        },
        {
          "id": 7,
          "value": 1.0
        }
      ],
      "rightModuleId": 215,
      "pos": [
        36,
        3
      ]
    },
    {
      "id": 214,
      "plugin": "Bogaudio",
      "version": "1.1.35",
      "model": "Bogaudio-EightFO",
      "params": [
        {
          "id": 0,
          "value": -2.43750048
        },
        {
          "id": 1,
          "value": 3.0
        },
        {
          "id": 2,
          "value": 0.0
        },
        {
          "id": 3,
          "value": 0.0
        },
        {
          "id": 4,
          "value": 0.0
        },
        {
          "id": 5,
          "value": 0.0
        },
        {
          "id": 6,
          "value": 0.0
        },
        {
          "id": 7,
          "value": 0.0
        },
        {
          "id": 8,
          "value": 0.0
        },
        {
          "id": 9,
          "value": 0.0
        },
        {
          "id": 10,
          "value": 0.0
        },
        {
          "id": 11,
          "value": 0.0
        },
        {
          "id": 12,
          "value": 0.0
        },
        {
          "id": 13,
          "value": 1.0
        }
      ],
      "rightModuleId": 212,
      "data": {},
      "pos": [
        0,
        3
      ]
    },
    {
      "id": 215,
      "plugin": "Fundamental",
      "version": "1.4.0",
      "model": "Scope",
      "params": [
        {
          "id": 0,
          "value": 0.0
        },
        {
          "id": 1,
          "value": 0.0
        },
        {
          "id": 2,
          "value": 0.0
        },
        {
          "id": 3,
          "value": 0.0
        },
        {
          "id": 4,
          "value": 8.314991
        },
        {
          "id": 5,
          "value": 0.0
        },
        {
          "id": 6,
          "value": 0.0
        },
        {
          "id": 7,
          "value": 0.0
        }
      ],
      "leftModuleId": 213,
      "data": {
        "lissajous": 0,
        "external": 0
      },
      "pos": [
        48,
        3
      ]
    },
    {
      "id": 216,
      "plugin": "Bogaudio",
      "version": "1.1.35",
      "model": "Bogaudio-Mult",
      "params": [],
      "data": {},
      "pos": [
        64,
        3
      ]
    }
  ],
  "cables": [
    {
      "id": 242,
      "outputModuleId": 180,
      "outputId": 0,
      "inputModuleId": 1,
      "inputId": 0,
      "color": "#0c8e15"
    },
    {
      "id": 243,
      "outputModuleId": 180,
      "outputId": 1,
      "inputModuleId": 1,
      "inputId": 1,
      "color": "#c91847"
    },
    {
      "id": 249,
      "outputModuleId": 180,
      "outputId": 2,
      "inputModuleId": 187,
      "inputId": 0,
      "color": "#c91847"
    },
    {
      "id": 250,
      "outputModuleId": 180,
      "outputId": 3,
      "inputModuleId": 187,
      "inputId": 1,
      "color": "#0986ad"
    },
    {
      "id": 251,
      "outputModuleId": 180,
      "outputId": 4,
      "inputModuleId": 187,
      "inputId": 2,
      "color": "#c9b70e"
    },
    {
      "id": 252,
      "outputModuleId": 180,
      "outputId": 5,
      "inputModuleId": 187,
      "inputId": 3,
      "color": "#0c8e15"
    },
    {
      "id": 253,
      "outputModuleId": 180,
      "outputId": 6,
      "inputModuleId": 187,
      "inputId": 4,
      "color": "#c91847"
    },
    {
      "id": 254,
      "outputModuleId": 180,
      "outputId": 7,
      "inputModuleId": 187,
      "inputId": 5,
      "color": "#0986ad"
    },
    {
      "id": 255,
      "outputModuleId": 180,
      "outputId": 8,
      "inputModuleId": 187,
      "inputId": 6,
      "color": "#c9b70e"
    },
    {
      "id": 256,
      "outputModuleId": 180,
      "outputId": 9,
      "inputModuleId": 187,
      "inputId": 7,
      "color": "#0c8e15"
    },
    {
      "id": 257,
      "outputModuleId": 187,
      "outputId": 0,
      "inputModuleId": 186,
      "inputId": 0,
      "color": "#c91847"
    },
    {
      "id": 260,
      "outputModuleId": 187,
      "outputId": 0,
      "inputModuleId": 193,
      "inputId": 0,
      "color": "#0986ad"
    },
    {
      "id": 270,
      "outputModuleId": 193,
      "outputId": 0,
      "inputModuleId": 195,
      "inputId": 0,
      "color": "#c91847"
    },
    {
      "id": 271,
      "outputModuleId": 193,
      "outputId": 1,
      "inputModuleId": 196,
      "inputId": 0,
      "color": "#0986ad"
    },
    {
      "id": 272,
      "outputModuleId": 193,
      "outputId": 2,
      "inputModuleId": 197,
      "inputId": 0,
      "color": "#c9b70e"
    },
    {
      "id": 273,
      "outputModuleId": 193,
      "outputId": 3,
      "inputModuleId": 198,
      "inputId": 0,
      "color": "#0c8e15"
    },
    {
      "id": 274,
      "outputModuleId": 193,
      "outputId": 4,
      "inputModuleId": 199,
      "inputId": 0,
      "color": "#c91847"
    },
    {
      "id": 275,
      "outputModuleId": 193,
      "outputId": 5,
      "inputModuleId": 200,
      "inputId": 0,
      "color": "#0986ad"
    },
    {
      "id": 276,
      "outputModuleId": 193,
      "outputId": 6,
      "inputModuleId": 201,
      "inputId": 0,
      "color": "#c9b70e"
    },
    {
      "id": 277,
      "outputModuleId": 193,
      "outputId": 7,
      "inputModuleId": 202,
      "inputId": 0,
      "color": "#0c8e15"
    },
    {
      "id": 278,
      "outputModuleId": 204,
      "outputId": 0,
      "inputModuleId": 180,
      "inputId": 1,
      "color": "#c9b70e"
    },
    {
      "id": 279,
      "outputModuleId": 204,
      "outputId": 1,
      "inputModuleId": 180,
      "inputId": 4,
      "color": "#0c8e15"
    },
    {
      "id": 280,
      "outputModuleId": 206,
      "outputId": 0,
      "inputModuleId": 204,
      "inputId": 6,
      "color": "#c91847"
    },
    {
      "id": 281,
      "outputModuleId": 206,
      "outputId": 1,
      "inputModuleId": 204,
      "inputId": 7,
      "color": "#0986ad"
    },
    {
      "id": 283,
      "outputModuleId": 209,
      "outputId": 0,
      "inputModuleId": 210,
      "inputId": 2,
      "color": "#0c8e15"
    },
    {
      "id": 284,
      "outputModuleId": 209,
      "outputId": 1,
      "inputModuleId": 210,
      "inputId": 3,
      "color": "#c91847"
    },
    {
      "id": 285,
      "outputModuleId": 209,
      "outputId": 2,
      "inputModuleId": 210,
      "inputId": 4,
      "color": "#0986ad"
    },
    {
      "id": 286,
      "outputModuleId": 209,
      "outputId": 3,
      "inputModuleId": 210,
      "inputId": 5,
      "color": "#0c8e15"
    },
    {
      "id": 288,
      "outputModuleId": 170,
      "outputId": 9,
      "inputModuleId": 210,
      "inputId": 0,
      "color": "#0986ad"
    },
    {
      "id": 287,
      "outputModuleId": 210,
      "outputId": 0,
      "inputModuleId": 211,
      "inputId": 2,
      "color": "#c91847"
    },
    {
      "id": 289,
      "outputModuleId": 211,
      "outputId": 0,
      "inputModuleId": 204,
      "inputId": 4,
      "color": "#c9b70e"
    },
    {
      "id": 290,
      "outputModuleId": 212,
      "outputId": 0,
      "inputModuleId": 213,
      "inputId": 0,
      "color": "#0c8e15"
    },
    {
      "id": 291,
      "outputModuleId": 213,
      "outputId": 0,
      "inputModuleId": 204,
      "inputId": 3,
      "color": "#c91847"
    },
    {
      "id": 292,
      "outputModuleId": 214,
      "outputId": 0,
      "inputModuleId": 213,
      "inputId": 4,
      "color": "#c9b70e"
    },
    {
      "id": 293,
      "outputModuleId": 212,
      "outputId": 1,
      "inputModuleId": 213,
      "inputId": 1,
      "color": "#0c8e15"
    },
    {
      "id": 295,
      "outputModuleId": 213,
      "outputId": 1,
      "inputModuleId": 204,
      "inputId": 8,
      "color": "#0986ad"
    },
    {
      "id": 296,
      "outputModuleId": 213,
      "outputId": 0,
      "inputModuleId": 215,
      "inputId": 0,
      "color": "#c9b70e"
    },
    {
      "id": 297,
      "outputModuleId": 213,
      "outputId": 1,
      "inputModuleId": 215,
      "inputId": 1,
      "color": "#0c8e15"
    },
    {
      "id": 298,
      "outputModuleId": 212,
      "outputId": 2,
      "inputModuleId": 213,
      "inputId": 2,
      "color": "#c91847"
    },
    {
      "id": 299,
      "outputModuleId": 214,
      "outputId": 5,
      "inputModuleId": 213,
      "inputId": 6,
      "color": "#0986ad"
    },
    {
      "id": 300,
      "outputModuleId": 213,
      "outputId": 2,
      "inputModuleId": 204,
      "inputId": 9,
      "color": "#c9b70e"
    },
    {
      "id": 301,
      "outputModuleId": 212,
      "outputId": 4,
      "inputModuleId": 213,
      "inputId": 3,
      "color": "#0c8e15"
    },
    {
      "id": 302,
      "outputModuleId": 213,
      "outputId": 3,
      "inputModuleId": 204,
      "inputId": 2,
      "color": "#c91847"
    },
    {
      "id": 303,
      "outputModuleId": 214,
      "outputId": 3,
      "inputModuleId": 213,
      "inputId": 7,
      "color": "#0986ad"
    },
    {
      "id": 294,
      "outputModuleId": 214,
      "outputId": 2,
      "inputModuleId": 213,
      "inputId": 5,
      "color": "#c91847"
    }
  ]
}