{
  "version": "1.1.6",
  "modules": [
    {
      "id": 399,
      "plugin": "Core",
      "version": "1.1.6",
      "model": "AudioInterface",
      "params": [],
      "rightModuleId": 440,
      "data": {
        "audio": {
          "driver": 5,
          "deviceName": "Apple Inc.: MAMA",
          "offset": 0,
          "maxChannels": 8,
          "sampleRate": 48000,
          "blockSize": 1024
        }
      },
      "pos": [
        98,
        4
      ]
    },
    {
      "id": 440,
      "plugin": "Stoermelder-P1",
      "version": "1.8.0",
      "model": "Mb",
      "params": [],
      "leftModuleId": 399,
      "data": {
        "mode": 1
      },
      "pos": [
        108,
        4
      ]
    },
    {
      "id": 925,
      "plugin": "SubmarineFree",
      "version": "1.1.10",
      "model": "EO-102",
      "params": [
        {
          "id": 0,
          "value": 0.0
        },
        {
          "id": 1,
          "value": 0.0
        },
        {
          "id": 2,
          "value": 0.0
        },
        {
          "id": 3,
          "value": 0.0
        },
        {
          "id": 4,
          "value": -10.0
        },
        {
          "id": 5,
          "value": -6.0
        },
        {
          "id": 6,
          "value": 0.155999959
        },
        {
          "id": 7,
          "value": 0.824499965
        },
        {
          "id": 8,
          "value": 0.200000003
        },
        {
          "id": 9,
          "value": 0.0
        },
        {
          "id": 10,
          "value": 1.0
        },
        {
          "id": 11,
          "value": 0.0
        },
        {
          "id": 12,
          "value": 0.0
        },
        {
          "id": 13,
          "value": 0.0
        },
        {
          "id": 14,
          "value": 1.0
        }
      ],
      "leftModuleId": 953,
      "rightModuleId": 932,
      "pos": [
        2,
        2
      ]
    },
    {
      "id": 928,
      "plugin": "SubmarineFree",
      "version": "1.1.10",
      "model": "SS-112",
      "params": [],
      "leftModuleId": 971,
      "rightModuleId": 930,
      "pos": [
        86,
        2
      ]
    },
    {
      "id": 930,
      "plugin": "SubmarineFree",
      "version": "1.1.10",
      "model": "SS-221",
      "params": [],
      "leftModuleId": 928,
      "rightModuleId": 981,
      "pos": [
        88,
        2
      ]
    },
    {
      "id": 931,
      "plugin": "SubmarineFree",
      "version": "1.1.10",
      "model": "WM-101",
      "params": [],
      "leftModuleId": 980,
      "rightModuleId": 971,
      "data": {
        "width": 150.0
      },
      "pos": [
        73,
        2
      ]
    },
    {
      "id": 932,
      "plugin": "SubmarineFree",
      "version": "1.1.10",
      "model": "LA-108",
      "params": [
        {
          "id": 0,
          "value": 0.0
        },
        {
          "id": 1,
          "value": 0.0
        },
        {
          "id": 2,
          "value": -14.0
        },
        {
          "id": 3,
          "value": 0.0
        },
        {
          "id": 4,
          "value": 1.0
        },
        {
          "id": 5,
          "value": 0.0
        },
        {
          "id": 6,
          "value": 0.0
        },
        {
          "id": 7,
          "value": 0.0
        },
        {
          "id": 8,
          "value": 1.0
        }
      ],
      "leftModuleId": 925,
      "rightModuleId": 972,
      "data": {
        "voltage0": 0.0,
        "voltage1": 10.0
      },
      "pos": [
        29,
        2
      ]
    },
    {
      "id": 953,
      "plugin": "SubmarineFree",
      "version": "1.1.10",
      "model": "TD-202",
      "params": [],
      "rightModuleId": 925,
      "data": {
        "text": "Test",
        "fg": "#ffffff",
        "bg": "#000000"
      },
      "pos": [
        0,
        2
      ]
    },
    {
      "id": 963,
      "plugin": "GlueTheGiant",
      "version": "1.1.3",
      "model": "BusDepot",
      "params": [
        {
          "id": 0,
          "value": 0.0
        },
        {
          "id": 1,
          "value": 1.0
        },
        {
          "id": 2,
          "value": 1.0
        },
        {
          "id": 3,
          "value": 26.0
        },
        {
          "id": 4,
          "value": 26.0
        }
      ],
      "leftModuleId": 970,
      "data": {
        "input_on": 1,
        "level_cv_filter": 1,
        "color_theme": 1,
        "fade_cv_mode": 0,
        "audition_depot": 0,
        "auditioned": 0,
        "temped": 0,
        "audition_mode": 0,
        "use_default_theme": 0
      },
      "pos": [
        104,
        2
      ]
    },
    {
      "id": 966,
      "plugin": "GlueTheGiant",
      "version": "1.1.3",
      "model": "BusRoute",
      "params": [
        {
          "id": 0,
          "value": 0.0
        },
        {
          "id": 1,
          "value": 0.0
        },
        {
          "id": 2,
          "value": 0.0
        },
        {
          "id": 3,
          "value": 0.0
        },
        {
          "id": 4,
          "value": 0.0
        },
        {
          "id": 5,
          "value": 0.0
        }
      ],
      "leftModuleId": 981,
      "rightModuleId": 970,
      "data": {
        "onau_1": 1,
        "onau_2": 1,
        "onau_3": 1,
        "auditioning": 0,
        "bus_audition1": 0,
        "bus_audition2": 0,
        "bus_audition3": 0,
        "temped1": 0,
        "temped2": 0,
        "temped3": 0,
        "color_theme": 1,
        "use_default_theme": 1
      },
      "pos": [
        95,
        2
      ]
    },
    {
      "id": 969,
      "plugin": "GlueTheGiant",
      "version": "1.1.3",
      "model": "GigBus",
      "params": [
        {
          "id": 0,
          "value": 0.0
        },
        {
          "id": 1,
          "value": 0.0
        },
        {
          "id": 2,
          "value": 0.0
        },
        {
          "id": 3,
          "value": 0.0
        },
        {
          "id": 4,
          "value": 1.0
        }
      ],
      "data": {
        "input_on": 1,
        "post_fades": 1,
        "gain": 1.0,
        "color_theme": 1,
        "use_default_theme": 1,
        "fade_in": 26.0,
        "fade_out": 26.0,
        "audition_mixer": 0,
        "auditioned": 0,
        "temped": 0
      },
      "pos": [
        0,
        0
      ]
    },
    {
      "id": 970,
      "plugin": "GlueTheGiant",
      "version": "1.1.3",
      "model": "Road",
      "params": [
        {
          "id": 0,
          "value": 0.0
        },
        {
          "id": 1,
          "value": 0.0
        },
        {
          "id": 2,
          "value": 0.0
        },
        {
          "id": 3,
          "value": 0.0
        },
        {
          "id": 4,
          "value": 0.0
        },
        {
          "id": 5,
          "value": 0.0
        }
      ],
      "leftModuleId": 966,
      "rightModuleId": 963,
      "data": {
        "onau_1": 1,
        "onau_2": 0,
        "onau_3": 0,
        "onau_4": 0,
        "onau_5": 0,
        "onau_6": 0,
        "auditioning": 0,
        "bus_audition1": 0,
        "bus_audition2": 0,
        "bus_audition3": 0,
        "bus_audition4": 0,
        "bus_audition5": 0,
        "bus_audition6": 0,
        "temped1": 0,
        "temped2": 0,
        "temped3": 0,
        "temped4": 0,
        "temped5": 0,
        "temped6": 0,
        "color_theme": 1,
        "use_default_theme": 1
      },
      "pos": [
        101,
        2
      ]
    },
    {
      "id": 971,
      "plugin": "Bogaudio",
      "version": "1.1.37",
      "model": "Bogaudio-Manual",
      "params": [
        {
          "id": 0,
          "value": 0.0
        }
      ],
      "leftModuleId": 931,
      "rightModuleId": 928,
      "data": {
        "triggerOnLoad": false,
        "shouldTriggerOnLoad": true,
        "output_scale": 1.0
      },
      "pos": [
        83,
        2
      ]
    },
    {
      "id": 972,
      "plugin": "NYSTHI",
      "version": "1.0.17",
      "model": "HotTuna",
      "params": [
        {
          "id": 0,
          "value": 0.0
        },
        {
          "id": 1,
          "value": 0.0
        },
        {
          "id": 2,
          "value": 0.0
        },
        {
          "id": 3,
          "value": 0.0
        },
        {
          "id": 4,
          "value": 0.0
        },
        {
          "id": 5,
          "value": 0.0
        }
      ],
      "bypass": true,
      "leftModuleId": 932,
      "rightModuleId": 975,
      "data": {
        "m_use_DOREMI": false,
        "m_low_power_mode": false,
        "m_use_bemolle": false
      },
      "pos": [
        49,
        2
      ]
    },
    {
      "id": 975,
      "plugin": "Ohmer",
      "version": "1.1.6",
      "model": "Metriks",
      "params": [
        {
          "id": 1,
          "value": 0.0
        },
        {
          "id": 2,
          "value": 0.0
        },
        {
          "id": 3,
          "value": 0.0
        }
      ],
      "bypass": true,
      "leftModuleId": 972,
      "rightModuleId": 976,
      "data": {
        "Theme": 5,
        "Mode": 0,
        "lastVMin": 99999.0,
        "lastVMax": -99999.0,
        "MtrxOptions": [
          0,
          0,
          0,
          0,
          0,
          0,
          0,
          0,
          0,
          0,
          0,
          0,
          0,
          0,
          0,
          0,
          17,
          0,
          0,
          0
        ]
      },
      "pos": [
        55,
        2
      ]
    },
    {
      "id": 976,
      "plugin": "Ohmer",
      "version": "1.1.6",
      "model": "KlokSpid",
      "params": [
        {
          "id": 1,
          "value": 0.0
        }
      ],
      "leftModuleId": 975,
      "rightModuleId": 980,
      "data": {
        "Theme": 5,
        "bipolarCV": true,
        "pulseDurationExt": 5,
        "outVoltage": 5.0,
        "defOutRatios": false,
        "out1Ratio": 9,
        "out2Ratio": 12,
        "out3Ratio": 13,
        "out4Ratio": 15,
        "jack4LFO": 0,
        "jack4LFObipolar": true,
        "transportTrig": false,
        "Ratio": 13,
        "BPM": 120,
        "runBPMOnInit": true
      },
      "pos": [
        63,
        2
      ]
    },
    {
      "id": 980,
      "plugin": "SubmarineFree",
      "version": "1.1.10",
      "model": "TD-202",
      "params": [],
      "leftModuleId": 976,
      "rightModuleId": 931,
      "data": {
        "text": "Util",
        "fg": "#ffffff",
        "bg": "#000000"
      },
      "pos": [
        71,
        2
      ]
    },
    {
      "id": 981,
      "plugin": "SubmarineFree",
      "version": "1.1.10",
      "model": "TD-202",
      "params": [],
      "leftModuleId": 930,
      "rightModuleId": 966,
      "data": {
        "text": "Mix",
        "fg": "#ffffff",
        "bg": "#000000"
      },
      "pos": [
        93,
        2
      ]
    },
    {
      "id": 984,
      "plugin": "NYSTHI",
      "version": "1.0.17",
      "model": "8AttackDecay",
      "params": [
        {
          "id": 0,
          "value": 0.0
        },
        {
          "id": 1,
          "value": 0.100000001
        },
        {
          "id": 2,
          "value": 0.0
        },
        {
          "id": 3,
          "value": 0.0
        },
        {
          "id": 4,
          "value": 0.0
        },
        {
          "id": 5,
          "value": 0.0
        },
        {
          "id": 6,
          "value": 0.0
        },
        {
          "id": 7,
          "value": 0.0
        },
        {
          "id": 8,
          "value": 0.0
        },
        {
          "id": 9,
          "value": 0.0
        },
        {
          "id": 10,
          "value": 0.0
        },
        {
          "id": 11,
          "value": 0.0
        },
        {
          "id": 12,
          "value": 1.0
        },
        {
          "id": 13,
          "value": 0.5
        },
        {
          "id": 14,
          "value": 1.0
        },
        {
          "id": 15,
          "value": 1.0
        },
        {
          "id": 16,
          "value": 1.0
        },
        {
          "id": 17,
          "value": 1.0
        },
        {
          "id": 18,
          "value": 1.0
        },
        {
          "id": 19,
          "value": 1.0
        },
        {
          "id": 20,
          "value": 1.0
        },
        {
          "id": 21,
          "value": 1.0
        },
        {
          "id": 22,
          "value": 0.0
        },
        {
          "id": 23,
          "value": 0.0
        },
        {
          "id": 24,
          "value": 0.0
        },
        {
          "id": 25,
          "value": 0.0
        },
        {
          "id": 26,
          "value": 0.0
        },
        {
          "id": 27,
          "value": 0.0
        },
        {
          "id": 28,
          "value": 0.0
        },
        {
          "id": 29,
          "value": 0.0
        },
        {
          "id": 30,
          "value": 0.0
        },
        {
          "id": 31,
          "value": 0.0
        },
        {
          "id": 32,
          "value": 0.0
        },
        {
          "id": 33,
          "value": 0.0
        },
        {
          "id": 34,
          "value": 0.0
        },
        {
          "id": 35,
          "value": 0.0
        },
        {
          "id": 36,
          "value": 0.0
        },
        {
          "id": 37,
          "value": 0.0
        },
        {
          "id": 38,
          "value": 0.0
        },
        {
          "id": 39,
          "value": 0.0
        },
        {
          "id": 40,
          "value": 0.0
        },
        {
          "id": 41,
          "value": 0.0
        },
        {
          "id": 42,
          "value": 0.0
        },
        {
          "id": 43,
          "value": 0.0
        },
        {
          "id": 44,
          "value": 0.0
        },
        {
          "id": 45,
          "value": 0.0
        },
        {
          "id": 46,
          "value": 0.0
        },
        {
          "id": 47,
          "value": 0.0
        },
        {
          "id": 48,
          "value": 0.0
        },
        {
          "id": 49,
          "value": 0.0
        },
        {
          "id": 50,
          "value": 0.100000001
        },
        {
          "id": 51,
          "value": 0.100000001
        },
        {
          "id": 52,
          "value": 0.100000001
        },
        {
          "id": 53,
          "value": 0.100000001
        },
        {
          "id": 54,
          "value": 0.100000001
        },
        {
          "id": 55,
          "value": 0.100000001
        },
        {
          "id": 56,
          "value": 0.100000001
        },
        {
          "id": 57,
          "value": 0.100000001
        },
        {
          "id": 58,
          "value": 0.0
        },
        {
          "id": 59,
          "value": 0.5
        },
        {
          "id": 60,
          "value": 0.5
        },
        {
          "id": 61,
          "value": 0.5
        },
        {
          "id": 62,
          "value": 0.5
        },
        {
          "id": 63,
          "value": 0.5
        },
        {
          "id": 64,
          "value": 0.5
        },
        {
          "id": 65,
          "value": 0.5
        },
        {
          "id": 66,
          "value": 0.5
        },
        {
          "id": 67,
          "value": 0.0
        }
      ],
      "leftModuleId": 1010,
      "rightModuleId": 1000,
      "data": {
        "m_looped0": false,
        "m_unitysummed0": false,
        "m_looped1": false,
        "m_unitysummed1": false,
        "m_looped2": false,
        "m_unitysummed2": false,
        "m_looped3": false,
        "m_unitysummed3": false,
        "m_looped4": false,
        "m_unitysummed4": false,
        "m_looped5": false,
        "m_unitysummed5": false,
        "m_looped6": false,
        "m_unitysummed6": false,
        "m_looped7": false,
        "m_unitysummed7": false
      },
      "pos": [
        2,
        1
      ]
    },
    {
      "id": 985,
      "plugin": "Valley",
      "version": "1.1.7",
      "model": "Plateau",
      "params": [
        {
          "id": 0,
          "value": 1.0
        },
        {
          "id": 1,
          "value": 0.5
        },
        {
          "id": 2,
          "value": 0.0
        },
        {
          "id": 3,
          "value": 10.0
        },
        {
          "id": 4,
          "value": 10.0
        },
        {
          "id": 5,
          "value": 0.5
        },
        {
          "id": 6,
          "value": 10.0
        },
        {
          "id": 7,
          "value": 0.549950004
        },
        {
          "id": 8,
          "value": 10.0
        },
        {
          "id": 9,
          "value": 10.0
        },
        {
          "id": 10,
          "value": 0.0
        },
        {
          "id": 11,
          "value": 0.5
        },
        {
          "id": 12,
          "value": 0.5
        },
        {
          "id": 13,
          "value": 0.0
        },
        {
          "id": 14,
          "value": 0.0
        },
        {
          "id": 15,
          "value": 0.0
        },
        {
          "id": 16,
          "value": 0.0
        },
        {
          "id": 17,
          "value": 0.0
        },
        {
          "id": 18,
          "value": 0.0
        },
        {
          "id": 19,
          "value": 0.0
        },
        {
          "id": 20,
          "value": 0.0
        },
        {
          "id": 21,
          "value": 0.0
        },
        {
          "id": 22,
          "value": 0.0
        },
        {
          "id": 23,
          "value": 0.0
        },
        {
          "id": 24,
          "value": 0.0
        },
        {
          "id": 25,
          "value": 0.0
        },
        {
          "id": 26,
          "value": 0.0
        },
        {
          "id": 27,
          "value": 0.0
        },
        {
          "id": 28,
          "value": 0.0
        },
        {
          "id": 29,
          "value": 0.0
        },
        {
          "id": 30,
          "value": 1.0
        }
      ],
      "leftModuleId": 999,
      "rightModuleId": 988,
      "data": {
        "frozen": false,
        "freezeToggle": false,
        "panelStyle": 0,
        "tuned": 0,
        "diffuseInput": 1,
        "preDelayCVSens": 0,
        "inputSensitivity": 0,
        "outputSaturation": 0
      },
      "pos": [
        84,
        3
      ]
    },
    {
      "id": 987,
      "plugin": "EricaCopies",
      "version": "1.0.4",
      "model": "FusionDelay",
      "params": [
        {
          "id": 0,
          "value": 1.0
        },
        {
          "id": 1,
          "value": 0.200000003
        },
        {
          "id": 2,
          "value": 0.800000012
        },
        {
          "id": 3,
          "value": 0.0
        },
        {
          "id": 4,
          "value": 0.800000012
        },
        {
          "id": 5,
          "value": 0.349999994
        },
        {
          "id": 6,
          "value": 0.899999976
        },
        {
          "id": 7,
          "value": 0.5
        },
        {
          "id": 8,
          "value": 0.5
        }
      ],
      "bypass": true,
      "leftModuleId": 989,
      "rightModuleId": 999,
      "pos": [
        62,
        3
      ]
    },
    {
      "id": 988,
      "plugin": "mscHack",
      "version": "1.0.2",
      "model": "PingPong_Widget",
      "params": [
        {
          "id": 0,
          "value": 0.0
        },
        {
          "id": 1,
          "value": 0.0
        },
        {
          "id": 2,
          "value": 0.0
        },
        {
          "id": 3,
          "value": 0.0
        },
        {
          "id": 4,
          "value": 0.0
        },
        {
          "id": 5,
          "value": 0.0
        },
        {
          "id": 6,
          "value": 0.0
        },
        {
          "id": 7,
          "value": 0.0
        },
        {
          "id": 8,
          "value": 0.0
        },
        {
          "id": 9,
          "value": 0.0
        },
        {
          "id": 10,
          "value": 0.0
        }
      ],
      "leftModuleId": 985,
      "rightModuleId": 998,
      "data": {
        "ReverseState": false
      },
      "pos": [
        96,
        3
      ]
    },
    {
      "id": 989,
      "plugin": "ChowDSP",
      "version": "1.4.0",
      "model": "ChowTape",
      "params": [
        {
          "id": 0,
          "value": 0.5
        },
        {
          "id": 1,
          "value": 0.5
        },
        {
          "id": 2,
          "value": 0.5
        }
      ],
      "bypass": true,
      "leftModuleId": 990,
      "rightModuleId": 987,
      "pos": [
        56,
        3
      ]
    },
    {
      "id": 990,
      "plugin": "VultModulesFree",
      "version": "1.14",
      "model": "Debriatus",
      "params": [
        {
          "id": 0,
          "value": 0.0
        },
        {
          "id": 1,
          "value": 0.0
        },
        {
          "id": 2,
          "value": 0.0
        },
        {
          "id": 3,
          "value": 0.0
        },
        {
          "id": 4,
          "value": 0.0
        },
        {
          "id": 5,
          "value": 0.0
        },
        {
          "id": 6,
          "value": 0.0
        },
        {
          "id": 7,
          "value": 0.0
        }
      ],
      "bypass": true,
      "leftModuleId": 991,
      "rightModuleId": 989,
      "pos": [
        46,
        3
      ]
    },
    {
      "id": 991,
      "plugin": "FLAG-Free",
      "version": "1.1.0",
      "model": "Electric-Ensemble",
      "params": [
        {
          "id": 0,
          "value": 0.5
        },
        {
          "id": 1,
          "value": 0.5
        },
        {
          "id": 2,
          "value": 0.5
        },
        {
          "id": 3,
          "value": 0.5
        },
        {
          "id": 4,
          "value": 0.5
        },
        {
          "id": 5,
          "value": 0.5
        },
        {
          "id": 6,
          "value": 0.5
        }
      ],
      "bypass": true,
      "leftModuleId": 992,
      "rightModuleId": 990,
      "pos": [
        38,
        3
      ]
    },
    {
      "id": 992,
      "plugin": "Hora-ProcessorsFree",
      "version": "1.0.3",
      "model": "Vacuum",
      "params": [
        {
          "id": 0,
          "value": 3.0
        },
        {
          "id": 1,
          "value": 44000.0
        },
        {
          "id": 2,
          "value": 0.5
        },
        {
          "id": 3,
          "value": 0.899999976
        }
      ],
      "bypass": true,
      "leftModuleId": 993,
      "rightModuleId": 991,
      "pos": [
        30,
        3
      ]
    },
    {
      "id": 993,
      "plugin": "Blamsoft-XFXDistortionPack",
      "version": "1.0.0",
      "model": "Blamsoft-XFXTube",
      "params": [
        {
          "id": 0,
          "value": 1.0
        },
        {
          "id": 1,
          "value": 0.5
        },
        {
          "id": 2,
          "value": 0.5
        },
        {
          "id": 3,
          "value": 0.5
        },
        {
          "id": 4,
          "value": 0.5
        },
        {
          "id": 5,
          "value": 1.0
        },
        {
          "id": 6,
          "value": 1.0
        },
        {
          "id": 7,
          "value": 0.0
        },
        {
          "id": 8,
          "value": 0.75
        },
        {
          "id": 9,
          "value": 0.0
        }
      ],
      "bypass": true,
      "leftModuleId": 994,
      "rightModuleId": 992,
      "pos": [
        20,
        3
      ]
    },
    {
      "id": 994,
      "plugin": "Valley",
      "version": "1.1.7",
      "model": "Amalgam",
      "params": [
        {
          "id": 0,
          "value": 1.0
        },
        {
          "id": 1,
          "value": 1.0
        },
        {
          "id": 2,
          "value": 0.0
        },
        {
          "id": 3,
          "value": 0.0
        },
        {
          "id": 4,
          "value": 0.0
        },
        {
          "id": 5,
          "value": 0.0
        },
        {
          "id": 6,
          "value": 0.0
        },
        {
          "id": 7,
          "value": 0.0
        },
        {
          "id": 8,
          "value": 0.0
        },
        {
          "id": 9,
          "value": 0.0
        },
        {
          "id": 10,
          "value": 0.0
        },
        {
          "id": 11,
          "value": 0.0
        },
        {
          "id": 12,
          "value": 0.0
        },
        {
          "id": 13,
          "value": 0.0
        }
      ],
      "bypass": true,
      "leftModuleId": 997,
      "rightModuleId": 993,
      "data": {
        "panelStyle": 0,
        "dcCoupled": 0
      },
      "pos": [
        10,
        3
      ]
    },
    {
      "id": 996,
      "plugin": "SubmarineFree",
      "version": "1.1.10",
      "model": "TD-202",
      "params": [],
      "rightModuleId": 997,
      "data": {
        "text": "FX",
        "fg": "#ffffff",
        "bg": "#000000"
      },
      "pos": [
        0,
        3
      ]
    },
    {
      "id": 997,
      "plugin": "mscHack",
      "version": "1.0.2",
      "model": "Compressor1",
      "params": [
        {
          "id": 0,
          "value": 1.0
        },
        {
          "id": 1,
          "value": 1.0
        },
        {
          "id": 2,
          "value": 0.0
        },
        {
          "id": 3,
          "value": 0.0
        },
        {
          "id": 4,
          "value": 0.0
        },
        {
          "id": 5,
          "value": 0.0
        },
        {
          "id": 6,
          "value": 0.0
        },
        {
          "id": 7,
          "value": 0.0
        }
      ],
      "bypass": true,
      "leftModuleId": 996,
      "rightModuleId": 994,
      "data": {
        "m_bBypass": false
      },
      "pos": [
        2,
        3
      ]
    },
    {
      "id": 998,
      "plugin": "Bogaudio",
      "version": "1.1.37",
      "model": "Bogaudio-Lmtr",
      "params": [
        {
          "id": 0,
          "value": 0.800000012
        },
        {
          "id": 1,
          "value": 0.0
        },
        {
          "id": 2,
          "value": 0.0
        }
      ],
      "leftModuleId": 988,
      "data": {
        "attack_ms": 150.0,
        "release_ms": 600.0,
        "threshold_range": 1.0
      },
      "pos": [
        104,
        3
      ]
    },
    {
      "id": 999,
      "plugin": "SubmarineFree",
      "version": "1.1.10",
      "model": "TD-202",
      "params": [],
      "leftModuleId": 987,
      "rightModuleId": 985,
      "data": {
        "text": "Master/Sends",
        "fg": "#ffffff",
        "bg": "#000000"
      },
      "pos": [
        82,
        3
      ]
    },
    {
      "id": 1000,
      "plugin": "CatroModulo",
      "version": "1.0.3",
      "model": "CatroModulo_CM-1",
      "params": [
        {
          "id": 0,
          "value": 0.0
        },
        {
          "id": 1,
          "value": 0.0
        },
        {
          "id": 2,
          "value": 0.0
        },
        {
          "id": 3,
          "value": 0.0
        },
        {
          "id": 4,
          "value": 0.0
        },
        {
          "id": 5,
          "value": 0.0
        },
        {
          "id": 6,
          "value": 0.0
        },
        {
          "id": 7,
          "value": 0.0
        },
        {
          "id": 8,
          "value": 0.5
        },
        {
          "id": 9,
          "value": 0.5
        },
        {
          "id": 10,
          "value": 0.5
        },
        {
          "id": 11,
          "value": 0.5
        },
        {
          "id": 12,
          "value": 0.5
        },
        {
          "id": 13,
          "value": 0.5
        },
        {
          "id": 14,
          "value": 0.5
        },
        {
          "id": 15,
          "value": 0.5
        },
        {
          "id": 16,
          "value": 0.5
        },
        {
          "id": 17,
          "value": 0.5
        },
        {
          "id": 18,
          "value": 0.5
        },
        {
          "id": 19,
          "value": 0.5
        },
        {
          "id": 20,
          "value": 0.5
        },
        {
          "id": 21,
          "value": 0.5
        },
        {
          "id": 22,
          "value": 0.5
        },
        {
          "id": 23,
          "value": 0.5
        },
        {
          "id": 24,
          "value": 0.5
        },
        {
          "id": 25,
          "value": 0.5
        },
        {
          "id": 26,
          "value": 0.5
        },
        {
          "id": 27,
          "value": 0.5
        },
        {
          "id": 28,
          "value": 0.5
        },
        {
          "id": 29,
          "value": 0.5
        },
        {
          "id": 30,
          "value": 0.5
        },
        {
          "id": 31,
          "value": 0.5
        },
        {
          "id": 32,
          "value": 0.0
        },
        {
          "id": 33,
          "value": 0.0
        },
        {
          "id": 34,
          "value": 0.0
        },
        {
          "id": 35,
          "value": 0.0
        }
      ],
      "leftModuleId": 984,
      "rightModuleId": 1001,
      "pos": [
        20,
        1
      ]
    },
    {
      "id": 1001,
      "plugin": "CatroModulo",
      "version": "1.0.3",
      "model": "CatroModulo_CM-2",
      "params": [
        {
          "id": 0,
          "value": 0.0
        },
        {
          "id": 1,
          "value": 0.0
        },
        {
          "id": 2,
          "value": 0.0
        },
        {
          "id": 3,
          "value": 0.0
        },
        {
          "id": 4,
          "value": 0.0
        },
        {
          "id": 5,
          "value": 0.0
        },
        {
          "id": 6,
          "value": 0.0
        },
        {
          "id": 7,
          "value": 0.0
        },
        {
          "id": 8,
          "value": 0.0
        },
        {
          "id": 9,
          "value": 0.0
        },
        {
          "id": 10,
          "value": 0.0
        },
        {
          "id": 11,
          "value": 0.0
        },
        {
          "id": 12,
          "value": 0.0
        },
        {
          "id": 13,
          "value": 0.0
        },
        {
          "id": 14,
          "value": 0.0
        },
        {
          "id": 15,
          "value": 0.0
        },
        {
          "id": 16,
          "value": 1.0
        }
      ],
      "leftModuleId": 1000,
      "rightModuleId": 1002,
      "pos": [
        39,
        1
      ]
    },
    {
      "id": 1002,
      "plugin": "Befaco",
      "version": "1.0.1",
      "model": "Rampage",
      "params": [
        {
          "id": 0,
          "value": 0.0
        },
        {
          "id": 1,
          "value": 0.0
        },
        {
          "id": 2,
          "value": 0.0
        },
        {
          "id": 3,
          "value": 0.0
        },
        {
          "id": 4,
          "value": 0.0
        },
        {
          "id": 5,
          "value": 0.0
        },
        {
          "id": 6,
          "value": 0.0
        },
        {
          "id": 7,
          "value": 0.0
        },
        {
          "id": 8,
          "value": 0.0
        },
        {
          "id": 9,
          "value": 0.0
        },
        {
          "id": 10,
          "value": 0.0
        },
        {
          "id": 11,
          "value": 0.0
        },
        {
          "id": 12,
          "value": 0.5
        }
      ],
      "leftModuleId": 1001,
      "rightModuleId": 1003,
      "pos": [
        50,
        1
      ]
    },
    {
      "id": 1003,
      "plugin": "AudibleInstruments",
      "version": "1.5.0",
      "model": "Stages",
      "params": [
        {
          "id": 0,
          "value": 0.5
        },
        {
          "id": 1,
          "value": 0.5
        },
        {
          "id": 2,
          "value": 0.5
        },
        {
          "id": 3,
          "value": 0.5
        },
        {
          "id": 4,
          "value": 0.5
        },
        {
          "id": 5,
          "value": 0.5
        },
        {
          "id": 6,
          "value": 0.0
        },
        {
          "id": 7,
          "value": 0.0
        },
        {
          "id": 8,
          "value": 0.0
        },
        {
          "id": 9,
          "value": 0.0
        },
        {
          "id": 10,
          "value": 0.0
        },
        {
          "id": 11,
          "value": 0.0
        },
        {
          "id": 12,
          "value": 0.5
        },
        {
          "id": 13,
          "value": 0.5
        },
        {
          "id": 14,
          "value": 0.5
        },
        {
          "id": 15,
          "value": 0.5
        },
        {
          "id": 16,
          "value": 0.5
        },
        {
          "id": 17,
          "value": 0.5
        }
      ],
      "bypass": true,
      "leftModuleId": 1002,
      "rightModuleId": 1012,
      "data": {
        "configurations": [
          {
            "type": 0,
            "loop": false
          },
          {
            "type": 0,
            "loop": false
          },
          {
            "type": 0,
            "loop": false
          },
          {
            "type": 0,
            "loop": false
          },
          {
            "type": 0,
            "loop": false
          },
          {
            "type": 0,
            "loop": false
          }
        ]
      },
      "pos": [
        68,
        1
      ]
    },
    {
      "id": 1007,
      "plugin": "Bogaudio",
      "version": "1.1.37",
      "model": "Bogaudio-EightOne",
      "params": [
        {
          "id": 0,
          "value": 8.0
        },
        {
          "id": 1,
          "value": 1.0
        },
        {
          "id": 2,
          "value": 0.0
        }
      ],
      "bypass": true,
      "leftModuleId": 1012,
      "rightModuleId": 1011,
      "data": {
        "poly_input": 8,
        "select_on_clock": false,
        "triggered_select": false,
        "reverse_on_negative_clock": false
      },
      "pos": [
        84,
        1
      ]
    },
    {
      "id": 1010,
      "plugin": "SubmarineFree",
      "version": "1.1.10",
      "model": "TD-202",
      "params": [],
      "rightModuleId": 984,
      "data": {
        "text": "Modulation",
        "fg": "#ffffff",
        "bg": "#000000"
      },
      "pos": [
        0,
        1
      ]
    },
    {
      "id": 1011,
      "plugin": "Bogaudio",
      "version": "1.1.37",
      "model": "Bogaudio-Pgmr",
      "params": [
        {
          "id": 0,
          "value": 1.0
        },
        {
          "id": 1,
          "value": 0.0
        },
        {
          "id": 2,
          "value": 0.0
        },
        {
          "id": 3,
          "value": 0.0
        },
        {
          "id": 4,
          "value": 0.0
        },
        {
          "id": 5,
          "value": 0.0
        },
        {
          "id": 6,
          "value": 0.0
        },
        {
          "id": 7,
          "value": 0.0
        },
        {
          "id": 8,
          "value": 0.0
        },
        {
          "id": 9,
          "value": 0.0
        },
        {
          "id": 10,
          "value": 0.0
        },
        {
          "id": 11,
          "value": 0.0
        },
        {
          "id": 12,
          "value": 0.0
        },
        {
          "id": 13,
          "value": 0.0
        },
        {
          "id": 14,
          "value": 0.0
        },
        {
          "id": 15,
          "value": 0.0
        },
        {
          "id": 16,
          "value": 0.0
        },
        {
          "id": 17,
          "value": 0.0
        },
        {
          "id": 18,
          "value": 0.0
        },
        {
          "id": 19,
          "value": 0.0
        },
        {
          "id": 20,
          "value": 0.0
        },
        {
          "id": 21,
          "value": 0.0
        }
      ],
      "bypass": true,
      "leftModuleId": 1007,
      "rightModuleId": 1015,
      "data": {
        "poly_input": 0,
        "select_on_clock": false,
        "triggered_select": false,
        "reverse_on_negative_clock": false,
        "range_offset": 0.0,
        "range_scale": 10.0,
        "SELECT_TRIGGERS": false
      },
      "pos": [
        90,
        1
      ]
    },
    {
      "id": 1012,
      "plugin": "SubmarineFree",
      "version": "1.1.10",
      "model": "TD-202",
      "params": [],
      "leftModuleId": 1003,
      "rightModuleId": 1007,
      "data": {
        "text": "Sequence",
        "fg": "#ffffff",
        "bg": "#000000"
      },
      "pos": [
        82,
        1
      ]
    },
    {
      "id": 1015,
      "plugin": "Bogaudio",
      "version": "1.1.37",
      "model": "Bogaudio-Slew",
      "params": [
        {
          "id": 0,
          "value": 0.316229999
        },
        {
          "id": 1,
          "value": 0.0
        },
        {
          "id": 2,
          "value": 0.316229999
        },
        {
          "id": 3,
          "value": 0.0
        },
        {
          "id": 4,
          "value": 0.0
        }
      ],
      "bypass": true,
      "leftModuleId": 1011,
      "rightModuleId": 1016,
      "data": {},
      "pos": [
        105,
        1
      ]
    },
    {
      "id": 1016,
      "plugin": "Mental",
      "version": "1.0.2",
      "model": "MentalMults",
      "params": [],
      "leftModuleId": 1015,
      "pos": [
        108,
        1
      ]
    }
  ],
  "cables": [
    {
      "id": 185,
      "outputModuleId": 969,
      "outputId": 0,
      "inputModuleId": 966,
      "inputId": 6,
      "color": "#c9184756"
    },
    {
      "id": 182,
      "outputModuleId": 966,
      "outputId": 6,
      "inputModuleId": 970,
      "inputId": 0,
      "color": "#c9184756"
    },
    {
      "id": 186,
      "outputModuleId": 970,
      "outputId": 0,
      "inputModuleId": 963,
      "inputId": 4,
      "color": "#c9184756"
    },
    {
      "id": 183,
      "outputModuleId": 963,
      "outputId": 0,
      "inputModuleId": 998,
      "inputId": 0,
      "color": "#c9184756"
    },
    {
      "id": 184,
      "outputModuleId": 963,
      "outputId": 1,
      "inputModuleId": 998,
      "inputId": 1,
      "color": "#c9184756"
    },
    {
      "id": 191,
      "outputModuleId": 998,
      "outputId": 0,
      "inputModuleId": 399,
      "inputId": 0,
      "color": "#c9184756"
    },
    {
      "id": 192,
      "outputModuleId": 998,
      "outputId": 1,
      "inputModuleId": 399,
      "inputId": 1,
      "color": "#c9184756"
    }
  ]
}